<?xml version="1.0" encoding="utf-8"?>
<!-- Generator: Adobe Illustrator 16.0.0, SVG Export Plug-In . SVG Version: 6.00 Build 0)  -->
<!DOCTYPE svg PUBLIC "-//W3C//DTD SVG 1.1//EN" "http://www.w3.org/Graphics/SVG/1.1/DTD/svg11.dtd">
<svg version="1.1" id="Layer_1" xmlns="http://www.w3.org/2000/svg" xmlns:xlink="http://www.w3.org/1999/xlink" x="0px" y="0px"
	 width="135px" height="39.08px" viewBox="0 0 135 39.08" enable-background="new 0 0 135 39.08" xml:space="preserve">
<g>
	<path fill="#FCA800" d="M132.924,39.08H2.076C0.93,39.08,0,38.15,0,37.004V25.631c0-1.146,0.93-2.076,2.076-2.076h130.848
		c1.146,0,2.076,0.93,2.076,2.076v11.373C135,38.15,134.07,39.08,132.924,39.08"/>
	<path fill="#FFFFFF" d="M7.812,35.74c-2.907,0-4.582-2.035-4.582-5.122s1.606-5.122,4.36-5.122c1.301,0,2.644,0.415,3.544,1.993
		l-2.063,0.817c-0.346-0.651-0.817-1.039-1.467-1.039c-1.177,0-2.063,1.066-2.063,3.351s1.052,3.35,2.505,3.35
		c0.845,0,1.744-0.318,2.478-0.913l0.872,1.537C10.581,35.311,9.238,35.74,7.812,35.74"/>
	<path fill="#FFFFFF" d="M19.204,31.088v4.514h-2.146v-4.14c0-0.803-0.346-1.314-0.997-1.314c-0.928,0-1.509,0.498-1.509,1.966
		v3.488h-2.146V25.095c0.374-0.166,0.775-0.291,1.149-0.291c0.636,0,0.997,0.415,0.997,0.997v3.696
		c0.582-0.762,1.371-1.039,2.201-1.039C18.304,28.458,19.204,29.428,19.204,31.088"/>
	<path fill="#FFFFFF" d="M26.082,33.581l0.845,1.342c-0.858,0.54-1.814,0.817-2.977,0.817c-2.201,0-3.502-1.287-3.502-3.475
		c0-2.382,1.37-3.807,3.709-3.807c1.759,0,2.783,0.886,2.783,2.339c0,1.398-1.288,2.229-3.433,2.229
		c-0.305,0-0.609-0.028-0.913-0.056c0.152,0.733,0.609,1.162,1.509,1.162C24.892,34.134,25.528,33.94,26.082,33.581 M22.552,31.767
		c0.318,0.028,0.637,0.042,0.928,0.042c0.886,0,1.384-0.332,1.384-0.914c0-0.471-0.333-0.775-0.914-0.775
		C23.175,30.119,22.663,30.729,22.552,31.767"/>
	<path fill="#FFFFFF" d="M35.065,31.088v4.514h-2.146v-4.14c0-0.803-0.346-1.314-0.997-1.314c-0.928,0-1.509,0.498-1.509,1.966
		v3.488h-2.146v-6.853c0.374-0.167,0.775-0.291,1.149-0.291c0.553,0,0.9,0.456,0.927,1.135c0.595-0.845,1.412-1.135,2.27-1.135
		C34.165,28.458,35.065,29.428,35.065,31.088"/>
	<path fill="#FFFFFF" d="M43.439,31.088v4.514h-2.146v-4.14c0-0.803-0.346-1.314-0.997-1.314c-0.927,0-1.509,0.498-1.509,1.966
		v3.488h-2.146v-6.853c0.374-0.167,0.775-0.291,1.149-0.291c0.554,0,0.9,0.456,0.928,1.135c0.595-0.845,1.412-1.135,2.27-1.135
		C42.539,28.458,43.439,29.428,43.439,31.088"/>
	<path fill="#FFFFFF" d="M50.927,31.088v4.36c-0.374,0.167-0.762,0.291-1.149,0.291c-0.54,0-0.886-0.442-0.927-1.079
		c-0.567,0.803-1.329,1.079-2.09,1.079c-1.398,0-2.243-0.816-2.243-2.146c0-1.468,1.232-2.325,3.405-2.325
		c0.277,0,0.568,0,0.859,0.014c-0.042-0.762-0.318-1.218-1.219-1.218c-0.609,0-1.232,0.193-1.786,0.553l-0.858-1.329
		c0.885-0.54,1.84-0.83,3.003-0.83C49.819,28.458,50.927,29.428,50.927,31.088 M48.781,32.515C48.49,32.5,48.227,32.5,47.979,32.5
		c-0.914,0-1.426,0.333-1.426,0.9c0,0.442,0.25,0.761,0.803,0.761C48.089,34.161,48.781,33.705,48.781,32.515"/>
	<path fill="#FFFFFF" d="M52.337,26.367c0-0.719,0.457-1.121,1.19-1.121c0.733,0,1.19,0.402,1.19,1.121
		c0,0.734-0.457,1.149-1.19,1.149C52.794,27.517,52.337,27.102,52.337,26.367 M52.476,35.602h2.146v-7.005h-2.146V35.602z"/>
	<path fill="#048028" d="M61.888,33.483h-3.641l-0.706,2.118h-2.146l3.599-9.814c0.387-0.194,0.789-0.292,1.177-0.292
		c0.72,0,1.26,0.374,1.564,1.219l3.239,8.888h-2.381L61.888,33.483z M61.321,31.767l-1.246-4.015l-1.26,4.015H61.321z"/>
	<path fill="#048028" d="M72.547,31.088v4.514H70.4v-4.14c0-0.803-0.346-1.314-0.996-1.314c-0.928,0-1.509,0.498-1.509,1.966v3.488
		h-2.146v-6.853c0.374-0.167,0.775-0.291,1.149-0.291c0.554,0,0.9,0.456,0.927,1.135c0.594-0.845,1.413-1.135,2.27-1.135
		C71.646,28.458,72.547,29.428,72.547,31.088"/>
	<path fill="#048028" d="M80.85,28.597v7.42c0,1.841-1.203,2.907-3.279,2.907c-1.287,0-2.313-0.277-3.281-0.817l0.857-1.343
		c0.639,0.36,1.385,0.554,2.064,0.554c1.162,0,1.494-0.623,1.494-1.688v-0.886c-0.596,0.747-1.398,0.996-2.215,0.996
		c-1.619,0-2.686-1.26-2.686-3.405c0-2.45,1.439-3.876,3.877-3.876C78.387,28.458,79.854,28.514,80.85,28.597 M78.705,30.064
		c-0.318-0.015-0.596-0.015-0.832-0.015c-1.162,0-1.896,0.845-1.896,2.284c0,1.08,0.471,1.717,1.316,1.717
		c0.83,0,1.412-0.499,1.412-1.951V30.064z"/>
	<path fill="#048028" d="M88.393,31.088v4.36c-0.373,0.167-0.76,0.291-1.148,0.291c-0.539,0-0.885-0.442-0.926-1.079
		c-0.568,0.803-1.33,1.079-2.092,1.079c-1.398,0-2.242-0.816-2.242-2.146c0-1.468,1.23-2.325,3.404-2.325
		c0.277,0,0.568,0,0.859,0.014c-0.041-0.762-0.318-1.218-1.219-1.218c-0.609,0-1.23,0.193-1.785,0.553l-0.857-1.329
		c0.885-0.54,1.84-0.83,3.002-0.83C87.285,28.458,88.393,29.428,88.393,31.088 M86.248,32.515C85.957,32.5,85.693,32.5,85.445,32.5
		c-0.914,0-1.426,0.333-1.426,0.9c0,0.442,0.248,0.761,0.803,0.761C85.555,34.161,86.248,33.705,86.248,32.515"/>
	<path fill="#048028" d="M96.67,25.8v9.648c-0.373,0.167-0.775,0.291-1.148,0.291c-0.541,0-0.887-0.457-0.928-1.093
		c-0.596,0.816-1.439,1.093-2.283,1.093c-1.621,0-2.688-1.26-2.688-3.405c0-2.45,1.439-3.876,3.877-3.876
		c0.264,0,0.623,0.015,1.023,0.027v-3.391c0.375-0.166,0.775-0.291,1.15-0.291C96.311,24.804,96.67,25.219,96.67,25.8
		 M94.523,30.064c-0.316-0.015-0.594-0.015-0.83-0.015c-1.162,0-1.896,0.845-1.896,2.284c0,1.08,0.471,1.717,1.316,1.717
		c0.83,0,1.41-0.484,1.41-1.951V30.064z"/>
	<path fill="#048028" d="M98.164,26.367c0-0.719,0.457-1.121,1.189-1.121c0.734,0,1.191,0.402,1.191,1.121
		c0,0.734-0.457,1.149-1.191,1.149C98.621,27.517,98.164,27.102,98.164,26.367 M98.303,35.602h2.146v-7.005h-2.146V35.602z"/>
	<path fill="#FFFFFF" d="M101.859,34.494c0-0.775,0.484-1.246,1.301-1.246c0.803,0,1.287,0.471,1.287,1.246
		s-0.484,1.246-1.287,1.246C102.344,35.74,101.859,35.27,101.859,34.494"/>
	<path fill="#FFFFFF" d="M109.1,35.74c-2.271,0-3.627-1.357-3.627-3.655c0-2.284,1.494-3.627,3.447-3.627
		c0.857,0,2.242,0.347,2.686,1.967l-1.564,0.623c-0.18-0.54-0.512-0.9-1.012-0.9c-0.871,0-1.383,0.72-1.383,1.938
		c0,1.232,0.623,1.952,1.633,1.952c0.65,0,1.398-0.235,1.883-0.595l0.68,1.495C111.078,35.49,110.055,35.74,109.1,35.74"/>
	<path fill="#FFFFFF" d="M112.461,32.1c0-2.285,1.371-3.642,3.725-3.642s3.736,1.356,3.736,3.642c0,2.283-1.383,3.641-3.736,3.641
		S112.461,34.383,112.461,32.1 M117.75,32.1c0-1.219-0.582-1.952-1.551-1.952s-1.551,0.733-1.551,1.952
		c0,1.218,0.582,1.938,1.551,1.938S117.75,33.317,117.75,32.1"/>
	<path fill="#FFFFFF" d="M131.578,31.088v4.514h-2.146v-4.14c0-0.803-0.221-1.314-0.748-1.314c-0.719,0-1.203,0.498-1.203,1.966
		v3.488h-2.146v-4.14c0-0.803-0.234-1.314-0.748-1.314c-0.705,0-1.203,0.498-1.203,1.966v3.488h-2.146v-6.853
		c0.375-0.167,0.775-0.291,1.148-0.291c0.541,0,0.873,0.429,0.928,1.065c0.527-0.789,1.246-1.065,1.994-1.065
		c0.844,0,1.467,0.374,1.828,1.038c0.621-0.789,1.355-1.038,2.256-1.038C130.775,28.458,131.578,29.428,131.578,31.088"/>
	<path fill="#048028" d="M47.413,20.886c-0.083-0.387-0.231-0.76-0.355-1.136c-0.249-0.755-0.48-1.516-0.76-2.259
		c-0.228-0.606-0.622-1.168-0.755-1.79c-0.229-1.066-0.221-2.117,0.069-3.235c0.251-0.969,0.412-2.071-0.18-3.118
		c-0.696-1.23-1.355-2.499-1.396-3.985c-0.014-0.496-0.171-1-0.332-1.477C43.5,3.28,43.121,2.789,42.47,2.605
		c-0.686-0.194-0.812-0.347-0.806-1.055c0.004-0.388,0.097-0.828-0.052-1.152c-0.207-0.449-0.773-0.146-1.099-0.279
		c-0.758-0.309-1.337,0.055-1.976,0.267c-0.363,0.122-0.442,0.377-0.381,0.729c0.1,0.581,0.103,1.199,0.735,1.526
		c0.063,0.033,0.073,0.157,0.118,0.232c0.101,0.172,0.199,0.345,0.313,0.508c0.291,0.417,0.681,0.628,1.084,0.495
		c-0.03,0.837-0.06,1.62-0.084,2.402c-0.007,0.254,0.051,0.523-0.012,0.759c-0.089,0.331-0.227,0.664-0.414,0.949
		c-0.175,0.269-0.417,0.509-0.674,0.705c-0.464,0.354-0.934,0.722-1.451,0.983c-0.597,0.302-0.898,0.925-0.63,1.537
		c0.057,0.13,0.11,0.272,0.121,0.412c0.086,1.096-0.293,2.08-0.756,3.188c-0.353-0.499-0.574-0.981-0.939-1.293
		c-0.859-0.734-1.274-1.683-1.416-2.741c-0.148-1.11-0.179-2.236-0.232-3.357c-0.042-0.875-0.286-1.669-0.985-2.215
		C32.1,4.555,31.17,4.04,30.105,3.894c-0.489-0.067-1.003,0.004-1.5,0.058c-0.499,0.054-0.988,0.196-1.486,0.245
		c-0.955,0.092-1.913,0.163-2.871,0.211c-1.5,0.077-2.977,0.032-4.275-0.892c-0.581-0.413-1.172-0.22-1.752,0.037
		c-0.889,0.393-1.774,0.799-2.677,1.159c-0.214,0.085-0.491,0.013-0.755,0.013c0.086-0.385,0.143-0.639,0.225-1.004
		c-0.354,0.104-0.597,0.175-0.863,0.253c0.09-0.499,0.26-0.972,0.241-1.437c-0.029-0.714-0.323-1.066-0.761-1.12
		c-0.023,0.79,0.066,1.63-0.689,2.135c-0.511-0.663-0.984-1.273-1.457-1.885c-0.09,0.042-0.181,0.085-0.271,0.127
		c0.11,0.415,0.154,0.863,0.345,1.236c0.267,0.523,0.311,1.009-0.002,1.491c-0.326,0.5-0.693,0.974-1.056,1.449
		c-0.057,0.074-0.183,0.132-0.278,0.133C9.31,6.113,8.496,6.415,7.673,6.786C7.361,6.927,6.882,6.708,6.488,6.615
		C6.471,6.611,6.545,6.228,6.571,6.02c0.003-0.03-0.025-0.065-0.067-0.161c-0.252,0.063-0.515,0.128-0.843,0.21
		C5.49,5.132,6.074,4.051,4.982,3.353V4.83C4.672,4.473,4.84,3.857,4.2,3.757c-0.029,0.07-0.063,0.117-0.067,0.167
		C4.123,4.05,4.1,4.184,4.128,4.303c0.227,0.979-0.181,1.655-0.958,2.218C2.433,7.054,2.119,7.834,2.077,8.735
		C2.067,8.929,2.034,9.14,1.947,9.31c-0.321,0.626-0.665,1.241-1.008,1.854c-0.216,0.388-0.259,0.75,0.087,1.089
		c0.552,0.538,1.093,0.624,1.744,0.222C3.333,12.128,3.904,12,4.521,12.28c0.889,0.404,1.798,0.457,2.754,0.277
		c1.158-0.218,1.295-0.091,1.444,1.071c0.12,0.927,0.639,1.482,1.542,1.654c0.173,0.033,0.344,0.079,0.663,0.153
		c-0.417,0.531-0.752,0.952-1.081,1.379c-0.502,0.655-0.515,0.826,0.017,1.469c0.334,0.404,0.713,0.773,1.091,1.138
		c0.515,0.496,1.055,0.965,1.571,1.459c0.283,0.271,0.119,1.533-0.23,1.893c-0.114,0.117-0.265,0.212-0.336,0.35
		c-0.054,0.104-0.008,0.259-0.006,0.393c0.039,0.151,0.664-0.076,0.664-0.076s0.157,0.13,0.484,0.216
		c0.179,0.048,0.238-0.042,0.255-0.132h0.004c0.511-0.786-0.077-1.783,0.402-2.572c0.695-0.111,0.704-0.146,0.524-0.806
		c-0.089-0.328-0.193-0.684-0.15-1.009c0.143-1.071,0.347-2.134,0.533-3.199c0.018-0.1,0.045-0.223,0.113-0.286
		c0.411-0.385,1.448-0.307,1.832,0.101c0.311,0.33,0.675,0.607,0.975,0.945c0.367,0.413,0.672,0.882,1.042,1.291
		c0.2,0.222,0.467,0.398,0.734,0.54c0.143,0.076,0.348,0.033,0.642,0.051c-0.094,0.265-0.171,0.465-0.235,0.669
		c-0.044,0.141-0.146,0.334-0.092,0.422c0.181,0.291,1.206,0.131,1.26-0.208c0.107-0.67,0.438-1.284,0.239-2.035
		c-0.288-1.086-0.01-1.412,1.055-1.753c0.444-0.142,0.704-0.055,0.782,0.417c0.178,1.067,0.377,2.133,0.514,3.207
		c0.054,0.421,0.02,0.875-0.076,1.292c-0.194,0.853-0.635,1.559-1.375,2.074c-0.153,0.105-0.212,0.388-0.249,0.6
		c-0.014,0.08,0.156,0.267,0.25,0.273c0.17,0.012,0.347-0.076,0.566-0.135c0.3,0.41,0.959,0.321,1.181-0.276
		c0.321-0.862,0.793-1.617,1.378-2.321c0.624-0.75,1.231-1.518,1.794-2.314c0.285-0.404,0.457-0.888,0.69-1.358
		c1.591,0.957,3.209,1.81,3.735,3.771c0.183,0.681,0.442,1.323-0.298,1.852c-0.109,0.078-0.135,0.313-0.139,0.477
		c-0.001,0.053,0.199,0.167,0.292,0.153c0.161-0.024,0.329-0.104,0.458-0.206c0.05-0.039,0.051-0.137,0.047-0.166
		c0.104,0.103,0.244,0.35,0.417,0.376c0.444,0.065,0.646-0.291,0.737-1.195c0.185-0.051,0.38-0.092,0.567-0.155
		c0.866-0.292,1.75-0.606,2.266-1.405c0.285-0.441,0.557-0.605,1.073-0.59c0.237,0.008,0.483-0.283,0.725-0.438
		c-0.155-0.174-0.277-0.416-0.471-0.511c-0.435-0.212-0.547-0.491-0.353-0.921c0.083-0.182,0.157-0.366,0.22-0.555
		c0.539-1.634,1.124-3.254,1.583-4.909c0.161-0.58,0.222-1.108,0.828-1.401c0.156-0.077,0.291-0.292,0.344-0.47
		c0.215-0.723,0.827-0.933,1.496-1.264c-0.128,1.19,0.088,2.328-0.633,3.323c-0.295,0.408-0.503,0.881-0.743,1.329
		c-0.381,0.713-0.341,0.967,0.238,1.529c0.143,0.139,0.297,0.268,0.453,0.392c0.894,0.712,1.79,1.421,2.685,2.132
		c0.84,0.667,0.733,1.161,0.175,1.947c-0.157,0.223-0.194,0.53-0.286,0.799c0.275-0.069,0.557-0.12,0.821-0.219
		c0.147-0.054,0.259-0.196,0.397-0.283c0.457-0.285,0.917-0.564,1.394-0.856c0.302,1.182,0.247,1.274-0.827,1.633
		c-0.143,0.047-0.251,0.197-0.375,0.3c0.152,0.071,0.306,0.205,0.457,0.202c0.586-0.01,1.172-0.094,1.758-0.094
		C47.422,21.711,47.565,21.583,47.413,20.886 M12.542,19.016c-0.055,0.027-0.11,0.054-0.166,0.082
		c-0.384-0.338-0.791-0.657-1.135-1.032c-0.074-0.079,0.018-0.417,0.134-0.542c0.242-0.261,0.544-0.469,0.836-0.679
		c0.105-0.075,0.288-0.156,0.373-0.113c0.091,0.047,0.16,0.241,0.15,0.364C12.687,17.736,12.609,18.375,12.542,19.016
		 M18.439,15.785c0.985-0.267,1.515,0.194,1.582,1.331C19.305,17.242,18.841,16.859,18.439,15.785 M25.71,18.053
		c-0.224-0.669-0.184-1.196,0.083-1.689c0.049-0.091,0.304-0.164,0.403-0.117c0.271,0.129,0.508,0.328,0.913,0.603
		C26.608,17.28,26.188,17.643,25.71,18.053 M27.483,15.733c-0.299-0.222-0.598-0.445-0.897-0.668
		c0.036-0.051,0.071-0.103,0.107-0.153c0.311,0.206,0.622,0.412,0.932,0.619C27.578,15.599,27.53,15.666,27.483,15.733
		 M35.268,18.08c-0.579,0.74-1.117,1.511-1.706,2.242c-0.205,0.254-0.507,0.432-0.879,0.739c-0.254-1.349-0.463-2.522-0.704-3.689
		c-0.051-0.25-0.198-0.488-0.339-0.708c-0.105-0.165-0.279-0.283-0.409-0.435c-1.073-1.249-1.012-3.208,0.244-4.416
		c0.472,0.475,0.95,0.949,1.419,1.431c1.013,1.04,1.704,2.304,2.452,3.527C35.616,17.211,35.604,17.65,35.268,18.08 M41.768,15.274
		c-0.227-0.215-0.274-0.439-0.038-0.652c0.44-0.397,0.9-0.773,1.466-1.254c0.298,1.874,0.883,3.523,1.84,5.034
		C43.947,17.358,42.86,16.313,41.768,15.274"/>
	<path fill="#048028" d="M68.039,16.908h1.512v0.119h-0.082c-0.057,0-0.137,0.024-0.244,0.073c-0.105,0.05-0.203,0.121-0.291,0.211
		c-0.086,0.092-0.193,0.241-0.322,0.447l-1.044,1.646v1.085c0,0.266,0.029,0.432,0.089,0.498c0.081,0.09,0.208,0.134,0.382,0.134
		h0.143v0.118h-1.84V21.12h0.153c0.183,0,0.313-0.056,0.39-0.165c0.046-0.069,0.07-0.225,0.07-0.467v-1.025l-1.188-1.814
		c-0.141-0.212-0.236-0.347-0.286-0.399c-0.05-0.054-0.154-0.118-0.311-0.191c-0.043-0.022-0.105-0.032-0.186-0.032v-0.119h1.853
		v0.119H66.74c-0.101,0-0.192,0.023-0.277,0.07c-0.083,0.046-0.126,0.117-0.126,0.211c0,0.077,0.064,0.214,0.195,0.415l0.904,1.395
		l0.849-1.335c0.129-0.199,0.193-0.349,0.193-0.447c0-0.059-0.016-0.112-0.047-0.16c-0.031-0.046-0.074-0.083-0.133-0.11
		c-0.057-0.027-0.143-0.04-0.26-0.04V16.908L68.039,16.908z"/>
	<path fill="#048028" d="M70.627,18.228c0.443,0,0.799,0.167,1.066,0.504c0.229,0.288,0.344,0.617,0.344,0.991
		c0,0.262-0.064,0.525-0.189,0.794c-0.127,0.269-0.299,0.471-0.52,0.606c-0.221,0.137-0.465,0.204-0.736,0.204
		c-0.439,0-0.791-0.175-1.051-0.526c-0.219-0.296-0.328-0.628-0.328-0.996c0-0.269,0.066-0.536,0.199-0.802
		c0.133-0.264,0.309-0.459,0.525-0.587C70.154,18.29,70.385,18.228,70.627,18.228 M70.527,18.435c-0.111,0-0.225,0.033-0.34,0.101
		c-0.113,0.066-0.205,0.185-0.275,0.353c-0.07,0.169-0.105,0.385-0.105,0.649c0,0.426,0.084,0.792,0.254,1.1
		c0.168,0.31,0.391,0.465,0.668,0.465c0.207,0,0.377-0.086,0.512-0.256c0.135-0.171,0.201-0.464,0.201-0.878
		c0-0.519-0.111-0.928-0.336-1.227C70.955,18.537,70.762,18.435,70.527,18.435"/>
	<path fill="#048028" d="M75.031,18.313v1.773c0,0.339,0.01,0.546,0.025,0.621s0.041,0.128,0.076,0.159
		c0.035,0.028,0.076,0.044,0.123,0.044c0.066,0,0.141-0.018,0.225-0.055l0.043,0.112l-0.875,0.36h-0.143v-0.62
		c-0.252,0.273-0.443,0.445-0.576,0.516c-0.131,0.07-0.271,0.104-0.418,0.104c-0.164,0-0.307-0.047-0.428-0.142
		c-0.119-0.095-0.203-0.218-0.25-0.365c-0.047-0.149-0.07-0.36-0.07-0.633v-1.307c0-0.138-0.016-0.234-0.045-0.288
		c-0.029-0.052-0.074-0.094-0.133-0.123c-0.057-0.029-0.164-0.042-0.316-0.04v-0.119h1.025v1.958c0,0.272,0.047,0.451,0.141,0.536
		c0.096,0.085,0.211,0.129,0.346,0.129c0.09,0,0.195-0.029,0.311-0.088c0.117-0.057,0.254-0.167,0.414-0.328v-1.658
		c0-0.166-0.031-0.278-0.092-0.337c-0.061-0.058-0.186-0.09-0.377-0.093v-0.119H75.031z"/>
	<path fill="#048028" d="M76.594,18.228v0.658c0.246-0.439,0.496-0.658,0.754-0.658c0.117,0,0.215,0.036,0.291,0.106
		c0.076,0.071,0.115,0.155,0.115,0.248c0,0.083-0.027,0.153-0.082,0.211c-0.057,0.058-0.123,0.087-0.199,0.087
		c-0.074,0-0.158-0.037-0.25-0.111c-0.094-0.073-0.162-0.11-0.207-0.11c-0.037,0-0.078,0.022-0.123,0.063
		c-0.096,0.089-0.195,0.231-0.299,0.433v1.4c0,0.162,0.02,0.285,0.061,0.368c0.029,0.058,0.078,0.105,0.148,0.144
		s0.17,0.058,0.303,0.058v0.115h-1.498v-0.115c0.148,0,0.26-0.023,0.332-0.07c0.053-0.033,0.09-0.088,0.111-0.162
		c0.012-0.037,0.018-0.14,0.018-0.311v-1.133c0-0.341-0.008-0.544-0.021-0.61c-0.014-0.063-0.039-0.111-0.078-0.142
		c-0.037-0.029-0.082-0.044-0.139-0.044c-0.066,0-0.141,0.016-0.223,0.048l-0.031-0.115l0.885-0.358L76.594,18.228L76.594,18.228z"
		/>
	<path fill="#048028" d="M81.74,16.809c0.563,0,1.049,0.213,1.461,0.64s0.619,0.96,0.619,1.599c0,0.658-0.209,1.204-0.623,1.639
		c-0.416,0.435-0.918,0.652-1.508,0.652c-0.598,0-1.098-0.212-1.504-0.637c-0.406-0.423-0.607-0.972-0.607-1.644
		c0-0.688,0.232-1.25,0.703-1.684C80.688,16.998,81.174,16.809,81.74,16.809 M81.68,17.042c-0.389,0-0.699,0.144-0.934,0.432
		c-0.291,0.358-0.438,0.882-0.438,1.572c0,0.707,0.15,1.25,0.455,1.631c0.23,0.29,0.537,0.435,0.92,0.435
		c0.406,0,0.742-0.158,1.008-0.476c0.264-0.318,0.396-0.817,0.396-1.501c0-0.741-0.146-1.294-0.438-1.658
		C82.416,17.188,82.092,17.042,81.68,17.042"/>
	<path fill="#048028" d="M85.129,18.847c0.344-0.414,0.67-0.619,0.982-0.619c0.158,0,0.297,0.04,0.412,0.118
		c0.113,0.081,0.205,0.213,0.273,0.396c0.047,0.128,0.07,0.324,0.07,0.588v1.25c0,0.185,0.016,0.31,0.045,0.376
		c0.023,0.053,0.063,0.095,0.113,0.124c0.053,0.031,0.148,0.045,0.289,0.045v0.115h-1.447v-0.115h0.061
		c0.137,0,0.232-0.021,0.285-0.063c0.055-0.041,0.094-0.103,0.115-0.183c0.008-0.032,0.012-0.134,0.012-0.301V19.38
		c0-0.266-0.033-0.459-0.104-0.58c-0.068-0.12-0.186-0.18-0.35-0.18c-0.254,0-0.506,0.139-0.758,0.415v1.543
		c0,0.197,0.012,0.32,0.035,0.366c0.029,0.063,0.072,0.107,0.123,0.136c0.053,0.029,0.158,0.043,0.318,0.043v0.115h-1.447v-0.115
		h0.064c0.148,0,0.25-0.037,0.303-0.114c0.051-0.075,0.078-0.219,0.078-0.432v-1.085c0-0.351-0.01-0.565-0.025-0.642
		c-0.016-0.077-0.041-0.13-0.072-0.156c-0.033-0.028-0.078-0.042-0.133-0.042c-0.061,0-0.131,0.017-0.215,0.049l-0.047-0.115
		l0.881-0.357h0.137V18.847z"/>
	<path fill="#048028" d="M88.555,16.697v3.881c0,0.184,0.014,0.305,0.039,0.364c0.027,0.059,0.068,0.104,0.123,0.136
		c0.055,0.03,0.158,0.046,0.311,0.046v0.115h-1.434v-0.115c0.133,0,0.225-0.015,0.273-0.041c0.049-0.028,0.086-0.074,0.115-0.138
		c0.027-0.064,0.041-0.188,0.041-0.367v-2.657c0-0.331-0.008-0.533-0.021-0.609c-0.016-0.076-0.039-0.126-0.072-0.155
		c-0.031-0.027-0.074-0.041-0.125-0.041c-0.057,0-0.127,0.017-0.211,0.051l-0.055-0.112l0.871-0.358H88.555z"/>
	<path fill="#048028" d="M90.375,18.228v2.35c0,0.184,0.014,0.305,0.039,0.365c0.027,0.06,0.066,0.106,0.117,0.136
		c0.053,0.03,0.148,0.045,0.287,0.045v0.115h-1.422v-0.115c0.143,0,0.238-0.015,0.287-0.041c0.049-0.028,0.088-0.074,0.117-0.138
		c0.029-0.064,0.043-0.188,0.043-0.367v-1.127c0-0.317-0.01-0.522-0.027-0.616c-0.016-0.069-0.039-0.116-0.07-0.143
		c-0.033-0.025-0.076-0.04-0.131-0.04c-0.061,0-0.133,0.017-0.219,0.049l-0.043-0.115l0.881-0.357H90.375z M90.109,16.697
		c0.09,0,0.166,0.032,0.229,0.095s0.094,0.139,0.094,0.229s-0.031,0.166-0.094,0.23s-0.139,0.096-0.229,0.096
		s-0.166-0.032-0.23-0.096c-0.063-0.064-0.096-0.141-0.096-0.23c0-0.09,0.033-0.166,0.096-0.229S90.018,16.697,90.109,16.697"/>
	<path fill="#048028" d="M92.035,18.847c0.344-0.414,0.67-0.619,0.982-0.619c0.158,0,0.297,0.04,0.41,0.118
		c0.117,0.081,0.207,0.213,0.275,0.396c0.047,0.128,0.07,0.324,0.07,0.588v1.25c0,0.185,0.016,0.31,0.045,0.376
		c0.023,0.053,0.061,0.095,0.113,0.124c0.053,0.031,0.148,0.045,0.289,0.045v0.115h-1.447v-0.115h0.061
		c0.137,0,0.232-0.021,0.285-0.063c0.055-0.041,0.094-0.103,0.115-0.183c0.008-0.032,0.012-0.134,0.012-0.301V19.38
		c0-0.266-0.033-0.459-0.104-0.58c-0.068-0.12-0.186-0.18-0.35-0.18c-0.254,0-0.506,0.139-0.758,0.415v1.543
		c0,0.197,0.012,0.32,0.035,0.366c0.029,0.063,0.072,0.107,0.123,0.136c0.053,0.029,0.158,0.043,0.318,0.043v0.115h-1.447v-0.115
		h0.064c0.148,0,0.25-0.037,0.301-0.114c0.053-0.075,0.08-0.219,0.08-0.432v-1.085c0-0.351-0.01-0.565-0.025-0.642
		c-0.016-0.077-0.041-0.13-0.072-0.156c-0.033-0.028-0.078-0.042-0.133-0.042c-0.061,0-0.131,0.017-0.215,0.049l-0.047-0.115
		l0.881-0.357h0.137V18.847z"/>
	<path fill="#048028" d="M94.945,19.416c-0.002,0.435,0.104,0.773,0.316,1.021c0.213,0.247,0.463,0.371,0.752,0.371
		c0.191,0,0.357-0.054,0.498-0.158c0.143-0.106,0.262-0.286,0.357-0.542l0.1,0.063c-0.045,0.293-0.176,0.558-0.391,0.798
		c-0.215,0.239-0.484,0.359-0.809,0.359c-0.352,0-0.652-0.137-0.902-0.411c-0.25-0.272-0.375-0.641-0.375-1.103
		c0-0.5,0.129-0.891,0.385-1.171c0.256-0.279,0.578-0.42,0.967-0.42c0.328,0,0.598,0.108,0.809,0.324
		c0.211,0.216,0.316,0.505,0.316,0.868H94.945z M94.945,19.231h1.355c-0.012-0.188-0.033-0.319-0.068-0.396
		c-0.053-0.12-0.133-0.213-0.238-0.281c-0.105-0.069-0.215-0.102-0.33-0.102c-0.176,0-0.334,0.068-0.475,0.206
		C95.051,18.794,94.969,18.985,94.945,19.231"/>
	<path fill="#048028" d="M101.182,16.809c0.563,0,1.049,0.213,1.461,0.64s0.619,0.96,0.619,1.599c0,0.658-0.209,1.204-0.623,1.639
		c-0.416,0.435-0.918,0.652-1.508,0.652c-0.598,0-1.098-0.212-1.504-0.637c-0.406-0.423-0.609-0.972-0.609-1.644
		c0-0.688,0.234-1.25,0.703-1.684C100.127,16.998,100.615,16.809,101.182,16.809 M101.121,17.042c-0.389,0-0.699,0.144-0.934,0.432
		c-0.291,0.358-0.438,0.882-0.438,1.572c0,0.707,0.15,1.25,0.455,1.631c0.23,0.29,0.537,0.435,0.918,0.435
		c0.406,0,0.744-0.158,1.008-0.476c0.266-0.318,0.398-0.817,0.398-1.501c0-0.741-0.146-1.294-0.438-1.658
		C101.857,17.188,101.533,17.042,101.121,17.042"/>
	<path fill="#048028" d="M104.574,18.228v0.658c0.244-0.439,0.496-0.658,0.754-0.658c0.115,0,0.213,0.036,0.289,0.106
		c0.078,0.071,0.115,0.155,0.115,0.248c0,0.083-0.027,0.153-0.082,0.211c-0.057,0.058-0.121,0.087-0.197,0.087
		s-0.16-0.037-0.252-0.111c-0.092-0.073-0.16-0.11-0.205-0.11c-0.039,0-0.08,0.022-0.125,0.063
		c-0.096,0.089-0.195,0.231-0.297,0.433v1.4c0,0.162,0.02,0.285,0.061,0.368c0.027,0.058,0.076,0.105,0.146,0.144
		s0.172,0.058,0.303,0.058v0.115h-1.498v-0.115c0.15,0,0.26-0.023,0.332-0.07c0.053-0.033,0.09-0.088,0.113-0.162
		c0.01-0.037,0.016-0.14,0.016-0.311v-1.133c0-0.341-0.008-0.544-0.021-0.61c-0.014-0.063-0.039-0.111-0.076-0.142
		c-0.037-0.029-0.084-0.044-0.139-0.044c-0.066,0-0.141,0.016-0.225,0.048l-0.031-0.115l0.885-0.358L104.574,18.228L104.574,18.228z
		"/>
	<path fill="#048028" d="M106.561,20.172c-0.178-0.087-0.316-0.209-0.412-0.365c-0.096-0.157-0.143-0.33-0.143-0.519
		c0-0.29,0.109-0.539,0.326-0.748c0.219-0.209,0.498-0.313,0.84-0.313c0.277,0,0.52,0.067,0.725,0.204h0.619
		c0.092,0,0.145,0.002,0.16,0.008c0.016,0.005,0.025,0.014,0.031,0.027c0.014,0.019,0.02,0.054,0.02,0.103
		c0,0.056-0.006,0.094-0.016,0.115c-0.008,0.011-0.018,0.019-0.035,0.025c-0.016,0.006-0.068,0.01-0.16,0.01h-0.381
		c0.119,0.153,0.18,0.349,0.18,0.588c0,0.272-0.105,0.506-0.313,0.698c-0.209,0.195-0.49,0.292-0.84,0.292
		c-0.146,0-0.295-0.021-0.445-0.064c-0.094,0.081-0.156,0.151-0.189,0.213c-0.033,0.06-0.049,0.112-0.049,0.154
		c0,0.037,0.018,0.071,0.051,0.106c0.037,0.032,0.105,0.059,0.207,0.072c0.059,0.009,0.209,0.017,0.447,0.023
		c0.438,0.01,0.723,0.025,0.854,0.044c0.197,0.027,0.355,0.102,0.473,0.22c0.119,0.12,0.178,0.268,0.178,0.441
		c0,0.241-0.113,0.466-0.338,0.677c-0.332,0.312-0.766,0.467-1.301,0.467c-0.412,0-0.758-0.092-1.041-0.277
		c-0.16-0.107-0.24-0.218-0.24-0.333c0-0.051,0.012-0.102,0.035-0.152c0.037-0.079,0.111-0.189,0.225-0.33
		c0.014-0.019,0.123-0.134,0.326-0.345c-0.111-0.065-0.189-0.126-0.236-0.178c-0.045-0.051-0.068-0.111-0.068-0.176
		c0-0.076,0.029-0.163,0.092-0.263C106.201,20.497,106.34,20.355,106.561,20.172 M106.529,21.238
		c-0.102,0.108-0.176,0.21-0.227,0.305c-0.051,0.094-0.078,0.18-0.078,0.258c0,0.103,0.063,0.191,0.186,0.269
		c0.213,0.133,0.521,0.198,0.924,0.198c0.385,0,0.666-0.068,0.848-0.203s0.273-0.279,0.273-0.432c0-0.111-0.055-0.19-0.164-0.237
		s-0.328-0.075-0.656-0.082C107.154,21.3,106.787,21.275,106.529,21.238 M107.117,18.381c-0.158,0-0.291,0.063-0.396,0.188
		c-0.107,0.126-0.16,0.318-0.16,0.579c0,0.336,0.072,0.596,0.217,0.782c0.111,0.14,0.252,0.211,0.422,0.211
		c0.162,0,0.295-0.061,0.4-0.182c0.104-0.121,0.156-0.312,0.156-0.572c0-0.338-0.074-0.603-0.221-0.795
		C107.426,18.451,107.287,18.381,107.117,18.381"/>
	<path fill="#048028" d="M110.707,20.817c-0.301,0.232-0.488,0.366-0.566,0.402c-0.115,0.054-0.236,0.08-0.367,0.08
		c-0.201,0-0.369-0.068-0.5-0.208c-0.131-0.138-0.195-0.32-0.195-0.546c0-0.143,0.031-0.267,0.096-0.37
		c0.088-0.146,0.238-0.281,0.455-0.409s0.574-0.284,1.078-0.466v-0.116c0-0.292-0.047-0.492-0.139-0.6
		c-0.094-0.109-0.229-0.164-0.404-0.164c-0.135,0-0.24,0.037-0.32,0.108c-0.08,0.073-0.121,0.156-0.121,0.25l0.006,0.185
		c0,0.098-0.023,0.174-0.074,0.228c-0.051,0.053-0.115,0.079-0.195,0.079s-0.145-0.026-0.195-0.083
		c-0.049-0.055-0.074-0.131-0.074-0.227c0-0.184,0.094-0.351,0.281-0.505c0.188-0.153,0.449-0.23,0.789-0.23
		c0.26,0,0.473,0.044,0.639,0.131c0.125,0.066,0.219,0.17,0.277,0.31c0.039,0.091,0.059,0.279,0.059,0.563v0.992
		c0,0.28,0.004,0.45,0.016,0.512c0.01,0.064,0.027,0.106,0.053,0.127c0.025,0.021,0.053,0.032,0.084,0.032
		c0.035,0,0.064-0.009,0.09-0.022c0.045-0.028,0.131-0.106,0.26-0.234v0.179c-0.24,0.319-0.467,0.479-0.684,0.479
		c-0.105,0-0.188-0.036-0.25-0.108C110.74,21.116,110.709,20.992,110.707,20.817 M110.707,20.61v-1.115
		c-0.322,0.127-0.529,0.218-0.623,0.272c-0.168,0.093-0.289,0.191-0.361,0.293c-0.072,0.102-0.107,0.213-0.107,0.335
		c0,0.152,0.045,0.281,0.137,0.382c0.092,0.102,0.197,0.152,0.316,0.152C110.23,20.93,110.443,20.822,110.707,20.61"/>
	<path fill="#048028" d="M112.805,18.847c0.344-0.414,0.67-0.619,0.982-0.619c0.158,0,0.297,0.04,0.412,0.118
		c0.115,0.081,0.205,0.213,0.273,0.396c0.047,0.128,0.07,0.324,0.07,0.588v1.25c0,0.185,0.016,0.31,0.045,0.376
		c0.023,0.053,0.063,0.095,0.113,0.124c0.053,0.031,0.148,0.045,0.289,0.045v0.115h-1.447v-0.115h0.061
		c0.137,0,0.232-0.021,0.285-0.063c0.055-0.041,0.094-0.103,0.115-0.183c0.008-0.032,0.012-0.134,0.012-0.301V19.38
		c0-0.266-0.033-0.459-0.104-0.58c-0.068-0.12-0.186-0.18-0.35-0.18c-0.254,0-0.506,0.139-0.758,0.415v1.543
		c0,0.197,0.012,0.32,0.035,0.366c0.031,0.063,0.072,0.107,0.123,0.136c0.053,0.029,0.158,0.043,0.318,0.043v0.115h-1.447v-0.115
		h0.064c0.148,0,0.25-0.037,0.303-0.114c0.051-0.075,0.078-0.219,0.078-0.432v-1.085c0-0.351-0.01-0.565-0.025-0.642
		c-0.016-0.077-0.041-0.13-0.072-0.156c-0.033-0.028-0.078-0.042-0.133-0.042c-0.061,0-0.131,0.017-0.215,0.049l-0.047-0.115
		l0.881-0.357h0.137V18.847z"/>
	<path fill="#048028" d="M116.232,18.228v2.35c0,0.184,0.014,0.305,0.041,0.365c0.025,0.06,0.066,0.106,0.117,0.136
		c0.053,0.03,0.148,0.045,0.287,0.045v0.115h-1.422v-0.115c0.143,0,0.238-0.015,0.287-0.041c0.049-0.028,0.088-0.074,0.117-0.138
		c0.027-0.064,0.043-0.188,0.043-0.367v-1.127c0-0.317-0.01-0.522-0.029-0.616c-0.016-0.069-0.039-0.116-0.07-0.143
		c-0.031-0.025-0.076-0.04-0.131-0.04c-0.061,0-0.133,0.017-0.217,0.049l-0.045-0.115l0.881-0.357H116.232z M115.969,16.697
		c0.09,0,0.166,0.032,0.229,0.095s0.094,0.139,0.094,0.229s-0.031,0.166-0.094,0.23s-0.139,0.096-0.229,0.096
		s-0.166-0.032-0.23-0.096s-0.096-0.141-0.096-0.23c0-0.09,0.031-0.166,0.094-0.229S115.877,16.697,115.969,16.697"/>
	<path fill="#048028" d="M119.527,20.127c-0.08,0.386-0.234,0.683-0.463,0.89c-0.23,0.209-0.486,0.312-0.766,0.312
		c-0.332,0-0.621-0.139-0.867-0.418c-0.248-0.279-0.371-0.656-0.371-1.13c0-0.459,0.137-0.834,0.41-1.122s0.604-0.43,0.986-0.43
		c0.287,0,0.523,0.075,0.709,0.227c0.186,0.153,0.277,0.311,0.277,0.476c0,0.081-0.025,0.146-0.078,0.196
		c-0.053,0.051-0.125,0.075-0.219,0.075c-0.127,0-0.221-0.04-0.285-0.121c-0.035-0.044-0.061-0.129-0.072-0.255
		c-0.012-0.125-0.055-0.221-0.129-0.288c-0.074-0.064-0.178-0.096-0.309-0.096c-0.215,0-0.385,0.08-0.516,0.237
		c-0.172,0.209-0.258,0.484-0.258,0.828c0,0.349,0.084,0.656,0.256,0.924s0.404,0.4,0.695,0.4c0.209,0,0.396-0.071,0.563-0.213
		c0.117-0.099,0.23-0.276,0.342-0.534L119.527,20.127z"/>
	<path fill="#048028" d="M124.375,16.809v1.498h-0.117c-0.039-0.288-0.107-0.517-0.207-0.686c-0.098-0.171-0.24-0.305-0.422-0.406
		c-0.184-0.099-0.373-0.149-0.57-0.149c-0.221,0-0.404,0.068-0.549,0.202c-0.145,0.135-0.217,0.29-0.217,0.462
		c0,0.132,0.045,0.251,0.137,0.36c0.133,0.16,0.447,0.373,0.943,0.639c0.404,0.217,0.68,0.385,0.828,0.5
		c0.148,0.116,0.262,0.253,0.342,0.412c0.08,0.157,0.121,0.321,0.121,0.494c0,0.328-0.129,0.61-0.383,0.849
		c-0.254,0.237-0.582,0.356-0.982,0.356c-0.125,0-0.244-0.01-0.354-0.029c-0.066-0.01-0.203-0.05-0.412-0.116
		c-0.207-0.067-0.338-0.102-0.395-0.102c-0.053,0-0.094,0.017-0.125,0.049s-0.055,0.098-0.068,0.198h-0.119v-1.486h0.119
		c0.055,0.312,0.129,0.544,0.223,0.698c0.094,0.154,0.238,0.283,0.43,0.386c0.193,0.103,0.404,0.153,0.635,0.153
		c0.266,0,0.477-0.07,0.631-0.211s0.232-0.307,0.232-0.498c0-0.107-0.029-0.215-0.09-0.323c-0.059-0.108-0.148-0.209-0.271-0.302
		c-0.084-0.064-0.311-0.201-0.682-0.408c-0.369-0.208-0.633-0.373-0.789-0.497c-0.158-0.123-0.275-0.259-0.357-0.409
		c-0.08-0.148-0.121-0.313-0.121-0.492c0-0.311,0.119-0.579,0.357-0.804c0.238-0.224,0.543-0.336,0.912-0.336
		c0.229,0,0.473,0.056,0.73,0.169c0.119,0.054,0.203,0.08,0.252,0.08c0.055,0,0.102-0.016,0.137-0.05
		c0.035-0.033,0.063-0.099,0.084-0.199L124.375,16.809L124.375,16.809z"/>
	<path fill="#048028" d="M126.068,17.352v0.961h0.684v0.223h-0.684v1.897c0,0.19,0.027,0.318,0.082,0.384
		c0.055,0.066,0.123,0.1,0.209,0.1c0.07,0,0.139-0.021,0.205-0.066c0.064-0.044,0.117-0.107,0.152-0.193h0.125
		c-0.074,0.21-0.18,0.365-0.316,0.472c-0.137,0.104-0.277,0.159-0.422,0.159c-0.098,0-0.193-0.029-0.287-0.082
		c-0.094-0.056-0.164-0.132-0.207-0.234c-0.045-0.102-0.068-0.257-0.068-0.468v-1.967h-0.463v-0.104
		c0.117-0.047,0.236-0.126,0.359-0.239c0.123-0.111,0.232-0.244,0.328-0.397c0.049-0.081,0.115-0.229,0.203-0.444H126.068z"/>
	<path fill="#048028" d="M128.467,18.228c0.443,0,0.799,0.167,1.068,0.504c0.227,0.288,0.342,0.617,0.342,0.991
		c0,0.262-0.064,0.525-0.189,0.794c-0.125,0.269-0.299,0.471-0.52,0.606c-0.221,0.137-0.465,0.204-0.736,0.204
		c-0.439,0-0.791-0.175-1.051-0.526c-0.219-0.296-0.328-0.628-0.328-0.996c0-0.269,0.066-0.536,0.199-0.802
		c0.133-0.264,0.309-0.459,0.525-0.587C127.996,18.29,128.225,18.228,128.467,18.228 M128.369,18.435
		c-0.113,0-0.227,0.033-0.342,0.101c-0.113,0.066-0.205,0.185-0.275,0.353c-0.07,0.169-0.105,0.385-0.105,0.649
		c0,0.426,0.084,0.792,0.254,1.1c0.17,0.31,0.393,0.465,0.67,0.465c0.205,0,0.377-0.086,0.51-0.256
		c0.135-0.171,0.203-0.464,0.203-0.878c0-0.519-0.113-0.928-0.336-1.227C128.795,18.537,128.602,18.435,128.369,18.435"/>
	<path fill="#048028" d="M131.164,18.228v0.658c0.244-0.439,0.496-0.658,0.754-0.658c0.115,0,0.213,0.036,0.289,0.106
		c0.078,0.071,0.115,0.155,0.115,0.248c0,0.083-0.027,0.153-0.082,0.211c-0.057,0.058-0.121,0.087-0.197,0.087
		s-0.16-0.037-0.252-0.111c-0.092-0.073-0.16-0.11-0.205-0.11c-0.039,0-0.08,0.022-0.125,0.063
		c-0.096,0.089-0.195,0.231-0.297,0.433v1.4c0,0.162,0.02,0.285,0.061,0.368c0.027,0.058,0.076,0.105,0.146,0.144
		s0.172,0.058,0.303,0.058v0.115h-1.498v-0.115c0.15,0,0.26-0.023,0.332-0.07c0.055-0.033,0.09-0.088,0.113-0.162
		c0.01-0.037,0.016-0.14,0.016-0.311v-1.133c0-0.341-0.008-0.544-0.021-0.61c-0.014-0.063-0.039-0.111-0.076-0.142
		c-0.037-0.029-0.084-0.044-0.139-0.044c-0.066,0-0.141,0.016-0.225,0.048l-0.031-0.115l0.885-0.358L131.164,18.228L131.164,18.228z
		"/>
	<path fill="#048028" d="M132.979,19.416c-0.002,0.435,0.104,0.773,0.316,1.021c0.211,0.247,0.463,0.371,0.75,0.371
		c0.191,0,0.359-0.054,0.5-0.158c0.143-0.106,0.26-0.286,0.355-0.542l0.1,0.063c-0.045,0.293-0.176,0.558-0.389,0.798
		c-0.217,0.239-0.486,0.359-0.809,0.359c-0.352,0-0.652-0.137-0.902-0.411c-0.25-0.272-0.377-0.641-0.377-1.103
		c0-0.5,0.129-0.891,0.387-1.171c0.256-0.279,0.578-0.42,0.967-0.42c0.326,0,0.596,0.108,0.807,0.324
		c0.211,0.216,0.316,0.505,0.316,0.868H132.979z M132.979,19.231h1.354c-0.01-0.188-0.033-0.319-0.066-0.396
		c-0.055-0.12-0.133-0.213-0.238-0.281c-0.105-0.069-0.217-0.102-0.33-0.102c-0.178,0-0.336,0.068-0.475,0.206
		C133.084,18.794,133.002,18.985,132.979,19.231"/>
	<g>
		<path fill="#0D8040" d="M132.158,10.769c0.49,0,0.955,0.122,1.404,0.365c0.447,0.243,0.799,0.593,1.055,1.048
			c0.258,0.454,0.383,0.932,0.383,1.429c0,0.492-0.125,0.965-0.375,1.413c-0.25,0.449-0.6,0.8-1.051,1.049
			c-0.447,0.252-0.92,0.378-1.416,0.378c-0.494,0-0.967-0.125-1.412-0.378c-0.451-0.249-0.799-0.6-1.053-1.049
			c-0.248-0.448-0.375-0.921-0.375-1.413c0-0.498,0.129-0.975,0.385-1.429c0.256-0.455,0.607-0.806,1.055-1.048
			C131.205,10.89,131.674,10.769,132.158,10.769z M132.164,11.325c-0.393,0-0.766,0.098-1.125,0.293
			c-0.355,0.195-0.639,0.476-0.846,0.84c-0.209,0.369-0.309,0.75-0.309,1.153c0,0.398,0.1,0.776,0.299,1.137
			c0.203,0.361,0.486,0.643,0.846,0.847c0.359,0.2,0.738,0.301,1.135,0.301c0.398,0,0.777-0.101,1.137-0.301
			c0.359-0.205,0.641-0.486,0.844-0.847c0.201-0.361,0.305-0.739,0.305-1.137c0-0.403-0.105-0.784-0.311-1.153
			c-0.205-0.365-0.49-0.645-0.848-0.84C132.932,11.422,132.555,11.325,132.164,11.325z M130.875,15.129v-3.015h0.613
			c0.574,0,0.895,0.001,0.965,0.009c0.203,0.016,0.359,0.057,0.473,0.12c0.111,0.063,0.207,0.161,0.283,0.29
			c0.074,0.129,0.113,0.274,0.113,0.432c0,0.216-0.072,0.404-0.215,0.558c-0.143,0.155-0.342,0.25-0.598,0.288
			c0.092,0.034,0.162,0.071,0.211,0.112c0.049,0.042,0.117,0.119,0.201,0.233c0.023,0.029,0.1,0.152,0.225,0.366l0.357,0.608h-0.758
			l-0.252-0.489c-0.172-0.328-0.311-0.535-0.424-0.62c-0.111-0.087-0.25-0.129-0.422-0.129h-0.16v1.238H130.875z M131.488,13.416
			h0.248c0.354,0,0.574-0.015,0.658-0.041c0.088-0.026,0.152-0.073,0.201-0.141c0.053-0.069,0.076-0.146,0.076-0.233
			c0-0.083-0.023-0.159-0.07-0.225c-0.049-0.065-0.119-0.112-0.207-0.141s-0.309-0.042-0.658-0.042h-0.248V13.416z"/>
	</g>
</g>
</svg>
