<?xml version="1.0" encoding="utf-8"?>
<!-- Generator: Adobe Illustrator 16.0.0, SVG Export Plug-In . SVG Version: 6.00 Build 0)  -->
<!DOCTYPE svg PUBLIC "-//W3C//DTD SVG 1.1//EN" "http://www.w3.org/Graphics/SVG/1.1/DTD/svg11.dtd">
<svg version="1.1" id="Layer_1" xmlns="http://www.w3.org/2000/svg" xmlns:xlink="http://www.w3.org/1999/xlink" x="0px" y="0px"
	 width="150px" height="120.314px" viewBox="0 0 150 120.314" enable-background="new 0 0 150 120.314" xml:space="preserve">
<g>
	<g>
		<g>
			<path fill="#E9BB8D" d="M93.039,65.885c-0.76,0.313-1.551,0.553-2.355,0.724l-0.181,2.728c1.102-0.873,2.48-2.191,3.112-3.705
				c-0.147,0.069-0.299,0.14-0.453,0.205C93.121,65.853,93.079,65.869,93.039,65.885z"/>
			<path fill="#D15D3E" d="M86.144,54.072c-0.876-0.652-2.001-0.984-3.081-0.881c-0.035,0.151-0.054,0.31-0.052,0.477
				c0,0.006,0,0.012,0,0.019c0.021,0.896,0.712,1.298,1.51,1.447c0.777,0.146,1.512,0.522,2.089,1.063
				c0.451,0.422,0.88,0.932,1.518,0.905C87.806,55.911,87.13,54.808,86.144,54.072z"/>
			<path fill="#9A442D" d="M83.063,53.191c1.08-0.104,2.205,0.229,3.081,0.881c0.986,0.736,1.662,1.839,1.983,3.03
				c0.084-0.004,0.17-0.016,0.262-0.039c0.899-0.229,1.283-1.112,1.288-2.003c-0.788-0.735-2.782-2.298-6.015-2.88
				C83.372,52.455,83.157,52.796,83.063,53.191z"/>
			<path fill="#FFFFFF" d="M85.619,51.415c-0.702-0.001-1.444,0.278-1.957,0.766c3.232,0.582,5.227,2.145,6.015,2.88
				c0.002-0.518-0.12-1.037-0.346-1.434C88.61,52.351,87.099,51.417,85.619,51.415z"/>
			<path fill="#1A3139" d="M92.239,83.705l11.438-0.196c0.589-0.011,1.088,0.343,1.327,0.847l0.125-0.656
				c0.183-0.951-0.548-1.832-1.507-1.815l-11.86,0.197c-1.692,0.028-3.115,1.295-3.358,2.991l-1.171,8.178
				c0.266-0.098,0.562-0.181,0.889-0.245l0.877-6.32C89.233,84.996,90.605,83.734,92.239,83.705z"/>
			<path fill="#14252B" d="M103.678,83.508l-11.438,0.196c-1.634,0.029-3.006,1.291-3.24,2.979l-0.877,6.32
				c1.095-0.216,2.552-0.229,4.496,0.126c0,0,6.45,1.158,7.376,1.744c0,0,1.479-0.296,3.073-0.372L103.354,93l0.876-4.591
				l0.774-4.054C104.766,83.851,104.267,83.498,103.678,83.508z"/>
			<path fill="#D59862" d="M90.146,66.713c-0.206,0.035-0.412,0.068-0.619,0.096c-0.086,0.011-0.171,0.018-0.256,0.026
				c-4.461,0.488-9.179-1.094-12.022-4.63c0.019,0.777,0.207,1.563,0.451,2.297c0.594,1.796,1.687,3.398,3.098,4.654
				c1.284,1.146,2.792,2.045,4.409,2.682c1.335-0.532,2.742-1.072,3.708-1.389c0,0,0.705-0.414,1.588-1.113l0.181-2.728
				C90.505,66.647,90.326,66.682,90.146,66.713z"/>
			<path fill="#E9BB8D" d="M38.308,89.034c3.703-3.896,0.988-12.088,0.988-12.088c-1.613-5.008-5.589-6.919-7.917-7.624
				c-1.002-0.185-1.83-0.342-2.448-0.462c-0.298-0.057-0.547-0.105-0.743-0.145c-1.732,4.285-6.205,7.891-6.205,7.891
				s4.472-3.605,6.205-7.891c0.064-0.159,0.126-0.32,0.183-0.483c3.418-4.722,6.948-9.379,10.656-13.876
				c2.561-3.105,5.235-6.156,7.92-9.154c2.579-2.879,5.373-5.696,8.604-7.845c0.551-0.366,1.117-0.712,1.702-1.021
				c0,0,3.363,1.345,5.817-2.153c-0.067-1.188-0.037-2.304,0.024-3.221c-1.503,2.335-3.758,4.124-3.758,4.124
				s2.254-1.789,3.758-4.124c0.051-0.768,0.124-1.396,0.179-1.808c-1.939-0.417-2.57-1.282-2.57-1.282
				c1.696-0.736,2.66-2.841,3.343-4.431c0.916-2.133,1.29-4.459,2.249-6.563c-0.171,0.012-0.278,0.017-0.278,0.017
				c-1.05,0-2.529,1.5-2.529,1.5s1.479-1.5,2.529-1.5c0,0,0.107-0.005,0.278-0.017c0.06-0.133,0.123-0.265,0.188-0.396
				c0.187-0.373,0.393-0.737,0.617-1.087c-1.34,0.237-2.502,0.388-2.502,0.388c-1.543,0.031-2.346,1.291-2.346,1.291
				c-1.913,2.958-9.998,11.299-9.998,11.299c-1.471,0.408-2.573,0.903-3.284,1.279c-0.54,0.285-1.022,0.667-1.431,1.119
				c-4.437,4.923-12.188,8.738-12.188,8.738C21.691,44.63,12.634,55.06,12.634,55.06c-0.556,1.042-6.758,7.146-6.758,7.146
				C-1.808,69.467,0.6,74.384,0.6,74.384c0.827,2.634,7.893,6.674,10.509,8.094c0.571,0.31,1.108,0.677,1.602,1.099
				c4.659,3.979,14.272,6.129,14.272,6.129c0.676,0.073,1.515,0.168,2.407,0.273c2.476,0.288,5.37,0.645,6.408,0.772
				C37.256,90.11,38.308,89.034,38.308,89.034z"/>
			<path fill="#E9BB8D" d="M101.876,34.203c-1.471-0.118-2.943-0.382-4.335-0.88c-1.625-0.582-3.094-1.52-4.153-2.901
				c-0.314-0.409-0.589-0.848-0.819-1.309c-0.22-0.44-0.351-0.914-0.557-1.354c-0.358-0.763-0.748-1.507-1.29-2.158
				c-0.331-0.398-0.716-0.762-1.17-1.014c0,0-2.847-1.848-5.849,0.183c-1.174-0.56-2.562-0.835-3.813-0.584
				c-5.125,1.029-5.698,7.735-5.627,11.927c0.029,1.714,0.116,3.45-0.241,5.14c-0.124,0.587-0.449,1.351-1.027,1.617
				c-0.641,0.293-1.244-0.171-1.529-0.723c-0.273-0.528-0.376-1.134-0.405-1.739c-0.99-1.561-2.759-2.604-4.646-2.485
				c-0.911,0.057-1.756,0.389-2.47,0.908c-1.006,0.729-1.753,1.828-2.061,3.05c-0.587,2.327,0.581,4.737,2.762,5.752
				c0.975,0.454,2.095,0.583,3.152,0.386l0,0c0.284-0.053,0.564-0.131,0.836-0.231c-0.271,0.101-0.552,0.179-0.836,0.231
				l-0.671,16.443l-0.035,0.852l0.035-0.852c-0.095-0.009-0.226-0.019-0.389-0.024c-0.003,1.236-0.034,2.478,0.159,3.702
				c0.108,0.691,0.583,1.269,1.236,1.516c2.037,0.772,7.217,2.778,9.293,3.972c0.238,0.138,0.509,0.211,0.784,0.215
				c0.837,0.014,2.604-0.011,3.161-0.429c0,0,1.841-0.78,3.836-1.574c-1.617-0.637-3.125-1.536-4.409-2.682
				c-1.411-1.256-2.504-2.858-3.098-4.654c-0.244-0.734-0.433-1.52-0.451-2.297c2.844,3.536,7.562,5.118,12.022,4.63
				c0.085-0.009,0.17-0.016,0.256-0.026c0.207-0.027,0.413-0.061,0.619-0.096c0.18-0.031,0.358-0.066,0.537-0.104
				c0.805-0.171,1.596-0.41,2.355-0.724c0.04-0.017,0.082-0.032,0.123-0.049c0.154-0.065,0.306-0.136,0.453-0.205
				c1.002-0.479,1.855-1.075,2.584-1.767c2.003-1.898,3.07-4.518,3.709-7.414c1.037-4.7,1.298-9.525,1.699-14.308
				c0.068-0.801,0.132-1.604,0.192-2.406c0.14-1.837,0.257-3.675,0.352-5.514C102.06,34.216,101.968,34.21,101.876,34.203z
				 M66.907,40.951c-0.813,0.406-1.706,1.249-1.778,2.997C65.201,42.2,66.094,41.357,66.907,40.951
				c-0.778-0.534-1.466-0.619-1.466-0.619S66.128,40.417,66.907,40.951c0.662,0.454,1.388,1.232,1.813,2.563
				C68.294,42.184,67.568,41.405,66.907,40.951z M81.308,35.204c0.231-1.009,1.392-1.565,2.302-1.806
				c0.941-0.249,1.955-0.301,2.881,0c0.275,0.089,0.549,0.215,0.735,0.436c0.186,0.22,0.262,0.554,0.116,0.803
				c-0.188,0.323-0.626,0.37-0.998,0.396c-0.595,0.041-1.188,0.122-1.771,0.24c-0.369,0.075-0.734,0.166-1.095,0.271
				c-0.463,0.135-1.991,0.841-2.184,0.019C81.267,35.445,81.281,35.321,81.308,35.204z M82.463,38.76c0,0,2.156-2.032,4.136,0.231
				C84.619,36.728,82.463,38.76,82.463,38.76z M85.688,41.564c-0.095,1.209-0.655,2.151-1.253,2.104
				c-0.598-0.047-1.006-1.065-0.912-2.274c0.096-1.209,0.656-2.151,1.255-2.104C85.376,39.336,85.783,40.354,85.688,41.564z
				 M81.473,46.598c-1.011-0.136-1.772-0.668-1.703-1.189c0.07-0.522,0.945-0.836,1.956-0.702c1.011,0.135,1.772,0.667,1.703,1.19
				C83.359,46.418,82.483,46.733,81.473,46.598z M88.389,57.063c-0.092,0.023-0.178,0.035-0.262,0.039
				c-0.638,0.026-1.066-0.483-1.518-0.905c-0.577-0.541-1.312-0.917-2.089-1.063c-0.798-0.149-1.488-0.551-1.51-1.447
				c0-0.007,0-0.013,0-0.019c-0.002-0.167,0.017-0.325,0.052-0.477c0.095-0.395,0.31-0.736,0.6-1.011
				c0.513-0.487,1.255-0.767,1.957-0.766c1.479,0.002,2.991,0.937,3.712,2.212c0.226,0.396,0.348,0.916,0.346,1.434
				C89.672,55.951,89.288,56.834,88.389,57.063z M90.506,49.999l1.864-0.396c-0.717-2.371-0.861-10.839-0.861-10.839
				s0.145,8.468,0.861,10.839L90.506,49.999z M93.968,35.476c-0.108-0.268,0.014-0.587,0.229-0.779
				c0.214-0.191,0.503-0.278,0.787-0.328c0.959-0.168,1.956,0.025,2.853,0.404c0.867,0.366,1.938,1.079,2.025,2.111
				c0.011,0.12,0.008,0.244-0.035,0.356c-0.306,0.787-1.719-0.126-2.159-0.325c-0.343-0.155-0.693-0.295-1.046-0.421
				c-0.563-0.2-1.138-0.362-1.721-0.487C94.535,35.929,94.108,35.822,93.968,35.476z M98.242,40.21c0,0-1.579-2.506-4.062-0.809
				C96.663,37.705,98.242,40.21,98.242,40.21z M96.929,42.325c-0.096,1.209-0.657,2.151-1.254,2.104
				c-0.599-0.047-1.006-1.065-0.91-2.274c0.094-1.209,0.655-2.151,1.253-2.104C96.616,40.098,97.022,41.116,96.929,42.325z
				 M100.99,46.877c-0.07,0.522-0.946,0.836-1.957,0.701c-1.01-0.135-1.772-0.667-1.702-1.189c0.068-0.522,0.944-0.835,1.955-0.701
				C100.297,45.823,101.059,46.355,100.99,46.877z"/>
			<path fill="#E9BB8D" d="M119.33,114.205c-0.208-0.447-0.502-1.026-0.827-1.647c-1.032-1.969-2.392-4.362-2.392-4.362
				c-0.576-3.106-2.098-4.566-2.098-4.566c-0.37-0.947-1.661-4.758-1.661-4.758c0.14-3.516-0.705-4.382-0.868-4.516
				c-0.018-0.014-0.027-0.021-0.027-0.021s-1.229-0.869-3.307-0.52c2.078-0.35,3.307,0.52,3.307,0.52s0.01,0.007,0.027,0.021
				c0.036-0.522,0.049-1.66-0.413-2.535c0,0-0.729-1.289-1.056-1.938c-0.054,0.722-0.326,1.439-0.981,1.813
				c0.655-0.374,0.928-1.092,0.981-1.813c0.016-0.206,0.014-0.413-0.003-0.612c-0.087-1.058-1.136-1.844-2.13-1.997
				c-0.943-0.146-2.385,0.48-3.287,0.942c-0.135,0.068-0.257,0.134-0.365,0.193L103.354,93c0.094,0.068,0.198,0.14,0.318,0.208
				c0.813,0.475,2.212,0.868,4.024-0.278c-1.813,1.146-3.212,0.753-4.024,0.278c-0.12-0.068-0.225-0.14-0.318-0.208l-0.287,1.503
				c0.122-0.006,0.245-0.01,0.369-0.014c0.723-0.018,1.448,0.016,2.05,0.149c-0.602-0.134-1.327-0.167-2.05-0.149
				c-0.124,0.004-0.247,0.008-0.369,0.014c-1.594,0.076-3.073,0.372-3.073,0.372c-0.926-0.586-7.376-1.744-7.376-1.744
				c-1.944-0.354-3.401-0.342-4.496-0.126c-0.327,0.064-0.623,0.147-0.889,0.245c-0.854,0.311-1.401,0.766-1.753,1.22
				c-0.066,0.084-0.125,0.169-0.178,0.251c-0.395,0.624-0.067,1.452,0.646,1.646c5.854,1.592,12.564,4.401,12.564,4.401
				s2.067,0.452,3.692,0.206c0,0,2.941-0.264,3.929,0.073c-0.987-0.337-3.929-0.073-3.929-0.073
				c-1.625,0.246-3.692-0.206-3.692-0.206s-6.71-2.81-12.564-4.401c-0.713-0.194-1.04-1.022-0.646-1.646
				c0.053-0.082,0.111-0.167,0.178-0.251c-1.646-0.731-2.923-0.427-3.732-0.016c-0.562,0.286-0.703,1.024-0.283,1.495l0.864,0.971
				l3.063,3.438c0.188,0.211,0.409,0.385,0.659,0.519l7.447,3.969c0.396,0.212,0.832,0.34,1.279,0.38l4.136,0.356
				c2.129,0.231,6.85,1.76,6.85,1.76s-4.721-1.528-6.85-1.76l-4.136-0.356c-0.447-0.04-0.883-0.168-1.279-0.38l-7.447-3.969
				c-0.25-0.134-0.472-0.308-0.659-0.519l-3.063-3.438c-0.145,0.146-0.207,0.366-0.143,0.579l1.052,3.421l0.484,1.576
				c0.126,0.413,0.375,0.776,0.714,1.041l6.303,4.936c0.563,0.439,1.24,0.704,1.95,0.763l3.493,0.281
				c1.25,0,3.889,1.296,3.889,1.296s-2.639-1.296-3.889-1.296l-3.493-0.281c-0.71-0.059-1.388-0.323-1.95-0.763l-6.303-4.936
				c-0.339-0.265-0.588-0.628-0.714-1.041l-0.484-1.576c-0.344-0.046-0.653-0.036-0.901-0.005c-0.306,0.037-0.48,0.368-0.346,0.646
				l2.308,4.72c0.266,0.544,0.661,1.014,1.151,1.368l3.84,2.767c0.364,0.263,0.774,0.456,1.208,0.57l6.004,1.586
				c0,0,3.995,1.691,5.724,1.526c0,0,1.261,0.01,2.686-0.241c1.175-0.206,2.463-0.589,3.239-1.301
				c-0.776,0.712-2.064,1.095-3.239,1.301c0.245,0.238,0.597,0.638,0.853,1.168c0,0,1.027,2.165,1.77,4.393h15.088l-2.554-3.884
				C119.789,115.11,119.544,114.665,119.33,114.205z"/>
			<path fill="#1A3139" d="M66.296,16.879c-0.958,2.104-1.333,4.43-2.249,6.563c-0.684,1.59-1.647,3.695-3.343,4.431
				c0,0,0.631,0.865,2.57,1.282c0.299,0.064,0.628,0.118,0.991,0.156c-0.363-0.038-0.692-0.092-0.991-0.156
				c-0.055,0.412-0.127,1.04-0.179,1.808c-0.061,0.917-0.091,2.033-0.024,3.221c0.085,1.523,0.329,3.163,0.872,4.647
				c0.714-0.519,1.559-0.851,2.47-0.908c1.887-0.119,3.656,0.924,4.646,2.485c0.028,0.605,0.131,1.21,0.405,1.739
				c0.286,0.551,0.889,1.016,1.529,0.723c0.579-0.266,0.903-1.029,1.027-1.617c0.357-1.69,0.27-3.426,0.241-5.14
				c-0.07-4.192,0.502-10.898,5.627-11.927c1.252-0.251,2.64,0.025,3.813,0.584c3.002-2.031,5.849-0.183,5.849-0.183
				c0.454,0.252,0.839,0.616,1.17,1.014c0.542,0.651,0.932,1.395,1.29,2.158c0.206,0.441,0.337,0.915,0.557,1.354
				c0.23,0.461,0.505,0.9,0.819,1.309c1.06,1.381,2.528,2.319,4.153,2.901c1.392,0.498,2.864,0.762,4.335,0.88
				c0.092,0.007,0.184,0.013,0.275,0.019c0.584,0.041,1.171,0.062,1.755,0.036c-0.584,0.025-1.171,0.004-1.755-0.036
				c-0.095,1.839-0.212,3.677-0.352,5.514c8.516-11.719,3.855-19.328,2.271-21.34c-0.127,0.169-0.266,0.322-0.416,0.451
				c0.15-0.129,0.289-0.282,0.416-0.451c0.934-1.232,1.273-3.314,1.273-3.314c-2.31,0.745-4.99,0.197-6.82-1.395
				c-1.13-0.981-1.916-2.289-2.916-3.4c-2.597-2.888-6.724-4.269-10.493-3.162c-2.651,0.777-5.094,2.697-6.62,4.997
				c-1.991-0.866-4.408-1.1-6.504-0.53c-2.098,0.571-3.741,2.016-4.889,3.805c-0.225,0.35-0.431,0.714-0.617,1.087
				C66.419,16.614,66.356,16.746,66.296,16.879z M92.348,20.889c-6.07-3.331-8.53,2.486-8.53,2.486S86.277,17.558,92.348,20.889z
				 M83.643,21.954c0,0,0.496-4.647-4.582-9.756C84.139,17.306,83.643,21.954,83.643,21.954z"/>
			<path fill="#E9BB8D" d="M129.545,111.735c-0.325-1.035-0.667-2.064-1.02-3.092c-0.021,0.029-0.044,0.057-0.069,0.081
				c-2.625,2.691-8.226,3.608-9.953,3.833c0.325,0.621,0.619,1.2,0.827,1.647c0.214,0.46,0.459,0.905,0.737,1.329l2.554,3.884h8.695
				c-0.031-1.148-0.098-2.296-0.387-3.414C130.556,114.553,129.994,113.162,129.545,111.735z"/>
			
				<ellipse transform="matrix(-0.9969 -0.0782 0.0782 -0.9969 165.707 89.4507)" fill="#1A3139" cx="84.606" cy="41.479" rx="1.086" ry="2.196"/>
			
				<ellipse transform="matrix(0.078 -0.997 0.997 0.078 46.255 134.4977)" fill="#1A3139" cx="95.846" cy="42.24" rx="2.196" ry="1.085"/>
			
				<ellipse transform="matrix(0.9912 0.1323 -0.1323 0.9912 6.7553 -10.3918)" fill="#E8A28F" cx="81.599" cy="45.653" rx="1.846" ry="0.954"/>
			
				<ellipse transform="matrix(0.1326 -0.9912 0.9912 0.1326 39.7863 138.732)" fill="#E8A28F" cx="99.16" cy="46.634" rx="0.953" ry="1.845"/>
			<path fill="#1A3139" d="M83.478,35.543c0.36-0.105,0.726-0.196,1.095-0.271c0.584-0.119,1.177-0.2,1.771-0.24
				c0.372-0.026,0.81-0.073,0.998-0.396c0.146-0.249,0.069-0.583-0.116-0.803c-0.187-0.22-0.46-0.346-0.735-0.436
				c-0.926-0.301-1.939-0.249-2.881,0c-0.91,0.241-2.07,0.797-2.302,1.806c-0.026,0.118-0.041,0.241-0.014,0.358
				C81.486,36.384,83.015,35.678,83.478,35.543z"/>
			<path fill="#1A3139" d="M96.622,36.494c0.353,0.126,0.703,0.267,1.046,0.421c0.44,0.199,1.854,1.111,2.159,0.325
				c0.043-0.112,0.046-0.237,0.035-0.356c-0.087-1.032-1.158-1.745-2.025-2.111c-0.896-0.378-1.894-0.572-2.853-0.404
				c-0.284,0.049-0.573,0.136-0.787,0.328c-0.216,0.192-0.338,0.512-0.229,0.779c0.141,0.346,0.567,0.453,0.934,0.531
				C95.484,36.132,96.06,36.294,96.622,36.494z"/>
			<circle fill="#F7F3E2" cx="92.135" cy="86.895" r="1.191"/>
			<path fill="#048028" d="M91.786,119.417h15.747c-0.742-2.228-1.77-4.393-1.77-4.393c-0.256-0.53-0.607-0.93-0.853-1.168
				c-1.425,0.251-2.686,0.241-2.686,0.241c-1.729,0.165-5.724-1.526-5.724-1.526l-4.146-1.096l-1.654,1.613L91.786,119.417z"/>
			<path fill="#048028" d="M128.684,107.923c-0.071-0.314-0.171-0.771-0.272-1.278c-0.1-2.236-0.367-4.951-0.367-4.951
				c0.309-13.393-3.487-23.098-3.487-23.098c-0.741-3.796-2.916-4.629-2.916-4.629c-2.082-3.147-13.192-6.342-13.192-6.342
				c-2.71-1.819-9.115-3.179-12.249-3.761c-0.729,0.691-1.582,1.287-2.584,1.767c-0.632,1.514-2.011,2.832-3.112,3.705
				c-0.883,0.699-1.588,1.113-1.588,1.113c-0.966,0.316-2.373,0.856-3.708,1.389c-1.995,0.794-3.836,1.574-3.836,1.574
				c-0.558,0.418-2.324,0.442-3.161,0.429c-0.275-0.004-0.546-0.077-0.784-0.215c-2.076-1.193-7.257-3.199-9.293-3.972
				c-0.653-0.247-1.128-0.824-1.236-1.516c-0.193-1.225-0.162-2.466-0.159-3.702c-0.884-0.031-2.683,0.052-4.344,1.014
				c0,0-0.833,0.509-1.943,0.509c0,0-0.664-0.045-1.034,0.418c0,0-2.252,0.138-3.456,0.817c0,0-1.697-0.343-2.932,0.431
				c0,0-6.465-0.695-9.659,0c0,0-4.582-1.156-6.203-0.462c0,0-1.822-1.322-3.395-1.109c-0.31,0.042-0.604,0.158-0.866,0.33
				c-0.367,0.238-1.06,0.739-1.293,1.241c0,0-1.848,0.002-2.681,1.234c0.618,0.12,1.446,0.277,2.448,0.462
				c-1.057-0.32-1.773-0.392-1.773-0.392s0.717,0.071,1.773,0.392c2.327,0.705,6.303,2.616,7.917,7.624
				c0,0,2.715,8.192-0.988,12.088c0,0-1.052,1.076-2.509,1.718c-1.015,0.447-2.225,0.686-3.416,0.203
				c1.19,0.482,2.401,0.244,3.416-0.203c-1.039-0.128-3.933-0.484-6.408-0.772c0.905,0.743,2.795,1.889,5.889,1.96
				c0.043,0.001,0.084,0.003,0.128,0.003c0,0,3.765-0.765,5.123-0.722c-1.358-0.043-5.123,0.722-5.123,0.722
				c-0.043,0-0.085-0.002-0.128-0.003c1.155,0.679,3.589,2.076,4.976,2.627c0,0,2.009,1.255,2.965,3.097
				c-0.159-2.321-0.149-3.819-0.125-4.55c0.01-0.286,0.041-0.569,0.095-0.85c0.893-4.55-0.933-14.36-0.933-14.36
				s1.825,9.811,0.933,14.36c-0.055,0.28-0.085,0.563-0.095,0.85c-0.023,0.73-0.034,2.229,0.125,4.55
				c0.181,2.658,0.585,6.4,1.444,11.314c0,0,0.617,4.998,0.494,7.158l0.013,3.282h22.573l1.085-6.328l-10.935-10.658l6.899-1.002
				c-7.237-12.251-9.576-24.823-9.576-24.823s2.339,12.572,9.576,24.823l6.001-0.872C58.727,89.169,55.218,69.2,55.218,69.2
				s3.508,19.97,15.577,31.357l2.211-0.322l6.758-13.693l3.696,7.487c0.59-0.011,1.265,0.105,2.02,0.44
				c0.352-0.454,0.899-0.909,1.753-1.22l1.171-8.178c0.243-1.696,1.666-2.963,3.358-2.991l11.86-0.197
				c0.959-0.017,1.689,0.864,1.507,1.815l-0.125,0.656l-0.774,4.054c0.108-0.059,0.23-0.125,0.365-0.193
				c0.902-0.462,2.344-1.089,3.287-0.942c0.994,0.153,2.043,0.939,2.13,1.997c0.017,0.199,0.019,0.406,0.003,0.612
				c0.326,0.648,1.056,1.938,1.056,1.938c0.462,0.875,0.449,2.013,0.413,2.535c0.163,0.134,1.008,1,0.868,4.516
				c0,0,1.291,3.811,1.661,4.758c0,0,1.521,1.46,2.098,4.566c0,0,1.359,2.394,2.392,4.362c1.728-0.225,7.328-1.142,9.953-3.833
				c0.025-0.024,0.048-0.052,0.069-0.08C128.682,108.44,128.74,108.176,128.684,107.923z M52.163,68.232
				c0,0-3.518,2.449-1.203,10.503C48.646,70.681,52.163,68.232,52.163,68.232z M40.869,74.384c-3.055-5.879-6.233-7.128-6.233-7.128
				S37.814,68.505,40.869,74.384z M30.177,68.737c0,0,5.292-2.161,10.353,6.326C35.469,66.576,30.177,68.737,30.177,68.737z
				 M42.875,92.477c-0.561-2.595-2.437-2.858-2.979-2.88c-0.132-0.005-0.264-0.028-0.39-0.07c-0.59-0.191-0.704-0.402-0.704-0.402
				s0.113,0.211,0.704,0.402c0.126,0.042,0.257,0.065,0.39,0.07C40.438,89.619,42.314,89.882,42.875,92.477z M58.829,113.081
				c-3.703-5.647-8.657-24.047-8.657-24.047c-3.473-10.807-8.933-19.463-8.933-19.463s5.459,8.656,8.933,19.463
				C50.172,89.034,55.126,107.433,58.829,113.081z M64.784,72.255c-2.16-3.21-8.332-4.63-8.332-4.63S62.625,69.045,64.784,72.255
				c0,0,5.061,8.887,7.961,10.244C69.845,81.142,64.784,72.255,64.784,72.255z M78.312,80.892c-0.71-0.446-1.344-1.004-1.879-1.65
				c-4.01-4.847-11.031-6.986-11.031-6.986s7.021,2.14,11.031,6.986C76.968,79.888,77.602,80.446,78.312,80.892
				c2.351,1.48,7.497,4.802,8.896,6.359C85.809,85.694,80.662,82.373,78.312,80.892z M122.752,77.81c0,0-3.518,12.59-6.342,15.32
				C119.234,90.4,122.752,77.81,122.752,77.81z M113.354,101.508c1.112-3.086,3.581-10.49,4.074-14.317
				c0.494-3.827,4.073-12.529,4.073-12.529s-3.579,8.702-4.073,12.529C116.936,91.018,114.467,98.422,113.354,101.508z
				 M114.189,102.527c6.42-2.646,7.555-6.757,7.672-7.262c0.014-0.059,0.028-0.117,0.045-0.176c0.584-2.075,2.142-6.056,2.142-6.056
				s-1.558,3.98-2.142,6.056c-0.017,0.059-0.031,0.117-0.045,0.176C121.744,95.77,120.609,99.88,114.189,102.527z M117.429,107.341
				c9.952-3.935,9.905-14.905,9.905-14.905S127.381,103.407,117.429,107.341z"/>
			<path fill="#FCA800" d="M73.007,100.235l-2.211,0.322c0.176,0.165,0.352,0.328,0.531,0.49c-0.179-0.162-0.355-0.325-0.531-0.49
				l-6.001,0.872c2.53,4.281,5.658,8.523,9.495,12.176c-3.836-3.652-6.965-7.895-9.495-12.176l-6.899,1.002l10.935,10.658
				l-1.085,6.328h24.041l-1.085-6.328l1.654-1.613l-1.857-0.49c-0.434-0.114-0.844-0.308-1.208-0.57l-3.84-2.767
				c-0.49-0.354-0.886-0.824-1.151-1.368l-2.308-4.72c-0.135-0.278,0.04-0.609,0.346-0.646c0.248-0.031,0.558-0.041,0.901,0.005
				l-1.052-3.421c-0.064-0.213-0.002-0.433,0.143-0.579l-0.864-0.971c-0.42-0.471-0.278-1.209,0.283-1.495
				c0.438-0.223,1.015-0.412,1.713-0.425l-3.696-7.487L73.007,100.235z"/>
		</g>
		<g>
			<path opacity="0.15" d="M11.888,82.734c0,0,6.784,5.316,16.674,4.443c6.449-0.569,10.255-7.578,7.118-13.241
				c-1.159-2.092-2.939-3.929-5.663-4.869c0,0,8.118,0.035,12.823,12.555c0,0,1.131,6.789,0.286,11.064l-0.141,4.568
				c0,0-1.083-1.718-2.73-2.688c0,0-3.724-1.802-4.671-2.448c0,0-4.456-0.503-6.194-2.139
				C29.391,89.979,19.353,89.322,11.888,82.734z"/>
			<path opacity="0.15" d="M57.182,36.199c0,0,1.751-0.089,3.833-2.663c0,0,1.56-1.733,0.818-4.857c0,0,0.837,0.368,1.442,0.476
				c0,0-0.399,3.105-0.203,5.028C63.072,34.183,61.197,37.525,57.182,36.199z"/>
			<path opacity="0.15" d="M47.782,82.552c0,0,2.687,12.276,2.74,16.107c0,0,1.01,17.533,3.084,20.758h8.454
				c0,0-7.212-12.303-9.827-23.281C52.233,96.136,48.467,83.567,47.782,82.552z"/>
			<path opacity="0.15" d="M119.118,81.004c0,0-1.673,5.979-0.681,8.522c0,0-1.143,2.968-2.468,3.926l1.459-5.887
				C117.429,87.566,118.062,82.699,119.118,81.004z"/>
			<path opacity="0.15" d="M114.398,98.154c0,0-0.426,3.784,1.067,3.795c0,0-0.448,4.919,3.652,4.698c0,0,2.947,6.073,8.588,2.866
				c0,0-7.613,3.342-7.406,6.168l-4.188-7.486c0,0-1.059-3.959-2.239-4.418l-0.532-2.027L114.398,98.154z"/>
			<path opacity="0.15" d="M103.354,93l-0.287,1.503c0,0,1.794-0.088,2.419,0.136c0,0,2.027-0.712,3.12-0.882
				c0,0-0.177-0.552,1.047-2.664c1.223-2.112,0.138,0.397-2.031,1.884C107.622,92.976,105.304,94.309,103.354,93z"/>
			<path opacity="0.15" d="M108.053,112.64c0,0-1.702,2.378-1.153,4.499l-1.478-2.687l-0.511-0.596
				C104.911,113.857,107.549,113.34,108.053,112.64z"/>
			<path opacity="0.15" d="M105.764,107.341c0,0-5.741-0.888-7.867-0.424c0,0-2.524-0.842-3.39-1.533
				C94.507,105.384,99.25,105.04,105.764,107.341z"/>
			<path opacity="0.15" d="M112.195,98.557c0,0,0.529,1.969,0,2.951c0,0,0.392,2.631,0.118,3.481c0,0-0.807,1.251-0.911,1.928
				c0,0,1.647-1.608,1.647-2.14C113.05,104.778,112.856,100.364,112.195,98.557z"/>
			<path opacity="0.15" d="M83.219,70.888c0,0,2.63,0.887,3.15,2.102c0,0,15.225,5.572,22.009-5.26c0,0-1.713-1.922-12.179-3.865
				c0,0-2.423,2.086-5.52,2.803l-0.102,1.538l-2.032,1.111C88.546,69.317,85.866,69.885,83.219,70.888z"/>
		</g>
		<g>
			<g>
				<path fill="#1A3139" d="M85.787,38.1c-0.343-0.232-0.762-0.373-1.188-0.387c-0.425-0.013-0.845,0.094-1.21,0.28
					c-0.363,0.188-0.69,0.442-0.927,0.767c0.35-0.19,0.698-0.349,1.054-0.461c0.354-0.113,0.714-0.175,1.069-0.164
					c0.354,0.014,0.704,0.1,1.038,0.254c0.335,0.153,0.651,0.368,0.975,0.603C86.408,38.641,86.13,38.335,85.787,38.1z"/>
				<path fill="#1A3139" d="M97.536,39.236c-0.306-0.271-0.686-0.48-1.102-0.573c-0.415-0.092-0.856-0.062-1.245,0.079
					c-0.391,0.142-0.736,0.368-1.009,0.66c0.371-0.147,0.73-0.276,1.093-0.341c0.362-0.067,0.723-0.062,1.07,0.013
					c0.347,0.08,0.679,0.229,0.993,0.427c0.316,0.197,0.614,0.438,0.905,0.709C98.096,39.836,97.842,39.509,97.536,39.236z"/>
			</g>
			<path fill="#E8A28F" d="M87.376,56.746c-0.213-0.182-0.395-0.402-0.598-0.616c-0.412-0.439-0.935-0.792-1.508-1.004
				c-0.143-0.053-0.29-0.095-0.438-0.133c-0.074-0.018-0.148-0.034-0.224-0.049L84.4,54.905c-0.269-0.054-0.523-0.146-0.746-0.283
				c-0.112-0.068-0.206-0.157-0.292-0.255c-0.085-0.098-0.153-0.213-0.197-0.34c-0.103-0.252-0.122-0.545-0.103-0.836
				c-0.11,0.272-0.154,0.581-0.097,0.892c0.054,0.311,0.242,0.605,0.495,0.805c0.252,0.205,0.551,0.321,0.848,0.405
				c0.155,0.041,0.289,0.062,0.422,0.1c0.132,0.037,0.265,0.078,0.393,0.129c0.52,0.194,1.001,0.479,1.428,0.847
				c0.218,0.188,0.442,0.388,0.704,0.546c0.261,0.156,0.58,0.252,0.872,0.188C87.832,57.068,87.582,56.931,87.376,56.746z"/>
			<g>
				<path fill="#3C545E" d="M89.418,24.888c0.208,0.129,0.384,0.272,0.558,0.439c0.171,0.165,0.333,0.344,0.484,0.536
					c0.303,0.383,0.558,0.807,0.786,1.252c0.112,0.224,0.225,0.45,0.333,0.681c0.056,0.12,0.104,0.223,0.149,0.336
					c0.045,0.112,0.089,0.23,0.134,0.351c0.089,0.241,0.181,0.497,0.304,0.755c0.12,0.251,0.249,0.487,0.391,0.721
					c0.287,0.462,0.617,0.9,0.992,1.298c0.376,0.395,0.787,0.756,1.23,1.069c0.888,0.621,1.872,1.09,2.894,1.391
					c1.016,0.312,2.061,0.489,3.104,0.578c0.523,0.038,1.047,0.061,1.567,0.057c0.522-0.002,1.046-0.025,1.562-0.094
					c-0.521-0.024-1.034-0.075-1.547-0.14c-0.513-0.065-1.023-0.137-1.527-0.234c-1.01-0.183-2-0.442-2.949-0.792
					c-0.474-0.179-0.932-0.38-1.375-0.611c-0.441-0.234-0.862-0.5-1.257-0.799c-0.787-0.598-1.464-1.325-1.977-2.166
					c-0.129-0.207-0.252-0.425-0.358-0.64c-0.102-0.209-0.189-0.44-0.283-0.685c-0.046-0.122-0.095-0.247-0.148-0.374
					c-0.053-0.127-0.115-0.257-0.17-0.373c-0.116-0.237-0.234-0.475-0.366-0.708c-0.263-0.466-0.562-0.925-0.919-1.342
					c-0.177-0.208-0.368-0.41-0.581-0.592c-0.211-0.18-0.451-0.35-0.693-0.479c-0.966-0.536-2.063-0.779-3.14-0.708l-0.202,0.015
					c-0.066,0.004-0.134,0.021-0.199,0.03c-0.133,0.023-0.266,0.041-0.396,0.07c-0.258,0.073-0.518,0.131-0.76,0.244l-0.185,0.076
					l-0.092,0.038l-0.087,0.047l-0.347,0.189c-0.118,0.058-0.221,0.143-0.328,0.216l-0.316,0.229
					c0.466-0.234,0.931-0.458,1.427-0.573c0.243-0.074,0.496-0.104,0.743-0.144c0.124-0.015,0.25-0.016,0.375-0.024
					c0.063-0.002,0.125-0.01,0.187-0.007l0.188,0.008c0.496,0.013,0.99,0.095,1.463,0.245
					C88.555,24.428,89.014,24.622,89.418,24.888z"/>
				<path fill="#3C545E" d="M85.405,21.439c0.618-0.545,1.336-0.971,2.117-1.188c0.388-0.116,0.792-0.18,1.199-0.188l0.152-0.008
					l0.154,0.004c0.103,0.005,0.205,0.002,0.307,0.012c0.204,0.024,0.409,0.036,0.612,0.076c0.816,0.136,1.616,0.411,2.4,0.742
					c-0.701-0.485-1.488-0.859-2.335-1.064c-0.841-0.212-1.753-0.224-2.606,0.021c-0.424,0.125-0.833,0.304-1.207,0.534
					c-0.373,0.234-0.719,0.508-1.021,0.822c-0.604,0.625-1.082,1.366-1.361,2.173C84.253,22.645,84.788,21.991,85.405,21.439z"/>
				<path fill="#3C545E" d="M83.686,20.561l-0.031-0.349l-0.049-0.347c-0.028-0.233-0.084-0.46-0.133-0.688
					c-0.044-0.23-0.113-0.454-0.18-0.679c-0.034-0.112-0.062-0.226-0.103-0.336l-0.119-0.331l-0.121-0.329
					c-0.043-0.11-0.095-0.215-0.141-0.322c-0.099-0.212-0.188-0.43-0.294-0.637l-0.337-0.616l-0.084-0.154l-0.093-0.147
					l-0.188-0.295c-0.247-0.397-0.528-0.77-0.815-1.136c-0.139-0.188-0.294-0.361-0.451-0.533l-0.468-0.516
					c-0.331-0.327-0.672-0.641-1.019-0.947c0.278,0.372,0.578,0.722,0.861,1.083l0.409,0.554c0.137,0.185,0.28,0.361,0.401,0.557
					c0.127,0.191,0.254,0.38,0.384,0.568l0.097,0.142l0.087,0.147l0.174,0.294l0.178,0.292l0.089,0.146l0.08,0.151l0.319,0.603
					c0.406,0.813,0.752,1.655,1.016,2.526c0.255,0.873,0.452,1.771,0.487,2.695C83.722,21.496,83.715,21.026,83.686,20.561z"/>
				<path fill="#3C545E" d="M105.313,14.989c-1.251,0.375-2.598,0.38-3.85,0.047c-1.255-0.329-2.402-1.009-3.291-1.946
					c-0.9-0.936-1.602-2.069-2.521-3.057L95.3,9.668c-0.117-0.121-0.247-0.229-0.37-0.344C94.687,9.09,94.412,8.892,94.15,8.68
					c-0.137-0.099-0.277-0.191-0.415-0.288l-0.21-0.143L93.31,8.121l-0.437-0.256l-0.451-0.228c-0.076-0.037-0.15-0.078-0.228-0.112
					l-0.233-0.098c-0.155-0.064-0.309-0.135-0.467-0.193c-0.319-0.108-0.633-0.229-0.962-0.308c-0.164-0.04-0.324-0.094-0.49-0.123
					l-0.496-0.096c-0.165-0.036-0.334-0.046-0.501-0.069c-0.168-0.019-0.335-0.046-0.502-0.049l-0.506-0.025
					C87.868,6.56,87.7,6.569,87.532,6.571l-0.254,0.006C87.194,6.582,87.11,6.592,87.027,6.6l-0.503,0.052l-0.497,0.09L85.78,6.789
					l-0.245,0.064l-0.486,0.13l-0.478,0.161c-1.259,0.464-2.428,1.151-3.453,2.001c-1.022,0.853-1.925,1.851-2.624,2.976
					c0.769-1.077,1.692-2.037,2.738-2.833c1.044-0.795,2.198-1.45,3.436-1.866l0.468-0.143l0.475-0.115l0.237-0.056l0.24-0.038
					l0.48-0.075l0.487-0.04c0.079-0.006,0.161-0.016,0.242-0.019l0.242-0.002c0.163,0,0.325-0.007,0.488-0.002l0.485,0.031
					c0.162,0.005,0.323,0.034,0.483,0.054c0.159,0.025,0.322,0.036,0.48,0.072l0.478,0.1c0.159,0.029,0.313,0.084,0.47,0.124
					c0.314,0.077,0.617,0.196,0.925,0.301c0.151,0.056,0.299,0.125,0.448,0.188l0.225,0.096c0.074,0.033,0.145,0.072,0.217,0.108
					l0.435,0.221l0.417,0.249L93.3,8.602l0.2,0.139c0.133,0.093,0.269,0.182,0.399,0.278c0.251,0.205,0.518,0.392,0.751,0.617
					c0.119,0.11,0.245,0.214,0.358,0.33l0.339,0.349c0.889,0.945,1.599,2.081,2.551,3.042c0.473,0.483,1.015,0.907,1.604,1.242
					c0.591,0.333,1.229,0.575,1.887,0.732c1.258,0.298,2.596,0.277,3.828-0.107c-0.049,0.287-0.111,0.575-0.184,0.858
					c-0.087,0.337-0.189,0.669-0.311,0.995c-0.12,0.326-0.266,0.643-0.438,0.943c-0.173,0.301-0.371,0.592-0.632,0.827
					c0.273-0.22,0.491-0.502,0.683-0.796c0.189-0.296,0.348-0.612,0.485-0.936c0.136-0.325,0.253-0.656,0.356-0.992
					c0.102-0.338,0.19-0.677,0.259-1.026l0.032-0.155L105.313,14.989z"/>
				<path fill="#3C545E" d="M105.107,82.545c-0.223-0.391-0.606-0.695-1.051-0.804c-0.221-0.059-0.461-0.055-0.651-0.051
					l-0.605,0.007l-4.838,0.068l-4.838,0.093l-1.211,0.028l-0.15,0.003l-0.16,0.01l-0.158,0.012
					c-0.053,0.006-0.105,0.016-0.157,0.023c-0.105,0.016-0.211,0.033-0.313,0.063c-0.104,0.025-0.206,0.051-0.305,0.089
					c-0.808,0.273-1.5,0.848-1.927,1.575c-0.215,0.363-0.365,0.763-0.444,1.176c-0.04,0.21-0.062,0.405-0.089,0.606l-0.079,0.6
					l-0.313,2.399c-0.193,1.602-0.403,3.201-0.584,4.806c0.275-1.591,0.524-3.185,0.787-4.776l0.373-2.391l0.093-0.599
					c0.031-0.198,0.06-0.401,0.1-0.588c0.083-0.378,0.229-0.739,0.433-1.065c0.405-0.652,1.044-1.154,1.768-1.393
					c0.089-0.034,0.183-0.057,0.275-0.078c0.093-0.026,0.186-0.039,0.28-0.052c0.048-0.007,0.095-0.016,0.141-0.021l0.144-0.008
					l0.143-0.009l0.151-0.001l1.211-0.013l4.838-0.069l4.838-0.092l0.604-0.014c0.212-0.006,0.379-0.01,0.552,0.032
					c0.344,0.077,0.646,0.312,0.825,0.617c0.091,0.152,0.15,0.322,0.176,0.498c0.004,0.044,0.01,0.089,0.012,0.133l-0.001,0.133
					c-0.009,0.09-0.02,0.174-0.039,0.278l-0.212,1.19l-0.85,4.765c-0.269,1.591-0.551,3.18-0.807,4.773
					c0.35-1.576,0.673-3.156,1.01-4.734l0.965-4.742l0.241-1.186c0.021-0.094,0.039-0.209,0.05-0.32l0.004-0.169
					c-0.003-0.057-0.009-0.112-0.014-0.168C105.294,82.958,105.22,82.742,105.107,82.545z"/>
			</g>
			<g>
				<path fill="#A0724A" d="M90.506,49.999c0.318-0.029,0.636-0.069,0.95-0.108c0.316-0.045,0.633-0.083,0.947-0.134l0.152-0.025
					l-0.035-0.174c-0.176-0.864-0.247-1.769-0.325-2.665l-0.2-2.704c-0.061-0.903-0.131-1.807-0.207-2.71
					c-0.079-0.904-0.161-1.809-0.279-2.714c-0.081,0.91-0.108,1.819-0.118,2.73c-0.004,0.909,0.013,1.819,0.059,2.728
					c0.045,0.909,0.119,1.818,0.225,2.724c0.063,0.453,0.117,0.907,0.208,1.358c0.036,0.225,0.096,0.45,0.144,0.675
					c0.022,0.112,0.057,0.225,0.093,0.336l0.056,0.183c-0.252,0.069-0.502,0.144-0.754,0.215
					C91.114,49.804,90.809,49.897,90.506,49.999z"/>
				<path fill="#A0724A" d="M88.829,67.034c0.546-0.027,1.089-0.102,1.625-0.202c0.064-0.01,0.126-0.022,0.188-0.035
					c-0.036,0.163-0.064,0.325-0.086,0.489c-0.033,0.227-0.053,0.452-0.069,0.681c-0.006,0.102-0.01,0.201-0.015,0.303
					c-0.005,0.126-0.009,0.253-0.007,0.381c0,0.228,0.009,0.456,0.037,0.687c0.06-0.223,0.097-0.45,0.127-0.677
					c0.024-0.175,0.042-0.35,0.058-0.525c0.003-0.051,0.007-0.103,0.012-0.154c0.012-0.228,0.023-0.455,0.022-0.684
					c-0.001-0.171-0.009-0.34-0.022-0.512c0.453-0.092,0.904-0.208,1.348-0.347c0.439-0.138,0.874-0.296,1.298-0.482
					c0.079-0.031,0.157-0.067,0.234-0.104c0.501-0.229,0.985-0.495,1.445-0.803c0.458-0.306,0.89-0.649,1.293-1.026
					c0.399-0.381,0.77-0.79,1.108-1.225c0.67-0.874,1.208-1.843,1.629-2.854c0.213-0.504,0.391-1.021,0.551-1.544
					c0.163-0.521,0.302-1.049,0.424-1.579c0.239-1.061,0.438-2.127,0.607-3.198s0.309-2.146,0.427-3.223
					c0.121-1.076,0.216-2.154,0.299-3.232l0.465-6.469c0.078-1.078,0.118-2.159,0.175-3.238c0.055-1.08,0.104-2.159,0.15-3.24
					c-0.192,2.154-0.327,4.311-0.531,6.461l-0.583,6.457c-0.214,2.149-0.426,4.296-0.78,6.422c-0.362,2.122-0.764,4.253-1.593,6.221
					c-0.404,0.986-0.919,1.927-1.56,2.771c-0.322,0.419-0.677,0.815-1.057,1.184c-0.385,0.363-0.8,0.696-1.238,0.992
					c-0.878,0.596-1.857,1.036-2.873,1.361c-0.507,0.161-1.025,0.294-1.548,0.396c-0.524,0.106-1.054,0.19-1.586,0.225
					c-2.129,0.185-4.305-0.103-6.313-0.858c-1.005-0.374-1.968-0.868-2.854-1.48c-0.883-0.612-1.691-1.34-2.388-2.167
					c1.32,1.72,3.152,3.022,5.166,3.839C84.439,66.851,86.649,67.182,88.829,67.034z"/>
				<path fill="#A0724A" d="M69.119,38.446c-0.808-0.475-1.76-0.731-2.713-0.684c-0.956,0.039-1.888,0.399-2.653,0.967
					c-0.771,0.567-1.377,1.344-1.767,2.215c-0.1,0.218-0.18,0.443-0.248,0.673c-0.069,0.229-0.109,0.466-0.154,0.702
					c-0.07,0.475-0.068,0.958-0.009,1.433c0.056,0.477,0.2,0.938,0.392,1.375c0.193,0.436,0.439,0.851,0.749,1.213
					c0.308,0.363,0.66,0.688,1.051,0.956c0.201,0.126,0.398,0.258,0.615,0.354c0.209,0.109,0.43,0.197,0.653,0.271
					c0.892,0.299,1.857,0.327,2.758,0.134c-0.144,1.425-0.247,2.852-0.336,4.278c-0.049,0.72-0.083,1.44-0.123,2.161l-0.1,2.161
					l-0.078,2.162c-0.018,0.722-0.043,1.441-0.053,2.163c-0.028,1.443-0.041,2.886-0.012,4.331c0.147-1.438,0.251-2.877,0.341-4.318
					c0.049-0.719,0.083-1.439,0.124-2.16l0.099-2.16l0.077-2.163c0.018-0.721,0.043-1.441,0.053-2.163
					c0.027-1.43,0.04-2.86,0.013-4.292c0.002-0.001,0.004-0.001,0.006-0.002l-0.006,0.001l0.006-0.001
					c0.285-0.063,0.563-0.155,0.829-0.268c-0.275,0.089-0.558,0.152-0.843,0.195h0.003H67.79c-0.452,0.066-0.911,0.077-1.362,0.027
					c-0.45-0.053-0.893-0.155-1.312-0.316c-0.209-0.081-0.414-0.174-0.607-0.287c-0.2-0.102-0.382-0.232-0.567-0.356
					c-0.359-0.266-0.678-0.581-0.954-0.929c-0.279-0.346-0.501-0.735-0.672-1.144c-0.17-0.407-0.289-0.838-0.338-1.276
					c-0.052-0.438-0.05-0.882,0.017-1.319c0.043-0.216,0.081-0.434,0.146-0.645c0.066-0.21,0.139-0.419,0.228-0.622
					c0.354-0.812,0.919-1.53,1.62-2.071c0.699-0.542,1.552-0.888,2.437-0.96c0.887-0.071,1.795,0.123,2.598,0.538
					c0.809,0.407,1.506,1.034,2.038,1.786C70.605,39.605,69.924,38.926,69.119,38.446z"/>
				<path fill="#A0724A" d="M65.406,42.085c-0.16,0.285-0.265,0.598-0.311,0.915c-0.043,0.317-0.037,0.638,0.034,0.948
					c0.105-0.302,0.185-0.591,0.287-0.868c0.101-0.277,0.219-0.54,0.358-0.788c0.14-0.248,0.303-0.482,0.493-0.702
					c0.15-0.174,0.318-0.338,0.497-0.506c0.214,0.162,0.417,0.336,0.604,0.526c0.269,0.27,0.509,0.568,0.729,0.888
					s0.417,0.662,0.623,1.016c-0.04-0.409-0.161-0.806-0.336-1.181c-0.18-0.373-0.421-0.722-0.717-1.02
					c-0.295-0.298-0.644-0.544-1.023-0.718c-0.379-0.17-0.791-0.283-1.203-0.263c0.377,0.153,0.721,0.339,1.042,0.553
					c0.063,0.042,0.124,0.085,0.184,0.129c-0.224,0.075-0.435,0.19-0.627,0.334C65.783,41.546,65.566,41.8,65.406,42.085z"/>
				<path fill="#A0724A" d="M120.91,116.657l-0.861-1.374c-0.137-0.229-0.266-0.465-0.384-0.703
					c-0.12-0.238-0.225-0.484-0.348-0.729c-0.239-0.487-0.472-0.979-0.717-1.464l-0.767-1.433c-0.51-0.943-1.014-1.891-1.528-2.831
					c-0.042-0.2-0.08-0.4-0.127-0.599c-0.058-0.209-0.102-0.42-0.17-0.625c-0.12-0.416-0.275-0.82-0.443-1.22
					c-0.178-0.396-0.378-0.78-0.609-1.15c-0.114-0.184-0.235-0.365-0.367-0.539c-0.124-0.163-0.247-0.317-0.397-0.473
					c-0.144-0.375-0.28-0.759-0.419-1.142l-0.423-1.186l-0.828-2.349c0.015-0.674,0.003-1.349-0.068-2.021
					c-0.037-0.343-0.093-0.684-0.173-1.02c-0.08-0.337-0.183-0.673-0.343-0.987c-0.078-0.158-0.176-0.309-0.301-0.443
					c-0.033-0.033-0.064-0.066-0.107-0.098c-0.007-0.005-0.015-0.01-0.022-0.015c0.095-0.364,0.128-0.743,0.113-1.123
					c-0.018-0.412-0.101-0.831-0.271-1.225c-0.094-0.205-0.193-0.367-0.295-0.541c-0.103-0.172-0.207-0.343-0.317-0.509
					c-0.184-0.28-0.376-0.557-0.591-0.82c0.023-0.15,0.038-0.302,0.043-0.452c0.005-0.106,0.005-0.212,0-0.318
					c-0.011-0.11-0.02-0.225-0.048-0.332c-0.051-0.22-0.139-0.43-0.257-0.619c-0.236-0.379-0.578-0.674-0.953-0.895
					c-0.383-0.209-0.801-0.352-1.252-0.37c-0.445-0.001-0.861,0.094-1.258,0.228c-0.789,0.269-1.516,0.662-2.191,1.127
					c0.757-0.31,1.514-0.612,2.285-0.811c0.385-0.091,0.775-0.169,1.147-0.145c0.179,0.013,0.364,0.051,0.545,0.106
					c0.18,0.06,0.351,0.139,0.516,0.231c0.329,0.185,0.621,0.438,0.825,0.744c0.106,0.151,0.186,0.318,0.234,0.493
					c0.03,0.088,0.038,0.178,0.056,0.269c0.012,0.098,0.02,0.193,0.023,0.291c0.014,0.391-0.021,0.784-0.146,1.155
					c-0.121,0.37-0.351,0.71-0.683,0.952c0.381-0.161,0.688-0.492,0.872-0.873c0.095-0.199,0.164-0.409,0.21-0.625
					c0.097,0.278,0.209,0.548,0.327,0.816c0.082,0.184,0.169,0.365,0.259,0.545c0.087,0.179,0.19,0.362,0.262,0.522
					c0.148,0.343,0.252,0.711,0.328,1.095c0.072,0.342,0.121,0.694,0.174,1.055c-0.017-0.01-0.034-0.019-0.053-0.029
					c-0.078-0.044-0.156-0.081-0.236-0.118c-0.316-0.141-0.65-0.237-0.988-0.3s-0.682-0.088-1.023-0.083s-0.681,0.055-1.015,0.114
					c0.675-0.085,1.36-0.07,2.014,0.082c0.327,0.077,0.646,0.188,0.942,0.337c0.073,0.038,0.146,0.077,0.216,0.121
					c0.075,0.044,0.123,0.081,0.174,0.145c0.1,0.119,0.182,0.261,0.248,0.409c0.14,0.297,0.228,0.619,0.292,0.945
					c0.065,0.327,0.107,0.66,0.133,0.993c0.052,0.67,0.047,1.344,0.015,2.016l-0.002,0.03l0.011,0.031
					c0.259,0.8,0.528,1.596,0.795,2.394l0.405,1.192c0.14,0.398,0.278,0.793,0.43,1.192l0.015,0.038l0.035,0.036
					c0.13,0.132,0.265,0.298,0.386,0.461c0.122,0.164,0.237,0.336,0.346,0.513c0.217,0.351,0.405,0.722,0.576,1.1
					c0.164,0.383,0.314,0.77,0.433,1.169c0.066,0.197,0.109,0.401,0.166,0.602c0.049,0.204,0.088,0.408,0.134,0.611l0.007,0.036
					l0.016,0.027c0.519,0.948,1.05,1.889,1.576,2.834l0.793,1.414c0.254,0.476,0.498,0.956,0.748,1.435
					c0.125,0.236,0.242,0.485,0.373,0.726c0.132,0.24,0.272,0.477,0.421,0.707c0.303,0.454,0.609,0.896,0.919,1.342
					c0.618,0.89,1.229,1.782,1.856,2.665C122.06,118.492,121.481,117.576,120.91,116.657z"/>
				<path fill="#A0724A" d="M103.801,93.396c0.167,0.111,0.346,0.208,0.534,0.285c0.378,0.15,0.792,0.22,1.202,0.203
					c0.409-0.016,0.813-0.119,1.179-0.284c0.366-0.168,0.7-0.394,0.981-0.671c-0.375,0.128-0.732,0.263-1.094,0.357
					c-0.36,0.098-0.722,0.161-1.085,0.176c-0.362,0.016-0.725-0.018-1.085-0.097c-0.18-0.043-0.361-0.089-0.538-0.153
					c-0.183-0.058-0.351-0.146-0.541-0.213C103.489,93.142,103.636,93.282,103.801,93.396z"/>
				<path fill="#A0724A" d="M106.831,113.383c0.481-0.201,0.944-0.466,1.319-0.827c-0.396,0.34-0.87,0.564-1.351,0.746
					c-0.484,0.182-0.989,0.303-1.494,0.398c-0.509,0.094-1.022,0.154-1.537,0.199c-0.512,0.043-1.031,0.066-1.542,0.061h-0.003
					l-0.011,0.001c-0.47,0.027-0.958-0.053-1.435-0.158c-0.479-0.105-0.953-0.235-1.422-0.388c-0.471-0.15-0.938-0.309-1.4-0.481
					c-0.463-0.171-0.926-0.353-1.377-0.545l-0.013-0.005l-0.014-0.004c-1.699-0.457-3.397-0.912-5.1-1.357l-0.637-0.167
					l-0.315-0.084c-0.101-0.028-0.2-0.06-0.297-0.097c-0.194-0.074-0.381-0.163-0.56-0.271c-0.089-0.054-0.174-0.109-0.261-0.173
					l-0.269-0.192l-2.15-1.528l-1.075-0.763c-0.179-0.128-0.366-0.25-0.526-0.379c-0.163-0.132-0.314-0.278-0.452-0.438
					c-0.137-0.159-0.261-0.331-0.368-0.513c-0.104-0.178-0.197-0.381-0.3-0.576l-0.598-1.176c-0.397-0.785-0.802-1.565-1.206-2.346
					l-0.303-0.587c-0.048-0.099-0.111-0.196-0.136-0.287c-0.023-0.098-0.011-0.202,0.036-0.291c0.048-0.089,0.13-0.16,0.227-0.194
					c0.094-0.032,0.211-0.037,0.318-0.049c0.172-0.015,0.347-0.013,0.521-0.001c0.094,0.331,0.188,0.663,0.283,0.994l0.181,0.624
					c0.063,0.222,0.162,0.437,0.292,0.632c0.128,0.193,0.288,0.37,0.471,0.517l0.507,0.404c0.677,0.54,1.351,1.084,2.031,1.617
					l2.042,1.604l1.023,0.797l0.513,0.399c0.165,0.13,0.352,0.276,0.549,0.388c0.393,0.234,0.826,0.396,1.274,0.477
					c0.224,0.042,0.453,0.055,0.664,0.069l0.648,0.044c0.863,0.056,1.727,0.114,2.591,0.163l0.009,0.001l0.001-0.001
					c0.323-0.005,0.658,0.066,0.987,0.145c0.33,0.079,0.657,0.175,0.98,0.284c0.325,0.109,0.647,0.227,0.967,0.353
					c0.318,0.127,0.639,0.252,0.954,0.389c-0.304-0.161-0.61-0.317-0.924-0.463c-0.311-0.146-0.627-0.282-0.947-0.411
					c-0.319-0.131-0.645-0.249-0.977-0.351c-0.334-0.098-0.675-0.185-1.041-0.197l0.011,0.001c-0.861-0.092-1.723-0.171-2.584-0.255
					l-0.646-0.062c-0.22-0.02-0.424-0.035-0.625-0.077c-0.401-0.081-0.789-0.233-1.137-0.448c-0.176-0.107-0.331-0.231-0.504-0.368
					l-0.51-0.402l-1.021-0.804l-2.047-1.598c-0.681-0.532-1.37-1.056-2.056-1.585l-0.515-0.395c-0.159-0.12-0.298-0.263-0.413-0.426
					c-0.115-0.162-0.206-0.342-0.267-0.535l-0.201-0.617c-0.271-0.821-0.539-1.646-0.82-2.464l-0.418-1.229l-0.211-0.615
					c-0.061-0.148-0.05-0.323,0.024-0.469l0.912,1.051l1.372,1.571l0.688,0.783c0.117,0.138,0.257,0.272,0.406,0.385
					c0.146,0.114,0.32,0.212,0.467,0.29l3.678,1.972l3.691,1.954c0.328,0.166,0.685,0.28,1.048,0.335
					c0.091,0.014,0.184,0.024,0.273,0.031l0.26,0.021l0.519,0.041l2.08,0.16l1.04,0.077c0.349,0.021,0.679,0.075,1.021,0.129
					c0.681,0.116,1.357,0.269,2.033,0.431c1.352,0.316,2.691,0.691,4.03,1.067c-0.655-0.233-1.314-0.455-1.979-0.664
					c-0.663-0.211-1.328-0.413-2-0.604c-0.671-0.187-1.347-0.361-2.033-0.502c-0.34-0.068-0.698-0.132-1.044-0.161l-1.037-0.102
					l-2.078-0.2l-0.52-0.048l-0.261-0.024c-0.083-0.009-0.163-0.019-0.243-0.032c-0.324-0.054-0.639-0.16-0.928-0.311l-3.674-1.97
					l-3.688-1.953c-0.162-0.082-0.292-0.152-0.423-0.25c-0.129-0.096-0.242-0.201-0.354-0.327l-0.699-0.774L83.4,97.875
					l-1.406-1.539l-0.354-0.384l-0.086-0.096c-0.023-0.03-0.052-0.057-0.07-0.089c-0.041-0.063-0.079-0.13-0.101-0.203
					c-0.103-0.287-0.024-0.631,0.19-0.855c0.027-0.027,0.054-0.057,0.086-0.078c0.029-0.026,0.062-0.048,0.095-0.068
					c0.066-0.041,0.147-0.079,0.224-0.115c0.153-0.074,0.313-0.133,0.475-0.188c0.324-0.102,0.663-0.161,1.007-0.176
					c0.615-0.025,1.233,0.099,1.819,0.31c-0.038,0.052-0.075,0.103-0.111,0.155c-0.1,0.142-0.188,0.33-0.222,0.518
					c-0.035,0.188-0.028,0.386,0.021,0.57c0.097,0.37,0.364,0.693,0.714,0.853c0.043,0.022,0.088,0.039,0.133,0.052
					c0.046,0.016,0.093,0.031,0.128,0.041l0.231,0.064l0.464,0.131c0.31,0.083,0.615,0.177,0.923,0.269
					c1.229,0.367,2.452,0.762,3.67,1.174c2.429,0.834,4.849,1.712,7.234,2.665l0.013,0.005l0.009,0.002
					c0.637,0.124,1.273,0.201,1.918,0.238c0.64,0.035,1.297,0.006,1.923-0.092c0.634-0.06,1.271-0.104,1.907-0.12
					c0.318-0.009,0.638-0.008,0.956,0.004c0.317,0.014,0.638,0.037,0.944,0.126c-0.303-0.104-0.624-0.142-0.941-0.169
					c-0.319-0.027-0.64-0.042-0.96-0.042c-0.639-0.006-1.278,0.016-1.918,0.054c-0.64,0.077-1.265,0.08-1.897,0.025
					c-0.628-0.048-1.256-0.138-1.867-0.269c-2.37-1.004-4.767-1.941-7.195-2.794c-1.214-0.431-2.44-0.829-3.676-1.202
					c-0.309-0.095-0.617-0.188-0.929-0.273l-0.466-0.134l-0.232-0.065c-0.042-0.011-0.072-0.022-0.104-0.032
					c-0.03-0.01-0.063-0.021-0.09-0.037c-0.236-0.108-0.418-0.328-0.484-0.581c-0.034-0.126-0.039-0.259-0.015-0.386
					c0.024-0.13,0.072-0.241,0.156-0.361c0.328-0.507,0.819-0.896,1.371-1.163c0.553-0.269,1.166-0.417,1.787-0.495
					c1.249-0.156,2.53-0.047,3.786,0.166c1.264,0.221,2.53,0.449,3.789,0.705c0.63,0.127,1.259,0.26,1.881,0.409
					c0.313,0.074,0.624,0.153,0.93,0.241c0.152,0.045,0.309,0.086,0.455,0.142c0.072,0.026,0.149,0.05,0.22,0.08l0.203,0.096
					l0.045,0.021l0.031-0.006c0.446-0.094,0.901-0.172,1.355-0.238s0.91-0.121,1.369-0.16c0.456-0.039,0.916-0.061,1.375-0.059
					c0.46,0.004,0.921,0.03,1.373,0.119c-0.447-0.11-0.909-0.157-1.371-0.182c-0.462-0.021-0.925-0.014-1.386,0.01
					c-0.462,0.022-0.922,0.062-1.382,0.112c-0.447,0.052-0.892,0.111-1.338,0.188l-0.189-0.099
					c-0.078-0.033-0.154-0.059-0.231-0.089c-0.153-0.063-0.31-0.105-0.463-0.156c-0.31-0.095-0.622-0.183-0.935-0.262
					c-0.625-0.164-1.252-0.312-1.881-0.452c-1.259-0.281-2.519-0.545-3.788-0.781c-1.275-0.227-2.585-0.358-3.898-0.208
					c-0.653,0.08-1.309,0.235-1.916,0.527c-0.546,0.259-1.052,0.642-1.422,1.136c-0.255-0.11-0.517-0.204-0.787-0.275
					c-0.339-0.086-0.69-0.134-1.043-0.135c-0.353-0.002-0.705,0.043-1.05,0.134c-0.17,0.049-0.34,0.104-0.504,0.173
					c-0.082,0.036-0.161,0.068-0.244,0.114c-0.043,0.022-0.083,0.047-0.121,0.078c-0.041,0.026-0.075,0.059-0.109,0.092
					c-0.279,0.267-0.394,0.697-0.274,1.074c0.024,0.094,0.07,0.183,0.122,0.266c0.024,0.044,0.057,0.079,0.086,0.119l0.086,0.1
					l0.34,0.396l0.448,0.515c-0.089,0.143-0.119,0.328-0.066,0.495l0.17,0.626l0.344,1.253c0.136,0.499,0.276,0.998,0.418,1.496
					c-0.173-0.021-0.347-0.034-0.521-0.03c-0.112,0.007-0.219,0.002-0.335,0.031c-0.113,0.031-0.212,0.113-0.272,0.215
					c-0.062,0.102-0.084,0.228-0.061,0.346c0.029,0.125,0.087,0.214,0.129,0.315l0.276,0.6c0.368,0.799,0.734,1.599,1.11,2.394
					l0.56,1.194c0.096,0.198,0.183,0.397,0.294,0.602c0.111,0.2,0.241,0.391,0.388,0.566c0.146,0.178,0.308,0.342,0.483,0.49
					c0.179,0.15,0.357,0.273,0.533,0.406l1.064,0.779l2.129,1.557l0.268,0.193c0.091,0.065,0.189,0.134,0.288,0.191
					c0.198,0.121,0.408,0.224,0.625,0.307c0.107,0.042,0.218,0.078,0.33,0.11l0.322,0.087l0.636,0.169
					c1.696,0.451,3.396,0.894,5.094,1.334c0.461,0.188,0.922,0.36,1.387,0.525c0.471,0.167,0.946,0.324,1.427,0.466
					c0.479,0.142,0.967,0.263,1.462,0.361c0.492,0.093,0.995,0.174,1.52,0.124c0.524-0.013,1.04-0.053,1.557-0.112
					c0.394-0.047,0.785-0.108,1.173-0.188c0.283,0.398,0.524,0.808,0.69,1.244c0.186,0.479,0.381,0.955,0.579,1.428
					c0.201,0.474,0.405,0.944,0.62,1.412c0.212,0.469,0.431,0.937,0.679,1.397c-0.082-0.518-0.216-1.021-0.372-1.516
					c-0.153-0.496-0.337-0.98-0.537-1.458c-0.204-0.478-0.423-0.945-0.672-1.402c-0.23-0.439-0.559-0.823-0.946-1.114
					c0.111-0.021,0.221-0.045,0.332-0.07C105.846,113.736,106.351,113.589,106.831,113.383z"/>
				<path fill="#A0724A" d="M29.195,89.894l-2.198-0.267c-1.252-0.303-2.493-0.665-3.721-1.058c-1.228-0.397-2.447-0.823-3.64-1.313
					c-0.302-0.116-0.596-0.246-0.893-0.373c-0.295-0.128-0.594-0.249-0.883-0.391l-0.873-0.41l-0.856-0.446
					c-0.289-0.144-0.562-0.313-0.839-0.475c-0.276-0.164-0.558-0.318-0.819-0.505c-0.264-0.181-0.535-0.354-0.794-0.541
					l-0.752-0.593c-0.495-0.422-1.034-0.816-1.607-1.139c-0.569-0.315-1.129-0.628-1.688-0.952
					c-1.116-0.647-2.218-1.319-3.294-2.027c-1.074-0.709-2.127-1.453-3.112-2.272c-0.491-0.409-0.963-0.84-1.394-1.301
					c-0.42-0.463-0.818-0.97-1.003-1.52l-0.005-0.016l-0.008-0.018c-0.039-0.086-0.08-0.206-0.114-0.314
					c-0.032-0.111-0.062-0.226-0.087-0.341c-0.051-0.231-0.082-0.468-0.104-0.707c-0.04-0.476-0.028-0.958,0.029-1.437
					c0.056-0.479,0.157-0.953,0.29-1.419c0.13-0.467,0.3-0.922,0.495-1.368c0.781-1.788,1.958-3.392,3.288-4.835
					c0.162-0.186,0.339-0.357,0.507-0.535l0.257-0.266l0.265-0.259c0.354-0.341,0.712-0.695,1.063-1.043
					c0.706-0.699,1.409-1.403,2.107-2.11c0.699-0.708,1.393-1.419,2.078-2.144c0.342-0.361,0.682-0.726,1.017-1.099
					c0.168-0.185,0.331-0.378,0.496-0.568l0.24-0.301c0.041-0.047,0.08-0.107,0.119-0.166l0.086-0.132
					c1.538-1.688,3.218-3.28,4.96-4.78c1.743-1.507,3.571-2.917,5.467-4.227c0.936-0.674,1.92-1.272,2.886-1.901l1.49-0.875
					c0.25-0.144,0.495-0.295,0.748-0.434l0.764-0.404c0.509-0.267,1.015-0.545,1.529-0.803l1.563-0.734
					c0.262-0.12,0.52-0.25,0.784-0.363l0.799-0.326l1.599-0.653l0.017-0.006l0.005-0.002c1.531-0.779,3.005-1.637,4.45-2.551
					c1.44-0.919,2.843-1.899,4.183-2.964l0.499-0.405c0.166-0.135,0.333-0.269,0.493-0.412l0.483-0.423
					c0.161-0.141,0.324-0.28,0.477-0.431l0.464-0.444c0.155-0.148,0.313-0.293,0.457-0.453l0.876-0.928
					c0.288-0.294,0.611-0.552,0.961-0.768c0.349-0.21,0.737-0.395,1.118-0.567c0.768-0.345,1.565-0.627,2.377-0.858l0.042-0.012
					l0.028-0.03c1.03-1.079,2.053-2.162,3.061-3.26c1.009-1.097,2.009-2.202,2.995-3.32c0.984-1.119,1.957-2.25,2.879-3.424
					l0.337-0.447c0.112-0.15,0.228-0.295,0.331-0.452l0.316-0.463c0.1-0.15,0.22-0.292,0.349-0.421
					c0.515-0.521,1.221-0.869,1.963-0.885h0.002h0.001l2.499-0.414l-2.505,0.363c-0.755,0.002-1.491,0.34-2.027,0.869
					c-0.135,0.133-0.26,0.273-0.369,0.433l-0.321,0.454c-0.104,0.153-0.223,0.297-0.335,0.444l-0.343,0.439
					c-0.937,1.156-1.924,2.271-2.924,3.373c-1.001,1.102-2.017,2.19-3.042,3.271c-1.017,1.069-2.033,2.139-3.063,3.194
					c-0.813,0.225-1.613,0.5-2.389,0.839c-0.396,0.175-0.779,0.353-1.162,0.577c-0.377,0.227-0.726,0.501-1.037,0.813l-0.884,0.92
					c-0.144,0.155-0.301,0.297-0.455,0.442l-0.463,0.433c-0.151,0.147-0.313,0.283-0.474,0.42l-0.482,0.414
					c-0.157,0.141-0.325,0.271-0.49,0.403l-0.497,0.396c-1.335,1.042-2.736,2-4.173,2.899c-0.722,0.444-1.449,0.882-2.187,1.298
					c-0.733,0.418-1.479,0.825-2.229,1.201l-1.6,0.647l-0.809,0.327c-0.268,0.113-0.528,0.243-0.792,0.363l-1.581,0.737
					c-0.52,0.259-1.03,0.538-1.546,0.805l-0.772,0.406c-0.255,0.138-0.503,0.291-0.755,0.435l-1.505,0.877
					c-0.976,0.63-1.972,1.231-2.917,1.908c-1.915,1.315-3.762,2.73-5.524,4.244c-1.765,1.515-3.46,3.098-5.027,4.838l-0.003,0.003
					l-0.033,0.048l-0.09,0.134c-0.029,0.045-0.056,0.089-0.096,0.137l-0.224,0.281c-0.161,0.186-0.316,0.373-0.482,0.556
					c-0.328,0.368-0.665,0.73-1.003,1.091c-0.678,0.722-1.369,1.434-2.063,2.142c-0.695,0.708-1.394,1.412-2.097,2.112
					c-0.353,0.353-0.7,0.696-1.06,1.047l-0.268,0.262L4.746,62.96c-0.171,0.183-0.351,0.357-0.515,0.546
					c-1.353,1.478-2.557,3.125-3.365,4.987c-0.2,0.465-0.377,0.94-0.513,1.432c-0.138,0.49-0.243,0.989-0.301,1.499
					c-0.058,0.507-0.069,1.022-0.024,1.535c0.023,0.256,0.058,0.513,0.115,0.767c0.028,0.127,0.061,0.253,0.098,0.379
					c0.04,0.124,0.077,0.238,0.138,0.374c0.112,0.333,0.285,0.625,0.471,0.897c0.191,0.283,0.413,0.531,0.634,0.778
					c0.453,0.483,0.945,0.919,1.45,1.333c1.014,0.826,2.084,1.566,3.174,2.272c1.091,0.703,2.205,1.369,3.332,2.008
					c0.563,0.319,1.135,0.633,1.7,0.938c0.558,0.307,1.069,0.675,1.563,1.086l0.777,0.601c0.266,0.189,0.543,0.362,0.814,0.545
					c0.268,0.186,0.555,0.34,0.836,0.504c0.283,0.161,0.562,0.331,0.854,0.473l0.869,0.442l0.886,0.406
					c0.293,0.141,0.595,0.259,0.894,0.385c0.3,0.125,0.598,0.256,0.902,0.366c1.208,0.474,2.439,0.884,3.677,1.263
					c1.24,0.376,2.489,0.72,3.755,1.006l0.004,0.001h0.004l2.207,0.232l2.206,0.249l4.412,0.486l-4.401-0.577L29.195,89.894z"/>
				<path fill="#A0724A" d="M61.985,35.456c0.418-0.375,0.779-0.808,1.086-1.272c-0.333,0.447-0.716,0.856-1.147,1.201
					c-0.104,0.09-0.222,0.164-0.331,0.247c-0.117,0.073-0.229,0.153-0.351,0.217c-0.237,0.139-0.489,0.251-0.746,0.344
					c-0.514,0.187-1.059,0.272-1.602,0.273c-0.271-0.001-0.542-0.022-0.81-0.069c-0.264-0.045-0.536-0.112-0.773-0.205l-0.065-0.025
					l-0.065,0.032c-0.814,0.408-1.587,0.89-2.338,1.399c-0.75,0.511-1.477,1.055-2.184,1.625c-1.407,1.146-2.73,2.39-3.997,3.684
					c-1.264,1.299-2.463,2.649-3.671,3.988c-1.202,1.346-2.391,2.703-3.568,4.071c-1.179,1.367-2.333,2.756-3.471,4.158
					c-1.136,1.403-2.26,2.816-3.355,4.251c-2.201,2.861-4.33,5.777-6.403,8.729l-0.019,0.025l-0.011,0.029l-0.111,0.308
					c-0.036,0.102-0.074,0.205-0.119,0.304l-0.258,0.602c-0.092,0.198-0.196,0.391-0.294,0.587
					c-0.095,0.197-0.206,0.386-0.318,0.575c-0.212,0.384-0.456,0.75-0.694,1.12c-0.254,0.359-0.503,0.724-0.776,1.07
					c-0.539,0.699-1.109,1.375-1.713,2.022c-0.606,0.644-1.231,1.273-1.898,1.859c0.697-0.549,1.364-1.139,2-1.761
					c0.635-0.622,1.244-1.273,1.813-1.961c0.29-0.339,0.555-0.699,0.828-1.053c0.255-0.367,0.519-0.729,0.749-1.114
					c0.119-0.19,0.239-0.38,0.342-0.579c0.106-0.198,0.219-0.394,0.32-0.594l0.285-0.613c0.049-0.101,0.092-0.206,0.132-0.312
					l0.111-0.279c2.15-2.882,4.324-5.743,6.545-8.568c1.117-1.412,2.239-2.82,3.379-4.214c1.138-1.394,2.299-2.768,3.465-4.14
					c1.167-1.371,2.351-2.729,3.54-4.081c1.19-1.354,2.368-2.716,3.602-4.018c1.229-1.306,2.509-2.566,3.874-3.726
					c1.345-1.147,2.768-2.221,4.306-3.089c0.258,0.083,0.51,0.133,0.77,0.168c0.284,0.039,0.57,0.05,0.855,0.04
					c0.57-0.021,1.137-0.139,1.661-0.358c0.262-0.108,0.516-0.236,0.753-0.39c0.121-0.072,0.232-0.16,0.348-0.24
					C61.77,35.636,61.884,35.553,61.985,35.456z"/>
				<path fill="#A0724A" d="M61.213,33.018l-0.941,1.021c-0.314,0.342-0.628,0.685-0.934,1.047c0.417-0.227,0.799-0.508,1.162-0.809
					c0.364-0.3,0.704-0.627,1.023-0.974c0.321-0.346,0.617-0.715,0.884-1.104c0.271-0.386,0.504-0.802,0.689-1.237
					c-0.331,0.34-0.632,0.692-0.946,1.034L61.213,33.018z"/>
				<path fill="#A0724A" d="M65.454,16.897c-0.276,0.077-0.533,0.202-0.77,0.352c-0.235,0.151-0.453,0.326-0.655,0.517
					c-0.201,0.19-0.388,0.396-0.541,0.63c0.467-0.302,0.896-0.624,1.347-0.909c0.225-0.141,0.452-0.276,0.691-0.383
					c0.059-0.027,0.12-0.053,0.181-0.072c0.062-0.021,0.124-0.047,0.188-0.057c0.125-0.032,0.268-0.056,0.4-0.096
					c-0.14-0.022-0.27-0.035-0.416-0.041c-0.073-0.006-0.143,0.007-0.215,0.015C65.592,16.858,65.523,16.879,65.454,16.897z"/>
			</g>
			<g>
				<path fill="#9A442D" d="M117.802,84.542l-0.226,0.854c-0.072,0.286-0.131,0.576-0.196,0.865
					c-0.062,0.288-0.103,0.586-0.154,0.878c-0.047,0.287-0.085,0.573-0.136,0.859c-0.201,1.144-0.47,2.28-0.762,3.41
					c-0.287,1.132-0.607,2.256-0.927,3.382c-0.324,1.124-0.66,2.244-1.003,3.363c-0.335,1.123-0.692,2.236-1.044,3.354
					c0.865-2.178,1.654-4.387,2.362-6.622c0.702-2.238,1.362-4.492,1.788-6.814c0.05-0.292,0.089-0.587,0.135-0.878
					c0.048-0.283,0.085-0.568,0.144-0.852c0.063-0.283,0.119-0.567,0.188-0.849l0.215-0.846c0.3-1.128,0.653-2.24,1.008-3.354
					c0.362-1.113,0.74-2.22,1.127-3.323c0.381-1.108,0.784-2.206,1.182-3.31c-0.953,2.142-1.836,4.314-2.618,6.526
					C118.489,82.293,118.126,83.41,117.802,84.542z"/>
				<path fill="#9A442D" d="M118.438,89.527c-0.28,0.631-0.57,1.26-0.896,1.87c-0.322,0.609-0.676,1.207-1.132,1.733
					c0.525-0.462,0.935-1.042,1.312-1.63c0.372-0.593,0.705-1.208,1.015-1.835c0.311-0.627,0.589-1.267,0.865-1.907
					c0.269-0.645,0.521-1.294,0.768-1.946c0.237-0.654,0.472-1.31,0.693-1.972c0.216-0.661,0.431-1.323,0.628-1.991
					c0.399-1.334,0.765-2.679,1.062-4.039l-1.374,3.938c-0.46,1.31-0.919,2.619-1.403,3.918
					C119.493,86.966,118.987,88.256,118.438,89.527z"/>
				<path fill="#9A442D" d="M122.075,104.706c0.153-0.126,0.294-0.27,0.441-0.404l0.221-0.205c0.071-0.069,0.139-0.145,0.208-0.215
					c0.138-0.146,0.279-0.289,0.412-0.437c0.531-0.602,1.008-1.247,1.442-1.92c0.852-1.357,1.488-2.842,1.913-4.379
					c0.216-0.767,0.373-1.549,0.483-2.337c0.104-0.786,0.168-1.581,0.138-2.373c-0.063,0.788-0.181,1.569-0.341,2.34
					c-0.157,0.77-0.355,1.53-0.594,2.277c-0.243,0.745-0.518,1.479-0.847,2.188c-0.327,0.709-0.686,1.404-1.109,2.06
					c-0.417,0.659-0.878,1.289-1.386,1.881c-0.512,0.588-1.063,1.142-1.655,1.65c-1.189,1.017-2.541,1.838-3.974,2.51
					c1.497-0.509,2.927-1.264,4.182-2.256L122.075,104.706z"/>
				<path fill="#9A442D" d="M118.546,100.197c0.145-0.116,0.294-0.224,0.433-0.348c0.271-0.252,0.558-0.487,0.809-0.762
					c0.522-0.527,0.983-1.118,1.379-1.751c0.389-0.638,0.718-1.315,0.897-2.059c0.174-0.688,0.406-1.388,0.623-2.08l1.361-4.164
					c-0.609,1.331-1.163,2.684-1.673,4.057c-0.128,0.343-0.251,0.688-0.367,1.035c-0.117,0.352-0.231,0.691-0.332,1.06
					c-0.176,0.676-0.492,1.327-0.869,1.93c-0.183,0.307-0.394,0.596-0.606,0.883l-0.341,0.417c-0.111,0.141-0.242,0.264-0.361,0.398
					c-0.234,0.271-0.507,0.508-0.765,0.76c-0.13,0.124-0.275,0.231-0.41,0.35c-0.139,0.115-0.271,0.238-0.416,0.347
					c-1.143,0.885-2.405,1.614-3.718,2.258c1.379-0.483,2.709-1.14,3.914-1.995C118.257,100.428,118.397,100.307,118.546,100.197z"
					/>
				<path fill="#9A442D" d="M30.137,67.972c0.236-0.091,0.479-0.158,0.727-0.205c0.247-0.045,0.501-0.074,0.748-0.075l0.041-0.001
					l0.019-0.037c0.114-0.226,0.296-0.418,0.487-0.593c0.195-0.175,0.405-0.333,0.624-0.479c0.219-0.151,0.437-0.272,0.681-0.347
					c0.122-0.036,0.244-0.064,0.37-0.073c0.127-0.008,0.254-0.02,0.382-0.009c0.513,0.02,1.018,0.175,1.498,0.374
					c0.478,0.204,0.943,0.464,1.362,0.761l0.07,0.051l0.082-0.033c0.221-0.088,0.47-0.135,0.719-0.162
					c0.252-0.028,0.508-0.032,0.765-0.029c0.514,0.01,1.031,0.056,1.545,0.122c0.515,0.065,1.028,0.152,1.54,0.25
					c0.51,0.099,1.021,0.21,1.522,0.336l0.046,0.011l0.047-0.01c0.771-0.162,1.572-0.225,2.371-0.265
					c0.8-0.04,1.604-0.036,2.407-0.021c0.804,0.012,1.607,0.047,2.411,0.097c0.803,0.049,1.608,0.111,2.406,0.188l0.067,0.006
					l0.059-0.035c0.201-0.119,0.413-0.225,0.641-0.296c0.227-0.07,0.462-0.126,0.702-0.154c0.241-0.03,0.484-0.042,0.728-0.037
					c0.242,0.005,0.492,0.025,0.722,0.064l0.067,0.012l0.057-0.031c0.245-0.137,0.512-0.245,0.787-0.339
					c0.274-0.094,0.559-0.166,0.845-0.23c0.287-0.065,0.577-0.115,0.868-0.161c0.291-0.043,0.586-0.081,0.876-0.104l0.064-0.005
					l0.037-0.047c0.177-0.229,0.48-0.353,0.79-0.374c0.038-0.003,0.078-0.004,0.114-0.004c0.042,0.001,0.088-0.002,0.132-0.004
					c0.09-0.002,0.176-0.011,0.263-0.019c0.172-0.021,0.344-0.048,0.513-0.09c0.337-0.079,0.663-0.199,0.972-0.358l0.44-0.25
					c0.149-0.074,0.295-0.153,0.449-0.218c0.607-0.275,1.257-0.458,1.917-0.57c0.662-0.108,1.337-0.156,2.011-0.116
					c-0.671-0.073-1.352-0.063-2.024,0.023c-0.672,0.088-1.339,0.249-1.971,0.506c-0.16,0.06-0.313,0.136-0.469,0.207l-0.448,0.231
					c-0.294,0.142-0.608,0.25-0.929,0.318c-0.16,0.035-0.322,0.059-0.485,0.072c-0.082,0.006-0.164,0.012-0.242,0.012
					c-0.04,0-0.079,0.002-0.121,0c-0.047-0.001-0.093,0-0.139,0.002c-0.182,0.011-0.363,0.048-0.536,0.119
					c-0.152,0.066-0.295,0.163-0.411,0.29c-0.285,0.017-0.564,0.045-0.845,0.081c-0.298,0.039-0.597,0.083-0.893,0.144
					c-0.296,0.062-0.592,0.127-0.884,0.219c-0.271,0.086-0.54,0.187-0.799,0.322c-0.243-0.041-0.477-0.063-0.718-0.07
					c-0.26-0.008-0.522,0.002-0.782,0.03c-0.261,0.027-0.52,0.085-0.774,0.16c-0.232,0.071-0.455,0.174-0.669,0.294
					c-0.787-0.085-1.573-0.146-2.36-0.197c-0.809-0.053-1.617-0.091-2.428-0.107c-0.811-0.019-1.623-0.015-2.436,0.027
					c-0.796,0.044-1.596,0.108-2.39,0.272c-0.501-0.12-1-0.22-1.504-0.312c-0.519-0.094-1.041-0.176-1.566-0.236
					c-0.525-0.06-1.055-0.104-1.588-0.1c-0.268,0.002-0.536,0.013-0.805,0.049c-0.242,0.031-0.485,0.081-0.725,0.173
					c-0.435-0.287-0.888-0.523-1.366-0.717c-0.506-0.195-1.04-0.348-1.595-0.356c-0.138-0.009-0.276,0.008-0.416,0.02
					c-0.139,0.013-0.277,0.046-0.41,0.09c-0.133,0.046-0.262,0.101-0.383,0.17c-0.123,0.069-0.233,0.149-0.342,0.228
					c-0.219,0.157-0.429,0.328-0.624,0.518c-0.184,0.181-0.358,0.38-0.477,0.619c-0.248,0.013-0.489,0.051-0.728,0.104
					c-0.251,0.057-0.498,0.136-0.734,0.236c-0.237,0.102-0.458,0.237-0.661,0.394c-0.204,0.158-0.372,0.354-0.517,0.563
					c0.156-0.202,0.332-0.387,0.539-0.533C29.678,68.183,29.902,68.064,30.137,67.972z"/>
				<path fill="#9A442D" d="M65.542,94.121c-0.831-1.255-1.643-2.523-2.369-3.843c-0.735-1.313-1.439-2.644-2.075-4.009
					c-1.298-2.717-2.411-5.521-3.394-8.37c-0.494-1.424-0.945-2.863-1.357-4.314c-0.425-1.447-0.8-2.91-1.128-4.385
					c0.115,0.748,0.26,1.489,0.419,2.229c0.156,0.74,0.329,1.477,0.509,2.21c0.374,1.466,0.791,2.92,1.249,4.362
					c0.454,1.444,0.971,2.869,1.516,4.281c0.554,1.409,1.161,2.799,1.805,4.168c1.306,2.733,2.802,5.384,4.559,7.854l0.667,0.92
					l0.697,0.896c0.118,0.149,0.231,0.301,0.352,0.446l0.365,0.436l0.365,0.435c0.123,0.145,0.241,0.292,0.372,0.429l0.772,0.834
					c0.126,0.142,0.26,0.275,0.395,0.407l0.403,0.4c0.523,0.545,1.104,1.034,1.663,1.54C69.154,98.946,67.225,96.616,65.542,94.121z
					"/>
				<path fill="#9A442D" d="M50.414,72.925l0.006-0.169l0.02-0.17l0.08-0.676l0.13-0.666c0.018-0.113,0.06-0.218,0.087-0.328
					l0.09-0.327c0.066-0.217,0.155-0.426,0.23-0.64l0.142-0.309l0.072-0.155l0.084-0.147c0.213-0.403,0.476-0.781,0.808-1.106
					c-0.393,0.252-0.714,0.612-0.984,0.996l-0.103,0.145l-0.09,0.152l-0.179,0.308c-0.053,0.105-0.1,0.213-0.15,0.321
					c-0.046,0.108-0.105,0.213-0.142,0.325c-0.076,0.224-0.164,0.445-0.224,0.674l-0.166,0.69l-0.096,0.701l-0.023,0.176
					l-0.009,0.177L49.98,73.25c-0.033,0.472,0.009,0.94,0.028,1.408c0.003,0.119,0.022,0.234,0.037,0.351l0.047,0.349
					c0.032,0.231,0.061,0.464,0.103,0.693c0.102,0.456,0.201,0.913,0.322,1.361c0.143,0.444,0.284,0.888,0.443,1.323
					c-0.069-0.461-0.156-0.915-0.242-1.367c-0.043-0.227-0.065-0.457-0.1-0.686c-0.03-0.228-0.066-0.454-0.1-0.681
					c-0.024-0.229-0.037-0.458-0.061-0.686l-0.032-0.342c-0.01-0.113-0.023-0.227-0.021-0.342c-0.004-0.456-0.045-0.912-0.004-1.365
					L50.414,72.925z"/>
				<path fill="#9A442D" d="M54.424,102.206c-0.611-1.861-1.205-3.728-1.77-5.604c-0.57-1.875-1.125-3.755-1.655-5.641L50.6,89.547
					l-0.098-0.354l-0.048-0.177c-0.017-0.068-0.039-0.123-0.058-0.182l-0.237-0.702c-0.161-0.466-0.312-0.937-0.481-1.399
					l-0.511-1.385l-0.129-0.346l-0.137-0.343l-0.274-0.686c-0.183-0.457-0.363-0.914-0.559-1.364l-0.579-1.357L46.88,79.91
					c-1.651-3.566-3.506-7.043-5.641-10.339c0.973,1.704,1.893,3.436,2.756,5.195c0.874,1.754,1.698,3.53,2.483,5.323
					c0.782,1.795,1.511,3.61,2.188,5.445l0.498,1.379c0.166,0.461,0.312,0.924,0.469,1.385l0.231,0.694
					c0.018,0.057,0.042,0.118,0.053,0.168l0.048,0.178l0.097,0.356l0.395,1.419c1.081,3.776,2.239,7.53,3.552,11.233
					c0.327,0.927,0.665,1.85,1.016,2.768c0.355,0.916,0.718,1.829,1.101,2.733c0.391,0.902,0.796,1.798,1.232,2.68
					c0.436,0.88,0.911,1.744,1.469,2.553c-1.001-1.689-1.742-3.509-2.446-5.335C55.68,105.917,55.04,104.066,54.424,102.206z"/>
				<path fill="#9A442D" d="M39.071,87.705c-0.313,0.58-0.707,1.122-1.208,1.553c-0.498,0.443-1.042,0.838-1.625,1.166
					c-0.581,0.326-1.208,0.582-1.869,0.696c-0.658,0.11-1.349,0.07-1.986-0.165c0.31,0.137,0.641,0.229,0.979,0.274
					s0.684,0.042,1.023,0.001c0.682-0.086,1.338-0.317,1.95-0.627c0.61-0.312,1.18-0.698,1.708-1.139
					c0.131-0.111,0.26-0.22,0.386-0.348c0.115-0.131,0.233-0.259,0.345-0.393c0.103-0.14,0.211-0.275,0.309-0.419
					c0.091-0.147,0.189-0.291,0.273-0.442c0.342-0.604,0.588-1.258,0.756-1.927c0.169-0.669,0.267-1.353,0.313-2.037
					c0.088-1.372-0.026-2.744-0.244-4.092c-0.112-0.674-0.257-1.342-0.429-2.003c-0.088-0.331-0.175-0.659-0.29-0.987l-0.177-0.484
					l-0.089-0.241l-0.045-0.121L39.1,75.853c-0.545-1.263-1.309-2.435-2.263-3.423c-1.926-1.971-4.545-3.183-7.231-3.5
					c1.334,0.23,2.619,0.69,3.808,1.315c1.189,0.622,2.271,1.44,3.184,2.411c0.898,0.985,1.627,2.12,2.134,3.352l0.051,0.114
					l0.042,0.118l0.085,0.234l0.17,0.471c0.106,0.312,0.192,0.638,0.277,0.962c0.165,0.65,0.304,1.308,0.412,1.969
					c0.222,1.321,0.334,2.665,0.262,3.998C39.959,85.203,39.689,86.535,39.071,87.705z"/>
				<path fill="#9A442D" d="M39.228,91.212c-0.433,0.028-0.866,0.068-1.295,0.12c-0.43,0.053-0.86,0.112-1.287,0.183
					c-0.419,0.064-0.836,0.138-1.253,0.221c-0.522-0.024-1.045-0.046-1.562-0.125c-0.521-0.076-1.041-0.171-1.549-0.316
					c-0.509-0.139-1.008-0.318-1.491-0.538c-0.485-0.217-0.951-0.479-1.4-0.777c0.384,0.379,0.828,0.701,1.297,0.976
					c0.471,0.275,0.973,0.499,1.491,0.675c0.52,0.171,1.052,0.305,1.593,0.387c0.54,0.09,1.087,0.121,1.632,0.134h0.021l0.022-0.004
					l1.265-0.258l1.267-0.252c0.423-0.081,0.846-0.163,1.27-0.237c0.424-0.074,0.849-0.145,1.281-0.179
					C40.098,91.173,39.661,91.187,39.228,91.212z"/>
				<path fill="#9A442D" d="M45.077,111.588c-0.072-0.868-0.153-1.732-0.248-2.603l-0.403-2.581
					c-0.128-0.858-0.25-1.718-0.362-2.579c-0.226-1.721-0.42-3.446-0.558-5.174c-0.142-1.729-0.239-3.463-0.22-5.19
					c0.004-0.218,0.005-0.431,0.022-0.638c0.016-0.211,0.052-0.409,0.086-0.628l0.095-0.656l0.023-0.164l0.012-0.164l0.024-0.329
					c0.076-0.876,0.06-1.752,0.036-2.625c-0.14-3.49-0.649-6.943-1.328-10.354c0.259,1.719,0.49,3.442,0.66,5.171
					c0.181,1.728,0.321,3.461,0.343,5.192l0.001,0.647l0,0.324l-0.012,0.324l-0.022,0.646c-0.005,0.217-0.032,0.429-0.047,0.644
					l-0.027,0.321l-0.013,0.16l-0.025,0.158l-0.099,0.634c-0.035,0.211-0.08,0.441-0.098,0.663
					c-0.022,0.227-0.026,0.448-0.032,0.666c-0.032,1.75,0.063,3.493,0.198,5.231c0.147,1.736,0.344,3.468,0.584,5.194
					c0.245,1.721,0.521,3.45,0.839,5.147c0.221,1.718,0.414,3.448,0.526,5.18c0.028,0.432,0.055,0.865,0.06,1.298
					c0.008,0.215-0.002,0.434-0.003,0.65l0.015,0.652c0.017,0.871,0.04,1.74,0.066,2.609c0.019-0.869,0.035-1.738,0.045-2.606
					l0.009-0.652c0.008-0.218,0.026-0.435,0.026-0.653c0.011-0.437,0-0.872-0.012-1.309
					C45.209,113.326,45.146,112.457,45.077,111.588z"/>
				<path fill="#9A442D" d="M38.787,72.285c-0.676-0.867-1.464-1.654-2.351-2.321c-0.452-0.324-0.925-0.619-1.426-0.861
					c-0.502-0.241-1.028-0.438-1.572-0.557c-0.543-0.125-1.101-0.179-1.655-0.156c-0.551,0.031-1.106,0.122-1.606,0.348
					c0.528-0.137,1.072-0.168,1.605-0.143c0.535,0.026,1.063,0.123,1.574,0.268c1.023,0.296,1.97,0.812,2.83,1.44
					c0.427,0.32,0.842,0.659,1.227,1.032l0.148,0.136l0.142,0.144l0.284,0.286l0.546,0.595c0.711,0.812,1.361,1.681,1.997,2.568
					C40.045,74.084,39.463,73.151,38.787,72.285z"/>
				<path fill="#9A442D" d="M40.382,73.278c-0.188-0.355-0.372-0.715-0.577-1.063c-0.417-0.691-0.866-1.365-1.384-1.989
					l-0.194-0.235l-0.203-0.227c-0.138-0.147-0.266-0.306-0.413-0.446l-0.436-0.425c-0.151-0.136-0.305-0.268-0.459-0.399
					c-0.16-0.124-0.317-0.254-0.481-0.372c-0.17-0.114-0.331-0.236-0.507-0.339c-0.345-0.211-0.705-0.406-1.091-0.526
					c0.346,0.205,0.667,0.44,0.973,0.695c0.157,0.12,0.302,0.257,0.453,0.385l0.436,0.402c0.139,0.141,0.278,0.281,0.42,0.419
					l0.404,0.434c0.135,0.145,0.261,0.298,0.393,0.445l0.195,0.224l0.185,0.232c0.125,0.154,0.253,0.305,0.375,0.461l0.357,0.476
					l0.182,0.236l0.171,0.242c0.113,0.163,0.229,0.324,0.347,0.485l0.675,0.989c0.217,0.335,0.433,0.672,0.667,1.002
					C40.719,74.012,40.551,73.644,40.382,73.278z"/>
				<path fill="#9A442D" d="M41.542,89.931c-0.421-0.288-0.922-0.452-1.423-0.48c-0.063-0.003-0.125-0.005-0.189-0.004
					c-0.062,0.001-0.109,0.001-0.165,0c-0.109-0.004-0.214-0.024-0.328-0.052c-0.113-0.025-0.223-0.06-0.333-0.1
					c-0.106-0.042-0.215-0.089-0.302-0.171c0.05,0.113,0.148,0.197,0.246,0.273c0.1,0.075,0.208,0.135,0.318,0.191
					c0.108,0.053,0.232,0.103,0.359,0.132c0.062,0.016,0.133,0.022,0.189,0.03c0.056,0.006,0.111,0.016,0.166,0.027
					c0.441,0.088,0.861,0.253,1.225,0.502c0.364,0.248,0.674,0.573,0.929,0.949c0.254,0.379,0.447,0.805,0.64,1.247
					c-0.022-0.48-0.135-0.966-0.356-1.411C42.302,90.619,41.963,90.218,41.542,89.931z"/>
				<path fill="#9A442D" d="M128.818,108.028c-0.006-0.078-0.024-0.153-0.038-0.216l-0.082-0.398l-0.161-0.784
					c-0.067-1.651-0.191-3.296-0.336-4.941l0.016-1.461c0.003-0.491,0.02-0.981,0-1.472c-0.027-0.98-0.044-1.962-0.118-2.94
					c-0.104-1.959-0.326-3.91-0.598-5.853l-0.224-1.455l-0.261-1.448l-0.064-0.362l-0.076-0.36l-0.148-0.721
					c-0.094-0.481-0.209-0.959-0.32-1.437c-0.446-1.908-0.974-3.79-1.655-5.641l-0.159-0.684c-0.071-0.23-0.133-0.462-0.214-0.69
					c-0.089-0.224-0.162-0.455-0.271-0.672c-0.05-0.109-0.1-0.221-0.152-0.329l-0.177-0.319c-0.244-0.419-0.528-0.818-0.869-1.172
					c-0.171-0.174-0.35-0.343-0.55-0.49c-0.185-0.138-0.367-0.26-0.594-0.365c-0.369-0.519-0.843-0.923-1.33-1.287
					c-0.507-0.372-1.037-0.702-1.582-1.005c-1.088-0.604-2.215-1.124-3.359-1.596c-1.146-0.471-2.306-0.901-3.475-1.304
					c-1.164-0.4-2.335-0.775-3.52-1.116c-0.916-0.583-1.912-0.993-2.916-1.36c-1.016-0.361-2.048-0.664-3.087-0.94
					c-1.039-0.271-2.085-0.516-3.136-0.739c-1.05-0.226-2.105-0.42-3.162-0.604c1.052,0.21,2.1,0.442,3.145,0.685
					c1.044,0.245,2.084,0.51,3.115,0.802c1.029,0.296,2.051,0.619,3.051,0.997c0.998,0.378,1.986,0.802,2.868,1.382l0.017,0.011
					l0.02,0.006c1.177,0.355,2.348,0.745,3.507,1.16s2.308,0.858,3.44,1.341c0.563,0.242,1.124,0.493,1.68,0.756
					c0.553,0.265,1.1,0.544,1.633,0.842c0.534,0.3,1.051,0.624,1.538,0.985c0.482,0.362,0.941,0.766,1.27,1.242l0.033,0.049
					l0.058,0.025c0.084,0.035,0.188,0.093,0.28,0.15c0.092,0.061,0.187,0.12,0.274,0.192c0.181,0.133,0.344,0.29,0.502,0.451
					c0.313,0.329,0.579,0.704,0.809,1.1l0.165,0.303c0.049,0.103,0.096,0.208,0.144,0.313c0.103,0.205,0.17,0.428,0.255,0.641
					c0.075,0.218,0.134,0.441,0.202,0.662l0.154,0.677l0.004,0.019l0.006,0.017c0.665,1.819,1.179,3.711,1.637,5.604
					c0.112,0.476,0.229,0.949,0.325,1.427l0.151,0.716l0.074,0.358l0.067,0.358l0.265,1.439l0.228,1.446
					c0.278,1.931,0.508,3.871,0.619,5.818c0.08,0.975,0.095,1.95,0.133,2.925c0.025,0.488,0.016,0.976,0.019,1.465l0.002,1.464
					v0.012l0.001,0.007c0.165,1.643,0.311,3.292,0.396,4.941l0.001,0.012l0.002,0.007l0.174,0.797l0.089,0.397
					c0.014,0.07,0.028,0.127,0.033,0.185c0.006,0.059,0.005,0.116-0.003,0.175c-0.016,0.116-0.06,0.229-0.127,0.326
					c-0.063,0.093-0.173,0.183-0.269,0.273l-0.292,0.273c-0.101,0.087-0.211,0.165-0.315,0.247c-0.848,0.655-1.813,1.157-2.808,1.57
					c-0.998,0.412-2.032,0.738-3.081,1.006c-1.051,0.263-2.112,0.482-3.186,0.638c1.076-0.128,2.147-0.313,3.206-0.557
					c1.055-0.248,2.101-0.554,3.115-0.949c1.012-0.397,2-0.883,2.882-1.538c0.108-0.084,0.223-0.162,0.327-0.25l0.306-0.278
					c0.1-0.096,0.207-0.174,0.301-0.305c0.088-0.125,0.147-0.271,0.171-0.423C128.822,108.181,128.824,108.104,128.818,108.028z"/>
			</g>
			<g>
				<path fill="#9A442D" d="M64.8,101.034c-0.445-0.755-0.861-1.527-1.283-2.296c-0.403-0.778-0.816-1.552-1.195-2.344
					c-0.395-0.782-0.761-1.581-1.131-2.375l-0.535-1.202c-0.179-0.4-0.342-0.807-0.517-1.21c-0.685-1.615-1.312-3.255-1.913-4.905
					c-0.597-1.649-1.144-3.319-1.646-5.003c-0.513-1.681-0.968-3.378-1.362-5.093c0.147,0.867,0.33,1.729,0.528,2.586
					c0.197,0.857,0.409,1.713,0.635,2.563c0.462,1.699,0.976,3.385,1.538,5.055c1.129,3.337,2.463,6.608,4.024,9.771
					c0.384,0.795,0.802,1.57,1.21,2.352c0.429,0.771,0.846,1.548,1.303,2.303c0.043,0.075,0.088,0.148,0.132,0.224l0.421-0.061
					C64.939,101.277,64.869,101.157,64.8,101.034z"/>
				<path fill="#B99B4D" d="M70.758,109.695c-1.112-1.357-2.179-2.753-3.158-4.208l-0.373-0.543
					c-0.124-0.181-0.238-0.368-0.358-0.552l-0.716-1.104c-0.383-0.63-0.773-1.254-1.144-1.891l-0.421,0.061
					c0.403,0.685,0.833,1.354,1.254,2.029c0.491,0.731,0.968,1.475,1.493,2.184c1.016,1.441,2.117,2.82,3.266,4.156l0.882,0.983
					c0.297,0.325,0.609,0.637,0.913,0.955l0.458,0.475c0.155,0.156,0.316,0.306,0.475,0.458l0.959,0.906
					C73.065,112.341,71.856,111.065,70.758,109.695z"/>
			</g>
			<g>
				<path fill="#1A3139" d="M68.385,13.467c-0.093-0.323-0.223-0.632-0.393-0.913c-0.172-0.28-0.38-0.536-0.631-0.735
					c-0.062-0.051-0.127-0.097-0.191-0.143c-0.068-0.041-0.134-0.085-0.206-0.119c-0.139-0.072-0.285-0.127-0.437-0.159
					c-0.302-0.069-0.62-0.069-0.914,0.005c-0.147,0.039-0.288,0.093-0.417,0.166c-0.127,0.076-0.243,0.166-0.341,0.271
					c-0.196,0.209-0.31,0.491-0.334,0.779c-0.025,0.287,0.035,0.582,0.186,0.814c0.146,0.232,0.39,0.408,0.659,0.493
					c0.269,0.087,0.563,0.084,0.811-0.03c0.25-0.109,0.461-0.32,0.595-0.581c0.068-0.129,0.119-0.269,0.15-0.414
					c0.03-0.145,0.042-0.294,0.035-0.441c-0.004-0.036-0.003-0.074-0.01-0.11l-0.018-0.109l-0.027-0.109
					c-0.009-0.037-0.023-0.072-0.034-0.108c-0.048-0.144-0.113-0.282-0.193-0.415c-0.162-0.264-0.383-0.496-0.632-0.693
					c-0.251-0.198-0.534-0.356-0.837-0.479c-0.604-0.254-1.27-0.368-1.931-0.482c0.671,0.01,1.351,0.058,2.011,0.261
					c0.329,0.102,0.649,0.25,0.942,0.446c0.147,0.097,0.283,0.21,0.412,0.334c0.127,0.125,0.246,0.26,0.349,0.409
					c0.102,0.149,0.19,0.31,0.258,0.481c0.016,0.043,0.034,0.085,0.046,0.13l0.039,0.133l0.028,0.139
					c0.01,0.046,0.012,0.093,0.018,0.14c0.018,0.187,0.01,0.375-0.023,0.56c-0.035,0.184-0.094,0.363-0.178,0.533
					c-0.163,0.34-0.444,0.64-0.806,0.807c-0.179,0.085-0.379,0.128-0.575,0.135c-0.197,0.006-0.392-0.022-0.577-0.081
					c-0.367-0.12-0.701-0.359-0.911-0.698c-0.208-0.337-0.283-0.736-0.236-1.114c0.045-0.377,0.209-0.747,0.481-1.019
					c0.135-0.135,0.289-0.249,0.456-0.335c0.168-0.084,0.345-0.141,0.525-0.177c0.18-0.038,0.363-0.045,0.543-0.038
					c0.182,0.007,0.36,0.042,0.533,0.095c0.172,0.05,0.338,0.128,0.49,0.223c0.152,0.092,0.293,0.201,0.417,0.324
					c0.251,0.246,0.448,0.538,0.592,0.848c0.07,0.156,0.13,0.316,0.177,0.479C68.33,13.136,68.365,13.301,68.385,13.467z"/>
				<path fill="#1A3139" d="M78.498,11.926c-0.193-0.146-0.376-0.307-0.549-0.479c-0.172-0.173-0.332-0.358-0.479-0.556
					c-0.293-0.396-0.521-0.845-0.653-1.333c-0.127-0.487-0.153-1.006-0.056-1.512c0.049-0.252,0.132-0.501,0.248-0.735
					s0.27-0.455,0.452-0.646c0.365-0.383,0.849-0.659,1.382-0.759c0.266-0.051,0.546-0.058,0.818-0.006
					c0.276,0.053,0.538,0.165,0.768,0.317c0.23,0.153,0.431,0.35,0.59,0.577c0.159,0.228,0.279,0.489,0.333,0.771
					c0.058,0.28,0.042,0.58-0.042,0.858c-0.083,0.278-0.235,0.53-0.426,0.737c-0.19,0.208-0.42,0.372-0.667,0.492
					c-0.248,0.12-0.516,0.199-0.793,0.228c-0.274,0.028-0.561,0.004-0.83-0.078c-0.264-0.08-0.514-0.207-0.729-0.372
					c-0.434-0.329-0.752-0.779-0.939-1.271c-0.095-0.247-0.159-0.504-0.186-0.767c-0.026-0.264-0.017-0.524,0.021-0.781
					c0.074-0.512,0.256-0.998,0.51-1.433c0.258-0.434,0.58-0.823,0.943-1.159c0.364-0.335,0.764-0.624,1.181-0.876
					c0.208-0.126,0.42-0.246,0.633-0.359c0.217-0.112,0.433-0.221,0.652-0.323c-0.203,0.133-0.405,0.264-0.604,0.401
					c-0.2,0.135-0.396,0.273-0.588,0.418c-0.19,0.146-0.378,0.293-0.557,0.451s-0.351,0.322-0.51,0.496
					c-0.321,0.344-0.597,0.725-0.805,1.139c-0.207,0.413-0.351,0.854-0.392,1.301c-0.021,0.223-0.018,0.449,0.014,0.664
					c0.03,0.217,0.092,0.43,0.178,0.631c0.172,0.402,0.44,0.763,0.785,1.009c0.173,0.124,0.361,0.217,0.56,0.274
					c0.195,0.055,0.397,0.069,0.603,0.046c0.406-0.046,0.811-0.239,1.082-0.539c0.137-0.147,0.241-0.319,0.296-0.504
					c0.057-0.184,0.068-0.379,0.031-0.573c-0.066-0.389-0.326-0.753-0.661-0.99c-0.168-0.118-0.358-0.205-0.556-0.248
					c-0.201-0.042-0.414-0.046-0.621-0.014c-0.21,0.032-0.416,0.102-0.609,0.198c-0.194,0.097-0.376,0.222-0.534,0.373
					c-0.317,0.298-0.532,0.703-0.648,1.139s-0.123,0.907-0.04,1.361c0.081,0.456,0.264,0.898,0.506,1.306
					c0.12,0.204,0.258,0.4,0.408,0.587C78.164,11.575,78.327,11.753,78.498,11.926z"/>
			</g>
			<g>
				<path fill="#FFFFFF" d="M93.345,65.956c-0.287,0.329-0.59,0.627-0.911,0.901c-0.207,0.186-0.426,0.355-0.646,0.521
					c-0.219,0.166-0.442,0.324-0.67,0.475c-0.143,0.098-0.286,0.19-0.431,0.281c-0.071,0.047-0.143,0.091-0.215,0.135
					c-0.247,0.151-0.497,0.298-0.749,0.44c-0.235,0.131-0.476,0.258-0.714,0.379l-0.357,0.18l-0.178,0.084
					c-0.058,0.025-0.122,0.057-0.162,0.071l0.232-0.106c-0.7,0.151-1.369,0.323-2.033,0.512c-0.663,0.188-1.318,0.388-1.967,0.603
					c-0.437,0.147-0.872,0.3-1.307,0.451c0.458,0.158,3.03,1.087,3.194,2.077l1.072-0.518c0.6-0.288,1.197-0.587,1.78-0.858
					l0.234-0.106c0.083-0.059,0.136-0.103,0.201-0.153l0.182-0.146c0.119-0.097,0.235-0.197,0.349-0.299
					c0.229-0.201,0.449-0.411,0.662-0.627c0.429-0.429,0.827-0.889,1.196-1.369c0.181-0.245,0.354-0.493,0.517-0.751
					c0.158-0.26,0.31-0.521,0.441-0.794c0.232-0.475,0.415-0.978,0.512-1.485C93.502,65.888,93.424,65.924,93.345,65.956z"/>
				<path opacity="0.15" d="M93.345,65.956c-0.287,0.329-0.59,0.627-0.911,0.901c-0.207,0.186-0.426,0.355-0.646,0.521
					c-0.219,0.166-0.442,0.324-0.67,0.475c-0.143,0.098-0.286,0.19-0.431,0.281c-0.071,0.047-0.143,0.091-0.215,0.135
					c-0.247,0.151-0.497,0.298-0.749,0.44c-0.235,0.131-0.476,0.258-0.714,0.379l-0.357,0.18l-0.178,0.084
					c-0.058,0.025-0.122,0.057-0.162,0.071l0.232-0.106c-0.7,0.151-1.369,0.323-2.033,0.512c-0.663,0.188-1.318,0.388-1.967,0.603
					c-0.437,0.147-0.872,0.3-1.307,0.451c0.458,0.158,3.03,1.087,3.194,2.077l1.072-0.518c0.6-0.288,1.197-0.587,1.78-0.858
					l0.234-0.106c0.083-0.059,0.136-0.103,0.201-0.153l0.182-0.146c0.119-0.097,0.235-0.197,0.349-0.299
					c0.229-0.201,0.449-0.411,0.662-0.627c0.429-0.429,0.827-0.889,1.196-1.369c0.181-0.245,0.354-0.493,0.517-0.751
					c0.158-0.26,0.31-0.521,0.441-0.794c0.232-0.475,0.415-0.978,0.512-1.485C93.502,65.888,93.424,65.924,93.345,65.956z"/>
				<path fill="#FFFFFF" d="M83.238,70.882c-0.008,0.003-0.015,0.006-0.021,0.008c-0.201,0.071-0.402,0.142-0.604,0.215
					c-0.641,0.229-1.279,0.471-1.917,0.714l-0.363,0.21c0.019-0.017,0.036-0.032,0.058-0.046c0.012-0.008,0.021-0.013,0.033-0.019
					c0.011-0.007,0.021-0.011,0.021-0.013c0.007-0.008,0.024-0.016,0.024-0.016c-0.01,0-0.02,0.002-0.029,0.008l-0.065,0.014
					c-0.104,0.021-0.244,0.047-0.407,0.062c-0.319,0.036-0.69,0.055-1.062,0.063c-0.187,0.004-0.375,0.006-0.565,0.006h-0.071
					l-0.022-0.002l-0.262-0.139c-0.209-0.115-0.405-0.203-0.609-0.304c-0.801-0.378-1.59-0.695-2.384-0.997
					c-0.793-0.3-1.591-0.575-2.39-0.834c-0.802-0.255-1.607-0.495-2.417-0.715c-0.405-0.111-0.812-0.218-1.22-0.32l-0.307-0.073
					l-0.152-0.037l-0.074-0.011c-0.1-0.017-0.205-0.049-0.301-0.101c-0.192-0.109-0.373-0.283-0.48-0.521
					c-0.029-0.075-0.061-0.182-0.089-0.271c-0.03-0.094-0.061-0.189-0.087-0.286c-0.058-0.191-0.109-0.386-0.158-0.584
					c-0.206-0.792-0.357-1.626-0.58-2.458c-0.226,0.829-0.408,1.657-0.514,2.523c-0.025,0.217-0.045,0.435-0.058,0.655
					c-0.007,0.11-0.013,0.223-0.017,0.334c-0.001,0.056-0.001,0.11-0.001,0.167c0.001,0.06-0.003,0.105,0.003,0.177
					c0.017,0.29,0.082,0.584,0.193,0.863c0.113,0.278,0.279,0.541,0.48,0.776c0.204,0.231,0.449,0.436,0.723,0.598l0.623,0.333
					l1.104,0.578c0.736,0.382,1.475,0.753,2.211,1.122l2.203,1.089c0.729,0.358,1.456,0.721,2.139,1.082
					c0.166,0.09,0.345,0.184,0.495,0.271l0.235,0.134c0.187,0.108,0.384,0.2,0.586,0.271c0.204,0.071,0.415,0.122,0.628,0.151
					c0.106,0.016,0.213,0.026,0.322,0.031l0.21,0.005c0.228,0.003,0.452,0.005,0.68,0c0.458-0.015,0.918-0.036,1.423-0.104
					c0.251-0.032,0.519-0.081,0.817-0.155l0.232-0.066c0.091-0.031,0.179-0.063,0.268-0.096c0.095-0.038,0.207-0.093,0.309-0.143
					c0.021-0.01,0.056-0.029,0.091-0.05l0.072-0.045c0.562-0.247,1.125-0.499,1.685-0.759c0.609-0.279,1.213-0.569,1.817-0.863
					l0.736-0.357C86.269,71.969,83.696,71.041,83.238,70.882z M78.25,72.089c0,0,0.002,0,0.003,0
					c0.008,0.001,0.015,0.006,0.021,0.01c0.008,0.003,0.015,0.009,0.02,0.015L78.25,72.089z"/>
			</g>
		</g>
	</g>
	<g>
		<path fill="#FFFFFF" d="M116.2,38.378c-3.058-3.34-4.923-7.789-4.923-12.674c0-10.37,8.407-18.777,18.777-18.777
			c10.371,0,18.777,8.407,18.777,18.777c0,10.371-8.406,18.778-18.777,18.778c-3.604,0-6.971-1.017-9.83-2.776l-7.98,3.021
			L116.2,38.378z"/>
		<path fill="#1A3139" d="M116.2,38.378c-1.6-1.721-2.876-3.747-3.729-5.942c-0.856-2.194-1.289-4.554-1.278-6.914
			c-0.005-2.361,0.467-4.721,1.347-6.914c0.88-2.194,2.181-4.219,3.806-5.939c1.625-1.721,3.573-3.137,5.719-4.145
			c2.144-1.011,4.483-1.609,6.853-1.746c2.367-0.142,4.762,0.152,7.021,0.884c2.258,0.73,4.374,1.896,6.205,3.408
			c1.832,1.512,3.375,3.37,4.525,5.447c1.154,2.077,1.902,4.375,2.205,6.729c0.3,2.354,0.176,4.767-0.408,7.069
			c-0.576,2.304-1.599,4.492-2.983,6.417c-1.386,1.927-3.132,3.59-5.123,4.876c-1.99,1.287-4.228,2.19-6.55,2.651
			c-1.162,0.233-2.346,0.347-3.527,0.355l-0.223,0.005l-0.222-0.004l-0.442-0.01l-0.443-0.024l-0.223-0.013
			c-0.073-0.005-0.146-0.013-0.22-0.019l-0.442-0.041l-0.439-0.055l-0.221-0.028c-0.072-0.01-0.146-0.023-0.219-0.035l-0.438-0.071
			c-2.327-0.423-4.572-1.284-6.579-2.53l0.09,0.009l-7.997,2.974l-0.145,0.054l0.081-0.13L116.2,38.378z M116.2,38.378l-3.911,6.376
			l-0.063-0.076l7.962-3.068l0.046-0.018l0.044,0.026c1.995,1.215,4.217,2.051,6.517,2.451l0.432,0.067
			c0.072,0.011,0.145,0.023,0.216,0.033l0.218,0.026l0.435,0.051l0.436,0.037c0.072,0.006,0.146,0.013,0.218,0.018l0.219,0.011
			l0.437,0.021l0.438,0.006l0.218,0.002l0.219-0.006c1.165-0.017,2.331-0.137,3.471-0.375c2.283-0.469,4.472-1.375,6.418-2.648
			c1.95-1.27,3.657-2.908,5.007-4.801c1.353-1.892,2.341-4.039,2.904-6.294c0.569-2.253,0.688-4.616,0.391-6.919
			c-0.298-2.304-1.036-4.549-2.161-6.581c-1.123-2.034-2.632-3.854-4.422-5.335c-1.79-1.482-3.861-2.625-6.071-3.344
			c-2.208-0.724-4.554-1.021-6.875-0.891c-2.324,0.124-4.618,0.709-6.731,1.684c-2.113,0.976-4.041,2.354-5.652,4.038
			c-1.613,1.682-2.909,3.669-3.793,5.83c-0.885,2.159-1.362,4.487-1.391,6.825c-0.037,2.337,0.365,4.684,1.191,6.876
			C113.388,34.593,114.628,36.632,116.2,38.378z"/>
	</g>
	<path fill="#FF2A00" d="M136.536,30.372c0,0.828-0.266,1.667-0.798,2.518c-0.531,0.85-1.309,1.555-2.329,2.112
		c-1.021,0.558-2.212,0.837-3.573,0.837c-1.265,0-2.38-0.233-3.348-0.7c-0.968-0.466-1.713-1.101-2.24-1.903
		s-0.791-1.674-0.791-2.616c0-0.741,0.151-1.391,0.452-1.95c0.299-0.558,0.656-1.04,1.07-1.445c0.414-0.405,1.155-1.088,2.227-2.047
		c0.297-0.271,0.535-0.508,0.714-0.712c0.179-0.206,0.313-0.393,0.398-0.563c0.088-0.169,0.155-0.34,0.204-0.51
		c0.047-0.17,0.119-0.469,0.216-0.896c0.165-0.907,0.684-1.36,1.557-1.36c0.454,0,0.837,0.148,1.146,0.444
		c0.31,0.297,0.463,0.737,0.463,1.321c0,0.733-0.112,1.367-0.339,1.904c-0.228,0.536-0.528,1.007-0.903,1.412
		c-0.374,0.406-0.882,0.887-1.52,1.445c-0.558,0.489-0.961,0.856-1.21,1.105c-0.25,0.249-0.458,0.525-0.628,0.831
		c-0.171,0.304-0.256,0.636-0.256,0.994c0,0.697,0.26,1.286,0.779,1.766c0.519,0.479,1.188,0.719,2.008,0.719
		c0.961,0,1.667-0.243,2.121-0.727c0.453-0.485,0.837-1.198,1.151-2.141c0.297-0.983,0.859-1.475,1.688-1.475
		c0.489,0,0.9,0.172,1.237,0.516C136.369,29.598,136.536,29.971,136.536,30.372z M130.15,16.033c0.534,0,0.999,0.172,1.396,0.517
		c0.396,0.345,0.595,0.827,0.595,1.447c0,0.549-0.191,1.012-0.575,1.387c-0.385,0.375-0.854,0.563-1.415,0.563
		c-0.549,0-1.012-0.188-1.386-0.563c-0.375-0.375-0.563-0.838-0.563-1.387c0-0.611,0.196-1.091,0.59-1.439
		C129.184,16.208,129.637,16.033,130.15,16.033z"/>
	<path fill="#FCA800" d="M4.42,119.417c1.516-0.052,3.033-0.091,4.549-0.135l4.549-0.114c3.033-0.072,6.066-0.133,9.099-0.189
		c6.066-0.113,12.132-0.197,18.198-0.266c12.131-0.132,24.263-0.192,36.396-0.194c12.13,0,24.263,0.061,36.395,0.191
		c6.066,0.069,12.131,0.153,18.197,0.266c3.032,0.057,6.065,0.118,9.099,0.19l4.549,0.115l2.274,0.065l1.138,0.033l1.138,0.037
		l-1.138,0.036l-1.138,0.033l-2.274,0.066l-4.549,0.115c-3.033,0.071-6.066,0.133-9.099,0.19
		c-6.066,0.112-12.131,0.196-18.197,0.265c-12.132,0.132-24.265,0.192-36.395,0.19c-12.133,0-24.264-0.062-36.396-0.193
		c-6.066-0.068-12.132-0.152-18.198-0.264c-3.033-0.058-6.065-0.119-9.099-0.19l-4.549-0.113
		C7.454,119.506,5.937,119.469,4.42,119.417z"/>
</g>
</svg>
