<?xml version="1.0" encoding="utf-8"?>
<!-- Generator: Adobe Illustrator 16.0.0, SVG Export Plug-In . SVG Version: 6.00 Build 0)  -->
<!DOCTYPE svg PUBLIC "-//W3C//DTD SVG 1.1//EN" "http://www.w3.org/Graphics/SVG/1.1/DTD/svg11.dtd">
<svg version="1.1" id="Layer_1" xmlns="http://www.w3.org/2000/svg" xmlns:xlink="http://www.w3.org/1999/xlink" x="0px" y="0px"
	 width="50px" height="50px" viewBox="0 0 50 50" enable-background="new 0 0 50 50" xml:space="preserve">
<g>
	<g>
		<path fill="#4E4E4E" d="M42.764,35.77c0.133-0.111,0.229-0.262,0.297-0.422c0.264-0.627,0.084-1.377-0.316-1.926
			c-0.4-0.551-0.992-0.93-1.601-1.234c-1.056-0.529-2.205-0.873-3.378-1.01c-0.264-0.031-0.527-0.053-0.792-0.039
			c-0.381,0.021-0.757,0.111-1.138,0.117c-0.382,0.006-0.791-0.09-1.045-0.373c-0.119-0.135-0.199-0.303-0.334-0.42
			c-0.136-0.117-0.375-0.152-0.492-0.018v5.529c0.996,0.742,2.22,1.18,3.459,1.092c0.747-0.055,1.475-0.268,2.176-0.531
			c0.252-0.096,0.504-0.197,0.77-0.234C41.021,36.209,42.241,36.211,42.764,35.77z"/>
		<path fill="#C7C6C6" d="M50,33.092v1.732c0,0.438-0.359,0.791-0.799,0.785h-0.008V32.57C49.437,32.779,49.709,32.957,50,33.092z"
			/>
		<path fill="#ED3B23" d="M49.193,30.365c0.069,0.07,0.148,0.143,0.239,0.209c0.002,0.002,0.004,0.002,0.007,0.004
			C49.785,30.83,50,31.225,50,31.654v1.438c-0.291-0.135-0.563-0.313-0.807-0.521V30.365z"/>
		<path fill="#C7C6C6" d="M0,33.092v1.732c0,0.438,0.359,0.791,0.797,0.785h0.008V32.57C0.563,32.779,0.291,32.957,0,33.092z"/>
		<path fill="#ED3B23" d="M0.805,30.365c-0.068,0.07-0.146,0.143-0.238,0.209c-0.002,0.002-0.004,0.002-0.006,0.004
			C0.213,30.83,0,31.225,0,31.654v1.438c0.291-0.135,0.563-0.313,0.805-0.521V30.365z"/>
		<path fill="#108140" d="M49.363,26.355v4.01v5.074l0,0c0,0.1-0.081,0.182-0.182,0.182h-6.707
			c-0.273-2.385-2.297-4.236-4.753-4.236c-0.823,0-1.596,0.211-2.272,0.576l-1.471-0.873V20.489
			c5.213,1.401,10.144,2.805,15.118,4.34C49.271,25.316,49.363,25.832,49.363,26.355z"/>
		<path fill="#108140" d="M34.834,16.585h7.055c1.04,0,2.014,0.51,2.608,1.363l4.061,5.837c0.226,0.325,0.406,0.676,0.539,1.044
			c-4.975-1.535-9.905-2.938-15.118-4.34v-3.048C33.979,16.969,34.361,16.585,34.834,16.585z"/>
		<path fill="#1A1A1A" d="M35.711,28.578h1.622c0.161,0,0.284-0.146,0.256-0.305l-0.03-0.172c-0.051-0.283-0.281-0.5-0.566-0.531
			l-1.117-0.125c-0.226-0.025-0.424,0.152-0.424,0.379v0.494C35.451,28.461,35.568,28.578,35.711,28.578z"/>
		<defs>
			<filter id="Adobe_OpacityMaskFilter" filterUnits="userSpaceOnUse" x="35.85" y="17.179" width="11.984" height="9.653">
				<feFlood  style="flood-color:white;flood-opacity:1" result="back"/>
				<feBlend  in="SourceGraphic" in2="back" mode="normal"/>
			</filter>
		</defs>
		<mask maskUnits="userSpaceOnUse" x="35.85" y="17.179" width="11.984" height="9.653" id="SVGID_1_">
			<g filter="url(#Adobe_OpacityMaskFilter)">
				<defs>
					<filter id="Adobe_OpacityMaskFilter_1_" filterUnits="userSpaceOnUse" x="35.85" y="17.179" width="11.984" height="9.653">
						<feFlood  style="flood-color:white;flood-opacity:1" result="back"/>
						<feBlend  in="SourceGraphic" in2="back" mode="normal"/>
					</filter>
				</defs>
				<mask maskUnits="userSpaceOnUse" x="35.85" y="17.179" width="11.984" height="9.653" id="SVGID_1_">
				</mask>
				
					<linearGradient id="SVGID_2_" gradientUnits="userSpaceOnUse" x1="-1.8262" y1="22.0054" x2="10.1587" y2="22.0054" gradientTransform="matrix(-1 0 0 1 46.0078 0)">
					<stop  offset="0" style="stop-color:#FFFFFF"/>
					<stop  offset="1" style="stop-color:#333333"/>
				</linearGradient>
				<path mask="url(#SVGID_1_)" fill="url(#SVGID_2_)" d="M35.965,17.372c0.1-0.119,0.256-0.187,0.424-0.193
					c-0.15,0.068-0.254,0.218-0.254,0.394v6.421c0,0.288,0.207,0.534,0.49,0.583l10.546,1.803c0.226,0.039,0.458,0.002,0.663-0.096
					c-0.105,0.119-0.246,0.242-0.429,0.342c-0.4,0.219-0.784,0.213-0.937,0.203c-3.305-0.547-6.609-1.094-9.916-1.642
					c-0.364-0.061-0.633-0.375-0.635-0.744c-0.013-2.182-0.025-4.362-0.039-6.543C35.871,17.877,35.779,17.592,35.965,17.372z"/>
			</g>
		</mask>
		
			<linearGradient id="SVGID_3_" gradientUnits="userSpaceOnUse" x1="-1.8262" y1="22.0054" x2="10.1587" y2="22.0054" gradientTransform="matrix(-1 0 0 1 46.0078 0)">
			<stop  offset="0" style="stop-color:#FFFFFF"/>
			<stop  offset="1" style="stop-color:#FFFFFF"/>
		</linearGradient>
		<path opacity="0.57" fill="url(#SVGID_3_)" d="M35.965,17.372c0.1-0.119,0.256-0.187,0.424-0.193
			c-0.15,0.068-0.254,0.218-0.254,0.394v6.421c0,0.288,0.207,0.534,0.49,0.583l10.546,1.803c0.226,0.039,0.458,0.002,0.663-0.096
			c-0.105,0.119-0.246,0.242-0.429,0.342c-0.4,0.219-0.784,0.213-0.937,0.203c-3.305-0.547-6.609-1.094-9.916-1.642
			c-0.364-0.061-0.633-0.375-0.635-0.744c-0.013-2.182-0.025-4.362-0.039-6.543C35.871,17.877,35.779,17.592,35.965,17.372z"/>
		<path fill="#FFFFFF" d="M45.326,20.049c0.249,0.36,0.518,0.75,0.789,1.145c-1.184,1.446-2.34,2.904-3.5,4.35l-1.542-0.264
			c1.034-1.329,2.122-2.635,3.228-3.978C44.668,20.889,45.01,20.476,45.326,20.049z"/>
		<path fill="#FFFFFF" d="M48.419,24.596c0.538,1.045-0.357,1.879-1.163,1.742l-4.641-0.795c1.16-1.445,2.316-2.903,3.5-4.35
			C47.203,22.776,48.336,24.435,48.419,24.596z"/>
		<path fill="#FFFFFF" d="M42.406,17.147c0.672,0.133,1.273,0.52,1.672,1.092c0,0,0.545,0.788,1.248,1.81
			c-0.316,0.427-0.658,0.84-1.025,1.253c-1.105,1.343-2.193,2.648-3.228,3.978l-3.493-0.598c0-0.843,0-1.686,0-2.528
			C39.28,20.555,40.84,18.845,42.406,17.147z"/>
		<path fill="#FFFFFF" d="M37.58,17.096h2.481c-0.841,0.749-1.665,1.509-2.481,2.276C37.58,18.612,37.58,17.853,37.58,17.096z"/>
		<path fill="#FFFFFF" d="M40.062,17.096h1.827c0.176,0,0.349,0.018,0.518,0.052c-1.566,1.697-3.126,3.407-4.826,5.006
			c0-0.928,0-1.855,0-2.781C38.396,18.604,39.221,17.845,40.062,17.096z"/>
		<path fill="#333333" d="M36.653,17.096h0.927c0,2.518,0,5.054,0,7.586l-0.869-0.148c-0.284-0.049-0.492-0.295-0.492-0.582v-6.422
			C36.219,17.29,36.414,17.096,36.653,17.096z"/>
		<path fill="#1A1A1A" d="M46.258,29.26h1.102c0.037,0,0.068-0.031,0.068-0.068v-1.881c0-0.018-0.014-0.031-0.031-0.031H46.22
			c-0.017,0-0.03,0.014-0.03,0.031v1.881C46.189,29.229,46.22,29.26,46.258,29.26z"/>
		<g>
			<polygon fill="#1A1A1A" points="46.727,27.713 46.891,27.713 46.891,26.77 45.771,23.476 45.616,23.528 46.727,26.797 			"/>
		</g>
		<path fill="#1A1A1A" d="M44.103,23.626h2.254c0.079,0,0.142-0.064,0.142-0.143v-5.102c0-0.078-0.063-0.143-0.142-0.143h-2.254
			c-0.078,0-0.142,0.064-0.142,0.143v5.102C43.961,23.562,44.024,23.626,44.103,23.626z"/>
		<path fill="#108140" d="M1.486,9.959h7.396h23.523c0.434,0,0.786,0.362,0.786,0.808v8.731v3.018v3.68v9.23
			c0,0.445-0.353,0.809-0.786,0.809h-0.135H16.764H1.486c-0.434,0-0.785-0.363-0.785-0.809v-5.74v-6.271v-5.125V12.95v-2.184
			C0.701,10.321,1.053,9.959,1.486,9.959z"/>
		<path fill="#FFFFFF" d="M4.955,12.906h5.736h18.246c0.338,0,0.61,0.28,0.61,0.627v6.772v2.341V25.5v7.16
			c0,0.346-0.272,0.627-0.61,0.627h-0.104H16.805H4.955c-0.338,0-0.609-0.281-0.609-0.627v-4.453v-4.864v-3.976v-4.141v-1.693
			C4.346,13.187,4.617,12.906,4.955,12.906z"/>
		<path fill="#4E4E4E" d="M41.596,36.457h7.598c0.076,0,0.137-0.061,0.137-0.135v-0.771h-7.734V36.457z"/>
		<path fill="#4E4E4E" d="M0.754,36.443h43.844v-0.893H0.621v0.758C0.621,36.383,0.682,36.443,0.754,36.443z"/>
		<g>
			<g>
				<path fill="#4E4E4E" d="M14.48,35.746L4.387,35.654c0,0-0.041-0.201-0.041-0.307c0-2.814,2.289-5.104,5.104-5.104
					s5.104,2.289,5.104,5.104C14.553,35.488,14.48,35.746,14.48,35.746z M9.449,32.252c-1.707,0-3.096,1.389-3.096,3.096
					s1.389,3.096,3.096,3.096s3.096-1.389,3.096-3.096S11.156,32.252,9.449,32.252z"/>
			</g>
			<circle fill="#FBA819" cx="9.44" cy="35.408" r="2.683"/>
			<circle cx="9.441" cy="35.408" r="0.822"/>
			<g>
				<path d="M9.449,40.041c-2.588,0-4.693-2.105-4.693-4.693s2.105-4.691,4.693-4.691s4.691,2.104,4.691,4.691
					S12.037,40.041,9.449,40.041z M9.449,32.502c-1.57,0-2.848,1.277-2.848,2.846c0,1.57,1.277,2.846,2.848,2.846
					c1.568,0,2.846-1.275,2.846-2.846C12.295,33.779,11.018,32.502,9.449,32.502z"/>
			</g>
			<path fill="none" d="M6.932,35.063h0.006c0.037-0.248,0.107-0.484,0.209-0.701C7.043,34.578,6.969,34.814,6.932,35.063z"/>
			<path fill="none" d="M11.879,35.063c-0.035-0.244-0.107-0.477-0.209-0.693c0.1,0.217,0.168,0.449,0.203,0.693H11.879z"/>
			<path fill="none" d="M7.77,37.326h0.002c-0.006-0.006-0.012-0.01-0.016-0.014C7.76,37.316,7.766,37.32,7.77,37.326z"/>
			<path fill="none" d="M6.945,35.834H6.938c0.09,0.566,0.373,1.07,0.777,1.441C7.314,36.904,7.037,36.4,6.945,35.834z"/>
			<path fill="none" d="M11.096,37.277c0.404-0.373,0.688-0.875,0.779-1.443h-0.008C11.775,36.4,11.496,36.904,11.096,37.277z"/>
			<path fill="none" d="M11.045,37.322c-0.006,0.006-0.014,0.012-0.021,0.018C11.031,37.334,11.039,37.328,11.045,37.322z"/>
			
				<ellipse fill="none" stroke="#FFFFFF" stroke-width="0.0128" stroke-miterlimit="10" cx="9.399" cy="35.391" rx="3.103" ry="3.066"/>
			<path fill="#C4C4C4" d="M9.393,32.346c-1.715,0-3.104,1.363-3.104,3.045s1.389,3.045,3.104,3.045
				c1.713,0,3.102-1.363,3.102-3.045S11.105,32.346,9.393,32.346z M11.096,37.277c-0.018,0.016-0.033,0.029-0.051,0.045
				c-0.006,0.006-0.014,0.012-0.021,0.018c-0.436,0.375-1,0.602-1.617,0.602c-0.627,0-1.197-0.232-1.635-0.615H7.77
				c-0.004-0.006-0.01-0.01-0.014-0.014c-0.014-0.014-0.027-0.025-0.041-0.037c-0.404-0.371-0.688-0.875-0.777-1.441h0.008
				c-0.021-0.133-0.033-0.27-0.033-0.408c0-0.123,0.008-0.244,0.025-0.363H6.932c0.037-0.248,0.111-0.484,0.215-0.701
				c0.398-0.857,1.26-1.451,2.26-1.451c1.002,0,1.867,0.598,2.264,1.459c0.102,0.217,0.174,0.449,0.209,0.693h-0.006
				c0.018,0.119,0.027,0.24,0.027,0.363c0,0.139-0.012,0.275-0.033,0.408h0.008C11.783,36.402,11.5,36.904,11.096,37.277z"/>
			<path fill="#808080" d="M11.096,37.277c-0.018,0.016-0.033,0.029-0.051,0.045C11.063,37.307,11.078,37.293,11.096,37.277z"/>
			<path fill="#808080" d="M7.756,37.313c-0.014-0.012-0.027-0.025-0.041-0.037C7.729,37.287,7.742,37.299,7.756,37.313z"/>
			<circle cx="9.44" cy="34.18" r="0.171"/>
			<circle cx="9.44" cy="36.631" r="0.171"/>
			<circle cx="8.215" cy="35.405" r="0.171"/>
			<circle cx="10.666" cy="35.405" r="0.171"/>
			<circle cx="8.573" cy="36.272" r="0.17"/>
			<circle cx="10.307" cy="34.539" r="0.171"/>
			<circle cx="10.307" cy="36.272" r="0.171"/>
			<circle cx="8.573" cy="34.539" r="0.171"/>
		</g>
		<g>
			<g>
				<path fill="#4E4E4E" d="M44.268,35.746l-10.092-0.092c0,0-0.043-0.201-0.043-0.307c0-2.814,2.289-5.104,5.104-5.104
					s5.104,2.289,5.104,5.104C44.34,35.488,44.268,35.746,44.268,35.746z M39.236,32.252c-1.707,0-3.096,1.389-3.096,3.096
					s1.389,3.096,3.096,3.096s3.096-1.389,3.096-3.096S40.943,32.252,39.236,32.252z"/>
			</g>
			<circle fill="#FBA819" cx="39.228" cy="35.408" r="2.682"/>
			<circle cx="39.229" cy="35.408" r="0.822"/>
			<g>
				<path d="M39.236,40.041c-2.588,0-4.692-2.105-4.692-4.693s2.104-4.691,4.692-4.691s4.693,2.104,4.693,4.691
					S41.824,40.041,39.236,40.041z M39.236,32.502c-1.569,0-2.846,1.277-2.846,2.846c0,1.57,1.276,2.846,2.846,2.846
					c1.57,0,2.846-1.275,2.846-2.846C42.082,33.779,40.807,32.502,39.236,32.502z"/>
			</g>
			<path fill="none" d="M36.72,35.063h0.006c0.036-0.248,0.106-0.484,0.208-0.701C36.83,34.578,36.756,34.814,36.72,35.063z"/>
			<path fill="none" d="M41.668,35.063c-0.037-0.244-0.109-0.477-0.211-0.693c0.1,0.217,0.17,0.449,0.205,0.693H41.668z"/>
			<path fill="none" d="M37.559,37.326L37.559,37.326c-0.006-0.006-0.011-0.01-0.016-0.014
				C37.548,37.316,37.553,37.32,37.559,37.326z"/>
			<path fill="none" d="M36.732,35.834h-0.008c0.091,0.566,0.373,1.07,0.778,1.441C37.103,36.904,36.824,36.4,36.732,35.834z"/>
			<path fill="none" d="M40.883,37.277c0.406-0.373,0.688-0.875,0.779-1.443h-0.008C41.563,36.4,41.283,36.904,40.883,37.277z"/>
			<path fill="none" d="M40.834,37.322c-0.008,0.006-0.016,0.012-0.022,0.018C40.818,37.334,40.826,37.328,40.834,37.322z"/>
			
				<ellipse fill="none" stroke="#FFFFFF" stroke-width="0.0128" stroke-miterlimit="10" cx="39.187" cy="35.391" rx="3.103" ry="3.066"/>
			<path fill="#C4C4C4" d="M39.18,32.346c-1.713,0-3.103,1.363-3.103,3.045s1.39,3.045,3.103,3.045s3.102-1.363,3.102-3.045
				S40.893,32.346,39.18,32.346z M40.883,37.277c-0.016,0.016-0.033,0.029-0.049,0.045c-0.008,0.006-0.016,0.012-0.022,0.018
				c-0.436,0.375-1.001,0.602-1.618,0.602c-0.626,0-1.197-0.232-1.635-0.615l0,0c-0.006-0.006-0.011-0.01-0.016-0.014
				c-0.014-0.014-0.027-0.025-0.04-0.037c-0.405-0.371-0.688-0.875-0.778-1.441h0.008c-0.021-0.133-0.033-0.27-0.033-0.408
				c0-0.123,0.01-0.244,0.026-0.363H36.72c0.036-0.248,0.11-0.484,0.214-0.701c0.398-0.857,1.26-1.451,2.26-1.451
				c1.004,0,1.867,0.598,2.264,1.459c0.102,0.217,0.174,0.449,0.211,0.693h-0.006c0.017,0.119,0.025,0.24,0.025,0.363
				c0,0.139-0.012,0.275-0.033,0.408h0.008C41.571,36.402,41.289,36.904,40.883,37.277z"/>
			<path fill="#808080" d="M40.883,37.277c-0.016,0.016-0.033,0.029-0.049,0.045C40.85,37.307,40.867,37.293,40.883,37.277z"/>
			<path fill="#808080" d="M37.543,37.313c-0.014-0.012-0.027-0.025-0.04-0.037C37.516,37.287,37.529,37.299,37.543,37.313z"/>
			<circle cx="39.228" cy="34.18" r="0.171"/>
			<circle cx="39.228" cy="36.631" r="0.171"/>
			<circle cx="38.002" cy="35.405" r="0.171"/>
			<circle cx="40.453" cy="35.405" r="0.171"/>
			<circle cx="38.361" cy="36.272" r="0.171"/>
			<circle cx="40.094" cy="34.539" r="0.171"/>
			<circle cx="40.094" cy="36.272" r="0.171"/>
			<circle cx="38.361" cy="34.539" r="0.171"/>
		</g>
	</g>
	<g>
		<path fill="#FBA819" d="M27.73,24.467H6.862c-0.184,0-0.332-0.148-0.332-0.332v-1.813c0-0.184,0.148-0.332,0.332-0.332H27.73
			c0.184,0,0.332,0.148,0.332,0.332v1.813C28.063,24.318,27.914,24.467,27.73,24.467"/>
		<path fill="#FFFFFF" d="M7.776,23.934c-0.463,0-0.73-0.324-0.73-0.816s0.256-0.816,0.695-0.816c0.207,0,0.422,0.065,0.564,0.317
			l-0.328,0.13c-0.055-0.104-0.131-0.166-0.234-0.166c-0.188,0-0.328,0.171-0.328,0.535s0.167,0.534,0.398,0.534
			c0.135,0,0.279-0.051,0.396-0.146l0.14,0.244C8.218,23.865,8.004,23.934,7.776,23.934"/>
		<path fill="#FFFFFF" d="M9.593,23.191v0.721H9.251v-0.66c0-0.129-0.055-0.21-0.158-0.21c-0.148,0-0.241,0.079-0.241,0.313v0.557
			H8.509v-1.676c0.061-0.027,0.124-0.047,0.184-0.047c0.102,0,0.159,0.066,0.159,0.159v0.59c0.093-0.122,0.218-0.166,0.351-0.166
			C9.45,22.772,9.593,22.928,9.593,23.191"/>
		<path fill="#FFFFFF" d="M10.69,23.59l0.135,0.214c-0.138,0.086-0.29,0.13-0.475,0.13c-0.352,0-0.559-0.205-0.559-0.554
			c0-0.38,0.219-0.606,0.591-0.606c0.281,0,0.444,0.141,0.444,0.373c0,0.223-0.205,0.354-0.548,0.354
			c-0.048,0-0.097-0.005-0.146-0.009c0.024,0.117,0.098,0.186,0.241,0.186C10.5,23.678,10.602,23.646,10.69,23.59 M10.128,23.301
			c0.05,0.004,0.101,0.006,0.147,0.006c0.141,0,0.221-0.053,0.221-0.146c0-0.075-0.053-0.124-0.146-0.124
			C10.227,23.037,10.146,23.135,10.128,23.301"/>
		<path fill="#FFFFFF" d="M12.123,23.191v0.721H11.78v-0.66c0-0.129-0.055-0.21-0.159-0.21c-0.147,0-0.24,0.079-0.24,0.313v0.557
			h-0.342v-1.094c0.06-0.025,0.123-0.046,0.183-0.046c0.089,0,0.144,0.073,0.148,0.181c0.095-0.135,0.225-0.181,0.362-0.181
			C11.979,22.772,12.123,22.928,12.123,23.191"/>
		<path fill="#FFFFFF" d="M13.458,23.191v0.721h-0.342v-0.66c0-0.129-0.057-0.21-0.16-0.21c-0.146,0-0.24,0.079-0.24,0.313v0.557
			h-0.342v-1.094c0.059-0.025,0.123-0.046,0.184-0.046c0.088,0,0.143,0.073,0.146,0.181c0.096-0.135,0.227-0.181,0.363-0.181
			C13.313,22.772,13.458,22.928,13.458,23.191"/>
		<path fill="#FFFFFF" d="M14.651,23.191v0.695c-0.059,0.027-0.121,0.047-0.184,0.047c-0.086,0-0.141-0.07-0.146-0.172
			c-0.092,0.128-0.213,0.172-0.334,0.172c-0.223,0-0.357-0.13-0.357-0.342c0-0.234,0.195-0.371,0.543-0.371
			c0.043,0,0.09,0,0.137,0.002c-0.006-0.121-0.051-0.193-0.195-0.193c-0.096,0-0.195,0.03-0.283,0.088l-0.137-0.213
			c0.141-0.086,0.293-0.132,0.479-0.132C14.476,22.772,14.651,22.928,14.651,23.191 M14.31,23.42
			c-0.047-0.002-0.088-0.002-0.129-0.002c-0.145,0-0.227,0.053-0.227,0.143c0,0.07,0.039,0.121,0.129,0.121
			C14.198,23.682,14.31,23.609,14.31,23.42"/>
		<path fill="#FFFFFF" d="M14.876,22.439c0-0.115,0.074-0.18,0.191-0.18c0.115,0,0.189,0.064,0.189,0.18
			c0,0.117-0.074,0.184-0.189,0.184C14.95,22.623,14.876,22.557,14.876,22.439 M14.899,23.912h0.342v-1.117h-0.342V23.912z"/>
		<path fill="#108140" d="M16.399,23.574h-0.58l-0.113,0.338h-0.342l0.574-1.565c0.063-0.031,0.125-0.046,0.188-0.046
			c0.115,0,0.201,0.059,0.25,0.193l0.516,1.418h-0.379L16.399,23.574z M16.31,23.301L16.11,22.66l-0.201,0.641H16.31z"/>
		<path fill="#108140" d="M18.099,23.191v0.721h-0.342v-0.66c0-0.129-0.055-0.21-0.158-0.21c-0.148,0-0.24,0.079-0.24,0.313v0.557
			h-0.344v-1.094c0.061-0.025,0.125-0.046,0.184-0.046c0.088,0,0.145,0.073,0.148,0.181c0.096-0.135,0.225-0.181,0.361-0.181
			C17.956,22.772,18.099,22.928,18.099,23.191"/>
		<path fill="#108140" d="M19.423,22.795v1.184c0,0.293-0.191,0.463-0.521,0.463c-0.207,0-0.369-0.044-0.523-0.13l0.137-0.214
			c0.102,0.057,0.221,0.088,0.328,0.088c0.186,0,0.238-0.1,0.238-0.27v-0.141c-0.094,0.119-0.223,0.158-0.354,0.158
			c-0.258,0-0.428-0.201-0.428-0.543c0-0.391,0.23-0.618,0.619-0.618C19.03,22.772,19.265,22.781,19.423,22.795 M19.081,23.029
			c-0.051-0.003-0.094-0.003-0.133-0.003c-0.184,0-0.301,0.135-0.301,0.364c0,0.172,0.074,0.273,0.209,0.273
			c0.133,0,0.225-0.079,0.225-0.311V23.029z"/>
		<path fill="#108140" d="M20.626,23.191v0.695c-0.059,0.027-0.121,0.047-0.182,0.047c-0.088,0-0.143-0.07-0.148-0.172
			c-0.092,0.128-0.213,0.172-0.334,0.172c-0.223,0-0.357-0.13-0.357-0.342c0-0.234,0.197-0.371,0.543-0.371
			c0.045,0,0.09,0,0.137,0.002c-0.006-0.121-0.051-0.193-0.193-0.193c-0.098,0-0.197,0.03-0.285,0.088l-0.137-0.213
			c0.141-0.086,0.293-0.132,0.479-0.132C20.45,22.772,20.626,22.928,20.626,23.191 M20.284,23.42
			c-0.047-0.002-0.088-0.002-0.127-0.002c-0.146,0-0.229,0.053-0.229,0.143c0,0.07,0.041,0.121,0.129,0.121
			C20.175,23.682,20.284,23.609,20.284,23.42"/>
		<path fill="#108140" d="M21.946,22.349v1.538c-0.059,0.027-0.123,0.047-0.184,0.047c-0.086,0-0.141-0.072-0.146-0.174
			c-0.096,0.13-0.23,0.174-0.365,0.174c-0.258,0-0.428-0.201-0.428-0.543c0-0.391,0.229-0.618,0.617-0.618
			c0.043,0,0.1,0.003,0.164,0.005v-0.541c0.059-0.027,0.123-0.047,0.184-0.047C21.89,22.189,21.946,22.256,21.946,22.349
			 M21.604,23.029c-0.051-0.003-0.096-0.003-0.133-0.003c-0.186,0-0.303,0.135-0.303,0.364c0,0.172,0.076,0.273,0.211,0.273
			c0.133,0,0.225-0.076,0.225-0.311V23.029z"/>
		<path fill="#108140" d="M22.185,22.439c0-0.115,0.072-0.18,0.189-0.18s0.191,0.064,0.191,0.18c0,0.117-0.074,0.184-0.191,0.184
			S22.185,22.557,22.185,22.439 M22.206,23.912h0.344v-1.117h-0.344V23.912z"/>
		<path fill="#FFFFFF" d="M22.774,23.735c0-0.124,0.076-0.198,0.207-0.198c0.129,0,0.205,0.074,0.205,0.198
			s-0.076,0.198-0.205,0.198C22.851,23.934,22.774,23.859,22.774,23.735"/>
		<path fill="#FFFFFF" d="M23.929,23.934c-0.361,0-0.578-0.217-0.578-0.582s0.238-0.579,0.549-0.579c0.137,0,0.357,0.056,0.43,0.313
			l-0.25,0.1c-0.029-0.086-0.082-0.144-0.162-0.144c-0.139,0-0.221,0.114-0.221,0.31s0.1,0.311,0.262,0.311
			c0.104,0,0.223-0.037,0.299-0.095l0.109,0.238C24.245,23.895,24.081,23.934,23.929,23.934"/>
		<path fill="#FFFFFF" d="M24.466,23.354c0-0.365,0.217-0.581,0.594-0.581c0.375,0,0.596,0.216,0.596,0.581
			c0,0.363-0.221,0.58-0.596,0.58C24.683,23.934,24.466,23.717,24.466,23.354 M25.308,23.354c0-0.194-0.092-0.312-0.246-0.312
			s-0.248,0.117-0.248,0.312c0,0.193,0.094,0.309,0.248,0.309S25.308,23.547,25.308,23.354"/>
		<path fill="#FFFFFF" d="M27.515,23.191v0.721h-0.343v-0.66c0-0.129-0.035-0.21-0.119-0.21c-0.115,0-0.191,0.079-0.191,0.313v0.557
			h-0.343v-0.66c0-0.129-0.039-0.21-0.119-0.21c-0.113,0-0.193,0.079-0.193,0.313v0.557h-0.342v-1.094
			c0.061-0.025,0.123-0.046,0.184-0.046c0.086,0,0.139,0.068,0.148,0.17c0.084-0.126,0.197-0.17,0.316-0.17
			c0.136,0,0.235,0.06,0.292,0.165c0.1-0.125,0.217-0.165,0.361-0.165C27.387,22.772,27.515,22.928,27.515,23.191"/>
		<path fill="#108140" d="M14.091,21.564c-0.014-0.062-0.037-0.121-0.057-0.181c-0.039-0.121-0.076-0.242-0.121-0.36
			c-0.035-0.097-0.1-0.187-0.119-0.286c-0.037-0.17-0.035-0.337,0.01-0.516c0.041-0.154,0.066-0.33-0.027-0.497
			c-0.111-0.196-0.217-0.398-0.225-0.636c-0.002-0.079-0.025-0.159-0.053-0.235c-0.031-0.097-0.092-0.175-0.195-0.204
			c-0.109-0.031-0.131-0.056-0.129-0.168c0-0.063,0.016-0.133-0.008-0.184c-0.033-0.072-0.123-0.023-0.176-0.045
			c-0.121-0.049-0.213,0.009-0.314,0.043c-0.059,0.019-0.072,0.06-0.063,0.116c0.018,0.092,0.018,0.19,0.117,0.243
			c0.012,0.005,0.014,0.025,0.02,0.037c0.016,0.027,0.031,0.055,0.051,0.081c0.045,0.066,0.107,0.1,0.172,0.079
			c-0.004,0.133-0.01,0.258-0.014,0.383c0,0.041,0.01,0.083-0.002,0.121c-0.014,0.053-0.035,0.105-0.064,0.151
			c-0.029,0.043-0.068,0.081-0.107,0.112c-0.074,0.057-0.15,0.115-0.232,0.157c-0.096,0.048-0.143,0.147-0.1,0.245
			c0.008,0.021,0.018,0.043,0.018,0.065c0.014,0.175-0.045,0.332-0.119,0.509c-0.057-0.08-0.092-0.157-0.149-0.207
			c-0.138-0.117-0.204-0.269-0.227-0.437c-0.023-0.177-0.028-0.356-0.037-0.536c-0.006-0.139-0.045-0.266-0.157-0.353
			c-0.133-0.104-0.281-0.187-0.45-0.209c-0.078-0.011-0.16,0-0.239,0.009c-0.08,0.009-0.158,0.031-0.237,0.039
			c-0.152,0.015-0.305,0.025-0.458,0.033c-0.239,0.013-0.475,0.006-0.682-0.142c-0.093-0.066-0.188-0.035-0.279,0.006
			c-0.143,0.063-0.283,0.127-0.428,0.185c-0.033,0.014-0.078,0.002-0.119,0.002c0.014-0.062,0.021-0.102,0.035-0.16
			c-0.057,0.017-0.096,0.028-0.138,0.04c0.015-0.079,0.042-0.154,0.038-0.229c-0.004-0.114-0.051-0.17-0.121-0.179
			c-0.004,0.126,0.011,0.26-0.109,0.341c-0.082-0.106-0.157-0.203-0.232-0.301c-0.015,0.007-0.029,0.014-0.043,0.021
			c0.018,0.065,0.023,0.137,0.055,0.196c0.043,0.084,0.049,0.161,0,0.238c-0.053,0.08-0.111,0.155-0.169,0.23
			c-0.009,0.013-0.029,0.021-0.044,0.021c-0.146,0.002-0.275,0.05-0.406,0.109c-0.051,0.022-0.127-0.013-0.189-0.027
			c-0.003-0.001,0.01-0.063,0.014-0.096c0-0.004-0.004-0.01-0.012-0.025c-0.039,0.01-0.082,0.021-0.134,0.034
			c-0.027-0.149,0.065-0.322-0.108-0.434v0.235c-0.049-0.057-0.022-0.155-0.125-0.171c-0.004,0.011-0.01,0.019-0.01,0.026
			c-0.002,0.021-0.006,0.042-0.002,0.061c0.037,0.156-0.028,0.265-0.152,0.354c-0.117,0.086-0.168,0.21-0.174,0.354
			c-0.002,0.031-0.008,0.064-0.021,0.092c-0.051,0.1-0.105,0.198-0.16,0.296c-0.035,0.062-0.041,0.119,0.014,0.174
			c0.088,0.085,0.174,0.099,0.278,0.035c0.089-0.056,0.181-0.076,0.278-0.031c0.143,0.064,0.287,0.073,0.439,0.044
			c0.186-0.034,0.207-0.015,0.23,0.171c0.02,0.147,0.102,0.236,0.246,0.264c0.027,0.005,0.055,0.013,0.105,0.024
			c-0.066,0.085-0.119,0.151-0.172,0.22c-0.08,0.104-0.082,0.132,0.002,0.234c0.054,0.064,0.114,0.123,0.175,0.182
			c0.082,0.079,0.168,0.154,0.251,0.233c0.045,0.043,0.018,0.244-0.037,0.302c-0.019,0.019-0.043,0.034-0.055,0.056
			c-0.008,0.017,0,0.041,0,0.063c0.006,0.023,0.105-0.012,0.105-0.012s0.025,0.021,0.078,0.034C8.647,22.014,8.657,22,8.66,21.986
			h0.001c0.081-0.126-0.013-0.285,0.063-0.411c0.11-0.018,0.112-0.023,0.083-0.129c-0.014-0.052-0.03-0.108-0.023-0.16
			c0.023-0.171,0.056-0.341,0.085-0.511c0.003-0.016,0.007-0.035,0.019-0.046c0.065-0.061,0.23-0.049,0.291,0.017
			c0.051,0.053,0.108,0.097,0.156,0.15c0.059,0.066,0.107,0.141,0.166,0.206c0.032,0.035,0.074,0.063,0.117,0.086
			c0.023,0.013,0.056,0.006,0.103,0.009c-0.015,0.042-0.027,0.074-0.038,0.106c-0.007,0.022-0.023,0.053-0.014,0.067
			c0.028,0.047,0.191,0.021,0.2-0.033c0.017-0.106,0.069-0.205,0.038-0.324c-0.046-0.174-0.002-0.226,0.168-0.28
			c0.071-0.022,0.112-0.009,0.125,0.066c0.029,0.171,0.061,0.341,0.082,0.512c0.009,0.067,0.003,0.14-0.012,0.206
			c-0.031,0.136-0.102,0.249-0.22,0.331c-0.024,0.017-0.034,0.062-0.04,0.096c-0.002,0.013,0.025,0.042,0.041,0.044
			c0.026,0.002,0.055-0.013,0.09-0.021c0.048,0.064,0.152,0.051,0.188-0.045c0.051-0.137,0.126-0.258,0.22-0.37
			c0.1-0.119,0.196-0.242,0.286-0.369c0.045-0.064,0.072-0.142,0.109-0.217c0.254,0.153,0.512,0.289,0.596,0.602
			c0.029,0.108,0.07,0.211-0.047,0.296c-0.018,0.013-0.021,0.05-0.022,0.076c0,0.008,0.031,0.026,0.047,0.024
			c0.025-0.004,0.052-0.017,0.072-0.033c0.009-0.006,0.009-0.021,0.008-0.026c0.017,0.017,0.039,0.056,0.066,0.061
			c0.071,0.01,0.104-0.047,0.117-0.191c0.03-0.008,0.062-0.015,0.091-0.024c0.138-0.047,0.279-0.097,0.361-0.225
			c0.046-0.07,0.089-0.097,0.171-0.094c0.037,0.001,0.076-0.045,0.115-0.07c-0.025-0.027-0.045-0.066-0.074-0.081
			c-0.07-0.034-0.088-0.078-0.057-0.147c0.014-0.028,0.025-0.058,0.035-0.088c0.086-0.261,0.18-0.519,0.252-0.783
			c0.025-0.092,0.035-0.177,0.133-0.224c0.023-0.012,0.045-0.046,0.055-0.074c0.033-0.115,0.131-0.149,0.238-0.202
			c-0.021,0.19,0.014,0.372-0.102,0.53c-0.047,0.065-0.08,0.141-0.117,0.212c-0.063,0.113-0.055,0.154,0.037,0.244
			c0.023,0.021,0.047,0.042,0.072,0.063c0.143,0.113,0.285,0.227,0.428,0.34c0.135,0.106,0.117,0.185,0.029,0.311
			c-0.025,0.035-0.031,0.085-0.047,0.128c0.045-0.012,0.09-0.02,0.131-0.035c0.023-0.009,0.041-0.031,0.064-0.046
			c0.072-0.045,0.145-0.09,0.221-0.136c0.049,0.188,0.039,0.203-0.131,0.26c-0.023,0.008-0.041,0.032-0.061,0.048
			c0.025,0.012,0.049,0.033,0.074,0.032c0.092-0.001,0.186-0.015,0.279-0.015C14.093,21.696,14.116,21.676,14.091,21.564
			 M8.53,21.267c-0.008,0.004-0.018,0.009-0.025,0.013c-0.062-0.054-0.127-0.104-0.182-0.164c-0.012-0.013,0.003-0.067,0.021-0.087
			c0.039-0.042,0.087-0.075,0.133-0.108c0.018-0.012,0.047-0.024,0.061-0.018s0.025,0.038,0.023,0.058
			C8.554,21.063,8.542,21.164,8.53,21.267 M9.472,20.751c0.156-0.042,0.241,0.031,0.252,0.213
			C9.609,20.983,9.535,20.923,9.472,20.751 M10.631,21.113c-0.036-0.107-0.029-0.191,0.014-0.27
			c0.008-0.015,0.048-0.026,0.063-0.019c0.044,0.021,0.081,0.052,0.146,0.096C10.774,20.99,10.707,21.048,10.631,21.113
			 M10.913,20.743c-0.047-0.035-0.095-0.071-0.143-0.106c0.006-0.009,0.012-0.017,0.018-0.024c0.049,0.032,0.099,0.065,0.148,0.099
			C10.929,20.722,10.921,20.732,10.913,20.743 M12.155,21.117c-0.093,0.118-0.179,0.241-0.272,0.357
			c-0.032,0.041-0.081,0.069-0.14,0.118c-0.041-0.215-0.074-0.402-0.112-0.588c-0.009-0.04-0.032-0.078-0.055-0.113
			c-0.017-0.026-0.044-0.045-0.064-0.069c-0.172-0.199-0.162-0.512,0.038-0.704c0.076,0.075,0.152,0.151,0.227,0.229
			c0.162,0.165,0.271,0.367,0.392,0.562C12.21,20.979,12.209,21.049,12.155,21.117 M13.19,20.67
			c-0.035-0.034-0.043-0.07-0.006-0.104c0.07-0.063,0.145-0.123,0.234-0.199c0.047,0.298,0.141,0.562,0.293,0.802
			C13.538,21.002,13.366,20.836,13.19,20.67"/>
		<path fill="#108140" d="M7.577,25.017H7.311v0.75H7.146v-0.75H6.878v-0.135h0.699V25.017z M7.903,25.247
			c0.02-0.037,0.043-0.066,0.07-0.088s0.059-0.033,0.096-0.033c0.029,0,0.053,0.008,0.07,0.02l-0.01,0.113
			c-0.002,0.008-0.006,0.014-0.01,0.016c-0.004,0.004-0.009,0.006-0.016,0.006c-0.006,0-0.015-0.002-0.027-0.004
			c-0.012-0.002-0.023-0.002-0.035-0.002c-0.016,0-0.031,0.002-0.045,0.006c-0.012,0.006-0.023,0.012-0.035,0.021
			c-0.01,0.01-0.02,0.021-0.027,0.033c-0.008,0.014-0.016,0.029-0.021,0.045v0.387H7.761v-0.629h0.09
			c0.016,0,0.025,0.004,0.031,0.01c0.007,0.006,0.011,0.016,0.013,0.029L7.903,25.247z M8.41,25.226
			c0.072-0.066,0.159-0.1,0.261-0.1c0.037,0,0.07,0.008,0.1,0.02c0.028,0.012,0.053,0.029,0.073,0.049
			c0.021,0.021,0.035,0.049,0.046,0.078c0.01,0.029,0.016,0.063,0.016,0.098v0.396H8.837c-0.016,0-0.025-0.002-0.033-0.006
			s-0.015-0.012-0.02-0.025L8.771,25.69c-0.016,0.014-0.031,0.025-0.046,0.037c-0.015,0.01-0.03,0.02-0.048,0.027
			c-0.016,0.008-0.033,0.014-0.052,0.018s-0.039,0.004-0.062,0.004c-0.026,0-0.051-0.002-0.074-0.01
			c-0.021-0.008-0.041-0.018-0.058-0.031c-0.017-0.016-0.028-0.033-0.038-0.055c-0.009-0.021-0.014-0.045-0.014-0.074
			c0-0.016,0.003-0.031,0.008-0.047c0.006-0.016,0.015-0.031,0.026-0.045c0.013-0.014,0.028-0.027,0.047-0.041
			c0.02-0.012,0.043-0.023,0.071-0.033c0.027-0.01,0.061-0.018,0.098-0.023s0.08-0.008,0.127-0.01V25.37
			c0-0.041-0.009-0.072-0.027-0.094c-0.018-0.02-0.043-0.029-0.077-0.029c-0.024,0-0.045,0.002-0.062,0.008
			c-0.016,0.006-0.029,0.012-0.042,0.02s-0.023,0.014-0.034,0.02c-0.01,0.006-0.021,0.008-0.033,0.008
			c-0.01,0-0.02-0.002-0.026-0.008s-0.013-0.012-0.019-0.02L8.41,25.226z M8.757,25.499c-0.043,0.002-0.08,0.006-0.109,0.012
			c-0.03,0.006-0.055,0.012-0.072,0.021c-0.018,0.008-0.031,0.018-0.039,0.029s-0.012,0.023-0.012,0.037
			c0,0.027,0.008,0.047,0.023,0.057c0.016,0.012,0.037,0.018,0.063,0.018c0.031,0,0.058-0.006,0.08-0.016
			c0.023-0.012,0.045-0.029,0.066-0.053V25.499z M9.808,24.856v0.91H9.714c-0.02,0-0.032-0.008-0.037-0.027l-0.014-0.061
			c-0.025,0.029-0.054,0.053-0.087,0.07c-0.032,0.02-0.071,0.027-0.114,0.027c-0.035,0-0.066-0.006-0.095-0.021
			c-0.028-0.014-0.054-0.035-0.074-0.063s-0.036-0.061-0.048-0.1c-0.012-0.041-0.017-0.086-0.017-0.139
			c0-0.045,0.007-0.09,0.019-0.129c0.014-0.041,0.031-0.074,0.055-0.104c0.023-0.031,0.053-0.053,0.086-0.07
			c0.033-0.016,0.07-0.025,0.111-0.025c0.035,0,0.064,0.006,0.09,0.018s0.047,0.025,0.066,0.045v-0.332H9.808z M9.655,25.3
			C9.639,25.278,9.62,25.263,9.6,25.255s-0.042-0.012-0.065-0.012c-0.022,0-0.043,0.004-0.062,0.012s-0.034,0.021-0.048,0.039
			c-0.013,0.018-0.022,0.039-0.029,0.066c-0.008,0.027-0.011,0.059-0.011,0.094c0,0.037,0.003,0.068,0.009,0.094
			s0.015,0.047,0.025,0.063c0.012,0.018,0.025,0.027,0.041,0.035s0.033,0.012,0.053,0.012c0.031,0,0.059-0.008,0.08-0.02
			c0.022-0.014,0.043-0.033,0.063-0.057V25.3z M10.349,24.956c0,0.012-0.003,0.025-0.008,0.035
			c-0.006,0.012-0.013,0.021-0.021,0.031c-0.009,0.008-0.02,0.016-0.031,0.02c-0.012,0.006-0.024,0.008-0.037,0.008
			c-0.014,0-0.026-0.002-0.037-0.008c-0.012-0.004-0.022-0.012-0.031-0.02c-0.008-0.01-0.016-0.02-0.02-0.031
			c-0.006-0.01-0.008-0.023-0.008-0.035c0-0.014,0.002-0.027,0.008-0.039c0.004-0.012,0.012-0.021,0.02-0.031
			c0.009-0.008,0.02-0.014,0.031-0.02c0.011-0.006,0.023-0.008,0.037-0.008c0.013,0,0.025,0.002,0.037,0.008s0.022,0.012,0.031,0.02
			c0.009,0.01,0.016,0.02,0.021,0.031C10.346,24.929,10.349,24.942,10.349,24.956z M10.327,25.138v0.629h-0.152v-0.629H10.327z
			 M11.331,25.767H11.18v-0.514h-0.292v0.34c0,0.02,0.005,0.035,0.015,0.047c0.01,0.01,0.022,0.016,0.039,0.016
			c0.01,0,0.018-0.002,0.023-0.004c0.007-0.002,0.013-0.004,0.017-0.006c0.005-0.004,0.009-0.006,0.013-0.008
			s0.008-0.004,0.011-0.004c0.005,0,0.009,0.002,0.012,0.004s0.006,0.006,0.009,0.01l0.046,0.074
			c-0.022,0.018-0.048,0.031-0.076,0.041s-0.059,0.014-0.089,0.014c-0.055,0-0.097-0.014-0.126-0.045s-0.044-0.074-0.044-0.129
			v-0.35h-0.064c-0.008,0-0.015-0.004-0.021-0.01c-0.006-0.004-0.009-0.012-0.009-0.023v-0.061l0.102-0.016l0.031-0.172
			c0.002-0.008,0.006-0.014,0.012-0.02c0.006-0.004,0.013-0.006,0.022-0.006h0.078v0.197h0.443V25.767z M11.357,24.952
			c0,0.014-0.003,0.025-0.008,0.037c-0.006,0.012-0.013,0.023-0.021,0.031s-0.02,0.016-0.031,0.02
			c-0.012,0.006-0.024,0.008-0.038,0.008s-0.025-0.002-0.037-0.008c-0.012-0.004-0.021-0.012-0.03-0.02
			c-0.008-0.008-0.015-0.02-0.021-0.031c-0.005-0.012-0.007-0.023-0.007-0.037s0.002-0.025,0.007-0.037
			c0.006-0.012,0.013-0.021,0.021-0.031c0.009-0.008,0.019-0.016,0.03-0.02c0.012-0.006,0.023-0.008,0.037-0.008
			s0.026,0.002,0.038,0.008c0.012,0.004,0.022,0.012,0.031,0.02c0.009,0.01,0.016,0.02,0.021,0.031
			C11.354,24.927,11.357,24.938,11.357,24.952z M11.978,25.128c0.047,0,0.089,0.008,0.127,0.023s0.071,0.037,0.099,0.064
			s0.048,0.063,0.062,0.102c0.016,0.041,0.023,0.086,0.023,0.135s-0.008,0.094-0.023,0.135c-0.014,0.039-0.034,0.074-0.062,0.102
			c-0.027,0.029-0.061,0.051-0.099,0.066c-0.038,0.014-0.08,0.021-0.127,0.021s-0.09-0.008-0.128-0.021
			c-0.039-0.016-0.071-0.037-0.099-0.066c-0.027-0.027-0.048-0.063-0.063-0.102c-0.016-0.041-0.022-0.086-0.022-0.135
			s0.007-0.094,0.022-0.135c0.015-0.039,0.035-0.074,0.063-0.102s0.06-0.049,0.099-0.064C11.888,25.136,11.931,25.128,11.978,25.128
			z M11.978,25.661c0.053,0,0.091-0.018,0.116-0.053s0.038-0.088,0.038-0.156c0-0.066-0.013-0.119-0.038-0.154
			s-0.063-0.053-0.116-0.053s-0.093,0.018-0.118,0.053c-0.025,0.037-0.038,0.088-0.038,0.154c0,0.068,0.013,0.119,0.038,0.154
			S11.925,25.661,11.978,25.661z M12.759,25.216c0.012-0.012,0.025-0.023,0.039-0.035c0.016-0.012,0.029-0.02,0.045-0.027
			s0.033-0.014,0.051-0.018s0.039-0.008,0.059-0.008c0.035,0,0.066,0.006,0.092,0.018c0.027,0.012,0.049,0.029,0.066,0.049
			c0.018,0.021,0.031,0.047,0.041,0.076s0.014,0.063,0.014,0.098v0.398h-0.152v-0.398c0-0.039-0.008-0.068-0.025-0.09
			s-0.045-0.031-0.08-0.031c-0.027,0-0.051,0.006-0.074,0.018s-0.045,0.027-0.064,0.049v0.453h-0.152v-0.629h0.094
			c0.02,0,0.031,0.01,0.039,0.029L12.759,25.216z M13.509,25.226c0.072-0.066,0.158-0.1,0.26-0.1c0.037,0,0.07,0.008,0.1,0.02
			s0.053,0.029,0.074,0.049c0.02,0.021,0.035,0.049,0.045,0.078s0.016,0.063,0.016,0.098v0.396h-0.068
			c-0.016,0-0.025-0.002-0.033-0.006s-0.014-0.012-0.02-0.025L13.87,25.69c-0.018,0.014-0.033,0.025-0.047,0.037
			c-0.016,0.01-0.031,0.02-0.047,0.027c-0.018,0.008-0.035,0.014-0.053,0.018c-0.02,0.004-0.039,0.004-0.063,0.004
			c-0.025,0-0.051-0.002-0.072-0.01c-0.023-0.008-0.043-0.018-0.059-0.031c-0.018-0.016-0.029-0.033-0.039-0.055
			c-0.008-0.021-0.014-0.045-0.014-0.074c0-0.016,0.004-0.031,0.008-0.047c0.006-0.016,0.016-0.031,0.027-0.045
			s0.027-0.027,0.047-0.041c0.02-0.012,0.043-0.023,0.07-0.033s0.061-0.018,0.098-0.023s0.08-0.008,0.127-0.01V25.37
			c0-0.041-0.008-0.072-0.025-0.094c-0.02-0.02-0.045-0.029-0.078-0.029c-0.025,0-0.045,0.002-0.063,0.008
			c-0.016,0.006-0.029,0.012-0.041,0.02c-0.014,0.008-0.023,0.014-0.033,0.02c-0.012,0.006-0.021,0.008-0.035,0.008
			c-0.01,0-0.02-0.002-0.025-0.008c-0.008-0.006-0.014-0.012-0.018-0.02L13.509,25.226z M13.854,25.499
			c-0.043,0.002-0.08,0.006-0.109,0.012s-0.055,0.012-0.072,0.021c-0.018,0.008-0.031,0.018-0.039,0.029s-0.012,0.023-0.012,0.037
			c0,0.027,0.008,0.047,0.025,0.057c0.016,0.012,0.035,0.018,0.061,0.018c0.031,0,0.059-0.006,0.08-0.016
			c0.023-0.012,0.045-0.029,0.066-0.053V25.499z M14.513,24.856v0.91H14.36v-0.91H14.513z M15.886,25.042
			c-0.004,0.01-0.01,0.016-0.016,0.02s-0.012,0.006-0.02,0.006c-0.01,0-0.02-0.004-0.029-0.01s-0.021-0.014-0.035-0.021
			s-0.031-0.014-0.049-0.021c-0.02-0.006-0.041-0.01-0.066-0.01c-0.023,0-0.043,0.004-0.061,0.01
			c-0.016,0.004-0.031,0.012-0.043,0.021s-0.02,0.021-0.025,0.035s-0.008,0.029-0.008,0.047c0,0.02,0.006,0.037,0.018,0.051
			c0.01,0.014,0.025,0.025,0.045,0.035s0.041,0.02,0.066,0.027c0.023,0.008,0.049,0.016,0.074,0.025
			c0.027,0.008,0.051,0.018,0.076,0.029s0.047,0.027,0.066,0.045c0.018,0.018,0.033,0.039,0.045,0.064s0.018,0.057,0.018,0.094
			c0,0.041-0.006,0.078-0.02,0.113s-0.035,0.064-0.061,0.092c-0.027,0.025-0.059,0.045-0.096,0.061
			c-0.039,0.016-0.082,0.021-0.131,0.021c-0.029,0-0.057-0.002-0.084-0.008s-0.053-0.014-0.078-0.023s-0.049-0.021-0.072-0.037
			c-0.021-0.014-0.041-0.029-0.059-0.047l0.049-0.08c0.004-0.006,0.01-0.01,0.016-0.014c0.008-0.004,0.014-0.006,0.021-0.006
			c0.01,0,0.021,0.004,0.033,0.012c0.012,0.01,0.025,0.018,0.043,0.029c0.016,0.01,0.035,0.02,0.057,0.027s0.049,0.012,0.078,0.012
			c0.047,0,0.084-0.01,0.109-0.033c0.025-0.021,0.039-0.053,0.039-0.096c0-0.023-0.006-0.041-0.018-0.057
			c-0.012-0.014-0.027-0.027-0.047-0.037s-0.041-0.018-0.064-0.025c-0.025-0.008-0.051-0.014-0.076-0.023
			c-0.025-0.008-0.049-0.018-0.074-0.029c-0.025-0.01-0.047-0.025-0.066-0.045c-0.018-0.018-0.033-0.041-0.045-0.068
			s-0.018-0.061-0.018-0.102c0-0.033,0.006-0.064,0.02-0.094c0.012-0.031,0.031-0.059,0.055-0.082
			c0.025-0.023,0.055-0.043,0.092-0.057c0.035-0.016,0.076-0.021,0.123-0.021c0.053,0,0.102,0.008,0.145,0.023
			c0.045,0.018,0.082,0.039,0.113,0.068L15.886,25.042z M17.155,25.138l-0.199,0.629h-0.121c-0.014,0-0.023-0.008-0.029-0.025
			l-0.113-0.363c-0.004-0.014-0.006-0.025-0.01-0.037c-0.002-0.012-0.006-0.025-0.008-0.037c-0.002,0.012-0.004,0.025-0.008,0.037
			c-0.004,0.014-0.006,0.025-0.01,0.037l-0.115,0.363c-0.004,0.018-0.016,0.025-0.033,0.025h-0.115l-0.199-0.629h0.121
			c0.01,0,0.02,0.004,0.027,0.01c0.008,0.004,0.014,0.012,0.016,0.02l0.09,0.336c0.004,0.018,0.008,0.037,0.012,0.055
			s0.008,0.033,0.01,0.051c0.004-0.018,0.01-0.033,0.014-0.051c0.006-0.018,0.012-0.037,0.018-0.055l0.104-0.338
			c0.002-0.008,0.008-0.014,0.014-0.02c0.008-0.006,0.016-0.008,0.027-0.008h0.066c0.01,0,0.02,0.002,0.027,0.008
			s0.012,0.012,0.014,0.02l0.102,0.338c0.006,0.018,0.01,0.037,0.016,0.055c0.004,0.018,0.01,0.035,0.014,0.053
			c0.006-0.035,0.014-0.07,0.023-0.107l0.092-0.336c0.002-0.008,0.008-0.016,0.016-0.02c0.008-0.006,0.016-0.01,0.025-0.01H17.155z
			 M17.562,25.472c0.004,0.033,0.01,0.061,0.018,0.084c0.01,0.023,0.021,0.043,0.035,0.059c0.016,0.016,0.033,0.027,0.053,0.033
			c0.021,0.008,0.043,0.012,0.068,0.012c0.023,0,0.045-0.002,0.063-0.008s0.033-0.012,0.047-0.02
			c0.014-0.006,0.025-0.014,0.035-0.02s0.02-0.008,0.029-0.008c0.012,0,0.021,0.004,0.027,0.014l0.043,0.055
			c-0.016,0.02-0.035,0.037-0.055,0.051c-0.021,0.014-0.043,0.023-0.066,0.031s-0.045,0.014-0.068,0.018
			c-0.023,0.002-0.047,0.004-0.068,0.004c-0.045,0-0.086-0.008-0.123-0.021s-0.07-0.035-0.098-0.064
			c-0.027-0.027-0.049-0.063-0.066-0.105c-0.016-0.041-0.023-0.09-0.023-0.145c0-0.043,0.008-0.084,0.021-0.121
			c0.014-0.039,0.033-0.072,0.059-0.1c0.027-0.027,0.059-0.051,0.096-0.066s0.08-0.025,0.127-0.025c0.039,0,0.076,0.008,0.109,0.02
			c0.033,0.014,0.063,0.031,0.086,0.057c0.025,0.023,0.043,0.053,0.057,0.088c0.014,0.037,0.021,0.076,0.021,0.121
			c0,0.023-0.002,0.039-0.008,0.047c-0.004,0.008-0.014,0.012-0.027,0.012H17.562z M17.851,25.38c0-0.02-0.002-0.037-0.008-0.055
			s-0.014-0.033-0.025-0.045c-0.01-0.014-0.025-0.023-0.041-0.031c-0.018-0.008-0.037-0.012-0.061-0.012
			c-0.043,0-0.078,0.012-0.102,0.037c-0.025,0.025-0.041,0.061-0.049,0.105H17.851z M18.431,25.472
			c0.004,0.033,0.01,0.061,0.018,0.084c0.01,0.023,0.021,0.043,0.035,0.059c0.016,0.016,0.033,0.027,0.053,0.033
			c0.021,0.008,0.043,0.012,0.068,0.012c0.023,0,0.045-0.002,0.063-0.008s0.033-0.012,0.047-0.02
			c0.014-0.006,0.025-0.014,0.035-0.02s0.02-0.008,0.029-0.008c0.012,0,0.021,0.004,0.027,0.014l0.043,0.055
			c-0.016,0.02-0.035,0.037-0.055,0.051c-0.021,0.014-0.043,0.023-0.066,0.031s-0.045,0.014-0.068,0.018
			c-0.023,0.002-0.047,0.004-0.068,0.004c-0.045,0-0.086-0.008-0.123-0.021s-0.07-0.035-0.098-0.064
			c-0.027-0.027-0.049-0.063-0.066-0.105c-0.016-0.041-0.023-0.09-0.023-0.145c0-0.043,0.008-0.084,0.021-0.121
			c0.014-0.039,0.033-0.072,0.059-0.1c0.027-0.027,0.059-0.051,0.096-0.066s0.08-0.025,0.127-0.025c0.039,0,0.076,0.008,0.109,0.02
			c0.033,0.014,0.063,0.031,0.086,0.057c0.025,0.023,0.043,0.053,0.057,0.088c0.014,0.037,0.021,0.076,0.021,0.121
			c0,0.023-0.002,0.039-0.008,0.047c-0.004,0.008-0.014,0.012-0.027,0.012H18.431z M18.72,25.38c0-0.02-0.002-0.037-0.008-0.055
			s-0.014-0.033-0.025-0.045c-0.01-0.014-0.025-0.023-0.041-0.031c-0.018-0.008-0.037-0.012-0.061-0.012
			c-0.043,0-0.078,0.012-0.102,0.037c-0.025,0.025-0.043,0.061-0.049,0.105H18.72z M19.388,25.776c-0.055,0-0.098-0.014-0.127-0.045
			s-0.043-0.074-0.043-0.129v-0.35h-0.064c-0.008,0-0.016-0.004-0.021-0.01c-0.006-0.004-0.008-0.012-0.008-0.023v-0.061
			l0.102-0.016l0.031-0.172c0.002-0.008,0.006-0.014,0.012-0.02c0.006-0.004,0.014-0.006,0.021-0.006h0.08v0.197h0.166v0.109H19.37
			v0.34c0,0.02,0.004,0.035,0.014,0.047c0.01,0.01,0.023,0.016,0.039,0.016c0.01,0,0.018-0.002,0.023-0.004s0.012-0.004,0.018-0.006
			c0.004-0.004,0.008-0.006,0.012-0.008s0.008-0.004,0.012-0.004s0.008,0.002,0.01,0.004c0.004,0.002,0.006,0.006,0.01,0.01
			l0.045,0.074c-0.021,0.018-0.047,0.031-0.076,0.041C19.448,25.772,19.419,25.776,19.388,25.776z M20.231,25.261
			c-0.004,0.008-0.008,0.012-0.012,0.014c-0.006,0.004-0.01,0.004-0.018,0.004s-0.016-0.002-0.023-0.006s-0.018-0.008-0.029-0.014
			c-0.012-0.004-0.023-0.01-0.037-0.014s-0.031-0.006-0.051-0.006c-0.029,0-0.053,0.006-0.07,0.02
			c-0.018,0.012-0.025,0.029-0.025,0.049c0,0.014,0.004,0.025,0.014,0.035c0.008,0.008,0.02,0.016,0.035,0.023
			c0.014,0.006,0.031,0.014,0.049,0.018c0.018,0.006,0.037,0.012,0.057,0.02c0.02,0.006,0.037,0.014,0.055,0.021
			c0.02,0.008,0.035,0.02,0.051,0.031c0.014,0.014,0.025,0.029,0.035,0.047c0.008,0.018,0.012,0.041,0.012,0.064
			c0,0.031-0.004,0.059-0.016,0.084c-0.01,0.025-0.027,0.049-0.049,0.066c-0.02,0.02-0.047,0.033-0.078,0.043
			c-0.031,0.012-0.066,0.016-0.107,0.016c-0.021,0-0.043,0-0.064-0.004c-0.02-0.004-0.039-0.01-0.059-0.018
			c-0.02-0.006-0.037-0.016-0.053-0.023c-0.016-0.01-0.031-0.02-0.043-0.031l0.035-0.059c0.004-0.006,0.01-0.012,0.016-0.016
			s0.014-0.006,0.023-0.006s0.018,0.004,0.027,0.01c0.008,0.004,0.018,0.01,0.029,0.016c0.01,0.006,0.023,0.012,0.037,0.018
			c0.016,0.006,0.035,0.008,0.059,0.008c0.018,0,0.033-0.002,0.045-0.006c0.014-0.004,0.023-0.01,0.031-0.018
			c0.01-0.006,0.016-0.014,0.02-0.023s0.006-0.02,0.006-0.029c0-0.014-0.004-0.025-0.014-0.035c-0.008-0.01-0.02-0.018-0.035-0.025
			c-0.014-0.006-0.031-0.014-0.049-0.018c-0.02-0.006-0.037-0.012-0.057-0.02c-0.02-0.006-0.039-0.014-0.059-0.021
			c-0.018-0.01-0.033-0.021-0.049-0.033c-0.014-0.014-0.025-0.031-0.035-0.051c-0.008-0.02-0.014-0.043-0.014-0.07
			c0-0.025,0.006-0.051,0.016-0.074c0.012-0.023,0.025-0.043,0.045-0.061s0.045-0.031,0.074-0.043
			c0.029-0.01,0.064-0.016,0.104-0.016c0.043,0,0.082,0.008,0.117,0.021c0.037,0.016,0.066,0.033,0.09,0.057L20.231,25.261z
			 M21.923,25.767h-0.148c-0.016,0-0.029,0-0.039-0.004s-0.02-0.012-0.029-0.023l-0.063-0.064c-0.037,0.033-0.082,0.057-0.129,0.076
			c-0.049,0.018-0.102,0.025-0.156,0.025c-0.035,0-0.068-0.004-0.102-0.016s-0.063-0.029-0.088-0.051
			c-0.025-0.023-0.047-0.049-0.063-0.08s-0.023-0.066-0.023-0.105c0-0.029,0.006-0.055,0.014-0.08
			c0.01-0.023,0.021-0.047,0.037-0.068s0.035-0.041,0.057-0.057c0.023-0.018,0.047-0.033,0.074-0.045
			c-0.023-0.031-0.039-0.061-0.049-0.09s-0.014-0.059-0.014-0.088s0.004-0.059,0.016-0.086s0.027-0.053,0.049-0.072
			c0.021-0.021,0.047-0.037,0.078-0.049s0.066-0.018,0.105-0.018c0.037,0,0.068,0.004,0.098,0.016
			c0.027,0.012,0.053,0.025,0.072,0.045c0.02,0.018,0.037,0.039,0.047,0.063c0.012,0.023,0.02,0.049,0.021,0.074l-0.096,0.02
			c-0.018,0.004-0.031-0.004-0.039-0.023c-0.004-0.01-0.01-0.02-0.016-0.029s-0.012-0.02-0.021-0.025
			c-0.008-0.008-0.018-0.014-0.027-0.018c-0.012-0.004-0.023-0.006-0.039-0.006c-0.018,0-0.031,0.002-0.045,0.008
			s-0.025,0.014-0.035,0.023c-0.008,0.012-0.016,0.023-0.021,0.035c-0.004,0.014-0.006,0.027-0.006,0.043
			c0,0.012,0,0.023,0.004,0.035c0.002,0.012,0.006,0.023,0.012,0.035c0.006,0.01,0.014,0.021,0.021,0.035
			c0.01,0.012,0.021,0.023,0.035,0.039l0.234,0.244c0.014-0.025,0.025-0.053,0.033-0.082s0.014-0.057,0.016-0.088
			c0.002-0.008,0.004-0.016,0.01-0.021s0.014-0.01,0.021-0.01h0.096c-0.002,0.055-0.008,0.105-0.023,0.156
			c-0.016,0.049-0.037,0.094-0.066,0.135L21.923,25.767z M21.331,25.353c-0.031,0.021-0.057,0.045-0.07,0.072
			c-0.016,0.027-0.023,0.057-0.023,0.086c0,0.023,0.004,0.043,0.012,0.061c0.008,0.02,0.02,0.033,0.031,0.047
			c0.014,0.012,0.029,0.021,0.047,0.027c0.018,0.008,0.037,0.012,0.057,0.012c0.037,0,0.07-0.006,0.1-0.018s0.057-0.027,0.08-0.047
			L21.331,25.353z M23.224,25.042c-0.006,0.01-0.012,0.016-0.016,0.02c-0.006,0.004-0.014,0.006-0.021,0.006
			s-0.018-0.004-0.027-0.01s-0.023-0.014-0.037-0.021s-0.029-0.014-0.049-0.021c-0.018-0.006-0.039-0.01-0.064-0.01
			c-0.023,0-0.043,0.004-0.061,0.01c-0.018,0.004-0.031,0.012-0.043,0.021s-0.021,0.021-0.025,0.035
			c-0.006,0.014-0.01,0.029-0.01,0.047c0,0.02,0.006,0.037,0.018,0.051s0.027,0.025,0.047,0.035s0.041,0.02,0.064,0.027
			c0.025,0.008,0.051,0.016,0.076,0.025c0.025,0.008,0.051,0.018,0.074,0.029c0.025,0.012,0.047,0.027,0.066,0.045
			s0.035,0.039,0.047,0.064s0.018,0.057,0.018,0.094c0,0.041-0.008,0.078-0.021,0.113s-0.033,0.064-0.061,0.092
			c-0.025,0.025-0.059,0.045-0.096,0.061s-0.082,0.021-0.131,0.021c-0.027,0-0.057-0.002-0.084-0.008s-0.053-0.014-0.078-0.023
			s-0.049-0.021-0.07-0.037c-0.021-0.014-0.041-0.029-0.059-0.047l0.049-0.08c0.004-0.006,0.008-0.01,0.016-0.014
			c0.006-0.004,0.014-0.006,0.02-0.006c0.012,0,0.021,0.004,0.033,0.012c0.012,0.01,0.027,0.018,0.043,0.029
			c0.016,0.01,0.035,0.02,0.057,0.027c0.023,0.008,0.049,0.012,0.08,0.012c0.047,0,0.082-0.01,0.109-0.033
			c0.025-0.021,0.037-0.053,0.037-0.096c0-0.023-0.006-0.041-0.018-0.057c-0.012-0.014-0.027-0.027-0.045-0.037
			c-0.02-0.01-0.041-0.018-0.066-0.025c-0.023-0.008-0.049-0.014-0.074-0.023c-0.025-0.008-0.051-0.018-0.074-0.029
			c-0.025-0.01-0.047-0.025-0.066-0.045c-0.02-0.018-0.035-0.041-0.047-0.068s-0.018-0.061-0.018-0.102
			c0-0.033,0.008-0.064,0.02-0.094c0.014-0.031,0.031-0.059,0.057-0.082c0.023-0.023,0.055-0.043,0.09-0.057
			c0.037-0.016,0.078-0.021,0.125-0.021c0.053,0,0.1,0.008,0.145,0.023c0.043,0.018,0.082,0.039,0.113,0.068L23.224,25.042z
			 M23.743,25.216c0.014-0.012,0.027-0.023,0.041-0.035s0.029-0.02,0.045-0.027s0.031-0.014,0.051-0.018
			c0.018-0.004,0.037-0.008,0.059-0.008c0.033,0,0.064,0.006,0.09,0.018c0.027,0.012,0.049,0.029,0.068,0.049
			c0.018,0.021,0.031,0.047,0.039,0.076c0.01,0.029,0.014,0.063,0.014,0.098v0.398h-0.15v-0.398c0-0.039-0.01-0.068-0.027-0.09
			s-0.043-0.031-0.08-0.031c-0.025,0-0.051,0.006-0.072,0.018c-0.023,0.012-0.045,0.027-0.066,0.049v0.453h-0.15v-0.629h0.092
			c0.02,0,0.033,0.01,0.039,0.029L23.743,25.216z M24.493,25.226c0.072-0.066,0.16-0.1,0.262-0.1c0.037,0,0.068,0.008,0.098,0.02
			s0.055,0.029,0.074,0.049c0.02,0.021,0.035,0.049,0.045,0.078c0.012,0.029,0.016,0.063,0.016,0.098v0.396h-0.068
			c-0.014,0-0.025-0.002-0.033-0.006s-0.014-0.012-0.018-0.025l-0.014-0.045c-0.016,0.014-0.031,0.025-0.047,0.037
			c-0.016,0.01-0.031,0.02-0.047,0.027s-0.033,0.014-0.053,0.018c-0.018,0.004-0.039,0.004-0.061,0.004
			c-0.027,0-0.053-0.002-0.074-0.01c-0.023-0.008-0.043-0.018-0.059-0.031c-0.016-0.016-0.029-0.033-0.037-0.055
			c-0.01-0.021-0.014-0.045-0.014-0.074c0-0.016,0.002-0.031,0.008-0.047c0.004-0.016,0.014-0.031,0.025-0.045
			s0.027-0.027,0.047-0.041c0.02-0.012,0.043-0.023,0.07-0.033c0.029-0.01,0.061-0.018,0.098-0.023s0.08-0.008,0.129-0.01V25.37
			c0-0.041-0.01-0.072-0.027-0.094c-0.018-0.02-0.045-0.029-0.078-0.029c-0.025,0-0.045,0.002-0.061,0.008s-0.031,0.012-0.043,0.02
			s-0.023,0.014-0.033,0.02s-0.021,0.008-0.033,0.008s-0.02-0.002-0.027-0.008s-0.014-0.012-0.018-0.02L24.493,25.226z
			 M24.841,25.499c-0.045,0.002-0.08,0.006-0.111,0.012c-0.029,0.006-0.053,0.012-0.072,0.021c-0.018,0.008-0.029,0.018-0.037,0.029
			s-0.012,0.023-0.012,0.037c0,0.027,0.008,0.047,0.023,0.057c0.016,0.012,0.035,0.018,0.061,0.018c0.031,0,0.059-0.006,0.082-0.016
			c0.021-0.012,0.045-0.029,0.066-0.053V25.499z M25.794,25.272c-0.004,0.006-0.008,0.01-0.012,0.012
			c-0.006,0.004-0.012,0.006-0.02,0.006s-0.016-0.002-0.023-0.008c-0.006-0.004-0.016-0.01-0.025-0.016s-0.023-0.012-0.037-0.016
			s-0.031-0.008-0.053-0.008c-0.025,0-0.049,0.006-0.068,0.016c-0.021,0.01-0.037,0.023-0.051,0.041s-0.023,0.039-0.029,0.064
			c-0.008,0.027-0.01,0.055-0.01,0.088s0.004,0.063,0.01,0.09c0.008,0.025,0.018,0.047,0.031,0.064s0.029,0.031,0.049,0.041
			s0.041,0.014,0.066,0.014c0.023,0,0.043-0.002,0.059-0.008c0.014-0.006,0.027-0.014,0.037-0.02c0.01-0.008,0.02-0.014,0.025-0.02
			c0.008-0.008,0.018-0.01,0.025-0.01c0.014,0,0.021,0.004,0.029,0.014l0.043,0.055c-0.018,0.02-0.035,0.037-0.055,0.051
			s-0.041,0.023-0.061,0.031c-0.021,0.008-0.043,0.014-0.066,0.018c-0.021,0.002-0.043,0.004-0.066,0.004
			c-0.037,0-0.074-0.008-0.109-0.021c-0.033-0.014-0.064-0.035-0.09-0.063c-0.025-0.029-0.045-0.063-0.061-0.104
			c-0.016-0.039-0.023-0.086-0.023-0.137c0-0.047,0.008-0.09,0.021-0.129c0.012-0.039,0.031-0.074,0.059-0.102
			c0.025-0.029,0.057-0.053,0.096-0.068c0.037-0.016,0.08-0.025,0.131-0.025c0.047,0,0.088,0.008,0.123,0.023
			s0.066,0.037,0.096,0.064L25.794,25.272z M26.302,24.856v0.521h0.027c0.01,0,0.018-0.002,0.023-0.004s0.012-0.008,0.02-0.016
			l0.156-0.193c0.006-0.008,0.014-0.016,0.021-0.02s0.018-0.008,0.031-0.008h0.14l-0.198,0.234
			c-0.014,0.018-0.027,0.033-0.045,0.043c0.01,0.006,0.018,0.012,0.023,0.021c0.008,0.008,0.014,0.016,0.02,0.025l0.21,0.305h-0.138
			c-0.012,0-0.021-0.002-0.029-0.006c-0.01-0.004-0.016-0.01-0.021-0.02l-0.162-0.238c-0.006-0.01-0.012-0.016-0.018-0.02
			c-0.006-0.002-0.016-0.004-0.027-0.004h-0.033v0.287h-0.152v-0.91H26.302z M27.404,25.261c-0.006,0.008-0.01,0.012-0.014,0.014
			c-0.004,0.004-0.01,0.004-0.018,0.004s-0.016-0.002-0.023-0.006s-0.018-0.008-0.029-0.014c-0.012-0.004-0.023-0.01-0.037-0.014
			s-0.031-0.006-0.051-0.006c-0.029,0-0.053,0.006-0.07,0.02c-0.016,0.012-0.025,0.029-0.025,0.049c0,0.014,0.006,0.025,0.014,0.035
			c0.01,0.008,0.021,0.016,0.035,0.023c0.014,0.006,0.031,0.014,0.049,0.018c0.02,0.006,0.037,0.012,0.057,0.02
			c0.02,0.006,0.037,0.014,0.057,0.021c0.018,0.008,0.033,0.02,0.049,0.031c0.014,0.014,0.025,0.029,0.036,0.047
			c0.008,0.018,0.014,0.041,0.014,0.064c0,0.031-0.006,0.059-0.019,0.084c-0.01,0.025-0.027,0.049-0.047,0.066
			c-0.021,0.02-0.049,0.033-0.08,0.043c-0.031,0.012-0.066,0.016-0.107,0.016c-0.021,0-0.043,0-0.064-0.004
			c-0.02-0.004-0.039-0.01-0.059-0.018c-0.02-0.006-0.037-0.016-0.053-0.023c-0.016-0.01-0.031-0.02-0.043-0.031l0.035-0.059
			c0.004-0.006,0.01-0.012,0.016-0.016s0.014-0.006,0.023-0.006s0.018,0.004,0.027,0.01c0.008,0.004,0.018,0.01,0.029,0.016
			c0.01,0.006,0.023,0.012,0.039,0.018c0.014,0.006,0.033,0.008,0.057,0.008c0.018,0,0.033-0.002,0.045-0.006
			c0.014-0.004,0.023-0.01,0.033-0.018c0.008-0.006,0.014-0.014,0.018-0.023s0.006-0.02,0.006-0.029
			c0-0.014-0.004-0.025-0.014-0.035c-0.008-0.01-0.02-0.018-0.035-0.025c-0.014-0.006-0.031-0.014-0.049-0.018
			c-0.02-0.006-0.037-0.012-0.057-0.02c-0.02-0.006-0.039-0.014-0.057-0.021c-0.02-0.01-0.035-0.021-0.051-0.033
			c-0.014-0.014-0.025-0.031-0.035-0.051c-0.008-0.02-0.012-0.043-0.012-0.07c0-0.025,0.004-0.051,0.014-0.074
			c0.012-0.023,0.025-0.043,0.047-0.061c0.02-0.018,0.043-0.031,0.072-0.043c0.031-0.01,0.064-0.016,0.104-0.016
			c0.043,0,0.082,0.008,0.119,0.021c0.035,0.016,0.064,0.033,0.089,0.057L27.404,25.261z"/>
	</g>
</g>
</svg>
