<?xml version="1.0" encoding="utf-8"?>
<!-- Generator: Adobe Illustrator 16.0.0, SVG Export Plug-In . SVG Version: 6.00 Build 0)  -->
<!DOCTYPE svg PUBLIC "-//W3C//DTD SVG 1.1//EN" "http://www.w3.org/Graphics/SVG/1.1/DTD/svg11.dtd">
<svg version="1.1" id="Layer_1" xmlns="http://www.w3.org/2000/svg" xmlns:xlink="http://www.w3.org/1999/xlink" x="0px" y="0px"
	 width="229.543px" height="87.406px" viewBox="0 0 229.543 87.406" enable-background="new 0 0 229.543 87.406"
	 xml:space="preserve">
<path fill="#0F8040" d="M49.947,14.323l0.991,1.999l2.148,0.093l-1.595,1.56l0.575,2.074l-1.975-1.038l-1.794,1.188L48.67,18
	l-1.683-1.338l2.208-0.325L49.947,14.323L49.947,14.323z M34.094,18.223L34.094,18.223l1.855,1.234l1.911-0.993l-0.602,2.149
	l1.534,1.508l-2.231,0.092l-0.959,1.925l-0.773-2.093l-2.128-0.316l1.749-1.383L34.094,18.223L34.094,18.223z M41.764,15.229
	L41.764,15.229l1.474,1.674l2.101-0.465l-1.139,1.92l1.094,1.853l-2.176-0.489l-1.426,1.61l-0.209-2.22l-1.975-0.858l2.051-0.882
	L41.764,15.229L41.764,15.229z M65.63,18.871L65.63,18.871l-0.143,2.226l1.813,1.159l-2.163,0.55l-0.535,2.085l-1.195-1.885
	l-2.146,0.13l1.424-1.718l-0.79-2l2.075,0.822L65.63,18.871L65.63,18.871z M58.088,15.564L58.088,15.564l0.44,2.188l2.051,0.646
	l-1.945,1.095l0.019,2.151l-1.641-1.512l-2.04,0.684l0.933-2.028l-1.282-1.729l2.218,0.257L58.088,15.564z"/>
<g>
	<g enable-background="new    ">
		<path fill="#0F8040" d="M38.548,27.545h4.271v1.698h-0.798v5.582h0.798v1.711h-4.271v-1.711h0.81v-5.582h-0.81V27.545z"/>
		<path fill="#0F8040" d="M43.459,36.536v-3.241h2.393c0,1.08,1.08,1.261,1.621,1.286c0.45,0,1.093-0.104,1.093-0.644
			c0-1.003-4.939-0.578-4.939-3.858c0-1.904,1.801-2.766,3.062-2.766c1.081,0,2.174,0.347,2.688,1.312l0.128-1.08h2.212v3.229
			h-2.328c0-0.952-0.746-1.492-1.646-1.492c-0.373,0-0.888,0.231-0.888,0.682c0,1.325,5.094,1.017,5.094,4.039
			c0,2.007-1.878,2.728-3.409,2.728c-1.299,0-2.199-0.605-2.688-1.184l-0.142,0.99L43.459,36.536L43.459,36.536z"/>
		<path fill="#0F8040" d="M52.458,31.995c0-2.778,1.853-4.694,4.515-4.694c3.151,0,4.618,1.891,4.618,4.785
			c0,2.906-1.621,4.682-4.528,4.682C54.374,36.768,52.458,35.211,52.458,31.995z M58.375,32.086c0-1.557-0.424-2.805-1.415-2.805
			c-0.785-0.013-1.325,1.119-1.325,2.714c0,1.686,0.604,2.753,1.428,2.753C57.873,34.748,58.375,33.681,58.375,32.086z"/>
	</g>
	<g enable-background="new    ">
		<path fill="#0F8040" d="M20.492,48.21c0.438,0.258,1.094,0.656,1.878,0.656c0.952-0.025,1.582-0.617,1.569-1.75
			c-0.334,0.334-0.888,0.631-1.569,0.655c-1.646,0.064-3.01-1.119-3.01-2.869c0-1.723,1.235-3.188,3.332-3.254
			c2.11-0.063,3.743,1.453,3.82,4.027c0.052,1.955-0.476,5.119-3.859,5.223c-0.862,0.025-2.277-0.373-3.036-1.018L20.492,48.21z
			 M23.914,45.188c0-0.644-0.257-1.519-1.081-1.519c-0.656,0-1.184,0.488-1.17,1.106c0.013,0.5,0.27,1.156,1.042,1.146
			C23.31,45.896,23.708,45.445,23.914,45.188z"/>
		<path fill="#0F8040" d="M26.907,46.242c0-2.727,1.492-4.617,3.627-4.617c2.521,0,3.692,1.865,3.692,4.709
			c0,2.855-1.299,4.604-3.627,4.604C28.45,50.938,26.907,49.408,26.907,46.242z M31.641,46.333c0-1.531-0.489-2.64-1.119-2.64
			c-0.476-0.012-1.068,0.979-1.068,2.548c0,1.659,0.63,2.7,1.145,2.7C31.19,48.943,31.641,47.902,31.641,46.333z"/>
		<path fill="#0F8040" d="M34.607,46.242c0-2.727,1.492-4.617,3.627-4.617c2.521,0,3.692,1.865,3.692,4.709
			c0,2.855-1.299,4.604-3.627,4.604C36.15,50.938,34.607,49.408,34.607,46.242z M39.341,46.333c0-1.531-0.489-2.64-1.119-2.64
			c-0.476-0.012-1.068,0.979-1.068,2.548c0,1.659,0.63,2.7,1.145,2.7C38.891,48.943,39.341,47.902,39.341,46.333z"/>
		<path fill="#0F8040" d="M42.437,43.477c0.733-0.359,1.312-0.564,2.251-1.685h2.29v7.278h1.196v1.712h-5.146V49.07h1.287V44.3
			l-1.287,0.604L42.437,43.477z"/>
		<path fill="#0F8040" d="M50.112,44.171c0.926,0,1.454,0.797,1.454,1.44c0,0.759-0.54,1.363-1.454,1.363
			c-0.797,0-1.428-0.695-1.428-1.363C48.684,44.968,49.186,44.171,50.112,44.171z M50.112,48.082c0.926,0,1.454,0.799,1.454,1.441
			c0,0.758-0.579,1.362-1.454,1.362c-0.836,0-1.428-0.694-1.428-1.362C48.684,48.88,49.186,48.082,50.112,48.082z"/>
		<path fill="#0F8040" d="M52.181,43.246c0.9-1.043,2.058-1.596,3.345-1.596c1.71,0,3.062,1.08,3.062,2.817
			c0,1.479-0.695,1.992-2.058,2.882c-0.618,0.397-1.634,1.209-1.93,1.723h2.264v-1.029h2.161v2.74h-6.946v-1.865
			c0.708-1.156,1.055-1.529,1.878-2.186c0.913-0.812,2.277-1.353,2.277-2.148c0-0.656-0.489-0.85-1.081-0.85
			c-0.695,0-1.196,0.565-1.583,0.979L52.181,43.246z"/>
		<path fill="#0F8040" d="M59.534,46.242c0-2.727,1.492-4.617,3.627-4.617c2.521,0,3.692,1.865,3.692,4.709
			c0,2.855-1.299,4.604-3.627,4.604C61.078,50.938,59.534,49.408,59.534,46.242z M64.268,46.333c0-1.531-0.489-2.64-1.119-2.64
			c-0.476-0.012-1.068,0.979-1.068,2.548c0,1.659,0.63,2.7,1.145,2.7C63.818,48.943,64.268,47.902,64.268,46.333z"/>
		<path fill="#0F8040" d="M67.363,43.477c0.733-0.359,1.312-0.564,2.251-1.685h2.29v7.278H73.1v1.712h-5.146V49.07h1.287V44.3
			l-1.287,0.604L67.363,43.477z"/>
		<path fill="#0F8040" d="M73.611,49.395l1.402-1.453c0.501,0.514,1.055,0.951,1.801,0.951c0.862,0,1.415-0.539,1.415-1.285
			c0-0.685-0.579-1.248-1.313-1.248c-0.591,0-0.939,0.309-1.209,0.592l-1.646-0.734l0.785-4.424h5.094v1.916h-3.46l-0.219,1.248
			c0.257-0.168,0.759-0.309,1.389-0.309c1.505,0,2.997,1.055,2.997,3.049c0,2.16-1.981,3.254-3.846,3.254
			C75.502,50.951,74.138,50.191,73.611,49.395z"/>
	</g>
</g>
<g>
	<path fill="#0F8040" d="M30.98,9.321L30.98,9.321c2.038,1.198,4.783,0.8,6.548-0.804C35.565,7.279,32.542,7.396,30.98,9.321
		L30.98,9.321z M26.552,11.996L26.552,11.996c2.181,1.281,5.117,0.855,7.004-0.858C31.458,9.812,28.222,9.935,26.552,11.996
		L26.552,11.996z M21.424,15.039L21.424,15.039c2.292,1.035,5.173,0.287,6.888-1.627C26.099,12.324,22.893,12.805,21.424,15.039
		L21.424,15.039z M18.25,19.445L18.25,19.445c2.419,0.592,5.138-0.686,6.521-2.891C22.416,15.896,19.336,16.971,18.25,19.445
		L18.25,19.445z M14.778,24.623L14.778,24.623c2.483-0.08,4.823-2.045,5.655-4.553C18.003,20.066,15.263,21.934,14.778,24.623
		L14.778,24.623z M11.792,31.08L11.792,31.08c3-0.095,5.83-2.471,6.837-5.502C15.69,25.572,12.377,27.829,11.792,31.08L11.792,31.08
		z M10.461,37.841L10.461,37.841c2.915-0.779,5.215-3.749,5.604-6.942C13.193,31.565,10.397,34.531,10.461,37.841L10.461,37.841z
		 M10.083,45.1L10.083,45.1c3.116-1.222,5.324-4.771,5.409-8.325C12.409,37.865,9.658,41.472,10.083,45.1L10.083,45.1z
		 M11.079,52.591L11.079,52.591c2.807-1.905,4.267-5.881,3.652-9.376C11.932,44.99,9.953,49.145,11.079,52.591L11.079,52.591z
		 M13.249,59.199L13.249,59.199c2.91-2.293,4.219-6.719,3.315-10.455C13.652,50.893,11.789,55.552,13.249,59.199L13.249,59.199z
		 M16.834,66.285L16.834,66.285c2.263-3.027,2.47-7.668,0.703-11.027C15.239,58.148,14.556,63.169,16.834,66.285L16.834,66.285z
		 M22.127,71.369L22.127,71.369c1.733-3.412,1.179-8.02-1.108-10.988C19.228,63.666,19.374,68.738,22.127,71.369L22.127,71.369z
		 M29.218,76.652L29.218,76.652c0.657-3.826-1.203-8.014-4.24-10.057C24.231,70.322,25.842,75.089,29.218,76.652L29.218,76.652z
		 M37.039,80.207L37.039,80.207c-0.087-3.895-2.706-7.578-6.063-8.9C30.952,75.119,33.435,79.425,37.039,80.207L37.039,80.207z
		 M31.413,0.714L31.413,0.714c-3.742,0.802-6.329,5.27-6.31,9.229C28.59,8.572,31.317,4.754,31.413,0.714L31.413,0.714z
		 M24.014,3.633L24.014,3.633c-3.411,1.848-4.807,6.899-3.816,10.711C23.224,12.021,24.915,7.558,24.014,3.633L24.014,3.633z
		 M18.146,8.238L18.146,8.238c-3.292,2.087-4.378,7.227-3.159,10.961C17.868,16.667,19.283,12.092,18.146,8.238L18.146,8.238z
		 M11.423,12.469L11.423,12.469c-3.019,3.344-2.788,9.313-0.421,12.995C13.448,21.769,13.729,16.311,11.423,12.469L11.423,12.469z
		 M5.649,20.754L5.649,20.754c-2.064,4.105-0.337,9.779,2.867,12.629C9.939,29.104,8.834,23.771,5.649,20.754L5.649,20.754z
		 M0.208,37.83L0.208,37.83c-1.089,4.984,2.25,10.447,6.4,12.462C6.971,45.324,4.382,40.028,0.208,37.83L0.208,37.83z M37.921,0.503
		L37.921,0.503c-2.819,0.351-5.308,2.833-6.034,5.777C34.659,6.032,37.611,3.617,37.921,0.503L37.921,0.503z M0.772,49.268
		L0.772,49.268c-0.225,5.114,3.98,9.823,8.401,10.983C8.691,55.296,5.249,50.602,0.772,49.268L0.772,49.268z M2.721,60.268
		L2.721,60.268c0.964,5.016,6.126,8.438,10.674,8.364C11.781,63.964,7.363,60.35,2.721,60.268L2.721,60.268z M7.766,69.805
		L7.766,69.805c1.738,4.766,7.365,7.188,11.833,6.284C17.277,71.785,12.356,69.035,7.766,69.805L7.766,69.805z M15.2,79.107
		L15.2,79.107c2.939,4.018,8.973,4.574,13.006,2.311C24.83,78.025,19.384,76.934,15.2,79.107L15.2,79.107z M25.36,85.08L25.36,85.08
		c3.538,3.404,9.569,2.828,13.181-0.156C34.672,82.212,29.133,82.156,25.36,85.08L25.36,85.08z"/>
	<g>
		<path fill="#0F8040" d="M44.141,5.078c-0.08,0-0.159-0.004-0.238-0.004C43.982,5.074,44.061,5.078,44.141,5.078L44.141,5.078z"/>
		<path fill="#0F8040" d="M44.141,81.341c-0.08,0-0.159,0.007-0.238,0.007c-19.449,0-35.214-17.046-35.214-38.071
			c0-12.929,5.962-24.351,15.076-31.231c3.954-3.058,8.53-5.238,13.48-6.28c-0.063,0.07-0.127,0.141-0.188,0.216
			c2.038,1.198,4.783,0.802,6.548-0.801c-0.056-0.035-0.111-0.066-0.167-0.099c0.156-0.003,0.31-0.007,0.464-0.007
			c-0.156,0-0.313,0.002-0.466,0.004c-1.869-1.076-4.587-0.98-6.154,0.646C21.771,8.806,9.703,22.521,7.779,39.619
			c-0.244-4.444-2.703-8.846-6.413-10.802C0.29,33.749,3.547,39.144,7.631,41.212c-0.08,1.059-0.122,2.128-0.122,3.209
			c0,21.729,16.292,39.347,36.393,39.347c0.08,0,0.159-0.007,0.238-0.007L44.141,81.341L44.141,81.341z"/>
	</g>
</g>
<g>
	<path fill="#0F8040" d="M69.02,9.321c-1.561-1.925-4.585-2.042-6.549-0.804C64.236,10.121,66.981,10.52,69.02,9.321L69.02,9.321
		L69.02,9.321z M73.447,11.996c-1.669-2.062-4.905-2.185-7.004-0.858C68.33,12.852,71.267,13.277,73.447,11.996L73.447,11.996
		L73.447,11.996z M78.575,15.039c-1.468-2.234-4.675-2.715-6.887-1.627C73.402,15.326,76.283,16.074,78.575,15.039L78.575,15.039
		L78.575,15.039z M81.753,19.445c-1.087-2.475-4.169-3.549-6.524-2.891C76.611,18.76,79.328,20.037,81.753,19.445L81.753,19.445
		L81.753,19.445z M85.222,24.623c-0.484-2.689-3.223-4.557-5.655-4.553C80.401,22.578,82.738,24.543,85.222,24.623L85.222,24.623
		L85.222,24.623z M88.208,31.08c-0.585-3.251-3.896-5.508-6.837-5.502C82.378,28.609,85.209,30.985,88.208,31.08L88.208,31.08
		L88.208,31.08z M89.539,37.841c0.063-3.31-2.729-6.275-5.605-6.942C84.326,34.092,86.624,37.062,89.539,37.841L89.539,37.841
		L89.539,37.841z M89.918,45.1c0.424-3.627-2.327-7.233-5.409-8.325C84.594,40.329,86.801,43.878,89.918,45.1L89.918,45.1
		L89.918,45.1z M88.921,52.591c1.129-3.446-0.853-7.602-3.651-9.376C84.654,46.71,86.115,50.686,88.921,52.591L88.921,52.591
		L88.921,52.591z M86.751,59.199c1.46-3.646-0.4-8.307-3.315-10.455C82.532,52.48,83.841,56.906,86.751,59.199L86.751,59.199
		L86.751,59.199z M83.165,66.285c2.282-3.115,1.596-8.137-0.702-11.027C80.695,58.617,80.902,63.257,83.165,66.285L83.165,66.285
		L83.165,66.285z M77.873,71.369c2.754-2.631,2.899-7.703,1.107-10.988C76.694,63.35,76.14,67.957,77.873,71.369L77.873,71.369
		L77.873,71.369z M70.781,76.652c3.377-1.563,4.988-6.33,4.24-10.057C71.984,68.641,70.124,72.826,70.781,76.652L70.781,76.652
		L70.781,76.652z M62.964,80.207c3.602-0.781,6.085-5.088,6.061-8.9C65.67,72.628,63.049,76.313,62.964,80.207L62.964,80.207
		L62.964,80.207z M68.588,0.714c0.095,4.04,2.822,7.858,6.31,9.229C74.916,5.983,72.329,1.516,68.588,0.714L68.588,0.714
		L68.588,0.714z M75.986,3.633c-0.901,3.925,0.79,8.389,3.816,10.711C80.794,10.532,79.397,5.48,75.986,3.633L75.986,3.633
		L75.986,3.633z M81.854,8.238c-1.137,3.854,0.278,8.429,3.159,10.961C86.231,15.465,85.145,10.325,81.854,8.238L81.854,8.238
		L81.854,8.238z M88.577,12.469c-2.306,3.842-2.025,9.3,0.424,12.995C91.364,21.779,91.598,15.813,88.577,12.469L88.577,12.469
		L88.577,12.469z M94.354,20.754c-3.188,3.018-4.293,8.35-2.869,12.629C94.688,30.533,96.416,24.859,94.354,20.754L94.354,20.754
		L94.354,20.754z M99.792,37.83c-4.174,2.198-6.763,7.494-6.4,12.462C97.542,48.277,100.881,42.814,99.792,37.83L99.792,37.83
		L99.792,37.83z M62.079,0.503c0.31,3.114,3.262,5.529,6.034,5.777C67.387,3.336,64.898,0.854,62.079,0.503L62.079,0.503
		L62.079,0.503z M99.228,49.268c-4.477,1.334-7.919,6.028-8.401,10.983C95.247,59.091,99.452,54.382,99.228,49.268L99.228,49.268
		L99.228,49.268z M97.279,60.268c-4.643,0.082-9.061,3.696-10.674,8.364C91.152,68.705,96.314,65.283,97.279,60.268L97.279,60.268
		L97.279,60.268z M92.233,69.805c-4.59-0.771-9.511,1.979-11.832,6.284C84.869,76.994,90.495,74.57,92.233,69.805L92.233,69.805
		L92.233,69.805z M84.803,79.107c-4.187-2.174-9.633-1.082-13.009,2.311C75.83,83.684,81.861,83.125,84.803,79.107L84.803,79.107
		L84.803,79.107z M74.641,85.08c-3.774-2.924-9.313-2.867-13.182-0.156C65.071,87.908,71.103,88.484,74.641,85.08L74.641,85.08
		L74.641,85.08z"/>
	<g>
		<path fill="#0F8040" d="M55.859,5.078c0.082,0,0.159-0.004,0.238-0.004C56.019,5.074,55.941,5.078,55.859,5.078L55.859,5.078z"/>
		<path fill="#0F8040" d="M55.859,81.341c0.082,0,0.159,0.007,0.238,0.007c19.449,0,35.214-17.046,35.214-38.071
			c0-12.929-5.963-24.351-15.073-31.231c-3.957-3.058-8.533-5.238-13.483-6.28c0.066,0.07,0.127,0.141,0.188,0.216
			c-2.037,1.198-4.783,0.802-6.548-0.801c0.056-0.035,0.111-0.066,0.167-0.099c-0.153-0.003-0.31-0.007-0.464-0.007
			c0.156,0,0.313,0.002,0.467,0.004c1.871-1.076,4.587-0.98,6.153,0.646C78.229,8.806,90.297,22.522,92.221,39.62
			c0.244-4.444,2.703-8.846,6.413-10.802c1.076,4.932-2.181,10.327-6.262,12.395c0.076,1.059,0.119,2.128,0.119,3.21
			c0,21.729-16.293,39.347-36.394,39.347c-0.079,0-0.156-0.009-0.238-0.009V81.341z"/>
	</g>
</g>
<polygon fill="#0F8040" points="49.91,78.566 50.901,80.566 53.05,80.66 51.455,82.218 52.03,84.291 50.053,83.255 48.262,84.443 
	48.633,82.244 46.95,80.906 49.157,80.582 "/>
<path fill="#0F8040" d="M179.49,14.32l0.99,2.003l2.147,0.091l-1.595,1.558l0.574,2.075l-1.976-1.036l-1.794,1.188l0.371-2.2
	l-1.684-1.338l2.207-0.326L179.49,14.32L179.49,14.32z M163.637,18.221L163.637,18.221l1.855,1.235l1.91-0.994l-0.604,2.149
	l1.535,1.508l-2.23,0.093l-0.959,1.924l-0.773-2.093l-2.128-0.315l1.749-1.384L163.637,18.221L163.637,18.221z M171.307,15.227
	L171.307,15.227l1.474,1.675l2.103-0.467l-1.139,1.922l1.094,1.853l-2.176-0.488l-1.428,1.611l-0.209-2.221l-1.975-0.858
	l2.053-0.885L171.307,15.227L171.307,15.227z M195.173,18.87L195.173,18.87l-0.144,2.224l1.813,1.161l-2.16,0.551l-0.537,2.083
	l-1.194-1.884l-2.146,0.13l1.424-1.718l-0.791-2.001l2.076,0.824L195.173,18.87L195.173,18.87z M187.631,15.563L187.631,15.563
	l0.439,2.186l2.052,0.647l-1.945,1.094l0.019,2.152l-1.641-1.514l-2.039,0.684l0.933-2.027l-1.281-1.73l2.218,0.26L187.631,15.563z"
	/>
<g>
	<g enable-background="new    ">
		<path fill="#0F8040" d="M169.584,27.513h3.714v1.477h-0.694v4.854h0.694v1.487h-3.714v-1.487h0.705V28.99h-0.705V27.513z"/>
		<path fill="#0F8040" d="M173.854,35.331v-2.818h2.08c0,0.939,0.939,1.096,1.409,1.118c0.392,0,0.951-0.089,0.951-0.56
			c0-0.872-4.295-0.503-4.295-3.354c0-1.656,1.565-2.405,2.662-2.405c0.938,0,1.89,0.302,2.338,1.141l0.11-0.939h1.925v2.808h-2.025
			c0-0.828-0.647-1.298-1.432-1.298c-0.324,0-0.771,0.202-0.771,0.593c0,1.152,4.43,0.884,4.43,3.513
			c0,1.744-1.633,2.371-2.965,2.371c-1.129,0-1.912-0.525-2.338-1.029l-0.123,0.861h-1.957V35.331z"/>
		<path fill="#0F8040" d="M181.68,31.383c0-2.416,1.61-4.082,3.926-4.082c2.74,0,4.017,1.644,4.017,4.16
			c0,2.528-1.41,4.071-3.938,4.071C183.346,35.532,181.68,34.179,181.68,31.383z M186.824,31.461c0-1.354-0.369-2.438-1.23-2.438
			c-0.682-0.011-1.152,0.974-1.152,2.36c0,1.465,0.526,2.394,1.242,2.394C186.389,33.777,186.824,32.848,186.824,31.461z"/>
	</g>
	<g enable-background="new    ">
		<path fill="#0F8040" d="M149.313,43.024c0.783-0.906,1.791-1.388,2.908-1.388c1.488,0,2.662,0.938,2.662,2.449
			c0,1.287-0.604,1.733-1.789,2.506c-0.537,0.347-1.421,1.052-1.678,1.498h1.969v-0.896h1.879v2.383h-6.039v-1.622
			c0.613-1.007,0.916-1.33,1.633-1.9c0.793-0.705,1.979-1.174,1.979-1.866c0-0.572-0.425-0.738-0.939-0.738
			c-0.604,0-1.039,0.492-1.375,0.85L149.313,43.024z"/>
		<path fill="#0F8040" d="M155.908,43.024c0.783-0.906,1.79-1.388,2.908-1.388c1.488,0,2.662,0.938,2.662,2.449
			c0,1.287-0.604,1.733-1.789,2.506c-0.537,0.347-1.422,1.052-1.679,1.498h1.97v-0.896h1.879v2.383h-6.041v-1.622
			c0.615-1.007,0.918-1.33,1.634-1.9c0.794-0.705,1.979-1.174,1.979-1.866c0-0.572-0.426-0.738-0.939-0.738
			c-0.604,0-1.04,0.492-1.375,0.85L155.908,43.024z"/>
		<path fill="#0F8040" d="M162.303,45.63c0-2.371,1.297-4.016,3.154-4.016c2.191,0,3.209,1.623,3.209,4.094
			c0,2.484-1.129,4.004-3.152,4.004C163.645,49.712,162.303,48.381,162.303,45.63z M166.418,45.708c0-1.33-0.424-2.293-0.973-2.293
			c-0.414-0.01-0.928,0.852-0.928,2.215c0,1.443,0.547,2.35,0.994,2.35C166.027,47.979,166.418,47.073,166.418,45.708z"/>
		<path fill="#0F8040" d="M168.999,45.63c0-2.371,1.298-4.016,3.153-4.016c2.192,0,3.211,1.623,3.211,4.094
			c0,2.484-1.131,4.004-3.154,4.004C170.341,49.712,168.999,48.381,168.999,45.63z M173.115,45.708c0-1.33-0.426-2.293-0.975-2.293
			c-0.412-0.01-0.929,0.852-0.929,2.215c0,1.443,0.549,2.35,0.996,2.35C172.723,47.979,173.115,47.073,173.115,45.708z"/>
		<path fill="#0F8040" d="M175.695,45.63c0-2.371,1.297-4.016,3.154-4.016c2.19,0,3.209,1.623,3.209,4.094
			c0,2.484-1.129,4.004-3.153,4.004C177.037,49.712,175.695,48.381,175.695,45.63z M179.811,45.708c0-1.33-0.424-2.293-0.973-2.293
			c-0.414-0.01-0.928,0.852-0.928,2.215c0,1.443,0.547,2.35,0.995,2.35C179.42,47.979,179.811,47.073,179.811,45.708z"/>
		<path fill="#0F8040" d="M183.633,43.829c0.805,0,1.264,0.693,1.264,1.254c0,0.66-0.469,1.186-1.264,1.186
			c-0.693,0-1.24-0.604-1.24-1.186C182.393,44.522,182.828,43.829,183.633,43.829z M183.633,47.229c0.805,0,1.264,0.692,1.264,1.254
			c0,0.657-0.502,1.186-1.264,1.186c-0.727,0-1.24-0.605-1.24-1.186C182.393,47.923,182.828,47.229,183.633,47.229z"/>
		<path fill="#0F8040" d="M185.432,43.024c0.783-0.906,1.791-1.388,2.908-1.388c1.488,0,2.662,0.938,2.662,2.449
			c0,1.287-0.604,1.733-1.789,2.506c-0.537,0.347-1.421,1.052-1.678,1.498h1.969v-0.896h1.879v2.383h-6.04v-1.622
			c0.614-1.007,0.917-1.33,1.634-1.9c0.793-0.705,1.979-1.174,1.979-1.866c0-0.572-0.425-0.738-0.939-0.738
			c-0.604,0-1.039,0.492-1.375,0.85L185.432,43.024z"/>
		<path fill="#0F8040" d="M191.826,45.63c0-2.371,1.298-4.016,3.154-4.016c2.191,0,3.209,1.623,3.209,4.094
			c0,2.484-1.129,4.004-3.152,4.004C193.168,49.712,191.826,48.381,191.826,45.63z M195.941,45.708c0-1.33-0.424-2.293-0.974-2.293
			c-0.413-0.01-0.928,0.852-0.928,2.215c0,1.443,0.548,2.35,0.996,2.35C195.551,47.979,195.941,47.073,195.941,45.708z"/>
		<path fill="#0F8040" d="M198.635,43.225c0.637-0.313,1.141-0.491,1.957-1.465h1.991v6.33h1.04v1.487h-4.475V48.09h1.119v-4.147
			l-1.119,0.524L198.635,43.225z"/>
		<path fill="#0F8040" d="M205.275,45.317c-0.561-0.336-0.84-0.951-0.84-1.488c0-1.24,0.983-2.203,2.662-2.203
			c1.733,0,2.674,0.963,2.674,2.203c0,0.738-0.447,1.287-0.939,1.521c0.76,0.369,1.152,1.175,1.152,1.937
			c0,1.375-1.152,2.438-2.953,2.438c-1.857,0-2.965-1.063-2.965-2.438C204.066,46.559,204.537,45.687,205.275,45.317z
			 M207.043,48.135c0.547,0,1.018-0.303,1.027-0.918c0-0.78-0.904-0.974-1.42-0.994c-0.336,0.189-0.648,0.582-0.648,0.994
			C206.002,47.745,206.482,48.135,207.043,48.135z M207.076,43.036c-0.438,0-0.807,0.336-0.807,0.703
			c0,0.615,0.738,0.729,1.107,0.738c0.28-0.134,0.536-0.402,0.536-0.738C207.914,43.337,207.523,43.036,207.076,43.036z"/>
	</g>
</g>
<g>
	<path fill="#0F8040" d="M160.523,9.319L160.523,9.319c2.037,1.2,4.783,0.801,6.549-0.803
		C165.107,7.276,162.084,7.396,160.523,9.319L160.523,9.319z M156.096,11.993L156.096,11.993c2.18,1.283,5.117,0.859,7.004-0.858
		C161,9.81,157.766,9.932,156.096,11.993L156.096,11.993z M150.967,15.036L150.967,15.036c2.293,1.038,5.174,0.288,6.889-1.625
		C155.643,12.322,152.436,12.805,150.967,15.036L150.967,15.036z M147.793,19.445L147.793,19.445
		c2.419,0.589,5.139-0.688,6.521-2.894C151.959,15.895,148.879,16.971,147.793,19.445L147.793,19.445z M144.32,24.621L144.32,24.621
		c2.481-0.077,4.824-2.043,5.656-4.55C147.546,20.065,144.807,21.932,144.32,24.621L144.32,24.621z M141.334,31.079L141.334,31.079
		c3-0.096,5.83-2.47,6.838-5.501C145.232,25.572,141.92,27.827,141.334,31.079L141.334,31.079z M140.004,37.84L140.004,37.84
		c2.915-0.776,5.215-3.75,5.605-6.943C142.736,31.564,139.939,34.529,140.004,37.84L140.004,37.84z M139.625,45.098L139.625,45.098
		c3.116-1.222,5.324-4.77,5.411-8.326C141.951,37.863,139.201,41.47,139.625,45.098L139.625,45.098z M140.621,52.593L140.621,52.593
		c2.807-1.907,4.268-5.885,3.652-9.379C141.475,44.99,139.495,49.143,140.621,52.593L140.621,52.593z M142.791,59.195
		L142.791,59.195c2.91-2.287,4.221-6.715,3.316-10.453C143.193,50.891,141.332,55.55,142.791,59.195L142.791,59.195z
		 M146.377,66.283L146.377,66.283c2.264-3.025,2.471-7.666,0.705-11.023C144.781,58.146,144.098,63.171,146.377,66.283
		L146.377,66.283z M151.67,71.369L151.67,71.369c1.732-3.41,1.18-8.021-1.107-10.99C148.771,63.664,148.916,68.736,151.67,71.369
		L151.67,71.369z M158.762,76.652L158.762,76.652c0.656-3.828-1.203-8.014-4.24-10.057C153.773,70.32,155.385,75.089,158.762,76.652
		L158.762,76.652z M166.582,80.207L166.582,80.207c-0.088-3.896-2.706-7.58-6.064-8.904
		C160.494,75.119,162.979,79.425,166.582,80.207L166.582,80.207z M160.955,0.712L160.955,0.712c-3.742,0.803-6.328,5.271-6.311,9.23
		C158.133,8.569,160.859,4.754,160.955,0.712L160.955,0.712z M153.557,3.633L153.557,3.633c-3.41,1.847-4.808,6.897-3.814,10.709
		C152.768,12.02,154.457,7.558,153.557,3.633L153.557,3.633z M147.689,8.238L147.689,8.238c-3.293,2.086-4.379,7.227-3.16,10.958
		C147.41,16.666,148.826,12.089,147.689,8.238L147.689,8.238z M140.966,12.471L140.966,12.471c-3.021,3.339-2.788,9.307-0.421,12.99
		C142.99,21.767,143.271,16.308,140.966,12.471L140.966,12.471z M135.191,20.752L135.191,20.752
		c-2.064,4.104-0.338,9.781,2.867,12.628C139.482,29.103,138.376,23.771,135.191,20.752L135.191,20.752z M129.75,37.829
		L129.75,37.829c-1.086,4.984,2.25,10.448,6.4,12.463C136.514,45.32,133.925,40.025,129.75,37.829L129.75,37.829z M167.464,0.503
		L167.464,0.503c-2.819,0.35-5.308,2.83-6.034,5.777C164.201,6.031,167.154,3.614,167.464,0.503L167.464,0.503z M130.314,49.264
		L130.314,49.264c-0.226,5.12,3.979,9.827,8.4,10.987C138.232,55.296,134.791,50.6,130.314,49.264L130.314,49.264z M132.264,60.268
		L132.264,60.268c0.965,5.016,6.127,8.438,10.674,8.362C141.324,63.964,136.906,60.35,132.264,60.268L132.264,60.268z
		 M137.309,69.802L137.309,69.802c1.739,4.769,7.365,7.191,11.832,6.285C146.82,71.785,141.898,69.033,137.309,69.802
		L137.309,69.802z M144.742,79.105L144.742,79.105c2.939,4.016,8.973,4.578,13.006,2.311
		C154.373,78.021,148.928,76.932,144.742,79.105L144.742,79.105z M154.902,85.078L154.902,85.078
		c3.537,3.406,9.57,2.83,13.182-0.154C164.215,82.21,158.676,82.154,154.902,85.078L154.902,85.078z"/>
	<g>
		<path fill="#0F8040" d="M173.684,5.077c-0.08,0-0.158-0.006-0.238-0.006C173.523,5.071,173.604,5.077,173.684,5.077L173.684,5.077
			z"/>
		<path fill="#0F8040" d="M173.684,81.341c-0.08,0-0.158,0.005-0.238,0.005c-19.447,0-35.213-17.046-35.213-38.071
			c0-12.927,5.961-24.349,15.076-31.23c3.955-3.059,8.53-5.239,13.48-6.281c-0.063,0.072-0.127,0.141-0.188,0.215
			c2.037,1.201,4.781,0.803,6.549-0.8c-0.058-0.035-0.111-0.066-0.168-0.099c0.156-0.002,0.311-0.008,0.465-0.008
			c-0.156,0-0.313,0.003-0.467,0.006c-1.871-1.076-4.588-0.98-6.153,0.646c-15.511,3.079-27.579,16.796-29.503,33.895
			c-0.244-4.444-2.7-8.847-6.413-10.803c-1.076,4.933,2.181,10.328,6.265,12.395c-0.078,1.058-0.121,2.129-0.121,3.21
			c0,21.729,16.291,39.349,36.394,39.349c0.079,0,0.157-0.009,0.237-0.009v-2.42H173.684z"/>
	</g>
</g>
<g>
	<path fill="#0F8040" d="M198.563,9.319c-1.561-1.924-4.584-2.043-6.547-0.803C193.779,10.12,196.523,10.52,198.563,9.319
		L198.563,9.319L198.563,9.319z M202.991,11.993c-1.671-2.062-4.905-2.184-7.005-0.858
		C197.874,12.853,200.811,13.276,202.991,11.993L202.991,11.993L202.991,11.993z M208.119,15.036
		c-1.469-2.231-4.676-2.714-6.889-1.625C202.945,15.324,205.826,16.074,208.119,15.036L208.119,15.036L208.119,15.036z
		 M211.296,19.445c-1.086-2.475-4.168-3.551-6.524-2.894C206.154,18.757,208.871,20.034,211.296,19.445L211.296,19.445
		L211.296,19.445z M214.766,24.621c-0.483-2.689-3.223-4.556-5.654-4.55C209.943,22.578,212.282,24.544,214.766,24.621
		L214.766,24.621L214.766,24.621z M217.752,31.079c-0.586-3.252-3.896-5.507-6.837-5.501
		C211.922,28.609,214.752,30.983,217.752,31.079L217.752,31.079L217.752,31.079z M219.082,37.84
		c0.063-3.311-2.729-6.275-5.604-6.943C213.869,34.09,216.167,37.063,219.082,37.84L219.082,37.84L219.082,37.84z M219.461,45.098
		c0.424-3.627-2.326-7.233-5.408-8.326C214.137,40.328,216.346,43.876,219.461,45.098L219.461,45.098L219.461,45.098z
		 M218.465,52.593c1.129-3.45-0.854-7.604-3.652-9.379C214.197,46.708,215.658,50.686,218.465,52.593L218.465,52.593L218.465,52.593
		z M216.294,59.195c1.461-3.646-0.399-8.305-3.315-10.453C212.075,52.48,213.385,56.908,216.294,59.195L216.294,59.195
		L216.294,59.195z M212.709,66.283c2.281-3.111,1.596-8.137-0.702-11.023C210.238,58.617,210.445,63.257,212.709,66.283
		L212.709,66.283L212.709,66.283z M207.416,71.369c2.754-2.633,2.898-7.705,1.107-10.99
		C206.236,63.35,205.684,67.958,207.416,71.369L207.416,71.369L207.416,71.369z M200.325,76.652
		c3.376-1.563,4.987-6.332,4.239-10.057C201.527,68.639,199.668,72.824,200.325,76.652L200.325,76.652L200.325,76.652z
		 M192.505,80.207c3.604-0.781,6.087-5.088,6.063-8.904C195.213,72.626,192.592,76.311,192.505,80.207L192.505,80.207
		L192.505,80.207z M198.131,0.712c0.096,4.042,2.822,7.857,6.311,9.23C204.459,5.983,201.872,1.515,198.131,0.712L198.131,0.712
		L198.131,0.712z M205.529,3.633c-0.9,3.925,0.789,8.387,3.815,10.709C210.337,10.53,208.939,5.479,205.529,3.633L205.529,3.633
		L205.529,3.633z M211.396,8.238c-1.139,3.851,0.276,8.428,3.158,10.958C215.773,15.465,214.688,10.324,211.396,8.238L211.396,8.238
		L211.396,8.238z M218.12,12.471c-2.306,3.837-2.024,9.296,0.424,12.99C220.908,21.777,221.143,15.81,218.12,12.471L218.12,12.471
		L218.12,12.471z M223.896,20.752c-3.188,3.019-4.293,8.351-2.869,12.628C224.23,30.533,225.959,24.856,223.896,20.752
		L223.896,20.752L223.896,20.752z M229.335,37.829c-4.174,2.196-6.763,7.491-6.399,12.463
		C227.085,48.277,230.422,42.813,229.335,37.829L229.335,37.829L229.335,37.829z M191.622,0.503c0.31,3.111,3.263,5.528,6.034,5.777
		C196.93,3.333,194.441,0.853,191.622,0.503L191.622,0.503L191.622,0.503z M228.771,49.264c-4.478,1.336-7.918,6.032-8.397,10.987
		C224.79,59.091,228.996,54.384,228.771,49.264L228.771,49.264L228.771,49.264z M226.822,60.268
		c-4.643,0.082-9.062,3.696-10.674,8.362C220.695,68.705,225.857,65.281,226.822,60.268L226.822,60.268L226.822,60.268z
		 M221.777,69.802c-4.59-0.77-9.512,1.982-11.834,6.285C214.415,76.994,220.039,74.568,221.777,69.802L221.777,69.802
		L221.777,69.802z M214.348,79.105c-4.188-2.176-9.634-1.084-13.011,2.311C205.373,83.684,211.404,83.121,214.348,79.105
		L214.348,79.105L214.348,79.105z M204.184,85.078c-3.771-2.924-9.313-2.867-13.182-0.154
		C194.613,87.908,200.646,88.484,204.184,85.078L204.184,85.078L204.184,85.078z"/>
	<g>
		<path fill="#0F8040" d="M185.402,5.077c0.082,0,0.158-0.006,0.238-0.006C185.563,5.071,185.484,5.077,185.402,5.077L185.402,5.077
			z"/>
		<path fill="#0F8040" d="M185.402,81.341c0.082,0,0.158,0.005,0.238,0.005c19.447,0,35.215-17.046,35.215-38.071
			c0-12.927-5.963-24.349-15.074-31.23c-3.956-3.059-8.533-5.239-13.483-6.281c0.065,0.072,0.127,0.141,0.188,0.215
			c-2.039,1.201-4.784,0.803-6.549-0.8c0.056-0.035,0.109-0.066,0.166-0.099c-0.152-0.002-0.311-0.008-0.463-0.008
			c0.154,0,0.313,0.003,0.467,0.006c1.871-1.076,4.586-0.98,6.151,0.646c15.513,3.079,27.579,16.796,29.505,33.895
			c0.242-4.444,2.699-8.847,6.411-10.803c1.076,4.933-2.181,10.328-6.262,12.395c0.077,1.058,0.119,2.129,0.119,3.21
			c0,21.729-16.293,39.349-36.396,39.349c-0.078,0-0.156-0.009-0.238-0.009v-2.42H185.402z"/>
	</g>
</g>
<polygon fill="#0F8040" points="179.453,78.564 180.443,80.566 182.593,80.658 180.998,82.218 181.572,84.291 179.596,83.253 
	177.805,84.441 178.176,82.242 176.492,80.906 178.7,80.58 "/>
<g>
	<path fill="#0F8040" d="M39.956,60.721c-0.477,0.524-1.205,0.987-2.123,0.987c-1.484,0-2.472-0.953-2.472-2.515
		c0-1.61,1.212-2.577,2.129-2.577c0.7,0,1.016,0.392,1.079,0.476l0.161-0.392h1.1v1.989h-1.253
		c-0.021-0.455-0.245-0.883-0.743-0.883c-0.504,0-0.833,0.623-0.833,1.387c0,0.693,0.357,1.316,1.022,1.316
		c0.588,0,1.05-0.616,1.113-0.686L39.956,60.721z"/>
	<path fill="#0F8040" d="M43.749,61.112c-0.518,0.448-1.079,0.609-1.807,0.609c-0.868,0-1.849-0.553-1.849-1.897
		c0-1.149,0.826-1.828,1.884-1.828c0.833,0,1.471,0.427,1.674,1.016c0.084,0.245,0.161,0.784,0.014,1.184h-2.206
		c0.042,0.188,0.133,0.574,0.721,0.574c0.238,0,0.603-0.021,0.98-0.337L43.749,61.112z M41.479,59.502h1.058
		c-0.007-0.267-0.07-0.561-0.519-0.561C41.591,58.941,41.493,59.326,41.479,59.502z"/>
	<path fill="#0F8040" d="M46.009,61.596h-1.982v-0.918h0.308v-1.674h-0.301v-0.91h1.317l0.21,0.448
		c0.182-0.336,0.364-0.574,1.085-0.574v1.212c-0.63,0-0.987,0.161-0.987,0.777v0.721h0.35V61.596z"/>
	<path fill="#0F8040" d="M46.854,58.094h0.378v-0.645l1.289-0.413v1.058h0.666v0.91h-0.666v1.247c0,0.238-0.049,0.561,0.224,0.561
		c0.091,0,0.308-0.063,0.441-0.119v0.896c-0.21,0.084-0.687,0.133-0.848,0.133c-1.051,0-1.085-0.574-1.106-1.471v-1.247h-0.378
		V58.094z"/>
	<path fill="#0F8040" d="M51.427,61.596h-1.961v-0.918h0.294v-1.674h-0.294v-0.91h1.625v2.584h0.336V61.596z M50.418,56.356
		c0.483,0,0.771,0.393,0.771,0.715c0,0.385-0.273,0.707-0.771,0.707c-0.441,0-0.756-0.371-0.756-0.707
		C49.662,56.749,49.928,56.356,50.418,56.356z"/>
	<path fill="#0F8040" d="M54.059,57.197c-0.077-0.035-0.196-0.07-0.385-0.07c-0.154,0-0.224,0.119-0.224,0.371v0.596h0.637v0.91
		H53.45v1.674h0.42v0.918h-2.087v-0.918h0.28v-1.674h-0.287v-0.91h0.287v-0.596c0-0.398,0.126-1.281,1.387-1.281
		c0.364,0,0.847,0.084,1.029,0.175L54.059,57.197z"/>
	<path fill="#0F8040" d="M56.438,61.596h-1.961v-0.918h0.294v-1.674h-0.294v-0.91h1.625v2.584h0.336V61.596z M55.43,56.356
		c0.483,0,0.771,0.393,0.771,0.715c0,0.385-0.273,0.707-0.771,0.707c-0.441,0-0.756-0.371-0.756-0.707
		C54.673,56.749,54.939,56.356,55.43,56.356z"/>
	<path fill="#0F8040" d="M60.303,61.112c-0.518,0.448-1.079,0.609-1.807,0.609c-0.868,0-1.849-0.553-1.849-1.897
		c0-1.149,0.826-1.828,1.884-1.828c0.833,0,1.471,0.427,1.674,1.016c0.084,0.245,0.161,0.784,0.014,1.184h-2.206
		c0.042,0.188,0.133,0.574,0.721,0.574c0.238,0,0.603-0.021,0.98-0.337L60.303,61.112z M58.034,59.502h1.058
		c-0.007-0.267-0.07-0.561-0.519-0.561C58.146,58.941,58.048,59.326,58.034,59.502z"/>
	<path fill="#0F8040" d="M62.983,57.253h-0.322v-0.91h1.744v4.343h0.336v0.91h-1.639l-0.119-0.259
		c-0.091,0.084-0.399,0.322-0.882,0.322c-0.987,0-1.625-0.876-1.625-1.85c0-1.093,0.764-1.786,1.625-1.786
		c0.498,0,0.75,0.183,0.882,0.267V57.253z M62.486,60.671c0.273,0,0.525-0.343,0.497-0.896c0-0.476-0.238-0.84-0.504-0.84
		c-0.294,0-0.498,0.343-0.498,0.875C61.982,60.229,62.178,60.671,62.486,60.671z"/>
	<path fill="#0F8040" d="M38.534,69.121c-0.477,0.524-1.205,0.987-2.122,0.987c-1.485,0-2.473-0.953-2.473-2.515
		c0-1.61,1.212-2.577,2.129-2.577c0.7,0,1.015,0.392,1.079,0.476l0.161-0.392h1.099v1.989h-1.253
		c-0.021-0.455-0.245-0.883-0.742-0.883c-0.504,0-0.833,0.623-0.833,1.387c0,0.693,0.357,1.316,1.022,1.316
		c0.588,0,1.05-0.616,1.113-0.686L38.534,69.121z"/>
	<path fill="#0F8040" d="M38.713,68.231c0.007-1.17,0.953-1.821,1.919-1.821c1.106,0.014,1.926,0.68,1.947,1.849
		c0.014,1.163-0.848,1.828-1.912,1.828C39.666,70.087,38.699,69.471,38.713,68.231z M41.144,68.259c0-0.525-0.182-0.931-0.511-0.938
		c-0.273,0-0.483,0.406-0.483,0.918c0,0.574,0.224,0.952,0.519,0.952C40.968,69.19,41.144,68.784,41.144,68.259z"/>
	<path fill="#0F8040" d="M44.91,69.996h-2.08v-0.918h0.294v-1.652H42.83v-0.925h1.324l0.154,0.413
		c0.112-0.133,0.434-0.511,0.875-0.511c0.708,0,0.932,0.336,1.043,0.504c0.217-0.245,0.546-0.504,1.03-0.504
		c1.135,0,1.31,0.826,1.31,1.681v0.967h0.343v0.945H47.13V68.28c0-0.336,0.063-0.868-0.266-0.868c-0.301,0-0.372,0.21-0.372,0.511
		v1.135h0.42v0.938h-1.814V68.21c0-0.567-0.014-0.798-0.294-0.798c-0.224,0-0.315,0.133-0.315,0.42v1.246h0.42V69.996z"/>
	<path fill="#0F8040" d="M49.186,70.508h0.294v-3.082h-0.294v-0.932h1.604l0.119,0.245c0.133-0.098,0.427-0.301,0.848-0.301
		c1.092,0,1.653,0.84,1.653,1.835c0,1.113-0.693,1.8-1.597,1.8c-0.581,0-0.861-0.231-0.91-0.273v0.708h0.378v0.917h-2.094V70.508z
		 M51.398,67.426c-0.273,0-0.525,0.343-0.497,0.896c0,0.477,0.238,0.841,0.504,0.841c0.294,0,0.497-0.344,0.497-0.876
		C51.903,67.867,51.707,67.426,51.398,67.426z"/>
	<path fill="#0F8040" d="M53.728,66.788c0.28-0.168,0.883-0.497,1.527-0.497c0.841,0,1.898,0.315,1.898,1.442V69.1h0.42v0.896
		h-1.499l-0.168-0.315c-0.259,0.357-0.693,0.448-0.945,0.448c-0.666,0-1.38-0.357-1.38-1.169c0-0.792,0.666-1.289,1.457-1.289
		c0.413,0,0.658,0.203,0.693,0.245v-0.245c0-0.315-0.287-0.393-0.666-0.393c-0.413,0-0.777,0.176-1.043,0.322L53.728,66.788z
		 M55.731,68.987v-0.266c-0.021-0.035-0.119-0.203-0.414-0.203c-0.28,0-0.406,0.154-0.406,0.371c0,0.196,0.161,0.329,0.372,0.329
		C55.493,69.219,55.668,69.093,55.731,68.987z"/>
	<path fill="#0F8040" d="M60.008,69.996h-2.157v-0.918h0.294v-1.674h-0.294v-0.91h1.492l0.161,0.435
		c0.238-0.329,0.56-0.561,1.001-0.561c1.085,0,1.268,0.806,1.268,1.541v1.169h0.329v0.918h-1.765v-1.912
		c0-0.238,0.021-0.651-0.393-0.651c-0.357,0-0.441,0.351-0.441,0.651v0.994h0.504V69.996z"/>
	<path fill="#0F8040" d="M64.88,67.384h-0.322v-0.89h1.779v0.868h-0.336l-1.331,3.236c-0.203,0.434-0.49,0.994-1.506,0.987
		c-0.364-0.021-0.637-0.168-0.847-0.351l0.525-0.826c0.119,0.105,0.259,0.21,0.406,0.238c0.217,0.042,0.378-0.161,0.448-0.371
		l0.098-0.294l-1.366-2.592h-0.287v-0.896h2.157v0.89H63.97l0.455,1.093L64.88,67.384z"/>
</g>
<g>
	<path fill="#0F8040" d="M169.476,60.721c-0.477,0.524-1.204,0.987-2.122,0.987c-1.484,0-2.473-0.953-2.473-2.515
		c0-1.61,1.212-2.577,2.129-2.577c0.701,0,1.016,0.392,1.079,0.476l0.161-0.392h1.1v1.989h-1.254
		c-0.021-0.455-0.245-0.883-0.742-0.883c-0.504,0-0.834,0.623-0.834,1.387c0,0.693,0.357,1.316,1.023,1.316
		c0.588,0,1.05-0.616,1.113-0.686L169.476,60.721z"/>
	<path fill="#0F8040" d="M173.269,61.112c-0.519,0.448-1.079,0.609-1.808,0.609c-0.867,0-1.848-0.553-1.848-1.897
		c0-1.149,0.826-1.828,1.883-1.828c0.834,0,1.471,0.427,1.674,1.016c0.084,0.245,0.162,0.784,0.015,1.184h-2.206
		c0.042,0.188,0.133,0.574,0.721,0.574c0.238,0,0.604-0.021,0.98-0.337L173.269,61.112z M171,59.502h1.057
		c-0.007-0.267-0.07-0.561-0.518-0.561C171.111,58.941,171.014,59.326,171,59.502z"/>
	<path fill="#0F8040" d="M175.529,61.596h-1.982v-0.918h0.309v-1.674h-0.302v-0.91h1.317l0.209,0.448
		c0.183-0.336,0.365-0.574,1.086-0.574v1.212c-0.631,0-0.987,0.161-0.987,0.777v0.721h0.351V61.596z"/>
	<path fill="#0F8040" d="M176.375,58.094h0.378v-0.645l1.288-0.413v1.058h0.666v0.91h-0.666v1.247c0,0.238-0.049,0.561,0.225,0.561
		c0.091,0,0.309-0.063,0.441-0.119v0.896c-0.211,0.084-0.687,0.133-0.848,0.133c-1.051,0-1.086-0.574-1.106-1.471v-1.247h-0.378
		V58.094z"/>
	<path fill="#0F8040" d="M180.947,61.596h-1.961v-0.918h0.293v-1.674h-0.293v-0.91h1.624v2.584h0.337V61.596z M179.938,56.356
		c0.484,0,0.771,0.393,0.771,0.715c0,0.385-0.273,0.707-0.771,0.707c-0.44,0-0.756-0.371-0.756-0.707
		C179.182,56.749,179.447,56.356,179.938,56.356z"/>
	<path fill="#0F8040" d="M183.579,57.197c-0.077-0.035-0.196-0.07-0.386-0.07c-0.154,0-0.224,0.119-0.224,0.371v0.596h0.638v0.91
		h-0.638v1.674h0.42v0.918h-2.087v-0.918h0.28v-1.674h-0.287v-0.91h0.287v-0.596c0-0.398,0.126-1.281,1.387-1.281
		c0.364,0,0.847,0.084,1.029,0.175L183.579,57.197z"/>
	<path fill="#0F8040" d="M185.959,61.596h-1.961v-0.918h0.293v-1.674h-0.293v-0.91h1.624v2.584h0.337V61.596z M184.949,56.356
		c0.484,0,0.771,0.393,0.771,0.715c0,0.385-0.273,0.707-0.771,0.707c-0.44,0-0.756-0.371-0.756-0.707
		C184.193,56.749,184.459,56.356,184.949,56.356z"/>
	<path fill="#0F8040" d="M189.823,61.112c-0.519,0.448-1.079,0.609-1.808,0.609c-0.867,0-1.848-0.553-1.848-1.897
		c0-1.149,0.826-1.828,1.883-1.828c0.834,0,1.471,0.427,1.674,1.016c0.084,0.245,0.162,0.784,0.015,1.184h-2.206
		c0.042,0.188,0.133,0.574,0.721,0.574c0.238,0,0.604-0.021,0.98-0.337L189.823,61.112z M187.555,59.502h1.057
		c-0.007-0.267-0.07-0.561-0.518-0.561C187.666,58.941,187.568,59.326,187.555,59.502z"/>
	<path fill="#0F8040" d="M192.504,57.253h-0.322v-0.91h1.744v4.343h0.336v0.91h-1.639l-0.119-0.259
		c-0.092,0.084-0.399,0.322-0.883,0.322c-0.987,0-1.625-0.876-1.625-1.85c0-1.093,0.764-1.786,1.625-1.786
		c0.498,0,0.75,0.183,0.883,0.267V57.253z M192.006,60.671c0.273,0,0.525-0.343,0.498-0.896c0-0.476-0.238-0.84-0.504-0.84
		c-0.295,0-0.498,0.343-0.498,0.875C191.502,60.229,191.698,60.671,192.006,60.671z"/>
	<path fill="#0F8040" d="M168.055,69.121c-0.477,0.524-1.205,0.987-2.123,0.987c-1.484,0-2.473-0.953-2.473-2.515
		c0-1.61,1.213-2.577,2.13-2.577c0.7,0,1.015,0.392,1.079,0.476l0.16-0.392h1.1v1.989h-1.254c-0.021-0.455-0.244-0.883-0.742-0.883
		c-0.504,0-0.833,0.623-0.833,1.387c0,0.693,0.356,1.316,1.022,1.316c0.588,0,1.051-0.616,1.113-0.686L168.055,69.121z"/>
	<path fill="#0F8040" d="M168.233,68.231c0.007-1.17,0.952-1.821,1.919-1.821c1.106,0.014,1.926,0.68,1.947,1.849
		c0.014,1.163-0.848,1.828-1.912,1.828C169.186,70.087,168.219,69.471,168.233,68.231z M170.664,68.259
		c0-0.525-0.183-0.931-0.512-0.938c-0.273,0-0.483,0.406-0.483,0.918c0,0.574,0.224,0.952,0.519,0.952
		C170.488,69.19,170.664,68.784,170.664,68.259z"/>
	<path fill="#0F8040" d="M174.43,69.996h-2.08v-0.918h0.294v-1.652h-0.294v-0.925h1.324l0.153,0.413
		c0.112-0.133,0.435-0.511,0.876-0.511c0.707,0,0.932,0.336,1.043,0.504c0.217-0.245,0.547-0.504,1.029-0.504
		c1.135,0,1.311,0.826,1.311,1.681v0.967h0.343v0.945h-1.778V68.28c0-0.336,0.063-0.868-0.267-0.868
		c-0.302,0-0.372,0.21-0.372,0.511v1.135h0.421v0.938h-1.813V68.21c0-0.567-0.015-0.798-0.295-0.798
		c-0.224,0-0.314,0.133-0.314,0.42v1.246h0.42V69.996z"/>
	<path fill="#0F8040" d="M178.705,70.508H179v-3.082h-0.295v-0.932h1.604l0.119,0.245c0.134-0.098,0.428-0.301,0.848-0.301
		c1.093,0,1.653,0.84,1.653,1.835c0,1.113-0.693,1.8-1.597,1.8c-0.582,0-0.861-0.231-0.91-0.273v0.708h0.377v0.917h-2.094V70.508z
		 M180.918,67.426c-0.272,0-0.525,0.343-0.496,0.896c0,0.477,0.238,0.841,0.504,0.841c0.294,0,0.497-0.344,0.497-0.876
		C181.423,67.867,181.227,67.426,180.918,67.426z"/>
	<path fill="#0F8040" d="M183.248,66.788c0.28-0.168,0.883-0.497,1.527-0.497c0.84,0,1.897,0.315,1.897,1.442V69.1h0.421v0.896
		h-1.499l-0.169-0.315c-0.258,0.357-0.693,0.448-0.945,0.448c-0.665,0-1.379-0.357-1.379-1.169c0-0.792,0.665-1.289,1.457-1.289
		c0.412,0,0.658,0.203,0.693,0.245v-0.245c0-0.315-0.287-0.393-0.666-0.393c-0.413,0-0.777,0.176-1.043,0.322L183.248,66.788z
		 M185.252,68.987v-0.266c-0.021-0.035-0.119-0.203-0.414-0.203c-0.279,0-0.406,0.154-0.406,0.371c0,0.196,0.161,0.329,0.371,0.329
		C185.014,69.219,185.188,69.093,185.252,68.987z"/>
	<path fill="#0F8040" d="M189.528,69.996h-2.157v-0.918h0.295v-1.674h-0.295v-0.91h1.492l0.161,0.435
		c0.237-0.329,0.56-0.561,1.001-0.561c1.086,0,1.268,0.806,1.268,1.541v1.169h0.33v0.918h-1.766v-1.912
		c0-0.238,0.021-0.651-0.393-0.651c-0.356,0-0.44,0.351-0.44,0.651v0.994h0.504V69.996z"/>
	<path fill="#0F8040" d="M194.4,67.384h-0.322v-0.89h1.779v0.868h-0.336l-1.331,3.236c-0.203,0.434-0.49,0.994-1.506,0.987
		c-0.364-0.021-0.638-0.168-0.847-0.351l0.524-0.826c0.119,0.105,0.259,0.21,0.406,0.238c0.218,0.042,0.378-0.161,0.448-0.371
		l0.098-0.294l-1.365-2.592h-0.287v-0.896h2.157v0.89h-0.329l0.455,1.093L194.4,67.384z"/>
</g>
</svg>
