<?xml version="1.0" encoding="utf-8"?>
<!-- Generator: Adobe Illustrator 16.0.0, SVG Export Plug-In . SVG Version: 6.00 Build 0)  -->
<!DOCTYPE svg PUBLIC "-//W3C//DTD SVG 1.1//EN" "http://www.w3.org/Graphics/SVG/1.1/DTD/svg11.dtd">
<svg version="1.1" id="Layer_1" xmlns="http://www.w3.org/2000/svg" xmlns:xlink="http://www.w3.org/1999/xlink" x="0px" y="0px"
	 width="30px" height="30px" viewBox="241 241 30 30" enable-background="new 241 241 30 30" xml:space="preserve">
<g>
	<path fill="#FFB655" d="M251.155,245.269v12.081c-0.001,0.106,0.016,0.212,0.051,0.312c0.136,0.414,0.521,0.694,0.956,0.695h16.108
		c0.454-0.002,0.852-0.307,0.971-0.745c0.025-0.085,0.037-0.174,0.035-0.262v-12.081H251.155z"/>
	<path fill="#FFC477" d="M263.196,259.595h0.005l3.402-1.238h1.667c0.454-0.002,0.852-0.307,0.971-0.745
		c0.822,0.144,1.371,0.927,1.228,1.748c-0.093,0.53-0.461,0.971-0.966,1.156l-10.304,3.75c-0.996,0.363-2.071,0.457-3.115,0.272
		l-0.901-0.156c-1.314-0.233-2.668,0.067-3.76,0.835l-0.353,0.247l-3.755-5.36l1.993-1.395c0.593-0.416,1.229-0.768,1.897-1.048
		c0.136,0.414,0.521,0.694,0.956,0.695h10.632c0.053,0.055,0.102,0.114,0.146,0.176c0.128,0.18,0.211,0.387,0.242,0.604
		C263.217,259.287,263.222,259.442,263.196,259.595L263.196,259.595z"/>
	<path fill="#FF9811" d="M269.276,243.256v2.013h-7.047v-3.02h6.041C268.825,242.25,269.275,242.7,269.276,243.256z"/>
	<path fill="#FFC477" d="M268.472,257.677c0.246-0.089,0.512-0.111,0.77-0.065c-0.119,0.438-0.517,0.743-0.971,0.745h-1.667
		L268.472,257.677z"/>
	<path fill="#FFA733" d="M266.604,258.356l-3.402,1.238h-0.005c0.025-0.152,0.021-0.308-0.015-0.458
		c-0.031-0.218-0.114-0.425-0.242-0.604c-0.044-0.062-0.093-0.121-0.146-0.176H266.604z"/>
	<path fill="#FFC477" d="M262.794,258.356h-10.632c-0.435-0.001-0.82-0.281-0.956-0.695c0.307-0.125,0.619-0.241,0.937-0.337
		l0.075-0.021c1.518-0.464,3.123-0.562,4.687-0.286l5.059,0.891C262.281,257.964,262.572,258.121,262.794,258.356z"/>
	<path fill="#FF9811" d="M258.203,242.249v3.02h-7.048v-2.013c0.002-0.556,0.452-1.005,1.007-1.007H258.203z"/>
	<path fill="#3D9AE2" d="M251.07,265.464l0.579,0.825l-4.948,3.464l-5.2-7.425l4.948-3.463l0.866,1.238L251.07,265.464z"/>
	<path fill="#E6E7E8" d="M262.229,245.269v3.02l-2.013-2.013l-2.014,2.013v-3.02v-3.02h4.026V245.269z"/>
	<path d="M270.878,258.407c-0.19-0.521-0.588-0.938-1.098-1.153v-13.998c-0.003-0.833-0.677-1.508-1.51-1.51h-16.108
		c-0.833,0.002-1.507,0.677-1.51,1.51v14.108c-0.571,0.26-1.117,0.571-1.631,0.932l-1.58,1.107l-0.579-0.825
		c-0.16-0.227-0.472-0.282-0.7-0.126l-4.947,3.463c-0.227,0.162-0.283,0.475-0.126,0.705l5.199,7.419
		c0.159,0.228,0.472,0.284,0.7,0.126l4.947-3.463c0.227-0.162,0.282-0.475,0.126-0.705l-0.287-0.407
		c0.972-0.664,2.165-0.919,3.322-0.71l0.896,0.151c1.132,0.201,2.297,0.101,3.378-0.292l10.304-3.75
		C270.72,260.608,271.259,259.453,270.878,258.407L270.878,258.407L270.878,258.407z M262.733,242.752h5.537
		c0.277,0,0.503,0.225,0.503,0.503v1.51h-6.04V242.752z M258.706,242.752h3.021v4.324l-1.152-1.158
		c-0.198-0.196-0.518-0.196-0.715,0l-1.153,1.158V242.752z M251.659,243.256c0-0.278,0.226-0.503,0.503-0.503h5.537v2.013h-6.04
		V243.256z M251.659,245.772h6.04v2.517c-0.001,0.204,0.123,0.388,0.313,0.463c0.188,0.079,0.403,0.037,0.549-0.106l1.656-1.661
		l1.655,1.661c0.096,0.094,0.224,0.146,0.357,0.146c0.066,0.002,0.132-0.012,0.191-0.04c0.189-0.076,0.313-0.259,0.313-0.463v-2.517
		h6.04v11.33c-0.161,0.014-0.32,0.048-0.473,0.101l-1.782,0.649h-3.539c-0.266-0.227-0.587-0.378-0.931-0.438l-5.06-0.891
		c-1.634-0.29-3.313-0.189-4.902,0.291l-0.091,0.03c-0.115,0.03-0.227,0.076-0.337,0.116V245.772z M246.822,269.053l-4.616-6.599
		l4.122-2.89l4.616,6.599L246.822,269.053z M269.981,259.272c-0.063,0.354-0.311,0.648-0.649,0.771l-10.304,3.75
		c-0.915,0.332-1.901,0.417-2.859,0.246l-0.9-0.15c-1.42-0.256-2.884,0.059-4.072,0.876l-3.177-4.541l1.581-1.103
		c0.815-0.575,1.718-1.018,2.673-1.309l0.091-0.025c1.442-0.438,2.968-0.532,4.454-0.276l5.054,0.891
		c0.265,0.049,0.499,0.199,0.654,0.418c0.089,0.13,0.146,0.278,0.167,0.433c0.025,0.142,0.017,0.286-0.025,0.423
		c-0.145,0.499-0.643,0.809-1.153,0.715l-5.441-0.961l-0.171,0.986l5.437,0.962c0.117,0.023,0.237,0.035,0.357,0.035
		c0.89-0.001,1.675-0.584,1.933-1.435l5.014-1.827c0.522-0.189,1.1,0.081,1.289,0.604
		C269.996,258.919,270.013,259.099,269.981,259.272L269.981,259.272z"/>
</g>
</svg>
