<?xml version="1.0" encoding="utf-8"?>
<!-- Generator: Adobe Illustrator 16.0.0, SVG Export Plug-In . SVG Version: 6.00 Build 0)  -->
<!DOCTYPE svg PUBLIC "-//W3C//DTD SVG 1.1//EN" "http://www.w3.org/Graphics/SVG/1.1/DTD/svg11.dtd">
<svg version="1.1" id="Layer_1" xmlns="http://www.w3.org/2000/svg" xmlns:xlink="http://www.w3.org/1999/xlink" x="0px" y="0px"
	 width="30px" height="30px" viewBox="0 0 30 30" enable-background="new 0 0 30 30" xml:space="preserve">
<g>
	<path fill="#FFAF40" d="M24.324,28.074H5.675c-0.508,0-0.92-0.412-0.92-0.92V8.965h20.491v18.189
		C25.245,27.662,24.833,28.074,24.324,28.074z"/>
	<path fill="#FF993A" d="M25.245,27.154c0,0.508-0.412,0.92-0.921,0.92H11.777c6.877-1.461,12.037-7.568,12.037-14.881
		c0-1.467-0.208-2.886-0.596-4.228h2.026V27.154z"/>
	<path fill="#E86300" d="M4.754,8.965h20.491v3.186H4.754V8.965z"/>
	<path fill="#F9F8F2" d="M22.257,25.906H15.89c-0.509,0-0.921-0.413-0.921-0.921v-4.298c0-0.509,0.412-0.921,0.921-0.921h6.367
		c0.509,0,0.921,0.412,0.921,0.921v4.298C23.178,25.493,22.766,25.906,22.257,25.906z"/>
	<path fill="#F1EEE0" d="M23.178,20.688v4.298c0,0.508-0.412,0.92-0.921,0.92h-4.146c2.229-0.675,3.851-2.745,3.851-5.194
		c0-0.322-0.027-0.638-0.082-0.944h0.377C22.766,19.768,23.178,20.179,23.178,20.688z"/>
	<path fill="#D84D00" d="M25.245,8.965v3.186h-6.342c1.828-0.557,3.405-1.689,4.52-3.186H25.245L25.245,8.965z"/>
	<path fill="#27B2FF" d="M21.422,22.351h-1.813c-0.458,0-0.829-0.372-0.829-0.83c0-0.459,0.371-0.83,0.829-0.83h1.813
		c0.459,0,0.83,0.371,0.83,0.83C22.252,21.979,21.881,22.351,21.422,22.351z"/>
	<path fill="#27B2FF" d="M21.422,24.946h-1.813c-0.458,0-0.829-0.371-0.829-0.83c0-0.458,0.371-0.829,0.829-0.829h1.813
		c0.459,0,0.83,0.371,0.83,0.829C22.252,24.575,21.881,24.946,21.422,24.946z"/>
	<path fill="#FE255F" d="M17.489,12.151v4.075c0,0.324-0.263,0.587-0.587,0.587h-3.805c-0.325,0-0.587-0.263-0.587-0.587v-4.075
		H17.489z"/>
	<g>
		<path fill="#FFAF40" d="M27.487,2.2l-4.31,6.768l2.067,3.186l4.571-7.179c0.281-0.443,0.235-1.02-0.114-1.412l-1.281-1.438
			C28.161,1.834,27.696,1.872,27.487,2.2z"/>
		<path fill="#FFAF40" d="M2.513,2.197l4.309,6.768l-2.067,3.186L0.184,4.973c-0.282-0.443-0.236-1.02,0.114-1.412l1.282-1.439
			C1.838,1.832,2.303,1.869,2.513,2.197L2.513,2.197z"/>
	</g>
	<path fill="#FF993A" d="M29.815,4.975l-4.57,7.179l-1.803-2.779c2.945-0.8,5.248-3.16,5.969-6.138l0.291,0.326
		C30.052,3.956,30.099,4.532,29.815,4.975z"/>
	<path fill="#FF993A" d="M6.822,8.965l-2.068,3.187l-0.729-1.146C4.493,10,4.754,8.877,4.754,7.695c0-0.972-0.176-1.902-0.499-2.761
		L6.822,8.965z"/>
</g>
</svg>
