<?xml version="1.0" encoding="utf-8"?>
<!-- Generator: Adobe Illustrator 16.0.0, SVG Export Plug-In . SVG Version: 6.00 Build 0)  -->
<!DOCTYPE svg PUBLIC "-//W3C//DTD SVG 1.1//EN" "http://www.w3.org/Graphics/SVG/1.1/DTD/svg11.dtd">
<svg version="1.1" id="Layer_1" xmlns="http://www.w3.org/2000/svg" xmlns:xlink="http://www.w3.org/1999/xlink" x="0px" y="0px"
	 width="30px" height="30px" viewBox="0 0 30 30" enable-background="new 0 0 30 30" xml:space="preserve">
<g>
	<path fill="#048028" d="M20.479,10.59c-0.748,0-1.459,0-2.172,0c-1.941,0-3.883,0-5.824-0.001
		c-2.162-0.002-3.714,1.548-3.717,3.712c-0.001,0.773-0.014,1.551,0.008,2.323c0.009,0.286-0.098,0.397-0.354,0.485
		c-0.969,0.336-1.932,0.692-2.896,1.047c-0.386,0.142-0.539,0.375-0.47,0.695c0.077,0.363,0.403,0.523,0.817,0.377
		c0.88-0.313,1.757-0.637,2.635-0.953c0.064-0.021,0.13-0.036,0.235-0.065c0.01,0.131,0.027,0.239,0.027,0.347
		c0.003,0.971-0.003,1.942,0.01,2.912c0.002,0.225-0.079,0.325-0.285,0.397c-0.773,0.271-1.537,0.563-2.31,0.837
		c-1.311,0.464-2.569-0.135-3.046-1.441c-0.984-2.697-1.97-5.396-2.949-8.095c-0.516-1.42,0.058-2.65,1.475-3.166
		c4.704-1.715,9.407-3.429,14.11-5.139c1.437-0.522,2.65,0.054,3.181,1.498c0.472,1.289,0.94,2.579,1.41,3.867
		C20.4,10.334,20.434,10.442,20.479,10.59z M4.757,16.093c0.068-0.006,0.142,0.003,0.205-0.02c0.639-0.232,1.286-0.446,1.909-0.711
		c0.396-0.167,0.571-0.633,0.441-1.054c-0.13-0.417-0.275-0.832-0.443-1.234C6.68,12.618,6.198,12.4,5.721,12.558
		c-0.578,0.192-1.153,0.403-1.719,0.628c-0.486,0.193-0.695,0.664-0.532,1.159c0.13,0.395,0.271,0.784,0.423,1.169
		C4.044,15.9,4.349,16.079,4.757,16.093z"/>
	<path fill="#FCA800" d="M19.991,25.324c-2.509,0-5.013,0.003-7.52-0.002c-1.183-0.002-2.052-0.623-2.347-1.674
		c-0.058-0.209-0.1-0.432-0.1-0.646c-0.004-2.923-0.007-5.845,0.004-8.769c0.005-1.229,0.768-2.15,1.935-2.347
		c0.315-0.054,0.645-0.033,0.967-0.033c4.886-0.001,9.772,0,14.66,0.001c1.416,0,2.4,0.968,2.404,2.388
		C30,17.119,30,19.995,29.99,22.872c-0.004,1.505-0.94,2.442-2.446,2.448C25.027,25.33,22.51,25.324,19.991,25.324z M28.404,18.031
		c-5.612,0-11.187,0-16.746,0c-0.02,0.041-0.038,0.063-0.038,0.082c-0.003,1.652-0.012,3.302,0,4.953
		c0.003,0.384,0.28,0.625,0.671,0.664c0.137,0.017,0.277,0.013,0.415,0.013c3.255,0,6.513,0,9.771,0c1.698,0,3.396,0,5.097-0.004
		c0.515-0.001,0.819-0.236,0.823-0.683C28.411,21.395,28.404,19.73,28.404,18.031z M28.406,15.169c0-0.28,0-0.542,0-0.804
		c-0.002-0.707-0.229-0.933-0.932-0.933c-2.738,0-5.479,0-8.218,0c-2.276,0-4.554,0-6.83,0.001c-0.409,0-0.719,0.168-0.762,0.507
		c-0.051,0.403-0.012,0.816-0.012,1.229C17.234,15.169,22.802,15.169,28.406,15.169z"/>
	<path fill="#048028" d="M17.629,20.589c-1.27,0-2.538,0.004-3.809-0.005c-0.176-0.001-0.411-0.018-0.514-0.124
		c-0.13-0.14-0.228-0.388-0.202-0.571c0.042-0.289,0.288-0.412,0.594-0.41c1.42,0.004,2.839,0.002,4.259,0.002
		c1.2,0,2.4-0.002,3.604,0.002c0.418,0.002,0.664,0.235,0.641,0.597c-0.021,0.313-0.246,0.506-0.622,0.508
		c-1.315,0.003-2.634,0.001-3.948,0.001C17.629,20.587,17.629,20.588,17.629,20.589z"/>
</g>
</svg>
