<?xml version="1.0" encoding="utf-8"?>
<!-- Generator: Adobe Illustrator 16.0.0, SVG Export Plug-In . SVG Version: 6.00 Build 0)  -->
<!DOCTYPE svg PUBLIC "-//W3C//DTD SVG 1.1//EN" "http://www.w3.org/Graphics/SVG/1.1/DTD/svg11.dtd">
<svg version="1.1" id="Layer_1" xmlns="http://www.w3.org/2000/svg" xmlns:xlink="http://www.w3.org/1999/xlink" x="0px" y="0px"
	 width="30px" height="30px" viewBox="0 0 30 30" enable-background="new 0 0 30 30" xml:space="preserve">
<path d="M26.346,30H3.654c-0.138,0-0.25-0.11-0.25-0.246V0.246C3.404,0.11,3.516,0,3.654,0h22.692c0.138,0,0.25,0.11,0.25,0.246
	v29.508C26.596,29.89,26.483,30,26.346,30z M3.904,29.508h22.192V0.492H3.904V29.508z"/>
<g>
	<g>
		<path fill="#FF0000" d="M9.648,4.899c0.567,0.382,0.87,0.877,0.905,1.488C10.495,7.612,9.841,8.261,8.59,8.334L4.93,8.328V1.83
			h3.45c1.096,0.065,1.673,0.702,1.735,1.912C10.095,4.321,9.938,4.706,9.648,4.899z M6.235,4.436h1.822
			c0.521-0.009,0.792-0.28,0.804-0.812C8.848,3.307,8.582,3.14,8.068,3.124H6.235V4.436z M6.235,7.314h2.124
			c0.61-0.009,0.923-0.322,0.936-0.941C9.28,5.957,8.974,5.741,8.372,5.724H6.235V7.314z"/>
		<path fill="#FF0000" d="M11.848,1.821h1.297v6.506h-1.297V1.821z"/>
		<path fill="#FF0000" d="M15.763,1.826v5.29h3.468v1.212h-4.767V1.826H15.763z"/>
		<path fill="#FF0000" d="M21.614,1.826v5.29h3.469v1.212h-4.767V1.826H21.614z"/>
	</g>
</g>
<g>
	<rect x="6.604" y="10.562" fill="#048028" width="6.305" height="0.616"/>
	<circle fill="#FF0000" cx="5.727" cy="10.835" r="0.39"/>
</g>
<g>
	<rect x="6.604" y="13.299" fill="#048028" width="11.696" height="0.616"/>
	<circle fill="#FF0000" cx="5.727" cy="13.626" r="0.39"/>
</g>
<g>
	<rect x="6.604" y="16.127" fill="#048028" width="14.943" height="0.638"/>
	<circle fill="#FF0000" cx="5.727" cy="16.418" r="0.39"/>
</g>
<g>
	<rect x="6.604" y="18.882" fill="#048028" width="18.064" height="0.615"/>
	<circle fill="#FF0000" cx="5.727" cy="19.209" r="0.39"/>
</g>
<g>
	<rect x="6.604" y="21.712" fill="#048028" width="14.943" height="0.637"/>
	<circle fill="#FF0000" cx="5.727" cy="22.001" r="0.39"/>
</g>
<g>
	<rect x="6.604" y="24.449" fill="#048028" width="11.738" height="0.637"/>
	<circle fill="#FF0000" cx="5.727" cy="24.793" r="0.39"/>
</g>
<g>
	<rect x="6.604" y="27.258" fill="#048028" width="18.064" height="0.616"/>
	<circle fill="#FF0000" cx="5.727" cy="27.586" r="0.391"/>
</g>
</svg>
