<?xml version="1.0" encoding="utf-8"?>
<!-- Generator: Adobe Illustrator 16.0.0, SVG Export Plug-In . SVG Version: 6.00 Build 0)  -->
<!DOCTYPE svg PUBLIC "-//W3C//DTD SVG 1.1//EN" "http://www.w3.org/Graphics/SVG/1.1/DTD/svg11.dtd">
<svg version="1.1" id="Layer_1" xmlns="http://www.w3.org/2000/svg" xmlns:xlink="http://www.w3.org/1999/xlink" x="0px" y="0px"
	 width="30px" height="30px" viewBox="-5 -5 30 30" enable-background="new -5 -5 30 30" xml:space="preserve">
<g>
	<path fill="#FCA800" d="M6.121,5.538c0.775,0.375,1.507,0.82,2.257,1.257c0.97,0.571,1.354,1.632,0.952,2.613
		c-0.409,1.008-1.488,1.526-2.568,1.214c-0.918-0.268-1.828-0.562-2.747-0.848L3.946,9.9c1.837,1.544,3.684,3.076,5.514,4.635
		c0.275,0.234,0.39,0.188,0.595-0.059c3.64-4.355,7.276-8.698,10.935-13.042c0.284-0.338,0.354-0.545-0.044-0.875
		c-2.159-1.775-4.298-3.577-6.434-5.386c-0.272-0.242-0.407-0.242-0.656,0.063c-0.938,1.157-1.916,2.282-2.871,3.425
		c-1.686,1.998-3.353,4.012-5.048,6C5.569,5.093,5.595,5.289,6.121,5.538z"/>
	<path fill="#048028" d="M17.116,22.7c0.167,0.258,0.375,0.214,0.618,0.187c2.077-0.195,4.154-0.395,6.34-0.6
		c-0.642-1.673-1.187-3.343-2.068-4.857c-0.706-1.213-1.679-2.033-3.152-2.187c-2.326-0.239-4.644-0.07-6.97-0.096
		c-0.671-0.009-1.116,0.553-1.099,1.184c0.018,0.645,0.48,1.116,1.16,1.134c0.917,0.028,1.828,0.009,2.745,0.009
		c0.313,0,0.615,0.062,0.624,0.428c0.018,0.431-0.34,0.396-0.624,0.396c-1.488,0-2.977-0.009-4.475,0.009
		c-0.901,0.009-1.676-0.287-2.408-0.804c-1.09-0.775-2.186-1.518-3.299-2.258c-0.659-0.436-1.339-0.355-1.749,0.161
		C2.276,16.003,2.367,16.718,3,17.277c1.132,1.011,2.266,2.016,3.426,2.997c1.106,0.938,2.344,1.518,3.851,1.471
		c1.542-0.053,3.086-0.009,4.63,0.009C15.78,21.753,16.598,21.912,17.116,22.7L17.116,22.7z"/>
	<path fill="#048028" d="M8.501,9.016C8.709,8.311,8.405,7.829,7.76,7.483C6.566,6.842,5.399,6.145,4.202,5.494
		c-0.409-0.223-0.678-0.5-0.526-0.99C3.811,4.048,4.168,3.959,4.593,3.95c0.305-0.009,0.653,0.135,0.892-0.151
		c0.901-1.062,1.786-2.123,2.738-3.265C7.697,0.429,7.315,0.338,6.931,0.276C5.414,0.036,3.927-0.383,2.365,0.08
		C0.947,0.509-0.463,0.999-1.934,1.24c-0.349,0.053-0.33,0.258-0.33,0.489v5.512c0.589-0.16,1.106-0.268,1.586-0.447
		c0.741-0.267,1.304-0.105,1.794,0.51c0.328,0.41,0.731,0.766,1.238,0.936c1.509,0.508,3.006,1.017,4.531,1.472
		C7.691,9.962,8.315,9.657,8.501,9.016L8.501,9.016z"/>
	<path fill="#048028" d="M24.546,23.219c-2.408,0.237-4.825,0.478-7.242,0.686c-0.51,0.044-0.384,0.366-0.41,0.658
		C16.867,24.918,17.028,25,17.359,25c1.175-0.018,2.353-0.009,3.53-0.009V25h2.745c1.392,0,1.427-0.044,1.269-1.436
		C24.865,23.342,24.874,23.18,24.546,23.219L24.546,23.219z"/>
	<path fill="#048028" d="M-3.869,0.508c-0.204,0.026-0.417,0.026-0.624,0C-4.922,0.464-5,0.632-4.958,1.041
		c0.231,2.329,0.456,4.664,0.634,6.993c0.037,0.464,0.258,0.456,0.596,0.473c0.445,0.028,0.51-0.196,0.51-0.563
		c-0.019-1.124-0.009-2.24-0.009-3.362c0-1.15-0.028-2.294,0.009-3.442C-3.189,0.624-3.368,0.445-3.869,0.508L-3.869,0.508z"/>
	<g>
		<path d="M8.509,3.322l3.396-3.397l0.009,0.007c0.108,0.508,0.161,0.787,0.155,0.832l-0.905,0.908
			c0.272,0.022,0.533,0.113,0.788,0.278l0.967-0.965c0.015-0.012,0.026-0.012,0.032-0.006c0.108,0.542,0.161,0.814,0.155,0.822
			l-0.63,0.628c0.155,0.182,0.275,0.463,0.363,0.844c0.044,0.431,0.015,0.771-0.091,1.017c-0.173,0.489-0.41,0.882-0.712,1.184
			l0.009,0.009c0.023,0.022,1.515,0.149,4.471,0.381l-0.899,0.899c-2.877-0.22-4.318-0.333-4.327-0.34l-0.469-0.47l-0.009-0.025
			c0.132-0.101,0.278-0.23,0.437-0.39c0.744-0.744,0.964-1.444,0.662-2.111c-0.041-0.1-0.1-0.186-0.176-0.259l-2.02,2.019
			c-0.009,0.009-0.019,0.009-0.028,0C9.585,4.639,9.536,4.362,9.542,4.357l1.601-1.603l-0.009-0.007
			c-0.275-0.095-0.597-0.062-0.965,0.098C9.917,2.972,9.717,3.112,9.568,3.262L8.67,4.158L8.651,4.141
			C8.551,3.602,8.503,3.328,8.509,3.322z"/>
	</g>
</g>
</svg>
