<?xml version="1.0" encoding="utf-8"?>
<!-- Generator: Adobe Illustrator 16.0.0, SVG Export Plug-In . SVG Version: 6.00 Build 0)  -->
<!DOCTYPE svg PUBLIC "-//W3C//DTD SVG 1.1//EN" "http://www.w3.org/Graphics/SVG/1.1/DTD/svg11.dtd">
<svg version="1.1" id="Layer_1" xmlns="http://www.w3.org/2000/svg" xmlns:xlink="http://www.w3.org/1999/xlink" x="0px" y="0px"
	 width="30px" height="30px" viewBox="0 0 30 30" enable-background="new 0 0 30 30" xml:space="preserve">
<path fill="#231F20" d="M9.498,4.257c0.252,0,0.458-0.209,0.458-0.47c0-0.259-0.206-0.469-0.458-0.469H6.41
	c-0.448,0-0.856,0.188-1.151,0.491C4.964,4.112,4.781,4.529,4.781,4.99v23.344c0,0.461,0.183,0.877,0.478,1.178
	C5.553,29.813,5.961,30,6.41,30h17.18c0.448,0,0.858-0.188,1.153-0.488c0.294-0.303,0.476-0.719,0.476-1.178V4.989
	c0-0.461-0.182-0.877-0.476-1.181c-0.293-0.303-0.705-0.491-1.153-0.491h-2.849c-0.252,0-0.459,0.21-0.459,0.469
	c0,0.258,0.207,0.47,0.459,0.47h2.849c0.196,0,0.375,0.083,0.504,0.216c0.129,0.133,0.213,0.315,0.213,0.518v23.345
	c0,0.199-0.084,0.381-0.213,0.517c-0.129,0.131-0.308,0.215-0.504,0.215H6.41c-0.196,0-0.375-0.084-0.504-0.215
	c-0.13-0.136-0.21-0.316-0.21-0.517V4.989c0-0.201,0.08-0.385,0.21-0.518C6.035,4.34,6.213,4.257,6.41,4.257H9.498z"/>
<path fill="#231F20" d="M9.5,1.835h3.451c0.083-0.457,0.299-0.863,0.605-1.178C13.951,0.25,14.499,0,15.104,0
	s1.152,0.25,1.548,0.657c0.306,0.313,0.522,0.72,0.604,1.178h3.473c0.252,0,0.457,0.209,0.457,0.469v3.555
	c0,0.258-0.205,0.469-0.457,0.469H9.5c-0.252,0-0.458-0.209-0.458-0.469V2.304C9.043,2.044,9.249,1.835,9.5,1.835L9.5,1.835z
	 M13.374,2.772H9.958V5.39h10.313V2.772h-3.438H16.82c-0.254-0.007-0.452-0.223-0.444-0.48l0,0c0-0.009,0-0.018,0-0.025l0,0V2.243
	c0-0.36-0.144-0.687-0.374-0.923c-0.23-0.235-0.549-0.382-0.901-0.382c-0.351,0-0.67,0.146-0.9,0.382
	c-0.229,0.236-0.37,0.563-0.37,0.923c0,0.013,0,0.021,0,0.026c0,0.012,0,0.021,0,0.034C13.832,2.563,13.626,2.772,13.374,2.772
	L13.374,2.772z M13.828,2.25L13.828,2.25L13.828,2.25L13.828,2.25z M16.379,2.263c0-0.021,0-0.008,0,0.003l0,0V2.263L16.379,2.263z"
	/>
<path fill="#1B3967" d="M15.57,2.151c0-0.26-0.204-0.47-0.458-0.47c-0.254,0-0.458,0.209-0.458,0.47v0.157
	c0,0.258,0.204,0.468,0.458,0.468c0.254,0,0.458-0.21,0.458-0.468V2.151z"/>
<path fill="#231F20" d="M15.045,9.152c-0.216,0-0.391,0.209-0.391,0.468c0,0.259,0.175,0.47,0.391,0.47h7.597
	c0.219,0,0.395-0.21,0.395-0.469c0-0.259-0.176-0.468-0.395-0.468L15.045,9.152L15.045,9.152z"/>
<path fill="#231F20" d="M15.045,16.423c-0.216,0-0.391,0.21-0.391,0.472c0,0.258,0.175,0.471,0.391,0.471h7.597
	c0.219,0,0.395-0.213,0.395-0.471c0-0.262-0.176-0.472-0.395-0.472H15.045z"/>
<path fill="#231F20" d="M15.045,23.699c-0.216,0-0.391,0.207-0.391,0.469c0,0.26,0.175,0.471,0.391,0.471h7.597
	c0.219,0,0.395-0.211,0.395-0.471c0-0.262-0.176-0.469-0.395-0.469H15.045z"/>
<path fill="#FCA800" d="M9.958,5.39h10.313V2.772h-3.438H16.82c-0.254-0.007-0.452-0.223-0.444-0.48l0,0c0-0.009,0-0.018,0-0.025
	l0,0V2.243c0-0.36-0.144-0.687-0.374-0.923c-0.23-0.235-0.549-0.382-0.901-0.382c-0.351,0-0.67,0.146-0.9,0.382
	c-0.229,0.236-0.37,0.563-0.37,0.923V2.27c0,0.012,0,0.021,0,0.034c0,0.259-0.205,0.47-0.458,0.47H9.958V5.39L9.958,5.39z"/>
<path fill="#FFFFFF" d="M15.57,2.31c0,0.258-0.204,0.468-0.458,0.468c-0.254,0-0.458-0.21-0.458-0.468V2.152
	c0-0.26,0.204-0.47,0.458-0.47c0.254,0,0.458,0.209,0.458,0.47V2.31z"/>
<path fill="#048028" d="M9.395,24.542l2.772-2.441c0.407-0.361,1.026-0.312,1.374,0.102c0.354,0.42,0.308,1.055-0.102,1.416
	l-3.512,3.098l-0.009,0.009c-0.413,0.356-1.028,0.305-1.376-0.121l0.003-0.002l-1.171-1.427c-0.342-0.418-0.291-1.049,0.122-1.399
	c0.41-0.358,1.026-0.304,1.368,0.12L9.395,24.542L9.395,24.542z"/>
<path fill="#048028" d="M9.395,17.454l2.772-2.44c0.407-0.361,1.026-0.312,1.374,0.102c0.354,0.42,0.308,1.055-0.102,1.416
	l-3.512,3.097l-0.009,0.009c-0.413,0.356-1.028,0.305-1.376-0.121l0.003-0.002l-1.171-1.427c-0.342-0.418-0.291-1.049,0.122-1.398
	c0.41-0.357,1.026-0.304,1.368,0.12L9.395,17.454L9.395,17.454z"/>
<path fill="#048028" d="M9.395,10.367l2.772-2.439c0.407-0.361,1.026-0.312,1.374,0.102c0.354,0.42,0.308,1.055-0.102,1.415
	L9.927,12.54l-0.009,0.009c-0.413,0.356-1.028,0.305-1.376-0.121l0.003-0.002L7.374,11c-0.342-0.418-0.291-1.049,0.122-1.398
	c0.41-0.357,1.026-0.304,1.368,0.12L9.395,10.367L9.395,10.367z"/>
</svg>
