<?xml version="1.0" encoding="utf-8"?>
<!-- Generator: Adobe Illustrator 16.0.0, SVG Export Plug-In . SVG Version: 6.00 Build 0)  -->
<!DOCTYPE svg PUBLIC "-//W3C//DTD SVG 1.1//EN" "http://www.w3.org/Graphics/SVG/1.1/DTD/svg11.dtd">
<svg version="1.1" id="Layer_1" xmlns="http://www.w3.org/2000/svg" xmlns:xlink="http://www.w3.org/1999/xlink" x="0px" y="0px"
	 width="30px" height="30px" viewBox="0 0 30 30" enable-background="new 0 0 30 30" xml:space="preserve">
<g>
	<rect fill="#FFFFFF" width="30" height="30"/>
	<ellipse opacity="0.1" fill="#1D1C56" cx="14.91" cy="27.573" rx="13.777" ry="1.172"/>
	<g>
		<polygon fill="#A64E47" points="20.19,18.481 20.303,27.576 20.725,27.573 20.838,18.468 		"/>
		<g>
			
				<linearGradient id="SVGID_1_" gradientUnits="userSpaceOnUse" x1="443.8301" y1="18.2744" x2="451.6475" y2="18.2744" gradientTransform="matrix(-1 0 0 1 471.6074 0)">
				<stop  offset="0" style="stop-color:#754B87"/>
				<stop  offset="1" style="stop-color:#3F2243"/>
			</linearGradient>
			<path fill="url(#SVGID_1_)" d="M19.96,21.555v1.62l1.141,0.153l3.691-0.427h1.55c0,0,0.214-0.973,0.309-1.433
				s1.127-5.812,1.127-5.812l-0.471-2.436l-2.135,0.088l-0.975,0.041c-0.209,0.549,0.378,1.867,0.378,1.867l-1.585,5.914
				c0,0-1.803,0.178-2.934,0.325L19.96,21.555z"/>
			<path opacity="0.35" fill="#3B1931" d="M19.96,21.555v1.62l1.141,0.153l4.014-0.427l0.857-0.091l0.581-1.909l0.842-4.878
				c0,0-0.617-0.328-1.322-1.169s-0.9-1.544-0.9-1.544l-0.975,0.041c-0.209,0.549,0.378,1.867,0.378,1.867l-1.585,5.914
				c0,0-1.803,0.178-2.934,0.325L19.96,21.555z"/>
			
				<linearGradient id="SVGID_2_" gradientUnits="userSpaceOnUse" x1="443.1953" y1="18.2754" x2="450.5059" y2="18.2754" gradientTransform="matrix(-1 0 0 1 471.6074 0)">
				<stop  offset="0" style="stop-color:#3F2243"/>
				<stop  offset="1" style="stop-color:#754B87"/>
			</linearGradient>
			<path fill="url(#SVGID_2_)" d="M28.232,13.431l-0.926-0.209c0,0-0.039,0.027-0.134,0.912c-0.095,0.886,0.222,1.89,0.222,1.89
				s-0.731,2.164-0.957,3.52c-0.226,1.354-0.427,2.956-0.427,2.956s-2.763-0.475-3.735-0.214s-1.174,1.044-1.174,1.044h5.454
				c0,0,1.739-7.04,1.835-7.739C28.485,14.89,28.232,13.431,28.232,13.431z"/>
			<g>
				<polygon fill="#3F140E" points="23.601,26.753 23.566,26.383 23.01,26.383 22.936,26.753 				"/>
				<polygon fill="#3F140E" points="24.299,23.289 24.203,23.638 22.657,23.638 22.547,23.327 				"/>
				<polygon fill="#3F140E" points="23.749,23.464 23.423,26.537 23.181,26.537 23.056,23.547 				"/>
				<path fill="#3F140E" d="M24.112,23.464c0,0,0.645,0.28,0.804,0.325c0.159,0.046,0.599,0.402,0.728,0.562
					s-0.053,0.394-0.28,0.204s-0.451-0.599-0.514-0.651c-0.063-0.054-0.802-0.364-0.802-0.364L24.112,23.464z"/>
				<polygon fill="#3F140E" points="23.331,25.896 25.545,26.419 26.258,27.146 26.057,27.102 25.355,26.806 23.288,26.537 				"/>
				<polygon fill="#3F140E" points="23.288,25.896 21.16,26.263 20.277,26.98 20.46,27.102 21.377,26.737 23.288,26.537 				"/>
				
					<linearGradient id="SVGID_3_" gradientUnits="userSpaceOnUse" x1="447.7051" y1="26.8701" x2="448.9326" y2="26.8701" gradientTransform="matrix(-1 0 0 1 471.6074 0)">
					<stop  offset="0" style="stop-color:#3F2243"/>
					<stop  offset="1" style="stop-color:#754B87"/>
				</linearGradient>
				<path fill="url(#SVGID_3_)" d="M22.675,27.177c0-0.339,0.274-0.613,0.613-0.613s0.614,0.274,0.614,0.613H22.675z"/>
				<g>
					
						<linearGradient id="SVGID_4_" gradientUnits="userSpaceOnUse" x1="445.0674" y1="27.2148" x2="446.1025" y2="27.2148" gradientTransform="matrix(-1 0 0 1 471.6074 0)">
						<stop  offset="0" style="stop-color:#754B87"/>
						<stop  offset="1" style="stop-color:#3F2243"/>
					</linearGradient>
					<path fill="url(#SVGID_4_)" d="M25.505,27.215c0,0.04,0.005,0.079,0.014,0.117h0.001c0.052,0.229,0.257,0.4,0.503,0.4
						c0.197,0,0.37-0.111,0.456-0.274c0.039-0.073,0.062-0.155,0.062-0.243c0-0.013,0-0.025-0.002-0.037
						c-0.02-0.269-0.243-0.479-0.516-0.479s-0.497,0.211-0.516,0.479C25.505,27.189,25.505,27.202,25.505,27.215z"/>
					
						<linearGradient id="SVGID_5_" gradientUnits="userSpaceOnUse" x1="445.1758" y1="27.2148" x2="445.9941" y2="27.2148" gradientTransform="matrix(-1 0 0 1 471.6074 0)">
						<stop  offset="0" style="stop-color:#3F2243"/>
						<stop  offset="1" style="stop-color:#754B87"/>
					</linearGradient>
					<circle fill="url(#SVGID_5_)" cx="26.022" cy="27.215" r="0.409"/>
					
						<linearGradient id="SVGID_6_" gradientUnits="userSpaceOnUse" x1="444.9717" y1="26.8701" x2="446.1992" y2="26.8701" gradientTransform="matrix(-1 0 0 1 471.6074 0)">
						<stop  offset="0" style="stop-color:#3F2243"/>
						<stop  offset="1" style="stop-color:#754B87"/>
					</linearGradient>
					<path fill="url(#SVGID_6_)" d="M25.408,27.177c0-0.339,0.275-0.613,0.614-0.613s0.613,0.274,0.613,0.613H25.408z"/>
					<path fill="#3B1931" d="M25.505,27.215c0,0.04,0.005,0.079,0.014,0.117h0.001l0.113,0.01l0.749,0.068h0.001l0.096,0.048
						c0.039-0.073,0.062-0.155,0.062-0.243c0-0.013,0-0.025-0.002-0.037h-1.031C25.505,27.189,25.505,27.202,25.505,27.215z"/>
				</g>
				<g>
					
						<linearGradient id="SVGID_7_" gradientUnits="userSpaceOnUse" x1="450.6455" y1="27.2148" x2="451.6807" y2="27.2148" gradientTransform="matrix(-1 0 0 1 471.6074 0)">
						<stop  offset="0" style="stop-color:#754B87"/>
						<stop  offset="1" style="stop-color:#3F2243"/>
					</linearGradient>
					<path fill="url(#SVGID_7_)" d="M19.927,27.215c0,0.04,0.005,0.079,0.014,0.117h0.001c0.052,0.229,0.258,0.4,0.503,0.4
						c0.197,0,0.37-0.111,0.457-0.274c0.039-0.073,0.061-0.155,0.061-0.243c0-0.013,0-0.025-0.002-0.037
						c-0.019-0.269-0.243-0.479-0.516-0.479s-0.496,0.211-0.516,0.479C19.927,27.189,19.927,27.202,19.927,27.215z"/>
					
						<linearGradient id="SVGID_8_" gradientUnits="userSpaceOnUse" x1="450.7539" y1="27.2148" x2="451.5723" y2="27.2148" gradientTransform="matrix(-1 0 0 1 471.6074 0)">
						<stop  offset="0" style="stop-color:#3F2243"/>
						<stop  offset="1" style="stop-color:#754B87"/>
					</linearGradient>
					<circle fill="url(#SVGID_8_)" cx="20.444" cy="27.215" r="0.409"/>
					
						<linearGradient id="SVGID_9_" gradientUnits="userSpaceOnUse" x1="450.5488" y1="26.8701" x2="451.7773" y2="26.8701" gradientTransform="matrix(-1 0 0 1 471.6074 0)">
						<stop  offset="0" style="stop-color:#3F2243"/>
						<stop  offset="1" style="stop-color:#754B87"/>
					</linearGradient>
					<path fill="url(#SVGID_9_)" d="M19.83,27.177c0-0.339,0.275-0.613,0.614-0.613s0.614,0.274,0.614,0.613H19.83z"/>
					<path fill="#3B1931" d="M19.927,27.215c0,0.04,0.005,0.079,0.014,0.117h0.001l0.113,0.01l0.749,0.068h0.001l0.097,0.048
						c0.039-0.073,0.061-0.155,0.061-0.243c0-0.013,0-0.025-0.002-0.037h-1.031C19.927,27.189,19.927,27.202,19.927,27.215z"/>
				</g>
				
					<linearGradient id="SVGID_10_" gradientUnits="userSpaceOnUse" x1="447.8584" y1="27.4551" x2="448.8135" y2="27.4551" gradientTransform="matrix(-1 0 0 1 471.6074 0)">
					<stop  offset="0" style="stop-color:#754B87"/>
					<stop  offset="1" style="stop-color:#3F2243"/>
				</linearGradient>
				<polygon fill="url(#SVGID_10_)" points="23.749,27.177 23.635,27.732 22.9,27.732 22.794,27.177 				"/>
				<polygon fill="#3B1931" points="23.701,27.408 22.831,27.373 22.794,27.177 23.749,27.177 				"/>
			</g>
		</g>
		<polygon fill="#A64E47" points="5.474,18.481 5.248,27.574 4.826,27.571 4.826,18.468 		"/>
		<g>
			<polygon fill="#CA725C" points="21.956,17.366 3.761,17.366 3.761,17.938 21.956,18.296 			"/>
			<polygon fill="#3F140E" points="3.761,17.938 3.761,18.104 21.956,18.481 21.956,18.296 			"/>
			<polygon fill="#CA725C" points="4.054,18.109 4.341,28.093 4.727,28.114 4.9,18.57 20.812,18.596 20.962,28.114 21.379,28.095 
				21.704,18.468 			"/>
			<polygon fill="#3F140E" points="20.962,28.114 20.812,18.596 20.71,18.596 20.911,28.114 			"/>
			<polygon fill="#3F140E" points="4.9,18.57 20.812,18.596 20.812,18.675 4.896,18.84 			"/>
		</g>
		<g>
			<g>
				<linearGradient id="SVGID_11_" gradientUnits="userSpaceOnUse" x1="13.6533" y1="15.6104" x2="19.3809" y2="15.6104">
					<stop  offset="0" style="stop-color:#DFF2F9"/>
					<stop  offset="1" style="stop-color:#8391C5"/>
				</linearGradient>
				<path fill="url(#SVGID_11_)" d="M17.96,13.84l-4.063,0.124c-0.17,0.005-0.286,0.175-0.229,0.335l1.033,2.909
					c0.035,0.1,0.13,0.167,0.236,0.167l4.192,0.006c0.176,0.001,0.298-0.176,0.234-0.341l-1.161-3.039
					C18.164,13.901,18.067,13.836,17.96,13.84z"/>
				<path fill="#FFFFFF" d="M15.97,15.656c0.022,0.006,0.045,0.009,0.068,0.004c0.087-0.018,0.145-0.116,0.151-0.24
					c0.091,0.026,0.174,0.132,0.201,0.274c0.035,0.177-0.029,0.339-0.144,0.362c-0.114,0.022-0.234-0.102-0.269-0.279
					C15.97,15.735,15.967,15.694,15.97,15.656z"/>
			</g>
			<path fill="#481421" d="M19.295,17.29c0.033-0.029,0.065-0.094,0.057-0.125l-1.203-3.148c-0.031-0.081-0.109-0.134-0.196-0.132
				l-4.085,0.083l4.051-0.196c0.162-0.007,0.311,0.09,0.368,0.242l1.223,3.182l1.453,0.082v0.112h-1.503H14.84l-0.004-0.059
				l4.325,0.013C19.209,17.344,19.259,17.321,19.295,17.29z"/>
		</g>
	</g>
	<g>
		<g>
			<path fill="#00B694" d="M26.43,6.849c0,1.435-0.618,2.725-1.603,3.618c-0.218,0.199-0.455,0.377-0.706,0.533
				c-0.156,0.098-0.319,0.186-0.486,0.266c-0.246,0.116-0.503,0.213-0.77,0.287c-0.06,0.017-0.12,0.033-0.181,0.047
				c-0.109,0.026-0.221,0.049-0.333,0.066c-0.263,0.044-0.531,0.067-0.806,0.067c-0.022,0-0.046,0-0.068,0h-0.001
				c-0.36-0.005-0.711-0.049-1.049-0.129c-0.001,0-0.002,0-0.002,0c-0.062-0.014-0.121-0.029-0.181-0.045
				c-0.071-0.02-0.143-0.041-0.213-0.064l-0.638,0.021l-0.073,0.002l-1.382,0.045L16.826,11.6l1.12-1.451l0.003,0.002
				c-0.799-0.869-1.287-2.029-1.287-3.302c0-2.697,2.186-4.884,4.884-4.884S26.43,4.152,26.43,6.849z"/>
			
				<ellipse transform="matrix(0.9931 0.1176 -0.1176 0.9931 0.8842 -2.3252)" fill="#20386D" cx="20.146" cy="6.33" rx="0.598" ry="0.876"/>
			
				<ellipse transform="matrix(0.993 0.1179 -0.1179 0.993 0.8891 -2.343)" fill="#091435" cx="20.244" cy="6.342" rx="0.472" ry="0.691"/>
			<path fill="#D25A27" d="M21.791,7.242c0,0,0.094,0.563,0.141,0.609s0.413,0.15,0.413,0.15s-0.434,0.266-0.799,0.349
				c-0.364,0.083-1.002-0.034-1.002-0.034s0.429-0.246,0.497-0.327c0.061-0.07,0.019-0.278,0.019-0.278L21.791,7.242z"/>
			<g>
				<path fill="#57110C" d="M19.141,5.095c0,0,0.443-0.225,0.477-0.224C19.649,4.872,19.85,4.42,19.85,4.42s-0.53,0.346-0.591,0.466
					S19.141,5.095,19.141,5.095z"/>
				
					<linearGradient id="SVGID_12_" gradientUnits="userSpaceOnUse" x1="-5.8013" y1="-21.5605" x2="-5.8013" y2="-25.4614" gradientTransform="matrix(0.9644 -0.2645 0.2645 0.9644 32.8711 26.9092)">
					<stop  offset="0" style="stop-color:#FDC48C"/>
					<stop  offset="1" style="stop-color:#F8A37F"/>
				</linearGradient>
				<path fill="url(#SVGID_12_)" d="M22.375,6.515c-0.088,0.293-0.718,0.993-0.86,1.125s-1.016,0.201-1.153,0.123
					c-0.022-0.012-0.05-0.047-0.08-0.097c-0.155-0.258-0.39-0.925-0.436-1.044c-0.054-0.143,0.031-0.425,0.056-0.563
					c0.018-0.101-0.161-0.734-0.239-1.121c-0.029-0.144-0.044-0.253-0.031-0.288c0.051-0.127,0.298-0.64,0.772-0.719
					c0.476-0.078,1.331,0.06,1.626,0.382C22.324,4.636,22.482,6.156,22.375,6.515z"/>
				<path fill="#FFFFFF" d="M20.427,5.655c0,0-0.288-0.269-0.419-0.206s-0.087,0.337-0.087,0.337s0.071-0.014,0.18-0.042
					C20.209,5.717,20.427,5.655,20.427,5.655z"/>
				<path fill="#FFFFFF" d="M21.022,5.505c0,0,0.065,0.02,0.228,0.005s0.391-0.088,0.391-0.088S21.339,5.11,21.21,5.145
					C21.081,5.18,21.022,5.505,21.022,5.505z"/>
				<path fill="#57110C" d="M21.08,4.822l-0.09-0.327l0.103,0.147l0.063-0.174c0,0,0.215,0.072,0.424,0.216
					c0.188,0.129,0.271,0.284,0.271,0.284l-0.045,0.104c0,0-0.2-0.105-0.457-0.184C21.207,4.846,21.08,4.822,21.08,4.822z"/>
				<path fill="#57110C" d="M20.2,5.084l-0.069-0.393l-0.036,0.168l-0.089-0.134c0,0-0.105,0.086-0.252,0.287
					c-0.146,0.199-0.14,0.379-0.14,0.379l0.104,0.08C19.718,5.472,19.983,5.21,20.2,5.084z"/>
				<path fill="#57110C" d="M21.093,5.512l-0.07-0.006c0,0-0.04-0.384,0.134-0.438c0.174-0.055,0.484,0.355,0.484,0.355
					s-0.314-0.31-0.46-0.245C21.094,5.216,21.093,5.512,21.093,5.512z"/>
				
					<ellipse transform="matrix(0.9622 -0.2722 0.2722 0.9622 -0.6509 5.9821)" fill="#57110C" cx="21.235" cy="5.337" rx="0.116" ry="0.192"/>
				
					<ellipse transform="matrix(0.9643 -0.2647 0.2647 0.9643 -0.7627 5.5051)" fill="#57110C" cx="20.044" cy="5.583" rx="0.103" ry="0.171"/>
				<path fill="#57110C" d="M20.427,5.655c0,0-0.235-0.354-0.422-0.293c-0.217,0.071-0.117,0.434-0.117,0.434l0.072-0.02
					c0,0-0.081-0.271,0.053-0.308C20.184,5.421,20.427,5.655,20.427,5.655z"/>
				<polygon fill="#FFFFFF" points="20.29,5.596 20.05,5.581 20.211,5.655 				"/>
				<polygon fill="#FFFFFF" points="21.471,5.374 21.228,5.339 21.396,5.414 				"/>
				<path fill="#57110C" d="M20.155,6.656L20.2,6.692c0,0,0.365,0.354,0.548,0.371c0.396,0.036,0.612-0.308,0.696-0.479
					c0.102-0.208,0.237-0.328,0.237-0.328L21.64,6.217c0,0-0.255,0.159-0.794,0.322C20.568,6.623,20.155,6.656,20.155,6.656z"/>
				<path fill="#57110C" d="M21.547,6.155c0,0,0.112,0.061,0.158,0.112c0.047,0.051,0.086,0.11,0.086,0.11s-0.091-0.068-0.173-0.11
					C21.537,6.224,21.547,6.155,21.547,6.155z"/>
				<path fill="#E1794E" d="M21.04,6.063c0,0-0.154,0.115-0.307,0.183c-0.152,0.068-0.279,0.038-0.279,0.038
					s0.126,0.139,0.228,0.124c0.103-0.015,0.212-0.19,0.212-0.19s0.048,0.051,0.103,0.016C21.052,6.198,21.04,6.063,21.04,6.063z"/>
				<path fill="#E1794E" d="M21.576,5.363c0,0-0.17-0.03-0.316,0.014c-0.146,0.044-0.237,0.129-0.237,0.129s0.17,0.033,0.308,0.016
					c0.137-0.018,0.311-0.099,0.311-0.099L21.576,5.363z"/>
				<path fill="#E1794E" d="M19.884,5.782c0,0,0.078-0.099,0.202-0.127s0.341,0,0.341,0s-0.179,0.087-0.312,0.143
					c-0.148,0.062-0.223,0.08-0.223,0.08L19.884,5.782z"/>
				<path fill="#E1794E" d="M22.375,6.515c-0.088,0.293-0.718,0.993-0.86,1.125s-1.016,0.201-1.153,0.123
					c-0.022-0.012-0.05-0.047-0.08-0.097c0,0,0.794-0.106,0.993-0.229c0.199-0.122,0.931-0.826,1-1.268
					c0.07-0.441-0.302-1.34-0.541-1.631c-0.239-0.292-0.911-0.366-1.44-0.221c-0.466,0.128-0.604,0.526-0.631,0.62
					c-0.029-0.144-0.044-0.253-0.031-0.288c0.051-0.127,0.298-0.64,0.772-0.719c0.476-0.078,1.331,0.06,1.626,0.382
					C22.324,4.636,22.482,6.156,22.375,6.515z"/>
				<path fill="#E1794E" d="M23.305,5.303c-0.008,0.176-0.063,0.406-0.139,0.552c-0.124,0.245-0.558,0.492-0.662,0.5
					c-0.043,0.003-0.076-0.01-0.101-0.027l-0.001,0c-0.035-0.024-0.053-0.054-0.053-0.054l-0.005-0.499c0,0,0.146-0.269,0.359-0.457
					c0.212-0.188,0.499-0.288,0.546-0.256C23.295,5.093,23.311,5.186,23.305,5.303z"/>
				<path fill="#D25A27" d="M23.305,5.303c-0.008,0.176-0.063,0.406-0.139,0.552c-0.124,0.245-0.558,0.492-0.662,0.5
					c-0.043,0.003-0.076-0.01-0.101-0.027l-0.001,0l0.004-0.321c0,0,0.232-0.361,0.497-0.527C23.058,5.383,23.207,5.33,23.305,5.303
					z"/>
				
					<linearGradient id="SVGID_13_" gradientUnits="userSpaceOnUse" x1="-7.4727" y1="-24.6895" x2="-3.5518" y2="-24.6895" gradientTransform="matrix(0.9644 -0.2645 0.2645 0.9644 32.8711 26.9092)">
					<stop  offset="0" style="stop-color:#7E1932"/>
					<stop  offset="1" style="stop-color:#5A0E0E"/>
				</linearGradient>
				<path fill="url(#SVGID_13_)" d="M22.861,3.837c0.087,0.317-0.219,1.54-0.219,1.54c-0.191,0.245-0.24,0.56-0.24,0.56l-0.1,0.027
					c0,0-0.052-1.184-0.234-1.47c-0.182-0.287-0.759-0.608-1.411-0.459c-0.859,0.197-1.517,1.061-1.517,1.061l0.106-0.588
					l0.091-0.501l-0.347,0.168c0,0,0.149-0.29,0.478-0.607s0.803-0.665,1.578-0.723c0.2-0.015,0.464,0.058,0.728,0.173
					C22.288,3.242,22.804,3.627,22.861,3.837z"/>
				<path fill="#57110C" d="M21.839,4.262c0,0-0.525-0.663-1.187-0.668c-0.66-0.005-1.334,0.521-1.334,0.521L19.29,4.272
					c0,0,0.609-0.481,1.127-0.54C21.19,3.645,21.839,4.262,21.839,4.262z"/>
				<path fill="#57110C" d="M20.087,3.11c0,0,0.733-0.136,1.285,0.264c0.552,0.399,0.639,1.043,0.639,1.043
					s-0.089-0.666-0.526-1.059c-0.438-0.392-0.979-0.417-0.979-0.417L20.087,3.11z"/>
				<path fill="#57110C" d="M22.328,3.32c0,0,0.039,0.358,0,0.738c-0.04,0.379-0.181,0.639-0.181,0.639s0.219-0.413,0.282-0.636
					c0.063-0.223,0.051-0.634,0.051-0.634L22.328,3.32z"/>
				<path fill="#57110C" d="M22.184,4.851c0,0,0.244-0.041,0.395-0.032c0.151,0.009,0.181,0.036,0.181,0.036l0.053-0.278
					c0,0-0.387,0.174-0.473,0.199C22.252,4.8,22.184,4.851,22.184,4.851z"/>
				<path fill="#57110C" d="M22.226,5.103c0,0,0.104,0.011,0.281,0.059c0.176,0.047,0.176,0.047,0.176,0.047l-0.027,0.156
					L22.226,5.103z"/>
				<path opacity="0.2" fill="#B26586" d="M21.774,3.018c-0.332,0.276-0.859,0.683-1.312,0.879c-0.459,0.199-0.931,0.451-1.216,0.61
					l0.091-0.501l-0.347,0.168c0,0,0.149-0.29,0.478-0.607s0.803-0.665,1.578-0.723C21.247,2.829,21.511,2.902,21.774,3.018z"/>
			</g>
			
				<ellipse transform="matrix(0.993 0.118 -0.118 0.993 0.8421 -2.6536)" fill="#20386D" cx="22.83" cy="5.784" rx="0.598" ry="0.876"/>
			
				<ellipse transform="matrix(0.993 0.1179 -0.1179 0.993 0.8434 -2.6632)" fill="#091435" cx="22.928" cy="5.796" rx="0.472" ry="0.691"/>
			<path fill="#20386D" d="M22.934,4.915l-0.251,0.047l-0.001-0.002c-0.016-0.051-0.426-1.353-0.907-1.715
				c-0.63-0.475-1.14-0.338-1.14-0.338s0.149-0.078,0.27-0.129h0.001c0.046-0.02,0.087-0.034,0.113-0.04
				c0.099-0.019,0.897-0.003,1.326,0.319c0.371,0.279,0.517,0.457,0.583,0.918C22.994,4.438,22.934,4.915,22.934,4.915z"/>
			<path fill="#091435" d="M22.77,4.926l-0.087,0.036l-0.001-0.002c-0.016-0.051-0.426-1.353-0.907-1.715
				c-0.63-0.475-1.14-0.338-1.14-0.338s0.149-0.078,0.27-0.129h0.001c0.348,0.015,1.118,0.276,1.242,0.47
				C22.272,3.441,22.77,4.926,22.77,4.926z"/>
			<path fill="#20386D" d="M21.471,6.962l0.011-0.01l0.064-0.063c0,0,0.199-0.12,0.514-0.267c0.315-0.146,0.794-0.746,0.794-0.746
				s-0.307,0.553-0.68,0.806C21.801,6.937,21.471,6.962,21.471,6.962z"/>
			<path fill="#091435" d="M22.877,5.878c0,0-0.38,0.595-0.805,0.82c-0.379,0.201-0.602,0.265-0.602,0.265l0.075,0.2
				c0,0,0.24-0.054,0.56-0.228c0.318-0.173,0.771-0.871,0.771-0.871V5.878z"/>
			<path fill="#831618" d="M20.798,8.162l-1.403,3.353l-0.073,0.002l-1.382,0.045c0.113-0.505,0.608-2.395,0.754-2.582
				c0.207-0.262,0.914-0.444,1.171-0.512c0.335-0.088,0.805-0.26,0.914-0.3c0.004-0.001,0.007-0.002,0.01-0.004
				C20.791,8.164,20.794,8.163,20.798,8.162L20.798,8.162z"/>
			<path fill="#831618" d="M19.435,11.255c0.011-0.159,0.05-0.66,0.149-1.161c0.067-0.345,0.164-0.689,0.3-0.921
				c0.228-0.391,0.52-0.682,0.712-0.85c0.108-0.092,0.185-0.147,0.203-0.161c0.001,0,0.003-0.001,0.004-0.002L19.435,11.255z"/>
			<linearGradient id="SVGID_14_" gradientUnits="userSpaceOnUse" x1="19.3213" y1="9.8672" x2="24.8271" y2="9.8672">
				<stop  offset="0" style="stop-color:#CA2027"/>
				<stop  offset="1" style="stop-color:#A71E22"/>
			</linearGradient>
			<path fill="url(#SVGID_14_)" d="M24.827,10.467c-0.218,0.199-0.455,0.377-0.706,0.533c-0.156,0.098-0.319,0.186-0.486,0.266
				c-0.246,0.116-0.503,0.213-0.77,0.287c-0.06,0.017-0.12,0.033-0.181,0.047c-0.109,0.026-0.221,0.049-0.333,0.066
				c-0.263,0.044-0.531,0.067-0.806,0.067c-0.022,0-0.046,0-0.068,0h-0.001c-0.36-0.005-0.711-0.049-1.049-0.129
				c-0.001,0-0.002,0-0.002,0c-0.058-0.02-0.116-0.035-0.181-0.045c-0.071-0.02-0.143-0.041-0.213-0.064l-0.638,0.021l-0.073,0.002
				c0.029-0.362,0.083-1.042,0.132-1.369c0.03-0.197,0.063-0.381,0.097-0.517c0.007-0.028,0.016-0.056,0.024-0.084
				c0.008-0.029,0.018-0.057,0.029-0.085c0.035-0.096,0.08-0.191,0.133-0.285c0.021-0.038,0.043-0.075,0.066-0.111
				c0.023-0.038,0.048-0.074,0.073-0.11c0.02-0.026,0.038-0.052,0.058-0.079c0.047-0.062,0.098-0.123,0.149-0.18
				c0.02-0.022,0.041-0.045,0.062-0.066c0.07-0.073,0.143-0.141,0.217-0.201c0.031-0.025,0.062-0.049,0.094-0.072
				c0.099-0.074,0.2-0.134,0.299-0.178c0.008-0.004,0.017-0.008,0.024-0.011c0.004-0.001,0.007-0.002,0.01-0.004
				c0.003-0.001,0.006-0.002,0.009-0.003h0.001c0.002-0.001,0.003-0.001,0.005-0.002c0,0,0.001,0.001,0.001,0.004
				c0.006,0.017,0.031,0.092,0.069,0.196v0c0.009,0.021,0.017,0.043,0.024,0.067c0.035,0.092,0.076,0.197,0.121,0.301v0.001
				c0.007,0.014,0.013,0.028,0.019,0.042s0.013,0.027,0.019,0.04c0.015,0.033,0.029,0.065,0.046,0.097
				c0.016,0.032,0.031,0.063,0.047,0.091c0.006,0.011,0.013,0.022,0.019,0.034c0.019,0.033,0.038,0.063,0.057,0.089
				c0.006,0.008,0.012,0.018,0.018,0.025c0.006,0.008,0.013,0.016,0.019,0.022c0.007,0.008,0.014,0.016,0.021,0.023
				c0.004,0.005,0.009,0.01,0.015,0.013c0.012,0.01,0.022,0.018,0.033,0.023c0.009,0.004,0.018,0.006,0.027,0.006
				c0.004,0,0.008,0,0.013-0.001c0.007-0.001,0.015-0.004,0.023-0.007c0.003,0,0.007-0.002,0.011-0.004
				c0.021-0.01,0.044-0.025,0.068-0.044c0.008-0.006,0.016-0.013,0.024-0.02c0.064-0.057,0.14-0.14,0.217-0.236
				c0.03-0.037,0.061-0.076,0.09-0.116l0.003-0.004l0.003-0.003v0c0.032-0.042,0.063-0.085,0.095-0.129
				c0.02-0.027,0.038-0.054,0.058-0.081c0.02-0.029,0.04-0.058,0.059-0.086c0.007-0.01,0.014-0.02,0.02-0.028
				c0.059-0.085,0.11-0.165,0.156-0.236c0.009-0.014,0.019-0.027,0.026-0.041c0.028-0.045,0.054-0.085,0.073-0.117
				c0.006-0.008,0.01-0.016,0.015-0.022c0.001-0.002,0.002-0.004,0.004-0.005c0.003-0.007,0.007-0.014,0.011-0.019
				c0.001-0.002,0.002-0.003,0.003-0.004c0.003-0.006,0.006-0.011,0.008-0.014L22.34,8.01c0-0.001,0-0.002,0.001-0.003l0.002-0.002
				l0.001-0.003L22.345,8l0.021,0.007l0.019,0.006c0.012,0.003,0.025,0.007,0.041,0.012l0.005,0.001
				c0.013,0.004,0.025,0.008,0.039,0.012c0.014,0.004,0.028,0.009,0.044,0.013c0.015,0.005,0.031,0.01,0.048,0.015
				c0.011,0.003,0.021,0.006,0.031,0.009c0.009,0.003,0.019,0.006,0.028,0.008c0.01,0.003,0.019,0.005,0.027,0.008
				c0.03,0.009,0.062,0.018,0.092,0.026l0.02,0.005c0.017,0.005,0.032,0.01,0.048,0.013c0.013,0.004,0.025,0.008,0.037,0.011
				c0.038,0.01,0.074,0.02,0.109,0.028c0.022,0.006,0.045,0.011,0.067,0.017c0.021,0.005,0.041,0.01,0.06,0.014
				c0.021,0.004,0.044,0.008,0.067,0.012c0.097,0.014,0.215,0.023,0.349,0.05c0.023,0.005,0.048,0.01,0.072,0.016
				c0.024,0.006,0.051,0.013,0.076,0.02c0.011,0.003,0.022,0.006,0.033,0.01c0.063,0.02,0.129,0.045,0.196,0.077
				c0.012,0.005,0.022,0.01,0.032,0.016c0.104,0.052,0.214,0.12,0.324,0.211c0.216,0.176,0.372,0.689,0.479,1.198
				C24.76,10.044,24.798,10.271,24.827,10.467z"/>
			<path opacity="0.5" fill="#831618" d="M24.711,9.817c-0.182,0.006-0.557,0.004-0.988-0.083c-0.609-0.124-1.95-0.101-3.179,0.115
				c-0.555,0.098-0.89,0.208-1.09,0.301c0.029-0.196,0.063-0.381,0.097-0.517c0.149-0.6,0.735-1.27,1.252-1.472
				c0,0,0.319,0.966,0.526,1.068c0.209,0.104,1.016-1.228,1.016-1.228s0.493,0.156,0.736,0.206c0.244,0.05,0.676,0.021,1.151,0.411
				C24.447,8.794,24.604,9.308,24.711,9.817z"/>
			<path opacity="0.5" fill="#831618" d="M23.14,9.37L23.14,9.37l-0.037,0.298l-0.237,1.885c-0.06,0.018-0.12,0.033-0.181,0.047
				c-0.109,0.026-0.221,0.049-0.333,0.067c0-0.222-0.026-0.683-0.178-1.472c-0.038-0.2-0.073-0.372-0.107-0.519
				c-0.061-0.271-0.112-0.46-0.152-0.591c-0.034-0.107-0.061-0.175-0.079-0.217c-0.021-0.047-0.031-0.062-0.031-0.062l0.002-0.004
				l0.003-0.004l0.534-0.794l0.001-0.003l0.001-0.001l0.022,0.007l0.103,0.031l0.271,0.081l0.019,0.005l0.013,0.043l0.115,0.378
				l0.001,0.002l0.007,0.021l0.031,0.102L23.14,9.37z"/>
			<linearGradient id="SVGID_15_" gradientUnits="userSpaceOnUse" x1="23.1631" y1="8.6245" x2="22.4088" y2="5.8745">
				<stop  offset="0" style="stop-color:#FDC48C"/>
				<stop  offset="1" style="stop-color:#F8A37F"/>
			</linearGradient>
			<path fill="url(#SVGID_15_)" d="M23.302,7.521c-0.013,0.123-0.025,0.226-0.036,0.287c-0.032,0.179-0.155,0.529-0.218,0.703
				c-0.023,0.064-0.038,0.104-0.038,0.104s-0.232,0.2-0.432,0.09c0,0,0.005-0.046,0.008-0.106c0.003-0.073,0.004-0.166-0.008-0.212
				c-0.005-0.021-0.014-0.04-0.022-0.059v0c-0.029-0.059-0.07-0.115-0.09-0.2c-0.024-0.112,0.171-0.594,0.163-0.638
				c-0.007-0.044-0.156-0.112-0.194-0.087c-0.037,0.024,0.007,0.262-0.087,0.318c-0.094,0.057-0.187,0.025-0.187,0.025
				s0.036-0.637,0.111-0.725s0.188-0.075,0.188-0.075s0.059-0.113,0.17-0.131s0.111-0.019,0.111-0.019s0.068-0.044,0.125-0.075
				c0.017-0.009,0.042-0.011,0.07-0.007c0.069,0.006,0.154,0.038,0.154,0.038s-0.01-0.256-0.033-0.356
				c-0.005-0.019-0.013-0.047-0.023-0.083V6.311c-0.047-0.156-0.139-0.437-0.118-0.503c0.025-0.081,0.12-0.099,0.142-0.112
				c0.021-0.014,0.252,0.707,0.289,0.822C23.375,6.604,23.34,7.152,23.302,7.521z"/>
			<path fill="#A6DAEC" d="M21.018,8.737c0,0,0.174,0.576,0.38,0.554s0.44-0.428,0.44-0.428l-0.41-0.891h-0.259L21.018,8.737z"/>
			<path fill="#BBE3E4" d="M20.803,8.16l0.215-0.315l0.305,0.081c0,0-0.278,0.981-0.385,0.994C20.832,8.932,20.803,8.16,20.803,8.16
				z"/>
			<path fill="#BBE3E4" d="M21.322,7.926l0.604-0.244l0.419,0.319c0,0-0.381,1.125-0.484,1.144
				C21.757,9.164,21.322,7.926,21.322,7.926z"/>
			<path fill="#E9F6F8" d="M21.471,8.301c0,0,0.076-0.314,0.166-0.375c0.089-0.061,0.351-0.196,0.351-0.196l-0.062-0.047
				l-0.604,0.244l-0.305-0.081l-0.062,0.09l0.297,0.225l0.069-0.159L21.471,8.301z"/>
			<path fill="#E1794E" d="M22.294,6.999c0,0,0.507,0.04,0.56,0.055s0.074,0.2,0.074,0.2s0.02-0.216,0-0.242
				c-0.019-0.025-0.468-0.066-0.468-0.066S22.334,6.943,22.294,6.999z"/>
			<path fill="#E1794E" d="M22.658,6.809c0,0,0.396,0.06,0.438,0.085c0.042,0.026,0.043,0.169,0.043,0.169s0.001-0.183-0.015-0.202
				c-0.017-0.019-0.384-0.066-0.384-0.066L22.658,6.809z"/>
			<path fill="#E1794E" d="M23.305,6.891c-0.006-0.016-0.029-0.081-0.069-0.095c-0.048-0.018-0.299-0.083-0.299-0.083
				c0.069,0.006,0.154,0.038,0.154,0.038s-0.01-0.256-0.033-0.356c-0.005-0.019-0.013-0.047-0.023-0.083
				c0,0,0.048,0.093,0.055,0.108c0.007,0.016,0.122,0.2,0.157,0.245C23.278,6.706,23.301,6.865,23.305,6.891z"/>
			<path fill="#E1794E" d="M23.302,7.521c-0.013,0.123-0.025,0.226-0.036,0.287c-0.032,0.179-0.155,0.529-0.218,0.703l-0.314,0.122
				l-0.147-0.034c0.003-0.073,0.004-0.166-0.008-0.212c-0.005-0.021-0.014-0.04-0.022-0.059v0c0,0,0.336-0.212,0.538-0.482
				C23.195,7.71,23.262,7.6,23.302,7.521z"/>
			<linearGradient id="SVGID_16_" gradientUnits="userSpaceOnUse" x1="22.5313" y1="10.0518" x2="24.1211" y2="10.0518">
				<stop  offset="0" style="stop-color:#CA2027"/>
				<stop  offset="1" style="stop-color:#A71E22"/>
			</linearGradient>
			<path fill="url(#SVGID_16_)" d="M24.121,11c-0.156,0.098-0.318,0.186-0.486,0.266c-0.246,0.116-0.503,0.213-0.77,0.287
				c-0.06,0.018-0.12,0.033-0.181,0.047c-0.046-0.567-0.085-1.324-0.111-1.941c-0.026-0.62-0.042-1.096-0.042-1.096
				s0.021,0.006,0.056,0.01c0.058,0.01,0.155,0.018,0.243-0.01c0.021-0.007,0.04-0.012,0.058-0.018
				c0.075-0.021,0.127-0.034,0.15-0.039l0.009-0.002l0.004-0.001l0.002,0.005c0.025,0.059,0.259,0.608,0.512,1.198
				c0.208,0.485,0.428,0.999,0.555,1.29C24.12,10.998,24.12,10.999,24.121,11z"/>
			<path fill="#831618" d="M23.635,11.266c0.013-0.27-0.014-0.56-0.109-0.837c-0.082-0.237-0.178-0.501-0.271-0.753
				c-0.038-0.105-0.077-0.207-0.114-0.305V9.37c-0.107-0.286-0.203-0.532-0.259-0.675c-0.018-0.046-0.031-0.081-0.04-0.104
				c-0.007-0.018-0.011-0.028-0.011-0.028l0.059-0.016l0.149-0.042l0.009-0.002l0.004-0.001l0.002,0.005
				c0.025,0.059,0.259,0.608,0.512,1.198c0.208,0.485,0.428,0.999,0.555,1.29c0.001,0.001,0.001,0.002,0.002,0.003
				C23.965,11.098,23.803,11.186,23.635,11.266z"/>
		</g>
		<g>
			<circle fill="#00B694" cx="15.413" cy="11.267" r="0.363"/>
			<circle fill="#00B694" cx="13.2" cy="11.267" r="0.363"/>
			<circle fill="#00B694" cx="10.987" cy="11.267" r="0.363"/>
		</g>
	</g>
	<path fill="#FFFFFF" d="M20.311,6.68c0,0,0.271-0.026,0.596-0.112c0.325-0.087,0.687-0.286,0.687-0.286s-0.179,0.191-0.22,0.239
		c-0.141,0.162-0.581,0.267-0.749,0.275S20.311,6.68,20.311,6.68z"/>
	<path fill="#FFFFFF" d="M20.798,7.038l-0.014-0.047c0,0,0.177-0.036,0.296-0.097c0.118-0.061,0.199-0.126,0.199-0.126
		s-0.097,0.172-0.247,0.222C20.881,7.039,20.798,7.038,20.798,7.038z"/>
	<g>
		<path fill="#E1794E" d="M7.671,26.79c0,0,0.071,0.513,0.119,0.662c0.075,0.234,0.247,0.476,0.347,0.551
			c0.1,0.075-0.312,0.385-0.312,0.385s-0.242-0.448-0.404-0.579c-0.162-0.131-0.106-0.256-0.262-0.438s-0.225-0.229-0.225-0.229
			l0.318-0.422L7.671,26.79z"/>
		<path fill="#981B1E" d="M7.098,26.907c0,0-0.271,0.389-0.271,0.517c0,0.129,0.153,1.016,0.153,1.016h0.052l0.06-0.794
			c0,0,0.026,0.122,0.083,0.248c0.058,0.127,0.194,0.508,0.349,0.569c0.154,0.061,1.17,0.025,1.219-0.043
			c0.06-0.084-0.671-0.479-0.671-0.479s-0.252,0.137-0.43,0.066c-0.178-0.07-0.3-0.487-0.394-0.685
			C7.154,27.127,7.098,26.907,7.098,26.907z"/>
		<path fill="#951A23" d="M5.155,11.922c0,0,0.567-0.37,0.561-0.782c-0.006-0.413,0.801,1.362,0.901,1.137s0.956,0.107,1.165,0.02
			c0.209-0.087-0.043-3.269,0.255-3.281c0.297-0.012,0.585,0.6,0.71,1.2s0,1.337,0,1.337l0.363,0.025c0,0,0.487-1.262,0.425-1.925
			s-0.337-1.628-0.5-2.17c-0.163-0.542-0.438-1.63-0.438-1.63L7.897,5.217L5.859,4.902L4.671,7.643l0.238,3.234L5.155,11.922z"/>
		<path fill="#E1794E" d="M8.771,9.971C8.763,9.955,8.696,9.752,8.528,9.752c-0.181,0-0.663,0.431-0.961,0.497
			c-0.298,0.066-2.118,0.131-2.118,0.131S5.375,9.452,5.465,9.25c0.09-0.203,0.52-0.248,0.623-0.267
			c0.055-0.01,0.197-0.054,0.317-0.104c0.108-0.044,0.199-0.095,0.195-0.13C6.594,8.692,6.583,8.528,6.578,8.452
			c-0.001-0.024-0.002-0.04-0.002-0.04l0.529,0.229c0,0,0.001,0.018,0.008,0.042C7.121,8.705,7.13,8.729,7.147,8.75
			c0.009,0.011,0.02,0.021,0.033,0.028c0.065,0.033,0.569,0.089,0.695,0.104c0.126,0.014,0.511,0.096,0.603,0.178
			C8.74,9.291,8.755,9.917,8.771,9.971z"/>
		<linearGradient id="SVGID_17_" gradientUnits="userSpaceOnUse" x1="9.894" y1="17.9287" x2="9.894" y2="11.2549">
			<stop  offset="0" style="stop-color:#FDC48C"/>
			<stop  offset="1" style="stop-color:#F8A37F"/>
		</linearGradient>
		<path fill="url(#SVGID_17_)" d="M11.428,17.225c0.009,0.046-0.258,0.004-0.483-0.1c-0.133-0.061-0.277-0.037-0.277-0.037
			s0.252,0.111,0.389,0.249s0.255,0.281,0.244,0.351c-0.011,0.07-0.062,0.033-0.078,0.021c0.014,0.015,0.053,0.06-0.037,0.069
			c-0.061,0.007-0.293-0.211-0.443-0.314c-0.15-0.103-0.422-0.178-0.422-0.178s0.244,0.159,0.389,0.271
			c0.146,0.112,0.229,0.287,0.208,0.308c-0.032,0.033-0.154-0.047-0.3-0.169c-0.145-0.122-0.417-0.248-0.543-0.263
			c-0.127-0.013-0.205-0.072-0.205-0.049c0,0.022,0.2,0.11,0.333,0.239c0.118,0.112,0.131,0.269,0.094,0.302
			s-0.196-0.167-0.365-0.274c-0.248-0.156-0.333-0.26-0.357-0.395c-0.008-0.041-0.01-0.085-0.009-0.135
			c0.003-0.145,0.066-0.307,0.047-0.466c0-0.011-0.002-0.021-0.004-0.03c-0.033-0.169-0.738-1.76-0.988-2.785
			c-0.25-1.025-0.262-1.788-0.262-1.788l0.618-0.798c0,0,0.082,0.936,0.157,1.323c0.075,0.387,0.4,0.862,0.476,1.537
			c0.075,0.675,0.218,2.245,0.305,2.481c0.039,0.105,0.15,0.171,0.286,0.217h0.001c0.171,0.058,0.379,0.082,0.521,0.108
			C10.975,16.968,11.418,17.177,11.428,17.225z"/>
		<path fill="#A6DAEC" d="M9.984,16.577L9.54,16.671c0,0-0.583-1.605-0.768-2.08c-0.048-0.125-0.1-0.274-0.15-0.434
			c-0.112-0.353-0.217-0.756-0.265-1.051c-0.013-0.075-0.021-0.143-0.025-0.201c-0.018-0.241-0.204-1.695-0.345-2.789
			c-0.002-0.013-0.004-0.025-0.005-0.038C7.896,9.418,7.827,8.897,7.824,8.874c0-0.001,0-0.001,0-0.001s0.028,0.003,0.074,0.009
			c0.149,0.019,0.483,0.069,0.631,0.153c0.185,0.106,0.29,0.426,0.367,0.893c0.062,0.364,0.106,0.817,0.16,1.327
			c0.039,0.376,0.11,0.747,0.191,1.093c0.168,0.722,0.376,1.332,0.424,1.643C9.741,14.449,9.984,16.577,9.984,16.577z"/>
		<path fill="#E1794E" d="M10.2,16.813c-0.001,0.001-0.019,0.013-0.216,0.125c-0.217,0.123-0.409,0.318-0.409,0.318
			c-0.008-0.041-0.01-0.085-0.009-0.135c0.003-0.145,0.066-0.307,0.047-0.466l0.301-0.06C9.953,16.701,10.064,16.767,10.2,16.813z"
			/>
		<path opacity="0.22" fill="#645EAA" d="M9.247,12.347c-0.016,0.161-0.036,0.306-0.06,0.422c-0.139,0.661-0.547,1.357-0.565,1.388
			c-0.112-0.353-0.217-0.756-0.265-1.051c-0.013-0.075-0.021-0.143-0.025-0.201c-0.018-0.241-0.204-1.695-0.345-2.789L7.898,8.882
			c0.149,0.019,0.483,0.069,0.631,0.153c0.185,0.106,0.29,0.426,0.367,0.893c0.062,0.364,0.106,0.817,0.16,1.327
			C9.095,11.63,9.166,12.001,9.247,12.347z"/>
		<path fill="#091435" d="M9.384,20.702c-0.019,1.65-0.038,1.688-0.375,2.381c-0.337,0.694-1.338,3.707-1.338,3.707l-0.419-0.069
			c0,0,0.019-0.353,0.046-0.824c0.046-0.816,0.116-1.991,0.152-2.312c0.03-0.269,0.218-0.614,0.403-0.914
			c0.164-0.266,0.324-0.494,0.368-0.6c0.021-0.05,0.014-0.168-0.013-0.327c-0.093-0.569-0.433-1.661-0.657-1.998
			c-0.081-0.122-0.264-0.525-0.484-1.04c-0.555-1.3-1.349-3.309-1.349-3.309s2.062,0.59,2.437,0.646
			c0.375,0.057,0.623,0.175,0.623,0.175S8.77,16.517,8.826,16.75c0.033,0.138,0.226,0.906,0.376,1.852
			C9.308,19.267,9.392,20.021,9.384,20.702z"/>
		<path fill="#10112A" d="M8.979,17.929c0.1,0.787-1.035,2.772-1.035,2.772c-0.128-0.403-0.275-0.78-0.392-0.955
			c-0.081-0.122-0.264-0.525-0.484-1.04l0.038-1.519l-0.95-1.608l2.623,0.638l0.001,0.125c0,0-0.289,0.051-0.276,0.188
			C8.516,16.668,8.878,17.141,8.979,17.929z"/>
		<path fill="#20386D" d="M7.823,17.29c-0.01,0.033-0.017,0.203-0.028,0.468v0.001c-0.035,0.923-0.099,2.999-0.361,4.456
			c-0.261,1.451-0.365,3.581-0.399,4.469v0.003c-0.01,0.257-0.014,0.409-0.014,0.409l-0.375,0.048c0,0-0.066-0.075-0.075-0.112
			c-0.009-0.038,0-0.498-0.148-1.107C6.274,25.314,6,24.228,6,23.937c0-0.29,0.284-1.534,0.359-1.909s-0.209-1.456-0.584-2.946
			C5.4,17.59,5.418,16.887,5.409,16.549c-0.007-0.251,0.167-0.856,0.257-1.152c0.031-0.104,0.053-0.169,0.053-0.169
			s0.188,0.157,0.436,0.353c0.23,0.182,0.512,0.396,0.741,0.547C7.372,16.44,7.865,17.14,7.823,17.29z"/>
		<path opacity="0.5" fill="#091435" d="M7.823,17.29c-0.01,0.033-0.017,0.203-0.028,0.468v0.001c0,0-0.634,0.46-1.027,1.378
			c-0.393,0.918,0.23,3.507,0.174,3.534c-0.057,0.028-0.039-0.225-0.133-0.187c-0.094,0.037-0.233,1.369-0.285,1.743
			c-0.057,0.416,0.056,1.321,0.15,1.791c0.093,0.468,0.36,0.665,0.36,0.665v0.003c-0.01,0.257-0.014,0.409-0.014,0.409l-0.375,0.048
			c0,0-0.066-0.075-0.075-0.112c-0.009-0.038,0-0.498-0.148-1.107C6.274,25.314,6,24.228,6,23.937c0-0.29,0.284-1.534,0.359-1.909
			s-0.209-1.456-0.584-2.946C5.4,17.59,5.418,16.887,5.409,16.549c-0.007-0.251,0.167-0.856,0.257-1.152l0.489,0.183
			c0.23,0.182,0.512,0.396,0.741,0.547C7.372,16.44,7.865,17.14,7.823,17.29z"/>
		<path fill="#D25A27" d="M7.147,8.75C7.147,8.75,7.147,8.75,7.147,8.75C7.139,8.754,6.997,8.821,6.82,8.857
			C6.638,8.895,6.406,8.88,6.406,8.88v0c0.108-0.044,0.199-0.095,0.195-0.13C6.594,8.692,6.583,8.528,6.578,8.452l0.536,0.232h0.001
			L7.147,8.75z"/>
		<g>
			<polygon fill="#F5928F" points="4.49,11.246 4.496,11.254 4.49,11.246 			"/>
			<path fill="#F5928F" d="M5.176,9.311c0,0,0,0.001,0,0.001c0,0,0,0,0,0.001c-0.014,0.242-0.049,0.508-0.119,0.781
				c-0.13,0.505-0.266,0.8-0.369,0.969c-0.005-0.016-0.01-0.032-0.016-0.049c0.099-0.169,0.227-0.457,0.348-0.929
				c0.076-0.294,0.11-0.58,0.121-0.835C5.153,9.271,5.164,9.29,5.176,9.311z"/>
		</g>
		<path fill="#BBE3E4" d="M8.897,11.494C8.897,11.494,8.897,11.494,8.897,11.494c-0.108,0.285-0.287,0.58-0.324,0.615
			c-0.041,0.038-0.155,0.631-0.217,0.998c-0.024,0.136-0.04,0.241-0.042,0.274c0,0.005,0,0.012,0.001,0.02
			c0.017,0.204,0.323,1.403,0.431,1.835c0.112,0.45,0.094,0.825,0.104,0.891c0.009,0.066,0.009,0.066,0.009,0.066
			s-0.309,0.178-1.491-0.188c-0.198-0.062-0.378-0.119-0.542-0.174l-0.002-0.001c-0.809-0.269-1.195-0.451-1.223-0.529
			c-0.033-0.094,0.117-0.234,0.146-0.366c0.028-0.131,0.258-0.753,0.504-1.109c0.246-0.356,0.509-0.729,0.565-0.793
			c0.056-0.065-0.525-1.735-0.525-1.735s0.122,0.872,0,1.313c-0.123,0.441-0.253,0.582-0.319,0.591
			c-0.021,0-0.067-0.376-0.121-0.902c-0.122-1.193-0.281-3.17-0.25-3.232C5.605,9.06,5.612,9.052,5.619,9.046
			c0.069-0.066,0.26-0.063,0.374-0.072C6.037,8.971,6.081,8.966,6.119,8.96c0.074-0.011,0.13-0.022,0.13-0.022
			s0.154,0.533,0.529,0.889c0.375,0.356,0.882,0.33,0.882,0.33s0.123-0.137,0.123-0.504c0-0.368-0.179-0.804-0.179-0.804h0.002
			l0.218,0.025l0.074,0.008c0,0,0.286,0.637,0.52,1.104c0.081,0.164,0.157,0.308,0.21,0.395c0.132,0.213,0.316,0.417,0.349,0.722
			C8.988,11.206,8.952,11.348,8.897,11.494z"/>
		<path fill="#D5EEF4" d="M7.897,10.099c-0.019,0.291-0.074,0.456-0.074,0.456s-0.296-0.096-0.607-0.258
			c-0.239-0.124-0.487-0.286-0.615-0.473C6.305,9.392,6.119,8.96,6.119,8.96l0.181-0.04c0,0,0.176,0.519,0.61,0.86
			c0.434,0.341,0.727,0.355,0.727,0.355s0.056-0.221,0.061-0.607c0.004-0.386-0.169-0.69-0.169-0.69l0.076,0.01h0.002L7.697,8.86
			c0,0,0.163,0.211,0.201,0.836C7.907,9.849,7.905,9.984,7.897,10.099z"/>
		<path opacity="0.2" fill="#645EAA" d="M8.574,12.109c-0.056,0.052-0.25,1.149-0.259,1.272c0,0.005,0,0.012,0,0.02
			c-0.133,0.009-0.403,0.041-0.806,0.148c-0.6,0.16-1.159,1.35-1.175,1.52c-0.016,0.168,1.691,0.74,1.691,0.74
			s-1.304-0.338-1.52-0.328c-0.215,0.009,0.321,0.351,0.321,0.351l-0.002,0c-0.809-0.27-1.195-0.451-1.223-0.529
			c-0.014-0.038,0.003-0.085,0.031-0.135c0.039-0.072,0.098-0.153,0.115-0.231c0.028-0.13,0.258-0.753,0.504-1.109
			c0.246-0.356,0.508-0.729,0.564-0.793c0.033-0.039-0.156-0.639-0.316-1.122c0,0,0,0,0,0c-0.111-0.334-0.208-0.613-0.208-0.613
			s0.123,0.872,0,1.313c-0.122,0.441-0.252,0.582-0.319,0.591c-0.02,0-0.066-0.376-0.121-0.902l-0.02-2.313l0.608,1.56l0.37-0.483
			c0,0,0.233,0.516,0.415,0.529c0.504,0.036,1.576-0.06,1.672-0.099C8.79,11.778,8.611,12.073,8.574,12.109z"/>
		<path opacity="0.2" fill="#485FAB" d="M8.896,9.928c-0.013,0-0.176,0.006-0.479,0.059c-0.123,0.022-0.269,0.052-0.437,0.092
			c-0.028,0.006-0.056,0.013-0.084,0.02c-0.191,0.048-0.408,0.109-0.65,0.188c-0.01,0.003-0.02,0.007-0.031,0.01
			c-1.04,0.339-1.122,0.422-1.122,0.422L5.619,9.046c0.069-0.066,0.26-0.063,0.374-0.072C6.037,8.971,6.081,8.966,6.119,8.96
			l0.181-0.04c0,0,0.176,0.519,0.61,0.86c0.434,0.341,0.727,0.355,0.727,0.355s0.056-0.221,0.061-0.607
			c0.004-0.386-0.169-0.69-0.169-0.69l0.076,0.01h0.002l0.218,0.025c0,0,0,0,0,0s0.029,0.003,0.074,0.009
			c0.149,0.019,0.483,0.069,0.631,0.153C8.713,9.141,8.818,9.461,8.896,9.928z"/>
		<path opacity="0.2" fill="#FFFFFF" d="M6.391,24.131c0.168-0.97,0.31-1.693,0.293-2.018c-0.033-0.667-0.256-2.207-0.519-3.833
			c-0.208-1.286-0.228-1.738-0.227-1.87c0.03-0.015,0.061-0.03,0.095-0.048c0.444-0.226,0.583-0.43,0.583-0.43l-0.136-0.101
			c0,0-0.125,0.23-0.397,0.404c-0.272,0.175-0.483,0.201-0.483,0.201l-0.066,0.149c0,0,0.039,0,0.302-0.127
			c0.021,0.229,0.077,0.861,0.125,1.402c0.061,0.675,0.535,2.888,0.582,3.693c0.047,0.807-0.218,2.051-0.285,2.729
			c-0.066,0.678,0.5,2.859,0.5,2.859l0.05-0.025C6.81,27.118,6.223,25.101,6.391,24.131z"/>
		<path opacity="0.2" fill="#FFFFFF" d="M8.203,17.094c-0.121,0.036-0.196,0.073-0.242,0.101c0.031-0.101,0.065-0.22,0.092-0.345
			c0.082-0.375,0.149-0.644,0.149-0.644l-0.273-0.051c0,0,0.026,0.31,0,0.723c-0.01,0.152-0.021,0.272-0.031,0.364l-0.032,0.227
			c0,0,0.136-0.169,0.305-0.268c0.168-0.099,0.384-0.178,0.384-0.178S8.447,17.019,8.203,17.094z"/>
		<path opacity="0.22" fill="#645EAA" d="M6.251,15.265l-0.619-0.098c0.039-0.072,0.098-0.153,0.115-0.231
			c0.028-0.13,0.258-0.753,0.504-1.109c0.246-0.356,0.508-0.729,0.564-0.793c0.033-0.039-0.156-0.639-0.316-1.122
			c0.031,0.037,0.721,0.866,0.747,1.131c0.028,0.271-1.114,1.396-1.199,1.641C5.962,14.927,6.251,15.265,6.251,15.265z"/>
		<polygon fill="#D5EEF4" points="9.54,16.671 9.443,16.407 9.954,16.313 9.984,16.577 		"/>
		<path opacity="0.2" fill="#FFFFFF" d="M7.747,18.954c0,0,0.75,2.526,0.707,2.901s-0.414,0.941-0.627,1.816
			c-0.213,0.875-0.474,3.065-0.474,3.065l-0.039-0.017c0,0,0.234-2.601,0.366-3.074c0.133-0.474,0.721-1.528,0.674-1.781
			s-0.625-2.536-0.625-2.536L7.747,18.954z"/>
		<path fill="#00B694" d="M6.299,8.92c0,0,0.107-0.211,0.141-0.253c0.034-0.042,0.145-0.061,0.145-0.061s0.174,0.155,0.32,0.313
			c0.145,0.159,0.304,0.22,0.304,0.22S7.142,9.342,7.096,9.525c-0.046,0.183-0.04,0.363-0.04,0.363S6.458,9.516,6.299,8.92z"/>
		<path fill="#058E75" d="M6.373,8.781c0,0,0.196,0.172,0.404,0.355c0.208,0.183,0.346,0.261,0.346,0.261l-0.039,0.18
			c0,0-0.294-0.141-0.5-0.305S6.324,8.873,6.324,8.873L6.373,8.781z"/>
		<path fill="#058E75" d="M6.489,8.634c0,0,0.116,0.166,0.221,0.239c0.105,0.074,0.039-0.114-0.032-0.18
			C6.607,8.627,6.585,8.607,6.585,8.607L6.489,8.634z"/>
		<path fill="#058E75" d="M7.288,10.019c0,0-0.139-0.152-0.182-0.418C7.063,9.334,7.123,9.13,7.123,9.13S7.022,9.297,6.969,9.475
			S6.962,9.822,6.962,9.822S7.224,9.991,7.288,10.019z"/>
		<path fill="#7CC9EB" d="M7.663,10.065c0,0,0.236-0.435,0.222-0.652C7.859,8.999,7.506,8.641,7.506,8.641L7.466,8.75
			C7.466,8.75,7.752,9.67,7.663,10.065z"/>
		<path fill="#BBE3E4" d="M7.688,10.029c0,0,0.184-0.351,0.247-0.37c0.063-0.019,0.278,0.185,0.278,0.185S8.097,9.531,8.009,9.281
			S7.688,8.78,7.688,8.78l-0.182-0.14c0,0,0.353,0.358,0.344,0.818C7.844,9.761,7.688,10.029,7.688,10.029z"/>
		<path opacity="0.22" fill="#645EAA" d="M7.663,10.065c0,0,0.575,0.725,0.697,1.153c0.121,0.428-0.175,1.006-0.288,1.513
			c-0.112,0.506-0.065,1.35,0.075,2.137s0.112,1.345,0.112,1.345l-0.093-0.009c0,0,0.028-0.966-0.103-1.614
			c-0.131-0.647-0.156-1.385-0.069-1.935s0.438-0.956,0.219-1.5s-0.597-1.022-0.597-1.022L7.663,10.065z"/>
		<linearGradient id="SVGID_18_" gradientUnits="userSpaceOnUse" x1="7.1763" y1="28.8506" x2="7.1763" y2="27.0957">
			<stop  offset="0" style="stop-color:#FDC48C"/>
			<stop  offset="1" style="stop-color:#F8A37F"/>
		</linearGradient>
		<path fill="url(#SVGID_18_)" d="M7.021,27.096c0,0,0.078,0.48,0.154,0.629c0.188,0.364,0.708,1.021,0.708,1.021
			s-0.34,0.136-0.678,0.099c-0.337-0.037-0.188-0.708-0.46-0.765c-0.272-0.056-0.25-0.046-0.268-0.083
			c-0.019-0.037-0.014-0.206,0.051-0.455c0.066-0.248,0.117-0.398,0.117-0.398L7.021,27.096z"/>
		<linearGradient id="SVGID_19_" gradientUnits="userSpaceOnUse" x1="6.3936" y1="28.1563" x2="8.2339" y2="28.1563">
			<stop  offset="0" style="stop-color:#CA2027"/>
			<stop  offset="1" style="stop-color:#A71E22"/>
		</linearGradient>
		<path fill="url(#SVGID_19_)" d="M6.581,27.357c0,0-0.187,0.487-0.187,0.616c0,0.128,0.075,0.935,0.075,0.935h0.052l0.06-0.794
			c0,0,0.137,0.078,0.194,0.204c0.058,0.127,0.083,0.552,0.238,0.613c0.154,0.061,1.172-0.02,1.219-0.043s-0.609-0.482-0.609-0.482
			s-0.314,0.141-0.492,0.07c-0.178-0.07-0.3-0.487-0.394-0.685C6.642,27.596,6.581,27.357,6.581,27.357z"/>
		<polygon fill="#20386D" points="6.81,11.063 7.745,11.063 7.76,11.63 6.852,11.681 		"/>
		<polygon fill="#FFFFFF" points="6.901,11.372 6.875,11.133 7.688,11.133 7.688,11.344 		"/>
		<path fill="#026B50" d="M7.439,9.066c0,0-0.002-0.059-0.072-0.16c-0.07-0.101-0.165-0.104-0.202-0.139
			c-0.037-0.035-0.042-0.06-0.042-0.06S7.294,8.756,7.367,8.75c0.072-0.006,0.124-0.027,0.124-0.027s0.056,0.011,0.095,0.07
			c0.039,0.06,0.059,0.344,0.068,0.382c0.009,0.039,0.009,0.039,0.009,0.039L7.439,9.066z"/>
		<path fill="#00B694" d="M7.137,9.105c0,0,0.113-0.036,0.216-0.04c0.103-0.003,0.151,0,0.222,0.04
			c0.07,0.039,0.117,0.114,0.15,0.436s-0.09,0.596-0.09,0.596S7.419,10.1,7.153,9.95c-0.238-0.134-0.118-0.112-0.142-0.35
			C6.987,9.362,7.137,9.105,7.137,9.105z"/>
		<path fill="#058E75" d="M7.615,10.134c0,0-0.149-0.215-0.168-0.415c-0.019-0.2,0.155-0.281,0.219-0.142
			c0.064,0.14-0.03,0.56-0.03,0.56L7.615,10.134z"/>
		<path fill="#058E75" d="M7.115,9.143c0,0,0.113-0.033,0.19,0.021c0.077,0.054,0.14,0.146,0.14,0.146S7.437,9.211,7.367,9.15
			C7.296,9.089,7.296,9.089,7.296,9.089S7.416,9.066,7.5,9.13s0.084,0.2,0.084,0.2s0.018-0.108,0-0.169S7.549,9.092,7.549,9.092
			S7.484,9.045,7.303,9.055S7.115,9.143,7.115,9.143z"/>
		<path fill="#7CC9EB" d="M7.636,10.136c0,0-0.601-0.141-0.875-0.248C6.487,9.781,6.422,9.573,6.302,9.33
			C6.181,9.087,6.093,8.793,6.119,8.781c0.025-0.012,0.181,0.14,0.181,0.14S7.021,9.897,7.636,10.136z"/>
		<path fill="#BBE3E4" d="M7.636,10.136c0,0-0.659-0.158-0.794-0.15c-0.135,0.007-0.295,0.482-0.295,0.482S6.219,9.991,6.114,9.507
			S5.993,8.974,5.993,8.974l0.125-0.193c0,0,0.195,0.717,0.477,0.916C6.876,9.896,7.636,10.136,7.636,10.136z"/>
		<linearGradient id="SVGID_20_" gradientUnits="userSpaceOnUse" x1="6.8413" y1="8.7495" x2="6.8413" y2="4.8081">
			<stop  offset="0" style="stop-color:#FDC48C"/>
			<stop  offset="1" style="stop-color:#F8A37F"/>
		</linearGradient>
		<path fill="url(#SVGID_20_)" d="M8.219,7.772C8.085,8.068,7.726,8.561,7.518,8.705c-0.03,0.021-0.057,0.035-0.08,0.039
			C7.075,8.815,6.207,8.241,6.003,8.071C5.815,7.915,5.447,7.14,5.447,7.14c-0.088-0.207-0.08-0.862,0.062-1.352
			c0.147-0.508,0.566-0.98,1.191-0.98c0.734,0,1.217,0.313,1.336,0.613c0.061,0.151,0.106,0.31,0.128,0.457
			C8.185,6.006,8.188,6.125,8.17,6.221C8.131,6.426,8.19,6.79,8.219,6.968C8.247,7.147,8.372,7.433,8.219,7.772z"/>
		<path fill="#E1794E" d="M6.293,7.521c0,0.837,1.225,1.184,1.225,1.184c-0.03,0.021-0.057,0.035-0.08,0.039
			C7.075,8.815,6.207,8.241,6.003,8.071C5.815,7.915,5.447,7.14,5.447,7.14c-0.088-0.207-0.08-0.862,0.062-1.352
			c0.147-0.508,0.566-0.98,1.191-0.98c0.734,0,1.217,0.313,1.336,0.613c0.061,0.151,0.106,0.31,0.128,0.457
			c-0.172-0.12-0.493-0.315-0.806-0.354C6.9,5.468,6.165,5.72,6.08,6.092C5.996,6.465,6.293,6.761,6.293,7.521z"/>
		<path fill="#FFFFFF" d="M7.58,6.855C7.522,6.81,7.678,6.469,7.741,6.401c0.063-0.068,0.209-0.033,0.235,0
			c0.025,0.033,0.061,0.244,0.061,0.244S8,6.839,7.943,6.855S7.603,6.874,7.58,6.855z"/>
		<path fill="#FFFFFF" d="M6.52,7.041L6.458,6.537c0,0-0.299,0.014-0.36,0.079S5.977,6.9,5.977,6.9s0.001,0.06,0.198,0.113
			C6.373,7.066,6.52,7.041,6.52,7.041z"/>
		<linearGradient id="SVGID_21_" gradientUnits="userSpaceOnUse" x1="6.6001" y1="7.0801" x2="6.6001" y2="6.4893">
			<stop  offset="0" style="stop-color:#A43422"/>
			<stop  offset="1" style="stop-color:#701811"/>
		</linearGradient>
		<path fill="url(#SVGID_21_)" d="M6.852,6.872L6.852,6.872c0,0.002,0,0.005-0.001,0.006C6.844,6.915,6.832,6.95,6.817,6.98
			C6.813,6.986,6.81,6.992,6.806,6.998c-0.075,0.028-0.2,0.069-0.335,0.083L6.47,7.079c-0.02-0.014-0.037-0.033-0.052-0.055
			c-0.043-0.06-0.069-0.14-0.069-0.229c0-0.082,0.023-0.156,0.059-0.214C6.434,6.542,6.465,6.51,6.502,6.489
			c0.067,0.027,0.124,0.069,0.171,0.118C6.699,6.63,6.709,6.65,6.738,6.681C6.8,6.761,6.837,6.838,6.852,6.872z"/>
		<path fill="#57110C" d="M6.761,6.803c0,0.116-0.072,0.21-0.16,0.21S6.44,6.918,6.44,6.803c0-0.08,0.034-0.149,0.084-0.184
			c0.022-0.017,0.049-0.026,0.077-0.026c0.024,0,0.048,0.008,0.069,0.021C6.696,6.63,6.719,6.656,6.735,6.688
			C6.749,6.716,6.758,6.749,6.76,6.785C6.761,6.791,6.761,6.797,6.761,6.803z"/>
		<linearGradient id="SVGID_22_" gradientUnits="userSpaceOnUse" x1="7.9761" y1="6.8921" x2="7.9761" y2="6.2993">
			<stop  offset="0" style="stop-color:#A43422"/>
			<stop  offset="1" style="stop-color:#701811"/>
		</linearGradient>
		<path fill="url(#SVGID_22_)" d="M8.17,6.602v0.004C8.169,6.634,8.166,6.662,8.161,6.688c-0.004,0.031-0.013,0.06-0.022,0.086
			C8.125,6.809,8.109,6.838,8.091,6.863C8.06,6.875,8.026,6.884,7.99,6.888C7.956,6.893,7.916,6.893,7.875,6.892
			c-0.01-0.01-0.021-0.023-0.029-0.037h0c-0.042-0.063-0.066-0.156-0.063-0.26c0.001-0.067,0.014-0.127,0.035-0.179
			c0.02-0.049,0.048-0.09,0.08-0.116C8.012,6.331,8.1,6.451,8.133,6.538C8.144,6.565,8.156,6.586,8.17,6.602z"/>
		<ellipse fill="#57110C" cx="7.976" cy="6.6" rx="0.122" ry="0.21"/>
		<path fill="#57110C" d="M6.858,6.889c0-0.001-0.003-0.005-0.007-0.01C6.837,6.86,6.807,6.822,6.764,6.778
			C6.705,6.719,6.624,6.65,6.527,6.611c-0.038-0.015-0.078-0.026-0.12-0.029c-0.009,0-0.017-0.001-0.026-0.001
			C6.116,6.578,6.056,6.911,5.959,6.902s-0.231-0.15-0.231-0.15s0.069,0.031,0.15,0.013c0.081-0.019,0.206-0.35,0.525-0.304
			c0.035,0.005,0.068,0.015,0.099,0.028c0.067,0.027,0.124,0.069,0.171,0.118c0.024,0.024,0.046,0.049,0.065,0.074
			C6.8,6.761,6.837,6.838,6.852,6.872v0.001C6.855,6.881,6.857,6.887,6.858,6.889z"/>
		<path fill="#E1794E" d="M6.878,6.968c0,0-0.027,0.013-0.072,0.029c-0.075,0.028-0.2,0.069-0.335,0.083
			C6.426,7.084,6.379,7.086,6.334,7.084C6.155,7.073,6.038,6.968,6.038,6.968s0.26-0.006,0.35-0.018
			C6.542,6.931,6.878,6.968,6.878,6.968z"/>
		<path fill="#57110C" d="M8.331,6.577c-0.01,0.007-0.1,0.131-0.16,0.116c-0.004,0-0.007-0.002-0.011-0.005
			c-0.019-0.011-0.04-0.04-0.063-0.075C8.051,6.547,7.994,6.458,7.913,6.425C7.896,6.418,7.878,6.413,7.859,6.411
			c-0.014-0.001-0.028,0-0.042,0.004C7.668,6.461,7.556,6.813,7.556,6.813S7.613,6.32,7.809,6.293
			C8.067,6.258,8.196,6.551,8.21,6.567C8.272,6.638,8.32,6.58,8.331,6.577z"/>
		<path fill="#E1794E" d="M8.219,6.738c0,0-0.018,0.077-0.127,0.125C8.06,6.876,8.026,6.884,7.99,6.888
			C7.956,6.893,7.916,6.893,7.875,6.892C7.748,6.888,7.614,6.863,7.614,6.863S7.88,6.768,7.943,6.759
			C8.115,6.736,8.219,6.738,8.219,6.738z"/>
		<polygon fill="#FFFFFF" points="6.199,6.815 6.576,6.815 6.293,6.931 		"/>
		<polygon fill="#FFFFFF" points="7.692,6.694 7.955,6.645 7.755,6.785 		"/>
		<path fill="#57110C" d="M6.7,5.789c0,0-0.142,0.078-0.265,0.107S5.958,5.978,5.818,6.098c-0.141,0.12-0.162,0.484-0.162,0.484
			s0.063-0.25,0.189-0.317c0.126-0.067,0.479-0.12,0.668-0.164C6.703,6.056,6.7,5.789,6.7,5.789z"/>
		<path fill="#57110C" d="M7.439,5.782c0,0-0.001,0.197,0.128,0.244c0.13,0.047,0.345,0.065,0.47,0.112
			c0.124,0.047,0.162,0.117,0.162,0.117s-0.023-0.188-0.141-0.3C7.94,5.843,7.504,5.829,7.439,5.782z"/>
		<path fill="#E1794E" d="M7.152,7.345c0,0,0.159,0.034,0.328,0.009c0.169-0.025,0.246-0.091,0.246-0.091S7.702,7.432,7.535,7.47
			C7.445,7.49,7.383,7.429,7.383,7.429S7.315,7.509,7.246,7.473C7.195,7.446,7.152,7.345,7.152,7.345z"/>
		<path fill="#FFFFFF" d="M6.546,7.663c0,0,0.432,0.403,0.713,0.461s0.38-0.026,0.405-0.068C7.689,8.014,7.76,7.688,7.76,7.688
			S7.018,7.755,6.991,7.755C6.965,7.755,6.546,7.663,6.546,7.663z"/>
		<path fill="#57110C" d="M6.699,7.711c0,0,0.414,0.222,0.651,0.234c0.227,0.012,0.263-0.011,0.274-0.042
			c0.021-0.055,0.052-0.181,0.052-0.181h0.05l-0.06,0.443L7.303,8.244l-0.289-0.24L6.52,7.647L6.699,7.711z"/>
		<linearGradient id="SVGID_23_" gradientUnits="userSpaceOnUse" x1="6.5308" y1="7.623" x2="7.7423" y2="8.1624">
			<stop  offset="0" style="stop-color:#EE2A56"/>
			<stop  offset="1" style="stop-color:#ED1C2B"/>
		</linearGradient>
		<path fill="url(#SVGID_23_)" d="M7.716,7.734c0,0-0.017,0.222-0.051,0.322C7.63,8.156,7.422,8.19,7.303,8.159
			S6.727,7.773,6.727,7.773L6.52,7.647c0,0,0.599,0.678,0.689,0.718C7.368,8.436,7.643,8.374,7.69,8.283
			c0.047-0.09,0.007-0.215,0.022-0.318s0.041-0.235,0.041-0.235L7.716,7.734z"/>
		<linearGradient id="SVGID_24_" gradientUnits="userSpaceOnUse" x1="6.6328" y1="7.3945" x2="7.7881" y2="7.9089">
			<stop  offset="0" style="stop-color:#CA2027"/>
			<stop  offset="1" style="stop-color:#A71E22"/>
		</linearGradient>
		<path fill="url(#SVGID_24_)" d="M6.547,7.625c0,0,0.149,0.107,0.435,0.079c0.285-0.028,0.377-0.098,0.574-0.129
			s0.328,0.083,0.34,0.083c0.013,0-0.033,0.031-0.114,0.071C7.701,7.771,7.208,7.768,7.011,7.778C6.755,7.79,6.52,7.647,6.52,7.647
			L6.547,7.625z"/>
		<path fill="#E1794E" d="M6.699,7.509c0,0-0.089,0.043-0.185,0.079s0,0.23,0,0.23S6.51,7.676,6.572,7.64
			C6.633,7.604,6.699,7.509,6.699,7.509z"/>
		<path fill="#951A23" d="M8.282,5.938c0,0-0.179-0.499-0.602-0.761C7.662,5.166,7.644,5.156,7.623,5.149
			C7.59,5.133,7.553,5.121,7.514,5.113c-0.23-0.056-0.553-0.028-0.838,0.021c0,0-0.001,0-0.002,0
			C6.532,5.156,6.399,5.186,6.292,5.21c-0.001,0-0.003,0-0.004,0.001C6.146,5.246,6.05,5.273,6.039,5.276
			c0.484-0.455,1.896-0.78,2.131-0.719c0.07,0.019,0.109,0.149,0.128,0.324C8.3,4.894,8.3,4.907,8.302,4.919
			c0.007,0.075,0.011,0.157,0.012,0.24v0.039C8.317,5.559,8.282,5.938,8.282,5.938z"/>
		<path fill="#D25A27" d="M5.764,7.74c0,0,0.008,0.114-0.107,0.177C5.541,7.98,5.128,7.652,5.062,7.437
			c-0.065-0.215,0.01-0.497,0.15-0.534s0.2,0.11,0.2,0.11L5.764,7.74z"/>
		<path fill="#951A23" d="M6.038,5.277c0,0-0.003,0.475-0.216,1.022C5.609,6.846,5.496,7.238,5.39,7.482
			C5.283,7.726,5.115,7.785,5.115,7.785L4.987,7.643L6.038,5.277z"/>
		<g opacity="0.5">
			<path fill="#F5928F" d="M8.302,4.919C8.284,4.918,8.258,4.918,8.223,4.918H8.187c-0.012,0-0.025,0-0.039,0
				c-0.135,0.001-0.344,0.011-0.63,0.04C7.243,4.986,6.924,5.063,6.676,5.133c0,0-0.001,0-0.002,0
				C6.532,5.156,6.399,5.186,6.292,5.21C6.324,5.2,6.368,5.185,6.423,5.168c0.016-0.005,0.034-0.011,0.053-0.017
				C6.734,5.074,7.16,4.958,7.514,4.921C7.859,4.886,8.095,4.88,8.222,4.88c0.033,0,0.059,0,0.077,0.001
				C8.3,4.894,8.3,4.907,8.302,4.919z"/>
		</g>
		<g opacity="0.5">
			<path fill="#F5928F" d="M8.314,5.159v0.039c-0.015-0.002-0.032-0.005-0.05-0.007C8.255,5.189,8.247,5.188,8.237,5.188
				c-0.005-0.001-0.01-0.001-0.015-0.002C8.17,5.179,8.108,5.172,8.035,5.165C7.896,5.15,7.75,5.147,7.623,5.149
				C7.59,5.133,7.553,5.121,7.514,5.113c0.15-0.004,0.343-0.004,0.525,0.014C8.104,5.134,8.16,5.14,8.208,5.145v0.001
				c0.01,0,0.019,0.002,0.028,0.003c0.005,0,0.01,0.001,0.014,0.001C8.273,5.153,8.295,5.156,8.314,5.159z"/>
		</g>
		<linearGradient id="SVGID_25_" gradientUnits="userSpaceOnUse" x1="4.3213" y1="8.0112" x2="10.1279" y2="8.0112">
			<stop  offset="0" style="stop-color:#F37049"/>
			<stop  offset="1" style="stop-color:#BE3F3A"/>
		</linearGradient>
		<path fill="url(#SVGID_25_)" d="M9.975,9.443C9.875,9.072,9.771,8.839,9.67,8.6c-0.015-0.037-0.03-0.074-0.045-0.11
			C9.525,8.237,9.432,7.954,9.357,7.482C9.321,7.255,9.305,7.047,9.302,6.854C9.301,6.834,9.3,6.815,9.3,6.796c0,0,0,0,0,0
			c-0.005-0.33,0.021-0.613,0.026-0.852C9.327,5.929,9.327,5.915,9.327,5.9C9.33,5.697,9.316,5.526,9.253,5.384
			C9.131,5.11,8.712,4.67,8.266,4.355c0-0.001,0-0.001,0-0.001c-0.015-0.01-0.029-0.02-0.044-0.03
			c-0.176-0.122-0.355-0.222-0.52-0.284c0,0,0,0,0,0C7.685,4.035,7.669,4.029,7.652,4.024C7.619,4.013,7.587,4.003,7.556,3.996
			C7.354,3.949,6.712,4.048,6.101,4.268c-0.014,0.005-0.028,0.01-0.042,0.015c-0.174,0.063-0.344,0.138-0.5,0.22
			C5.547,4.509,5.535,4.515,5.524,4.521C5.252,4.669,5.027,4.846,4.909,5.046c0,0,0,0.001,0,0.002
			C4.795,5.241,4.705,5.605,4.633,6.037c-0.004,0.018-0.007,0.037-0.01,0.056v0.001C4.595,6.265,4.571,6.446,4.547,6.631
			C4.545,6.652,4.543,6.672,4.54,6.692C4.48,7.198,4.437,7.724,4.406,8.145v0.002C4.403,8.186,4.399,8.223,4.396,8.26
			c-0.071,0.896-0.126,0.998,0,1.718c0.067,0.381,0.183,0.74,0.275,1.037c0.005,0.017,0.011,0.033,0.016,0.049
			c0.082,0.262,0.143,0.472,0.129,0.6c-0.019,0.193-0.087,0.276-0.126,0.309c-0.006,0.005-0.01,0.008-0.015,0.011
			c0.004-0.002,0.01-0.005,0.016-0.009c0.066-0.038,0.221-0.131,0.275-0.208c0.07-0.098,0.08-0.239,0.08-0.239
			s0.051,0.084,0.028,0.267c-0.023,0.183,0.018,0.244,0.018,0.244s0.282-0.117,0.376-0.398c0.01-0.03,0.018-0.067,0.022-0.109
			L5.493,11.5c0.03-0.366-0.085-1.081-0.028-1.463c0.024-0.163-0.123-0.424-0.29-0.724c0-0.001,0-0.001,0-0.001c0,0,0-0.001,0-0.001
			C5.164,9.29,5.153,9.271,5.141,9.25c-0.276-0.5-0.577-1.092-0.232-1.509C5.125,7.479,5.307,7.184,5.456,6.89v0
			c0.036-0.069,0.068-0.138,0.1-0.207c0,0,0.001,0,0.001-0.001C5.688,6.4,5.788,6.127,5.864,5.899
			C5.868,5.885,5.873,5.87,5.877,5.855h0.001c0.029-0.092,0.055-0.176,0.076-0.25c0.004-0.014,0.008-0.028,0.012-0.041V5.563
			c0.046-0.168,0.069-0.275,0.072-0.286l0.001-0.001c0.005-0.003,0.029-0.015,0.067-0.034c0.01-0.004,0.021-0.011,0.034-0.017
			c0.078-0.038,0.197-0.094,0.343-0.158h0.001c0.02-0.008,0.039-0.017,0.06-0.026c0.238-0.103,0.536-0.221,0.84-0.315
			c0.688-0.212,0.792-0.188,0.814-0.15C8.204,4.586,8.211,4.702,8.222,4.88c0,0.012,0,0.025,0.001,0.038
			c0.003,0.055,0.006,0.115,0.01,0.179c0,0.017,0.001,0.034,0.003,0.052c0.001,0.013,0.001,0.025,0.001,0.039
			C8.239,5.204,8.24,5.219,8.24,5.235c0,0,0,0,0,0.001c0.012,0.216,0.025,0.463,0.043,0.709c0.002,0.039,0.005,0.078,0.007,0.117
			C8.318,6.438,8.353,6.8,8.396,7.027c0.125,0.65,0.5,1.525,0.712,2.263c0.213,0.738,0,2.288,0,2.288h0.094
			c0,0,0.018-0.134,0.039-0.334c0.008,0.163,0.016,0.295,0.016,0.295s0.127-0.14,0.193-0.407c0.065-0.268,0.07-0.445,0.07-0.445
			s0.005,0.29,0,0.445c-0.005,0.142-0.043,0.302-0.05,0.329c0.02-0.037,0.187-0.344,0.284-0.578
			c0.103-0.248,0.221-0.371,0.234-0.576c0.013-0.184-0.034-0.403-0.044-0.451l0.171,0.601C10.115,10.456,10.19,10.249,9.975,9.443z
			 M8.759,7.964C8.662,7.638,8.536,6.832,8.528,6.782c0.021,0.04,0.307,0.615,0.512,1.464c0.076,0.312,0.12,0.701,0.146,1.084
			C9.049,8.817,8.842,8.243,8.759,7.964z"/>
		<g>
			<path fill="#F5928F" d="M6.051,5.264L6.038,5.278L6.024,5.291C6.022,5.289,5.832,5.094,5.662,4.818
				c-0.074-0.119-0.115-0.22-0.138-0.297c0.011-0.006,0.023-0.012,0.035-0.018C5.58,4.578,5.621,4.679,5.694,4.798
				C5.861,5.071,6.049,5.262,6.051,5.264z"/>
		</g>
		<g>
			<path fill="#F5928F" d="M6.14,5.226C6.127,5.232,6.116,5.238,6.106,5.243c-0.034-0.121-0.09-0.364-0.087-0.609
				c0.001-0.138,0.02-0.257,0.04-0.351c0.014-0.005,0.028-0.01,0.042-0.015C6.079,4.364,6.059,4.488,6.056,4.634
				C6.053,4.871,6.107,5.106,6.14,5.226z"/>
		</g>
		<g>
			<path fill="#F5928F" d="M7.701,4.041c-0.156,0.08-0.368,0.203-0.584,0.37C6.845,4.622,6.649,4.883,6.544,5.042
				c-0.021,0.009-0.041,0.018-0.06,0.026c0.095-0.153,0.306-0.451,0.61-0.687c0.204-0.157,0.404-0.276,0.558-0.357
				C7.669,4.029,7.685,4.035,7.701,4.041z"/>
		</g>
		<g>
			<path fill="#F5928F" d="M9.327,5.9c0,0.014,0,0.028-0.001,0.043C9.154,5.843,8.927,5.678,8.708,5.421
				C8.388,5.047,8.265,4.565,8.222,4.325c0.015,0.01,0.029,0.02,0.044,0.03c0,0,0,0,0,0.001c0.048,0.247,0.171,0.692,0.471,1.041
				C8.945,5.641,9.16,5.801,9.327,5.9z"/>
		</g>
		<g>
			<path fill="#F5928F" d="M9.302,6.854C9.039,6.566,8.714,6.18,8.53,5.849C8.388,5.593,8.297,5.388,8.24,5.236
				c0-0.001,0-0.001,0-0.001c0-0.016-0.001-0.031-0.003-0.047c0-0.014,0-0.026-0.001-0.039C8.234,5.131,8.233,5.114,8.233,5.097
				C8.238,5.114,8.244,5.131,8.25,5.15c0.004,0.013,0.009,0.026,0.014,0.041c0.056,0.154,0.148,0.367,0.299,0.64
				C8.738,6.146,9.044,6.515,9.3,6.796c0,0,0,0,0,0C9.3,6.815,9.301,6.834,9.302,6.854z"/>
		</g>
		<g>
			<path fill="#F5928F" d="M9.67,8.6C9.502,8.408,9.326,8.18,9.174,7.927C8.853,7.39,8.488,6.54,8.291,6.062
				C8.289,6.022,8.285,5.983,8.283,5.945c0.182,0.447,0.579,1.387,0.923,1.962c0.129,0.215,0.275,0.411,0.419,0.582
				C9.641,8.526,9.656,8.563,9.67,8.6z"/>
		</g>
		<g>
			<path fill="#F5928F" d="M5.966,5.564C5.962,5.577,5.958,5.591,5.954,5.605c-0.111,0.019-0.285,0.052-0.56,0.111
				C5.044,5.792,4.791,5.95,4.623,6.092c0.003-0.019,0.006-0.038,0.01-0.056c0.171-0.139,0.419-0.286,0.753-0.357
				C5.555,5.642,5.798,5.592,5.966,5.564z"/>
		</g>
		<g>
			<path fill="#F5928F" d="M5.877,5.855C5.873,5.87,5.868,5.885,5.864,5.899C5.638,5.98,5.317,6.108,5.048,6.271
				C4.878,6.375,4.7,6.533,4.54,6.692c0.003-0.021,0.005-0.041,0.007-0.061C4.7,6.481,4.868,6.337,5.028,6.239
				C5.312,6.067,5.648,5.936,5.877,5.855z"/>
		</g>
		<g>
			<path fill="#F5928F" d="M5.555,6.683c-0.031,0.068-0.063,0.138-0.1,0.207v0C5.273,7.142,5.042,7.429,4.793,7.657
				C4.618,7.818,4.49,8.03,4.396,8.26c0.003-0.037,0.006-0.074,0.009-0.113v0c0.09-0.197,0.208-0.376,0.363-0.517
				C5.079,7.345,5.363,6.966,5.555,6.683z"/>
		</g>
		<path opacity="0.5" fill="#951A23" d="M5.966,5.564C5.962,5.577,5.958,5.591,5.954,5.605c-0.021,0.074-0.046,0.158-0.076,0.25
			H5.877C5.873,5.87,5.868,5.885,5.864,5.899C5.788,6.127,5.688,6.4,5.556,6.682c0,0.001-0.001,0.001-0.001,0.001
			c-0.031,0.068-0.063,0.138-0.1,0.207v0c-0.148,0.293-0.33,0.589-0.547,0.851C4.564,8.158,4.865,8.75,5.141,9.25
			c0.012,0.021,0.023,0.04,0.035,0.061c0,0,0,0.001,0,0.001c0,0,0,0,0,0.001c0.167,0.299,0.313,0.561,0.29,0.724
			c-0.057,0.382,0.058,1.097,0.028,1.463L5.49,11.531c-0.004,0.042-0.012,0.079-0.022,0.109c-0.094,0.281-0.384,0.435-0.384,0.435
			s-0.033-0.097-0.01-0.28c0.023-0.183-0.028-0.267-0.028-0.267s-0.01,0.141-0.08,0.239c-0.055,0.077-0.209,0.171-0.275,0.208
			L4.69,11.972c0.039-0.033,0.107-0.115,0.126-0.309c0.014-0.128-0.047-0.338-0.129-0.6c-0.005-0.016-0.01-0.032-0.016-0.049
			c-0.093-0.297-0.208-0.656-0.275-1.037c-0.126-0.72-0.071-0.822,0-1.718c0.003-0.037,0.006-0.074,0.009-0.113V8.145
			C4.437,7.724,4.48,7.198,4.54,6.692c0.003-0.021,0.005-0.041,0.007-0.061c0.023-0.185,0.048-0.367,0.076-0.538V6.092
			c0.003-0.019,0.006-0.038,0.01-0.056c0.072-0.432,0.162-0.795,0.275-0.988c-0.005,0.034-0.071,0.474,0.3,0.516
			C5.595,5.608,5.966,5.564,5.966,5.564z"/>
		<g>
			<linearGradient id="SVGID_26_" gradientUnits="userSpaceOnUse" x1="4.6855" y1="7.3857" x2="6.0938" y2="7.3857">
				<stop  offset="0" style="stop-color:#7E1932"/>
				<stop  offset="1" style="stop-color:#5A0E0E"/>
			</linearGradient>
			<polygon fill="url(#SVGID_26_)" points="5.184,6.582 6.094,7.715 5.788,8.19 4.686,7.256 			"/>
			<polygon fill="#57110C" points="5.184,6.582 5.294,6.596 6.199,7.708 5.903,8.19 5.788,8.19 6.094,7.715 			"/>
			<linearGradient id="SVGID_27_" gradientUnits="userSpaceOnUse" x1="5.6011" y1="13.2114" x2="5.6011" y2="6.5269">
				<stop  offset="0" style="stop-color:#FDC48C"/>
				<stop  offset="1" style="stop-color:#F8A37F"/>
			</linearGradient>
			<path fill="url(#SVGID_27_)" d="M5.972,13.202C5.62,13.314,5.104,12.379,5,11.621c-0.104-0.759,0.179-2.775,0.2-3.017
				C5.221,8.362,5.014,7.67,4.976,7.502C4.938,7.333,5.098,6.859,5.2,6.759c0.102-0.101,0.472-0.241,0.519-0.231
				c0.047,0.009-0.046,0.181-0.183,0.231C5.4,6.809,5.349,6.882,5.318,6.948C5.288,7.015,5.273,7.104,5.273,7.104
				s0.152-0.198,0.22-0.23C5.561,6.84,5.641,6.818,5.68,6.851c0.039,0.033,0.044,0.065,0.044,0.065s0.022,0.005,0.088,0.015
				C5.878,6.94,5.911,7.104,5.911,7.104s0.07,0.009,0.126,0.061C6.094,7.216,6.15,7.573,6.131,7.587
				C6.112,7.601,6.105,7.594,6.063,7.561S6.021,7.383,5.942,7.352C5.864,7.319,5.699,7.61,5.691,7.667
				c-0.008,0.056,0.017,0.227,0,0.35C5.674,8.14,5.574,8.438,5.565,8.476c-0.01,0.039,0.379,2.208,0.575,2.958
				C6.337,12.184,6.188,13.134,5.972,13.202z"/>
			<path fill="#BBE3E4" d="M5.978,13.29c-0.168,0.098-0.474-0.185-0.713-0.628c-0.211-0.392-0.371-0.911-0.34-1.407
				C5.014,9.806,5.2,8.604,5.2,8.604l0.491-0.052c0,0,0.038,0.804,0.216,1.66c0.021,0.103,0.045,0.207,0.07,0.309
				C6.293,11.79,6.388,13.052,5.978,13.29z"/>
			<path fill="#E1794E" d="M5.812,6.931c0,0-0.146,0.021-0.227,0.07C5.505,7.05,5.42,7.134,5.42,7.134s0.142-0.138,0.177-0.166
				s0.127-0.052,0.127-0.052L5.812,6.931z"/>
			<path fill="#E1794E" d="M5.966,7.12c0,0-0.149,0.012-0.217,0.049S5.627,7.23,5.627,7.23S5.74,7.13,5.782,7.099
				c0.042-0.03,0.11-0.063,0.11-0.063L5.966,7.12z"/>
		</g>
		<path opacity="0.2" fill="#645EAA" d="M5.978,13.29c-0.168,0.098-0.474-0.185-0.713-0.628c0,0,0.444-0.675,0.576-1.598
			c0.042-0.289,0.06-0.583,0.067-0.852c0.021,0.103,0.045,0.207,0.07,0.309C6.293,11.79,6.388,13.052,5.978,13.29z"/>
		<polygon fill="#D5EEF4" points="5.176,8.814 5.2,8.604 5.691,8.552 5.707,8.782 		"/>
	</g>
</g>
</svg>
