<?xml version="1.0" encoding="utf-8"?>
<!-- Generator: Adobe Illustrator 16.0.0, SVG Export Plug-In . SVG Version: 6.00 Build 0)  -->
<!DOCTYPE svg PUBLIC "-//W3C//DTD SVG 1.1//EN" "http://www.w3.org/Graphics/SVG/1.1/DTD/svg11.dtd">
<svg version="1.1" id="Layer_1" xmlns="http://www.w3.org/2000/svg" xmlns:xlink="http://www.w3.org/1999/xlink" x="0px" y="0px"
	 width="30px" height="30px" viewBox="-5 -5 30 30" enable-background="new -5 -5 30 30" xml:space="preserve">
<g>
	<g>
		<path fill="#FFC107" d="M2.5,4.375c0-0.518-0.419-0.938-0.938-0.938h-5.625C-4.581,3.438-5,3.857-5,4.375s0.419,0.938,0.938,0.938
			h5.625C2.081,5.313,2.5,4.893,2.5,4.375z"/>
		<path fill="#FFC107" d="M1.563,7.188h-3.75c-0.518,0-0.938,0.419-0.938,0.938s0.42,0.938,0.938,0.938h3.75
			c0.518,0,0.938-0.419,0.938-0.938S2.081,7.188,1.563,7.188z"/>
		<path fill="#FFC107" d="M1.563,10.938h-1.875c-0.518,0-0.938,0.421-0.938,0.938s0.419,0.938,0.938,0.938h1.875
			c0.518,0,0.938-0.421,0.938-0.938S2.081,10.938,1.563,10.938z"/>
	</g>
	<path fill="#F44336" d="M24.867,10.456l-2.813-4.688c-0.169-0.283-0.475-0.456-0.805-0.456h-6.563
		c-0.518,0-0.938,0.419-0.938,0.938v9.375c0,0.517,0.42,0.938,0.938,0.938h9.376c0.517,0,0.937-0.421,0.937-0.938v-4.688
		C25,10.768,24.955,10.6,24.867,10.456z"/>
	<polygon fill="#FAFAFA" points="17.5,7.188 20.72,7.188 22.97,10.938 17.5,10.938 	"/>
	<path fill="#FFC107" d="M14.688,1.563H1.563c-0.518,0-0.938,0.419-0.938,0.938v13.125c0,0.517,0.42,0.938,0.938,0.938h14.063V2.5
		C15.625,1.982,15.204,1.563,14.688,1.563z"/>
	<circle fill="#FAFAFA" cx="20.313" cy="15.625" r="1.875"/>
	<path fill="#455A64" d="M20.313,18.438c-1.552,0-2.813-1.262-2.813-2.813s1.262-2.813,2.813-2.813c1.551,0,2.812,1.262,2.812,2.813
		S21.864,18.438,20.313,18.438z M20.313,14.688c-0.517,0-0.938,0.422-0.938,0.938s0.422,0.938,0.938,0.938
		c0.515,0,0.937-0.422,0.937-0.938S20.828,14.688,20.313,14.688z"/>
	<path fill="#F44336" d="M15.625,16.563H1.563c-0.518,0-0.938-0.421-0.938-0.938v-2.813h15V16.563z"/>
	<circle fill="#FAFAFA" cx="7.188" cy="15.625" r="1.875"/>
	<path fill="#455A64" d="M7.188,18.438c-1.551,0-2.812-1.262-2.812-2.813s1.261-2.813,2.812-2.813S10,14.074,10,15.625
		S8.738,18.438,7.188,18.438z M7.188,14.688c-0.518,0-0.938,0.422-0.938,0.938s0.419,0.938,0.938,0.938
		c0.518,0,0.938-0.422,0.938-0.938S7.705,14.688,7.188,14.688z"/>
</g>
</svg>
