<?xml version="1.0" encoding="utf-8"?>
<!-- Generator: Adobe Illustrator 16.0.0, SVG Export Plug-In . SVG Version: 6.00 Build 0)  -->
<!DOCTYPE svg PUBLIC "-//W3C//DTD SVG 1.1//EN" "http://www.w3.org/Graphics/SVG/1.1/DTD/svg11.dtd">
<svg version="1.1" id="Layer_1" xmlns="http://www.w3.org/2000/svg" xmlns:xlink="http://www.w3.org/1999/xlink" x="0px" y="0px"
	 width="30px" height="30px" viewBox="0 0 30 30" enable-background="new 0 0 30 30" xml:space="preserve">
<g>
	<path fill="#27AAE1" d="M29.767,13.589l-3.717-7.97c-0.581-1.245-2.066-1.785-3.312-1.205L9.191,10.732
		c-1.245,0.58-1.786,2.065-1.206,3.312l0.153,0.328c-0.569,0.581-1.021,1.484-1.021,1.484c0.215-0.306,1.358-1.293,1.562-1.468
		c0.055-0.044,0.107-0.087,0.163-0.13L9,14.136l-0.216-0.465c-0.033-0.07-0.06-0.143-0.083-0.218l2.103,0.478
		c-0.485,0.32-0.959,0.663-1.423,1.022c-0.238,0.185-0.474,0.373-0.706,0.565C3.544,19.781,0,25.819,0,25.819
		c3.953-4.776,7.028-7.561,9.199-9.176c0.255-0.189,0.497-0.363,0.727-0.522c2.077-1.434,3.133-1.662,3.133-1.662l0.005-0.015
		l2.312,0.526c-1.631,0.881-3.176,1.949-4.566,3.043c-0.24,0.189-0.475,0.379-0.706,0.569c-3.503,2.885-5.866,5.769-5.866,5.769
		c2.382-2.106,4.456-3.729,6.233-4.981c0.251-0.177,0.495-0.346,0.734-0.508c1.584-1.074,2.912-1.838,3.993-2.381l-2.674,5.207
		c-0.008-0.016-0.016-0.031-0.023-0.048l-0.856-1.836c0,0-0.034,0.023-0.093,0.064c-0.161,0.109-0.323,0.222-0.49,0.34l-0.15,0.105
		l0.003,0.007c-0.736,0.536-1.794,1.354-2.013,1.775c0,0,1.216-0.845,2.252-1.262l0.549,1.178c0.581,1.245,2.066,1.786,3.312,1.205
		l13.547-6.317C29.807,16.32,30.347,14.834,29.767,13.589z M25.253,5.991l3.716,7.97c0.008,0.016,0.015,0.032,0.021,0.048
		l-7.23-1.644l3.379-6.578C25.182,5.853,25.22,5.921,25.253,5.991z M13.383,13.466l-1.323-0.302l-3.318-0.754
		c0.149-0.389,0.442-0.705,0.822-0.882L23.11,5.211c0.379-0.177,0.81-0.198,1.203-0.063l-4.48,8.724
		c-0.111,0.216-0.312,0.41-0.56,0.546c-0.03,0.018-0.062,0.033-0.094,0.049c-0.291,0.135-0.609,0.179-0.876,0.118l-1.477-0.336
		L13.383,13.466z M28.189,16.104l-13.547,6.317c-0.426,0.198-0.918,0.198-1.345,0.006l3.405-6.631
		c0.331-0.134,0.623-0.24,0.878-0.324l0.496,0.113c0.491,0.111,1.037,0.045,1.537-0.188s0.902-0.608,1.132-1.056l0.531-1.034
		l7.782,1.77C28.933,15.527,28.615,15.906,28.189,16.104z"/>
</g>
</svg>
