<?xml version="1.0" encoding="utf-8"?>
<!-- Generator: Adobe Illustrator 16.0.0, SVG Export Plug-In . SVG Version: 6.00 Build 0)  -->
<!DOCTYPE svg PUBLIC "-//W3C//DTD SVG 1.1//EN" "http://www.w3.org/Graphics/SVG/1.1/DTD/svg11.dtd">
<svg version="1.1" id="Layer_1" xmlns="http://www.w3.org/2000/svg" xmlns:xlink="http://www.w3.org/1999/xlink" x="0px" y="0px"
	 width="30px" height="30px" viewBox="-5 -5 30 30" enable-background="new -5 -5 30 30" xml:space="preserve">
<g>
	<path fill="#048028" d="M4.636,5.228c0.47-1.287,0.938-2.578,1.41-3.867c0.53-1.443,1.744-2.02,3.181-1.498
		c4.703,1.711,9.406,3.425,14.11,5.14c1.417,0.517,1.991,1.746,1.475,3.166c-0.979,2.699-1.965,5.397-2.949,8.095
		c-0.477,1.307-1.734,1.905-3.046,1.441c-0.772-0.273-1.537-0.566-2.31-0.837c-0.206-0.072-0.287-0.173-0.285-0.397
		c0.013-0.97,0.007-1.941,0.01-2.912c0-0.107,0.018-0.216,0.027-0.347c0.105,0.029,0.171,0.044,0.235,0.065
		c0.878,0.316,1.755,0.64,2.635,0.953c0.414,0.146,0.74-0.014,0.816-0.377c0.069-0.32-0.084-0.554-0.47-0.695
		c-0.964-0.354-1.927-0.711-2.896-1.047c-0.256-0.088-0.363-0.199-0.354-0.485c0.022-0.772,0.009-1.55,0.008-2.323
		c-0.003-2.164-1.555-3.714-3.717-3.712c-1.94,0.001-3.882,0.001-5.823,0.001c-0.713,0-1.424,0-2.172,0
		C4.566,5.442,4.6,5.335,4.636,5.228z M21.106,10.515c0.152-0.385,0.293-0.774,0.423-1.169c0.163-0.495-0.046-0.966-0.531-1.159
		c-0.566-0.225-1.142-0.436-1.72-0.627c-0.477-0.158-0.959,0.06-1.147,0.516c-0.168,0.402-0.313,0.816-0.443,1.234
		c-0.13,0.42,0.045,0.887,0.441,1.053c0.623,0.266,1.27,0.479,1.909,0.712c0.063,0.022,0.137,0.014,0.205,0.02
		C20.65,11.08,20.956,10.901,21.106,10.515z"/>
	<path fill="#FCA800" d="M-2.544,20.321c-1.506-0.006-2.442-0.943-2.446-2.448C-5,14.996-5,12.12-4.994,9.243
		c0.004-1.42,0.988-2.389,2.404-2.389c4.888,0,9.773-0.002,14.659,0c0.322,0,0.652-0.021,0.968,0.032
		c1.167,0.197,1.93,1.118,1.935,2.347c0.011,2.925,0.008,5.847,0.004,8.77c0,0.215-0.042,0.438-0.1,0.646
		c-0.295,1.051-1.164,1.672-2.348,1.674c-2.507,0.005-5.011,0.002-7.52,0.002C2.49,20.325-0.027,20.331-2.544,20.321z
		 M-3.396,18.058c0.004,0.446,0.309,0.682,0.823,0.683c1.7,0.004,3.398,0.004,5.097,0.004c3.258,0,6.516,0,9.771,0
		c0.138,0,0.277,0.004,0.415-0.013c0.391-0.039,0.668-0.28,0.671-0.664c0.012-1.651,0.003-3.301,0-4.953
		c0-0.02-0.019-0.041-0.038-0.082c-5.56,0-11.134,0-16.746,0C-3.404,14.731-3.411,16.396-3.396,18.058z M13.347,10.17
		c0-0.413,0.039-0.826-0.012-1.229c-0.043-0.338-0.354-0.506-0.762-0.506c-2.276-0.002-4.554-0.002-6.83-0.002
		c-2.738,0-5.479,0-8.218,0c-0.702,0-0.93,0.227-0.932,0.934c0,0.262,0,0.523,0,0.804C2.198,10.17,7.766,10.17,13.347,10.17z"/>
	<path fill="#048028" d="M7.369,15.589c-1.314,0-2.633,0.002-3.948-0.001c-0.376-0.002-0.601-0.194-0.622-0.508
		c-0.023-0.361,0.223-0.595,0.641-0.597c1.203-0.004,2.403-0.002,3.604-0.002c1.42,0,2.839,0.002,4.259-0.002
		c0.306-0.002,0.552,0.121,0.594,0.41c0.026,0.184-0.071,0.432-0.202,0.571c-0.103,0.106-0.338,0.123-0.514,0.124
		c-1.271,0.009-2.539,0.005-3.809,0.005C7.371,15.589,7.371,15.588,7.369,15.589z"/>
</g>
</svg>
