<?xml version="1.0" encoding="utf-8"?>
<!-- Generator: Adobe Illustrator 16.0.0, SVG Export Plug-In . SVG Version: 6.00 Build 0)  -->
<!DOCTYPE svg PUBLIC "-//W3C//DTD SVG 1.1//EN" "http://www.w3.org/Graphics/SVG/1.1/DTD/svg11.dtd">
<svg version="1.1" id="Layer_1" xmlns="http://www.w3.org/2000/svg" xmlns:xlink="http://www.w3.org/1999/xlink" x="0px" y="0px"
	 width="30px" height="30px" viewBox="0 0 30 30" enable-background="new 0 0 30 30" xml:space="preserve">
<path fill="#048028" d="M15,30C6.729,30,0,23.271,0,15C0,6.729,6.729,0,15,0c8.271,0,15,6.729,15,15C30,23.271,23.271,30,15,30z
	 M15,1.875C7.763,1.875,1.875,7.763,1.875,15S7.763,28.125,15,28.125S28.125,22.237,28.125,15S22.237,1.875,15,1.875z"/>
<circle fill="#FCA800" cx="15.001" cy="8.395" r="4.462"/>
<path fill="#FCA800" d="M16.895,13.73h-3.788c-3.15,0-5.714,2.563-5.714,5.713v4.631l0.012,0.073l0.319,0.101
	c3.006,0.938,5.619,1.252,7.769,1.252c4.2,0,6.634-1.197,6.784-1.274l0.299-0.15h0.032v-4.632
	C22.607,16.293,20.045,13.73,16.895,13.73z"/>
</svg>
