<?xml version="1.0" encoding="utf-8"?>
<!-- Generator: Adobe Illustrator 16.0.0, SVG Export Plug-In . SVG Version: 6.00 Build 0)  -->
<!DOCTYPE svg PUBLIC "-//W3C//DTD SVG 1.1//EN" "http://www.w3.org/Graphics/SVG/1.1/DTD/svg11.dtd">
<svg version="1.1" id="Layer_1" xmlns="http://www.w3.org/2000/svg" xmlns:xlink="http://www.w3.org/1999/xlink" x="0px" y="0px"
	 width="50px" height="50px" viewBox="0 0 50 50" enable-background="new 0 0 50 50" xml:space="preserve">
<g>
	<linearGradient id="SVGID_1_" gradientUnits="userSpaceOnUse" x1="25.5801" y1="3.0469" x2="25.5801" y2="46.0337">
		<stop  offset="0" style="stop-color:#00AC4E"/>
		<stop  offset="1" style="stop-color:#008948"/>
	</linearGradient>
	<path fill-rule="evenodd" clip-rule="evenodd" fill="url(#SVGID_1_)" d="M25.581,3.047c-11.946,0-21.662,9.641-21.662,21.494
		c0,4.7,1.532,9.058,4.126,12.603l-2.705,7.98l8.323-2.645c3.419,2.243,7.517,3.554,11.918,3.554c11.941,0,21.66-9.642,21.66-21.492
		C47.241,12.688,37.522,3.047,25.581,3.047L25.581,3.047z"/>
	<g>
		<path fill-rule="evenodd" clip-rule="evenodd" fill="#FFFFFF" d="M50,24.357c0,13.45-10.989,24.355-24.544,24.355
			c-4.306,0-8.35-1.1-11.866-3.03L0,50l4.43-13.066c-2.235-3.671-3.521-7.976-3.521-12.577C0.909,10.905,11.898,0,25.456,0
			C39.011,0,50,10.905,50,24.357L50,24.357z M25.456,3.879c-11.382,0-20.638,9.185-20.638,20.478c0,4.478,1.459,8.629,3.931,12.006
			l-2.577,7.604l7.929-2.52c3.258,2.138,7.161,3.386,11.355,3.386c11.377,0,20.635-9.186,20.635-20.476
			C46.091,13.064,36.833,3.879,25.456,3.879L25.456,3.879z M37.85,29.967c-0.151-0.249-0.553-0.398-1.152-0.697
			c-0.603-0.298-3.562-1.744-4.112-1.941c-0.551-0.199-0.955-0.299-1.354,0.298c-0.401,0.597-1.555,1.942-1.907,2.341
			c-0.35,0.399-0.7,0.447-1.302,0.149c-0.603-0.298-2.543-0.931-4.84-2.962c-1.788-1.585-2.995-3.538-3.348-4.135
			c-0.349-0.597-0.034-0.919,0.263-1.217c0.272-0.269,0.603-0.697,0.904-1.044c0.301-0.35,0.401-0.6,0.602-0.999
			c0.201-0.399,0.101-0.746-0.051-1.045c-0.149-0.297-1.354-3.236-1.856-4.433c-0.499-1.193-1-1.148-1.353-1.148
			c-0.35,0-1,0.104-1,0.104s-1.206,0.149-1.757,0.747c-0.551,0.597-2.105,2.042-2.105,4.978c0,2.938,2.154,5.778,2.455,6.173
			c0.302,0.399,4.161,6.625,10.278,9.015c6.118,2.39,6.118,1.592,7.222,1.491c1.101-0.097,3.559-1.443,4.061-2.838
			C37.999,31.41,37.999,30.214,37.85,29.967L37.85,29.967z M37.85,29.967"/>
	</g>
</g>
</svg>
