<?xml version="1.0" encoding="utf-8"?>
<!-- Generator: Adobe Illustrator 15.0.0, SVG Export Plug-In . SVG Version: 6.00 Build 0)  -->
<!DOCTYPE svg PUBLIC "-//W3C//DTD SVG 1.1//EN" "http://www.w3.org/Graphics/SVG/1.1/DTD/svg11.dtd">
<svg version="1.1" id="Layer_1" xmlns="http://www.w3.org/2000/svg" xmlns:xlink="http://www.w3.org/1999/xlink" x="0px" y="0px"
	 width="30px" height="30px" viewBox="0 0 30 30" enable-background="new 0 0 30 30" xml:space="preserve">
<g>
	<path fill="#048028" d="M9.615,14.423c-0.077,0-0.155-0.018-0.228-0.055c-0.242-0.127-0.337-0.426-0.21-0.668l3.072-5.933
		c0.125-0.242,0.424-0.337,0.666-0.211c0.243,0.126,0.337,0.425,0.211,0.667l-3.072,5.933C9.966,14.326,9.793,14.423,9.615,14.423z"
		/>
	<path fill="#048028" d="M22.37,12.998h-1.244l0.262,0.505c0.233,0.45,0.057,1.007-0.392,1.241
		c-0.131,0.068-0.276,0.104-0.423,0.104c-0.344,0-0.657-0.19-0.815-0.496l-0.7-1.354h-7.927l-0.701,1.354
		c-0.159,0.306-0.471,0.496-0.815,0.496c-0.146,0-0.292-0.035-0.423-0.104C8.743,14.51,8.567,13.954,8.8,13.503l0.262-0.505H7.63
		c-0.582,0-1.053,0.472-1.053,1.055v1.056c0,0.584,0.471,1.056,1.053,1.056L8.683,22.5h12.634l1.053-6.335
		c0.581,0,1.053-0.472,1.053-1.056v-1.056C23.423,13.47,22.951,12.998,22.37,12.998z M11.315,20.916
		c0,0.292-0.236,0.527-0.526,0.527c-0.291,0-0.526-0.235-0.526-0.527v-3.167c0-0.292,0.235-0.528,0.526-0.528
		c0.291,0,0.526,0.236,0.526,0.528V20.916z M13.42,20.916c0,0.292-0.235,0.527-0.526,0.527c-0.292,0-0.526-0.235-0.526-0.527v-3.167
		c0-0.292,0.235-0.528,0.526-0.528c0.291,0,0.526,0.236,0.526,0.528V20.916z M15.526,20.916c0,0.292-0.235,0.527-0.526,0.527
		s-0.526-0.235-0.526-0.527v-3.167c0-0.292,0.235-0.528,0.526-0.528s0.526,0.236,0.526,0.528V20.916z M17.632,20.916
		c0,0.292-0.235,0.527-0.526,0.527s-0.526-0.235-0.526-0.527v-3.167c0-0.292,0.235-0.528,0.526-0.528s0.526,0.236,0.526,0.528
		V20.916z M19.737,20.916c0,0.292-0.234,0.527-0.526,0.527c-0.291,0-0.526-0.235-0.526-0.527v-3.167
		c0-0.292,0.235-0.528,0.526-0.528c0.292,0,0.526,0.236,0.526,0.528V20.916z"/>
	<g>
		<g>
			<g>
				<g>
					<path fill="#048028" d="M20.573,14.423c0.076,0,0.155-0.018,0.228-0.055c0.242-0.127,0.336-0.426,0.211-0.668l-3.072-5.933
						c-0.126-0.242-0.424-0.337-0.667-0.211c-0.241,0.126-0.336,0.425-0.21,0.667l3.071,5.933
						C20.222,14.326,20.395,14.423,20.573,14.423z"/>
				</g>
			</g>
		</g>
	</g>
</g>
</svg>
