<?xml version="1.0" encoding="utf-8"?>
<!-- Generator: Adobe Illustrator 15.0.0, SVG Export Plug-In . SVG Version: 6.00 Build 0)  -->
<!DOCTYPE svg PUBLIC "-//W3C//DTD SVG 1.1//EN" "http://www.w3.org/Graphics/SVG/1.1/DTD/svg11.dtd">
<svg version="1.1" id="Layer_1" xmlns="http://www.w3.org/2000/svg" xmlns:xlink="http://www.w3.org/1999/xlink" x="0px" y="0px"
	 width="30px" height="30px" viewBox="0 0 30 30" enable-background="new 0 0 30 30" xml:space="preserve">
<path fill="#048028" d="M29.965,20.815c-0.054-0.248-0.148-0.488-0.229-0.73c-0.16-0.484-0.309-0.975-0.488-1.451
	c-0.146-0.39-0.399-0.751-0.485-1.15c-0.146-0.685-0.142-1.359,0.045-2.078c0.161-0.623,0.265-1.331-0.116-2.003
	c-0.446-0.791-0.87-1.606-0.897-2.561c-0.009-0.319-0.109-0.643-0.213-0.949c-0.131-0.389-0.374-0.704-0.792-0.822
	c-0.44-0.125-0.521-0.223-0.518-0.678c0.003-0.249,0.063-0.532-0.034-0.74c-0.133-0.289-0.496-0.094-0.706-0.179
	c-0.486-0.198-0.858,0.035-1.269,0.171c-0.233,0.078-0.284,0.242-0.245,0.468c0.064,0.373,0.065,0.771,0.473,0.981
	c0.04,0.021,0.047,0.101,0.075,0.149c0.065,0.11,0.129,0.222,0.201,0.327c0.187,0.268,0.438,0.403,0.696,0.318
	c-0.019,0.538-0.038,1.041-0.054,1.543c-0.005,0.163,0.033,0.336-0.008,0.488c-0.057,0.212-0.146,0.426-0.266,0.609
	c-0.112,0.172-0.269,0.327-0.433,0.453c-0.299,0.228-0.601,0.464-0.933,0.632c-0.384,0.193-0.577,0.594-0.405,0.987
	c0.037,0.084,0.071,0.175,0.077,0.265c0.056,0.704-0.188,1.337-0.485,2.049c-0.227-0.321-0.368-0.631-0.604-0.832
	c-0.551-0.471-0.818-1.081-0.909-1.76c-0.096-0.713-0.115-1.437-0.149-2.157c-0.026-0.562-0.184-1.073-0.633-1.423
	c-0.536-0.418-1.133-0.75-1.817-0.843C18.53,9.856,18.2,9.901,17.881,9.936c-0.32,0.035-0.635,0.126-0.955,0.157
	c-0.613,0.06-1.228,0.104-1.843,0.136c-0.964,0.049-1.913,0.02-2.747-0.573c-0.373-0.266-0.752-0.142-1.126,0.023
	c-0.571,0.252-1.14,0.513-1.72,0.745c-0.137,0.055-0.315,0.008-0.485,0.008c0.056-0.248,0.092-0.411,0.145-0.646
	C8.922,9.854,8.765,9.9,8.594,9.95c0.059-0.32,0.168-0.624,0.155-0.923C8.73,8.568,8.542,8.341,8.26,8.307
	C8.246,8.814,8.303,9.354,7.818,9.679C7.489,9.253,7.186,8.861,6.882,8.468C6.824,8.496,6.766,8.522,6.708,8.55
	c0.071,0.267,0.099,0.554,0.222,0.794c0.172,0.336,0.2,0.648-0.001,0.958c-0.209,0.321-0.446,0.625-0.678,0.931
	c-0.037,0.047-0.118,0.085-0.179,0.085c-0.585,0.007-1.108,0.2-1.637,0.439c-0.2,0.09-0.508-0.05-0.761-0.11
	c-0.011-0.002,0.037-0.249,0.053-0.383c0.002-0.019-0.017-0.042-0.043-0.104c-0.162,0.041-0.331,0.083-0.542,0.135
	C3.032,10.694,3.407,10,2.706,9.551c0,0.316,0,0.633,0,0.949c-0.2-0.229-0.091-0.625-0.503-0.689
	C2.184,9.855,2.162,9.886,2.16,9.918c-0.007,0.081-0.021,0.167-0.003,0.244c0.146,0.629-0.116,1.063-0.616,1.425
	c-0.473,0.342-0.675,0.844-0.702,1.422c-0.006,0.125-0.027,0.26-0.083,0.37c-0.206,0.402-0.427,0.797-0.647,1.191
	c-0.139,0.249-0.167,0.482,0.056,0.7c0.354,0.345,0.702,0.4,1.12,0.143c0.361-0.223,0.729-0.305,1.125-0.125
	c0.571,0.26,1.155,0.293,1.77,0.178c0.744-0.14,0.832-0.058,0.928,0.688c0.077,0.596,0.411,0.952,0.99,1.063
	c0.111,0.021,0.221,0.051,0.426,0.099c-0.268,0.341-0.483,0.611-0.694,0.886c-0.323,0.421-0.331,0.53,0.01,0.943
	c0.215,0.261,0.458,0.497,0.701,0.731c0.331,0.319,0.678,0.621,1.01,0.938c0.182,0.174,0.076,0.984-0.148,1.216
	c-0.073,0.075-0.17,0.136-0.216,0.225c-0.035,0.066-0.005,0.166-0.004,0.252c0.025,0.098,0.427-0.049,0.427-0.049
	s0.101,0.083,0.311,0.139c0.116,0.03,0.153-0.026,0.164-0.085c0,0,0.002,0,0.002,0c0.329-0.505-0.049-1.146,0.258-1.652
	c0.446-0.071,0.452-0.093,0.336-0.518c-0.057-0.211-0.125-0.439-0.097-0.648c0.092-0.688,0.223-1.371,0.342-2.055
	c0.011-0.064,0.029-0.144,0.073-0.185c0.264-0.247,0.93-0.197,1.177,0.065c0.199,0.211,0.434,0.39,0.626,0.606
	c0.236,0.266,0.432,0.567,0.669,0.83c0.129,0.143,0.301,0.256,0.472,0.347c0.092,0.049,0.224,0.021,0.413,0.033
	c-0.061,0.17-0.11,0.299-0.151,0.43c-0.028,0.091-0.094,0.215-0.059,0.271c0.116,0.187,0.774,0.084,0.809-0.134
	c0.069-0.431,0.281-0.825,0.154-1.308c-0.185-0.697-0.007-0.907,0.678-1.126c0.285-0.092,0.452-0.035,0.503,0.268
	c0.114,0.687,0.242,1.37,0.33,2.06c0.035,0.271,0.013,0.563-0.048,0.831c-0.125,0.548-0.408,1.001-0.884,1.332
	c-0.098,0.068-0.136,0.249-0.159,0.386c-0.009,0.052,0.1,0.171,0.161,0.176c0.109,0.007,0.223-0.049,0.364-0.087
	c0.193,0.264,0.616,0.206,0.759-0.178c0.206-0.554,0.509-1.038,0.885-1.49c0.401-0.482,0.792-0.976,1.152-1.488
	c0.184-0.259,0.294-0.57,0.443-0.872c1.022,0.615,2.062,1.162,2.4,2.423c0.117,0.438,0.284,0.851-0.191,1.189
	c-0.07,0.051-0.087,0.201-0.09,0.306c0,0.034,0.128,0.108,0.188,0.1c0.104-0.016,0.212-0.067,0.295-0.133
	c0.031-0.024,0.033-0.088,0.03-0.106c0.066,0.065,0.156,0.225,0.268,0.241c0.285,0.042,0.414-0.188,0.474-0.768
	c0.118-0.032,0.244-0.06,0.364-0.1c0.556-0.188,1.124-0.39,1.455-0.903c0.184-0.283,0.357-0.389,0.689-0.379
	c0.152,0.005,0.311-0.182,0.466-0.281c-0.1-0.112-0.178-0.268-0.302-0.328c-0.28-0.137-0.352-0.315-0.228-0.592
	c0.053-0.116,0.102-0.235,0.142-0.356c0.346-1.05,0.722-2.091,1.017-3.154c0.104-0.372,0.144-0.711,0.532-0.9
	c0.101-0.049,0.188-0.187,0.222-0.301c0.138-0.464,0.53-0.6,0.961-0.812c-0.082,0.765,0.056,1.496-0.407,2.135
	c-0.189,0.262-0.323,0.566-0.477,0.854c-0.245,0.458-0.22,0.621,0.152,0.982c0.092,0.089,0.19,0.172,0.291,0.251
	c0.574,0.458,1.149,0.914,1.725,1.37c0.54,0.429,0.472,0.746,0.112,1.252c-0.101,0.143-0.124,0.341-0.184,0.513
	c0.177-0.045,0.357-0.077,0.528-0.141c0.094-0.034,0.166-0.126,0.255-0.182c0.293-0.184,0.589-0.362,0.896-0.55
	c0.193,0.76,0.158,0.818-0.532,1.049c-0.091,0.03-0.161,0.127-0.24,0.192c0.098,0.046,0.196,0.132,0.293,0.13
	c0.377-0.006,0.753-0.06,1.129-0.06C29.97,21.346,30.062,21.264,29.965,20.815z M7.562,19.613c-0.036,0.018-0.071,0.035-0.106,0.053
	c-0.247-0.218-0.508-0.422-0.729-0.663c-0.047-0.051,0.012-0.269,0.086-0.349c0.155-0.168,0.35-0.302,0.538-0.436
	c0.067-0.049,0.185-0.101,0.24-0.073c0.059,0.03,0.103,0.155,0.096,0.234C7.655,18.792,7.605,19.203,7.562,19.613z M11.351,17.538
	c0.632-0.171,0.973,0.125,1.016,0.855C11.907,18.474,11.608,18.229,11.351,17.538z M16.021,18.995
	c-0.144-0.43-0.118-0.769,0.054-1.085c0.031-0.059,0.195-0.105,0.259-0.075c0.174,0.083,0.326,0.211,0.586,0.388
	C16.599,18.499,16.328,18.731,16.021,18.995z M17.16,17.505c-0.192-0.143-0.384-0.286-0.576-0.429
	c0.023-0.033,0.046-0.066,0.069-0.1c0.199,0.133,0.399,0.266,0.599,0.398C17.221,17.418,17.19,17.462,17.16,17.505z M22.162,19.013
	c-0.372,0.476-0.718,0.971-1.096,1.44c-0.132,0.164-0.326,0.277-0.565,0.475c-0.163-0.866-0.297-1.62-0.452-2.37
	c-0.033-0.16-0.127-0.313-0.218-0.454c-0.067-0.105-0.179-0.183-0.263-0.279c-0.689-0.803-0.65-2.061,0.157-2.837
	c0.303,0.305,0.61,0.61,0.912,0.919c0.65,0.667,1.094,1.48,1.575,2.266C22.385,18.455,22.378,18.736,22.162,19.013z M26.338,17.21
	c-0.146-0.139-0.177-0.282-0.024-0.419c0.282-0.255,0.578-0.497,0.941-0.806c0.192,1.203,0.567,2.264,1.183,3.233
	C27.737,18.549,27.039,17.877,26.338,17.21z"/>
</svg>
