<?xml version="1.0" encoding="utf-8"?>
<!-- Generator: Adobe Illustrator 15.0.0, SVG Export Plug-In . SVG Version: 6.00 Build 0)  -->
<!DOCTYPE svg PUBLIC "-//W3C//DTD SVG 1.1//EN" "http://www.w3.org/Graphics/SVG/1.1/DTD/svg11.dtd">
<svg version="1.1" id="Layer_1" xmlns="http://www.w3.org/2000/svg" xmlns:xlink="http://www.w3.org/1999/xlink" x="0px" y="0px"
	 width="20px" height="20px" viewBox="0 0 20 20" enable-background="new 0 0 20 20" xml:space="preserve">
<g>
	<path fill="#048028" d="M0.68,0.671c-0.374,0.033-0.659,0.345-0.659,0.72v16.541c0,0.352,0.25,0.65,0.596,0.712l7.55,1.345
		c0.211,0.038,0.427-0.02,0.591-0.157c0.165-0.138,0.259-0.34,0.259-0.554V0.723c0-0.204-0.084-0.396-0.234-0.533
		C8.631,0.052,8.433-0.015,8.229,0.003L0.68,0.671z M7.037,10.989c-0.311,0-0.563-0.443-0.563-0.989
		c0-0.546,0.252-0.988,0.563-0.988S7.6,9.454,7.6,10C7.6,10.545,7.348,10.989,7.037,10.989z"/>
	<polygon fill="#FCA800" points="19.979,9.613 14.078,5.231 14.078,7.504 9.493,7.504 9.493,11.693 14.078,11.693 14.078,13.966 	
		"/>
	<ellipse fill="#FFFFFF" cx="7.037" cy="10" rx="0.563" ry="0.989"/>
	<path fill="#048028" d="M13.564,6.86V1.206c0-0.149-0.061-0.294-0.166-0.399c-0.104-0.105-0.248-0.165-0.396-0.165H9.493v1.126
		h2.944V6.86H13.564z"/>
	<path fill="#048028" d="M9.493,18.232v1.126h3.509c0.148,0,0.293-0.06,0.396-0.165c0.105-0.104,0.166-0.25,0.166-0.398v-6.491
		h-1.127v5.929H9.493z"/>
</g>
</svg>
