<?xml version="1.0" encoding="utf-8"?>
<!-- Generator: Adobe Illustrator 15.0.0, SVG Export Plug-In . SVG Version: 6.00 Build 0)  -->
<!DOCTYPE svg PUBLIC "-//W3C//DTD SVG 1.1//EN" "http://www.w3.org/Graphics/SVG/1.1/DTD/svg11.dtd">
<svg version="1.1" id="Layer_1" xmlns="http://www.w3.org/2000/svg" xmlns:xlink="http://www.w3.org/1999/xlink" x="0px" y="0px"
	 width="20px" height="20px" viewBox="0 0 20 20" enable-background="new 0 0 20 20" xml:space="preserve">
<g>
	<defs>
		<path id="SVGID_1_" d="M0,10c0,5.522,4.477,10,10,10c5.522,0,10-4.478,10-10c0-5.523-4.478-10-10-10C4.477,0,0,4.477,0,10"/>
	</defs>
	<use xlink:href="#SVGID_1_"  overflow="visible" fill="#048028"/>
	<clipPath id="SVGID_2_">
		<use xlink:href="#SVGID_1_"  overflow="visible"/>
	</clipPath>
	<path clip-path="url(#SVGID_2_)" fill="#048028" d="M20,10c0,5.522-4.478,10-10,10C4.477,20,0,15.522,0,10C0,4.477,4.477,0,10,0
		C15.522,0,20,4.477,20,10"/>
	<path clip-path="url(#SVGID_2_)" fill="#FFFFFF" d="M17.88,16.008c-0.89-0.43-2.482-1.204-2.942-1.419
		c-0.461-0.215-1.717-0.864-1.717-0.864s-0.061-1.045-0.429-1.106l0.062-0.707c0,0,0.43-0.982,0.43-1.596
		c0,0,0.43,0.368,0.584-0.461c0.153-0.829,0.368-2.363-0.308-1.995c0,0,0.139-1.228,0.016-1.964S12.823,2.886,10,2.886
		c-2.824,0-3.453,2.271-3.576,3.008s0.016,1.964,0.016,1.964C5.764,7.491,5.979,9.025,6.133,9.854
		c0.153,0.829,0.583,0.461,0.583,0.461c0,0.614,0.43,1.596,0.43,1.596l0.063,0.707c-0.369,0.062-0.43,1.106-0.43,1.106
		s-1.256,0.649-1.717,0.864c-0.46,0.215-2.053,0.989-2.942,1.419c-0.891,0.43-0.975,3.144-0.975,3.144L10,20.362l8.854-1.211
		C18.854,19.151,18.771,16.438,17.88,16.008"/>
</g>
</svg>
