<?xml version="1.0" encoding="utf-8"?>
<!-- Generator: Adobe Illustrator 15.0.0, SVG Export Plug-In . SVG Version: 6.00 Build 0)  -->
<!DOCTYPE svg PUBLIC "-//W3C//DTD SVG 1.1//EN" "http://www.w3.org/Graphics/SVG/1.1/DTD/svg11.dtd">
<svg version="1.1" id="Layer_1" xmlns="http://www.w3.org/2000/svg" xmlns:xlink="http://www.w3.org/1999/xlink" x="0px" y="0px"
	 width="30px" height="30px" viewBox="0 0 30 30" enable-background="new 0 0 30 30" xml:space="preserve">
<g>
	<path fill="#048028" d="M11.265,9.216c0-0.947,0.768-1.716,1.716-1.716h3.791c0.947,0,1.715,0.769,1.715,1.716v3.79
		c0,0.948-0.768,1.717-1.715,1.717h-3.791c-0.949,0-1.716-0.769-1.716-1.717V9.216z"/>
	<path fill="#048028" d="M11.265,16.994c0-0.948,0.768-1.717,1.716-1.717h3.791c0.947,0,1.715,0.769,1.715,1.717v3.79
		c0,0.947-0.768,1.716-1.715,1.716h-3.791c-0.949,0-1.716-0.769-1.716-1.716V16.994z"/>
	<path fill="#048028" d="M19.367,9.216c0-0.947,0.768-1.716,1.717-1.716h3.789c0.949,0,1.717,0.769,1.717,1.716v3.79
		c0,0.948-0.768,1.717-1.717,1.717h-3.789c-0.949,0-1.717-0.769-1.717-1.717V9.216z"/>
	<path fill="#048028" d="M19.367,16.994c0-0.948,0.768-1.717,1.717-1.717h3.789c0.949,0,1.717,0.769,1.717,1.717v3.79
		c0,0.947-0.768,1.716-1.717,1.716h-3.789c-0.949,0-1.717-0.769-1.717-1.716V16.994z"/>
	<path fill="#048028" d="M3.41,9.216C3.41,8.269,4.178,7.5,5.126,7.5h3.79c0.948,0,1.716,0.769,1.716,1.716v3.79
		c0,0.948-0.769,1.717-1.716,1.717h-3.79c-0.948,0-1.716-0.769-1.716-1.717V9.216z"/>
	<path fill="#048028" d="M3.41,16.994c0-0.948,0.769-1.717,1.716-1.717h3.79c0.948,0,1.716,0.769,1.716,1.717v3.79
		c0,0.947-0.769,1.716-1.716,1.716h-3.79c-0.948,0-1.716-0.769-1.716-1.716V16.994z"/>
</g>
</svg>
