<?xml version="1.0" encoding="utf-8"?>
<!-- Generator: Adobe Illustrator 16.0.0, SVG Export Plug-In . SVG Version: 6.00 Build 0)  -->
<!DOCTYPE svg PUBLIC "-//W3C//DTD SVG 1.1//EN" "http://www.w3.org/Graphics/SVG/1.1/DTD/svg11.dtd">
<svg version="1.1" id="Layer_1" xmlns="http://www.w3.org/2000/svg" xmlns:xlink="http://www.w3.org/1999/xlink" x="0px" y="0px"
	 width="327.074px" height="96.854px" viewBox="0 0 327.074 96.854" enable-background="new 0 0 327.074 96.854"
	 xml:space="preserve">
<g>
	<path fill="#FCA800" d="M321.809,96.853H5.026C2.25,96.853,0,94.602,0,91.827V64.293c0-2.776,2.25-5.026,5.026-5.026h316.783
		c2.775,0,5.025,2.25,5.025,5.026v27.534C326.834,94.602,324.584,96.853,321.809,96.853"/>
	<path fill="#FFFFFF" d="M18.913,88.766c-7.038,0-11.094-4.927-11.094-12.401c0-7.474,3.888-12.399,10.557-12.399
		c3.15,0,6.401,1.004,8.58,4.825l-4.994,1.978c-0.837-1.575-1.978-2.514-3.552-2.514c-2.849,0-4.993,2.581-4.993,8.11
		c0,5.53,2.546,8.111,6.065,8.111c2.044,0,4.222-0.771,5.999-2.212l2.111,3.721C25.617,87.726,22.366,88.766,18.913,88.766"/>
	<path fill="#FFFFFF" d="M46.492,77.504v10.926h-5.194V78.409c0-1.942-0.838-3.183-2.413-3.183c-2.246,0-3.654,1.206-3.654,4.759
		v8.446h-5.194V62.993c0.904-0.402,1.876-0.704,2.782-0.704c1.541,0,2.414,1.006,2.414,2.413v8.949
		c1.408-1.844,3.318-2.515,5.329-2.515C44.313,71.136,46.492,73.483,46.492,77.504"/>
	<path fill="#FFFFFF" d="M63.145,83.538l2.044,3.25c-2.079,1.308-4.391,1.979-7.206,1.979c-5.329,0-8.479-3.117-8.479-8.412
		c0-5.766,3.317-9.216,8.981-9.216c4.257,0,6.736,2.144,6.736,5.663c0,3.386-3.117,5.396-8.311,5.396
		c-0.738,0-1.475-0.067-2.211-0.135c0.369,1.777,1.475,2.815,3.653,2.815C60.263,84.878,61.804,84.409,63.145,83.538 M54.599,79.147
		c0.771,0.066,1.541,0.101,2.246,0.101c2.144,0,3.352-0.805,3.352-2.212c0-1.14-0.805-1.878-2.211-1.878
		C56.107,75.158,54.867,76.633,54.599,79.147"/>
	<path fill="#FFFFFF" d="M84.892,77.504v10.926h-5.194V78.409c0-1.942-0.839-3.183-2.414-3.183c-2.246,0-3.653,1.206-3.653,4.759
		v8.446h-5.194V71.841c0.904-0.403,1.876-0.705,2.782-0.705c1.34,0,2.178,1.105,2.245,2.749c1.441-2.045,3.419-2.749,5.496-2.749
		C82.714,71.136,84.892,73.483,84.892,77.504"/>
	<path fill="#FFFFFF" d="M105.166,77.504v10.926h-5.194V78.409c0-1.942-0.838-3.183-2.414-3.183c-2.245,0-3.653,1.206-3.653,4.759
		v8.446H88.71V71.841c0.904-0.403,1.876-0.705,2.782-0.705c1.34,0,2.179,1.105,2.246,2.749c1.441-2.045,3.418-2.749,5.496-2.749
		C102.987,71.136,105.166,73.483,105.166,77.504"/>
	<path fill="#FFFFFF" d="M123.293,77.504V88.06c-0.904,0.402-1.844,0.704-2.782,0.704c-1.307,0-2.145-1.071-2.246-2.614
		c-1.374,1.943-3.217,2.614-5.061,2.614c-3.384,0-5.429-1.978-5.429-5.194c0-3.553,2.983-5.631,8.244-5.631
		c0.671,0,1.375,0,2.079,0.034c-0.102-1.844-0.771-2.949-2.95-2.949c-1.475,0-2.982,0.47-4.323,1.34l-2.078-3.218
		c2.144-1.308,4.457-2.011,7.272-2.011C120.612,71.136,123.293,73.483,123.293,77.504 M118.099,80.957
		c-0.705-0.034-1.341-0.034-1.944-0.034c-2.212,0-3.453,0.805-3.453,2.178c0,1.072,0.604,1.844,1.943,1.844
		C116.422,84.944,118.099,83.839,118.099,80.957"/>
	<path fill="#FFFFFF" d="M126.708,66.075c0-1.742,1.105-2.714,2.882-2.714c1.776,0,2.882,0.973,2.882,2.714
		c0,1.776-1.106,2.782-2.882,2.782C127.814,68.857,126.708,67.851,126.708,66.075 M127.044,88.43h5.194V71.471h-5.194V88.43z"/>
	<path fill="#048028" d="M149.832,83.303h-8.814l-1.708,5.127h-5.195l8.713-23.762c0.938-0.47,1.911-0.705,2.849-0.705
		c1.743,0,3.051,0.905,3.788,2.95l7.842,21.517h-5.765L149.832,83.303z M148.458,79.147l-3.018-9.72l-3.05,9.72H148.458z"/>
	<path fill="#048028" d="M175.633,77.504v10.926h-5.194V78.409c0-1.942-0.838-3.183-2.414-3.183c-2.245,0-3.651,1.206-3.651,4.759
		v8.446h-5.195V71.841c0.904-0.403,1.878-0.705,2.782-0.705c1.342,0,2.179,1.105,2.245,2.749c1.44-2.045,3.419-2.749,5.496-2.749
		C173.455,71.136,175.633,73.483,175.633,77.504"/>
	<path fill="#048028" d="M195.739,71.471v17.964c0,4.457-2.916,7.038-7.942,7.038c-3.116,0-5.599-0.671-7.944-1.978l2.079-3.251
		c1.542,0.871,3.353,1.34,4.994,1.34c2.814,0,3.62-1.508,3.62-4.089v-2.145c-1.442,1.81-3.388,2.413-5.363,2.413
		c-3.921,0-6.502-3.05-6.502-8.244c0-5.932,3.484-9.384,9.386-9.384C189.775,71.136,193.326,71.27,195.739,71.471 M190.545,75.025
		c-0.771-0.034-1.442-0.034-2.013-0.034c-2.814,0-4.591,2.045-4.591,5.529c0,2.614,1.139,4.156,3.184,4.156
		c2.013,0,3.42-1.207,3.42-4.726V75.025z"/>
	<path fill="#048028" d="M214,77.504V88.06c-0.905,0.402-1.844,0.704-2.781,0.704c-1.308,0-2.144-1.071-2.245-2.614
		c-1.375,1.943-3.219,2.614-5.06,2.614c-3.386,0-5.432-1.978-5.432-5.194c0-3.553,2.982-5.631,8.244-5.631
		c0.67,0,1.375,0,2.079,0.034c-0.102-1.844-0.771-2.949-2.949-2.949c-1.476,0-2.982,0.47-4.323,1.34l-2.077-3.218
		c2.144-1.308,4.458-2.011,7.271-2.011C211.32,71.136,214,73.483,214,77.504 M208.806,80.957c-0.704-0.034-1.341-0.034-1.944-0.034
		c-2.212,0-3.452,0.805-3.452,2.178c0,1.072,0.604,1.844,1.943,1.844C207.13,84.944,208.806,83.839,208.806,80.957"/>
	<path fill="#048028" d="M234.037,64.702V88.06c-0.903,0.402-1.875,0.704-2.779,0.704c-1.309,0-2.146-1.105-2.245-2.646
		c-1.442,1.978-3.486,2.646-5.53,2.646c-3.923,0-6.503-3.05-6.503-8.244c0-5.932,3.485-9.384,9.386-9.384
		c0.637,0,1.508,0.034,2.479,0.066v-8.21c0.904-0.402,1.877-0.704,2.782-0.704C233.167,62.289,234.037,63.295,234.037,64.702
		 M228.843,75.025c-0.77-0.034-1.44-0.034-2.012-0.034c-2.813,0-4.591,2.045-4.591,5.529c0,2.614,1.14,4.156,3.184,4.156
		c2.012,0,3.419-1.173,3.419-4.726V75.025z"/>
	<path fill="#048028" d="M237.655,66.075c0-1.742,1.105-2.714,2.883-2.714c1.776,0,2.882,0.973,2.882,2.714
		c0,1.776-1.105,2.782-2.882,2.782C238.76,68.857,237.655,67.851,237.655,66.075 M237.99,88.43h5.195V71.471h-5.195V88.43z"/>
	<path fill="#FFFFFF" d="M246.601,85.749c0-1.876,1.174-3.017,3.149-3.017c1.943,0,3.117,1.14,3.117,3.017
		c0,1.878-1.174,3.018-3.117,3.018C247.775,88.766,246.601,87.626,246.601,85.749"/>
	<path fill="#FFFFFF" d="M264.127,88.766c-5.496,0-8.78-3.285-8.78-8.849c0-5.529,3.619-8.78,8.346-8.78
		c2.078,0,5.431,0.838,6.503,4.76l-3.788,1.508c-0.437-1.307-1.24-2.179-2.445-2.179c-2.112,0-3.353,1.743-3.353,4.691
		c0,2.983,1.51,4.727,3.956,4.727c1.574,0,3.384-0.57,4.558-1.441l1.644,3.619C268.92,88.162,266.44,88.766,264.127,88.766"/>
	<path fill="#FFFFFF" d="M272.269,79.951c0-5.53,3.317-8.814,9.014-8.814c5.7,0,9.05,3.284,9.05,8.814s-3.352,8.815-9.05,8.815
		C275.587,88.766,272.269,85.481,272.269,79.951 M285.072,79.951c0-2.949-1.407-4.725-3.754-4.725c-2.346,0-3.754,1.775-3.754,4.725
		c0,2.95,1.408,4.691,3.754,4.691C283.665,84.642,285.072,82.9,285.072,79.951"/>
	<path fill="#FFFFFF" d="M318.548,77.504v10.926h-5.193V78.409c0-1.942-0.536-3.183-1.812-3.183c-1.742,0-2.914,1.206-2.914,4.759
		v8.446h-5.195V78.409c0-1.942-0.569-3.183-1.811-3.183c-1.708,0-2.915,1.206-2.915,4.759v8.446h-5.195V71.841
		c0.905-0.403,1.877-0.705,2.782-0.705c1.308,0,2.109,1.039,2.246,2.581c1.272-1.91,3.016-2.581,4.825-2.581
		c2.043,0,3.552,0.905,4.424,2.515c1.508-1.911,3.284-2.515,5.463-2.515C316.606,71.136,318.548,73.483,318.548,77.504"/>
	<path fill="#048028" d="M114.787,52.803c-0.203-0.936-0.559-1.84-0.86-2.752c-0.603-1.827-1.163-3.671-1.84-5.47
		c-0.552-1.469-1.505-2.827-1.828-4.333c-0.554-2.58-0.535-5.124,0.168-7.831c0.608-2.346,0.999-5.014-0.436-7.549
		c-1.685-2.978-3.281-6.05-3.381-9.648c-0.034-1.2-0.414-2.42-0.803-3.575c-0.494-1.467-1.411-2.655-2.987-3.101
		c-1.659-0.47-1.965-0.841-1.95-2.553c0.009-0.938,0.234-2.005-0.127-2.789c-0.5-1.087-1.872-0.354-2.662-0.677
		C96.248,1.78,94.844,2.66,93.3,3.173c-0.879,0.294-1.071,0.913-0.924,1.766c0.243,1.405,0.25,2.903,1.781,3.695
		c0.151,0.079,0.178,0.379,0.286,0.562c0.244,0.416,0.482,0.836,0.757,1.23c0.704,1.01,1.65,1.521,2.625,1.198
		c-0.072,2.027-0.144,3.922-0.203,5.817c-0.018,0.614,0.124,1.265-0.03,1.838c-0.215,0.802-0.548,1.605-1.001,2.298
		c-0.425,0.649-1.012,1.231-1.632,1.705c-1.124,0.858-2.26,1.747-3.514,2.381C90,26.392,89.271,27.9,89.92,29.384
		c0.138,0.314,0.265,0.659,0.292,0.997c0.208,2.654-0.709,5.037-1.831,7.72c-0.855-1.209-1.389-2.376-2.273-3.132
		c-2.079-1.777-3.085-4.074-3.429-6.635c-0.359-2.688-0.434-5.414-0.562-8.128c-0.102-2.118-0.692-4.042-2.386-5.364
		c-2.018-1.575-4.269-2.823-6.847-3.176c-1.185-0.161-2.428,0.01-3.633,0.141c-1.207,0.132-2.391,0.476-3.598,0.592
		c-2.312,0.224-4.631,0.394-6.95,0.513c-3.632,0.187-7.207,0.076-10.351-2.159c-1.407-1-2.837-0.532-4.243,0.089
		c-2.153,0.951-4.295,1.934-6.481,2.807c-0.518,0.207-1.188,0.031-1.828,0.031c0.208-0.934,0.347-1.548,0.544-2.433
		c-0.855,0.252-1.446,0.425-2.089,0.612c0.218-1.208,0.63-2.353,0.583-3.479c-0.071-1.729-0.783-2.582-1.843-2.713
		c-0.055,1.912,0.161,3.946-1.667,5.17c-1.238-1.604-2.382-3.082-3.526-4.563c-0.219,0.103-0.438,0.205-0.658,0.308
		c0.266,1.004,0.373,2.089,0.835,2.992c0.647,1.268,0.753,2.443-0.006,3.61c-0.788,1.21-1.678,2.356-2.556,3.507
		c-0.137,0.179-0.443,0.32-0.673,0.322c-2.205,0.025-4.176,0.754-6.169,1.654c-0.754,0.341-1.914-0.189-2.867-0.413
		c-0.042-0.011,0.138-0.939,0.2-1.443c0.008-0.072-0.062-0.157-0.162-0.391c-0.61,0.152-1.249,0.312-2.043,0.511
		c-0.411-2.268,1.002-4.885-1.641-6.575v3.575c-0.752-0.864-0.345-2.354-1.896-2.599c-0.07,0.169-0.152,0.284-0.162,0.405
		c-0.025,0.306-0.079,0.628-0.012,0.918c0.549,2.37-0.439,4.008-2.32,5.369c-1.783,1.291-2.544,3.18-2.646,5.361
		c-0.022,0.469-0.103,0.979-0.313,1.391c-0.777,1.517-1.609,3.005-2.44,4.491c-0.523,0.938-0.627,1.816,0.212,2.636
		c1.335,1.303,2.645,1.51,4.221,0.537c1.361-0.841,2.745-1.149,4.237-0.473c2.153,0.979,4.353,1.105,6.669,0.671
		c2.803-0.528,3.134-0.22,3.496,2.592c0.289,2.244,1.547,3.589,3.732,4.004c0.419,0.08,0.833,0.19,1.604,0.37
		c-1.009,1.285-1.822,2.305-2.615,3.339c-1.217,1.586-1.247,1.999,0.04,3.558c0.809,0.979,1.726,1.872,2.642,2.756
		c1.246,1.201,2.554,2.338,3.804,3.535c0.686,0.656,0.287,3.711-0.558,4.58c-0.274,0.284-0.642,0.514-0.814,0.847
		c-0.131,0.251-0.019,0.628-0.015,0.95c0.094,0.367,1.607-0.185,1.607-0.185s0.38,0.315,1.173,0.523
		c0.434,0.115,0.577-0.101,0.617-0.318h0.01c1.237-1.904-0.186-4.317,0.972-6.229c1.682-0.27,1.703-0.351,1.268-1.95
		c-0.216-0.794-0.468-1.657-0.364-2.443c0.345-2.593,0.841-5.165,1.29-7.745c0.042-0.242,0.109-0.539,0.274-0.692
		c0.995-0.933,3.505-0.743,4.435,0.244c0.751,0.798,1.634,1.472,2.36,2.288c0.889,1,1.626,2.136,2.523,3.126
		c0.485,0.537,1.132,0.964,1.777,1.308c0.345,0.183,0.842,0.08,1.553,0.124c-0.228,0.642-0.414,1.126-0.569,1.619
		c-0.107,0.341-0.354,0.809-0.223,1.022c0.438,0.705,2.919,0.316,3.05-0.504c0.26-1.621,1.061-3.108,0.579-4.925
		c-0.696-2.631-0.024-3.42,2.555-4.245c1.074-0.345,1.703-0.133,1.894,1.009c0.431,2.585,0.914,5.164,1.243,7.764
		c0.13,1.021,0.047,2.12-0.184,3.13c-0.47,2.063-1.537,3.772-3.33,5.021c-0.369,0.257-0.514,0.938-0.602,1.452
		c-0.033,0.193,0.377,0.645,0.606,0.661c0.412,0.028,0.84-0.184,1.37-0.324c0.728,0.991,2.321,0.775,2.859-0.671
		c0.777-2.087,1.92-3.914,3.336-5.618c1.511-1.816,2.981-3.677,4.343-5.605c0.691-0.978,1.106-2.15,1.671-3.288
		c3.852,2.317,7.769,4.381,9.044,9.132c0.442,1.646,1.07,3.203-0.723,4.482c-0.265,0.188-0.327,0.756-0.335,1.152
		c-0.003,0.129,0.481,0.406,0.707,0.372c0.391-0.06,0.797-0.251,1.109-0.498c0.12-0.095,0.124-0.332,0.114-0.403
		c0.252,0.249,0.591,0.848,1.009,0.91c1.075,0.159,1.562-0.705,1.784-2.895c0.448-0.12,0.919-0.222,1.373-0.375
		c2.095-0.707,4.236-1.468,5.484-3.401c0.69-1.069,1.348-1.467,2.598-1.428c0.573,0.019,1.17-0.686,1.756-1.061
		c-0.375-0.423-0.671-1.008-1.139-1.237c-1.053-0.515-1.326-1.189-0.854-2.23c0.199-0.439,0.38-0.887,0.531-1.343
		c1.305-3.955,2.721-7.878,3.833-11.886c0.389-1.402,0.539-2.682,2.004-3.392c0.378-0.185,0.705-0.704,0.833-1.137
		c0.521-1.749,2.002-2.259,3.622-3.06c-0.309,2.883,0.213,5.638-1.533,8.045c-0.716,0.988-1.218,2.133-1.798,3.218
		c-0.923,1.726-0.825,2.342,0.577,3.702c0.346,0.335,0.719,0.647,1.096,0.948c2.164,1.725,4.333,3.441,6.5,5.162
		c2.033,1.614,1.776,2.81,0.425,4.717c-0.382,0.538-0.471,1.283-0.694,1.934c0.666-0.169,1.348-0.292,1.989-0.529
		c0.356-0.132,0.628-0.476,0.961-0.686c1.105-0.691,2.22-1.367,3.374-2.074c0.731,2.864,0.597,3.084-2.002,3.954
		c-0.345,0.114-0.607,0.478-0.909,0.727c0.369,0.172,0.741,0.496,1.106,0.489c1.419-0.024,2.837-0.227,4.255-0.227
		C114.809,54.801,115.154,54.493,114.787,52.803 M30.364,48.275c-0.134,0.066-0.267,0.131-0.401,0.197
		c-0.93-0.819-1.914-1.591-2.749-2.499c-0.178-0.191,0.043-1.01,0.326-1.313c0.585-0.631,1.317-1.136,2.025-1.643
		c0.255-0.182,0.698-0.379,0.903-0.273c0.222,0.114,0.387,0.584,0.365,0.882C30.713,45.178,30.527,46.725,30.364,48.275
		 M44.641,40.454c2.384-0.645,3.668,0.47,3.83,3.223C46.737,43.98,45.613,43.054,44.641,40.454 M62.244,45.945
		c-0.543-1.621-0.444-2.896,0.203-4.09c0.119-0.22,0.735-0.397,0.975-0.283c0.656,0.313,1.231,0.793,2.209,1.46
		C64.418,44.074,63.399,44.951,62.244,45.945 M66.536,40.329c-0.724-0.538-1.448-1.078-2.171-1.617
		c0.086-0.123,0.173-0.248,0.26-0.372c0.752,0.5,1.505,0.999,2.256,1.499C66.765,40.003,66.651,40.166,66.536,40.329 M85.384,46.01
		c-1.401,1.792-2.706,3.658-4.129,5.429c-0.496,0.616-1.227,1.045-2.128,1.789c-0.615-3.267-1.12-6.106-1.704-8.931
		c-0.125-0.605-0.48-1.183-0.822-1.714c-0.255-0.399-0.676-0.687-0.989-1.053c-2.599-3.022-2.451-7.765,0.591-10.689
		c1.142,1.149,2.299,2.298,3.436,3.465c2.452,2.517,4.125,5.578,5.936,8.538C86.226,43.907,86.199,44.969,85.384,46.01
		 M101.12,39.217c-0.55-0.522-0.664-1.063-0.092-1.579c1.066-0.96,2.179-1.871,3.549-3.036c0.722,4.536,2.136,8.53,4.455,12.187
		C106.395,44.262,103.764,41.732,101.12,39.217"/>
	<path fill="#048028" d="M164.724,43.172h3.658v0.288h-0.2c-0.136,0-0.331,0.059-0.588,0.176c-0.259,0.121-0.494,0.291-0.704,0.511
		c-0.211,0.224-0.471,0.585-0.781,1.083l-2.529,3.983v2.629c0,0.644,0.071,1.045,0.217,1.206c0.195,0.217,0.505,0.324,0.928,0.324
		h0.342v0.285h-4.455v-0.285h0.37c0.443,0,0.758-0.135,0.944-0.4c0.112-0.167,0.17-0.543,0.17-1.13v-2.483l-2.876-4.394
		c-0.343-0.514-0.572-0.839-0.694-0.966c-0.121-0.129-0.371-0.284-0.752-0.464c-0.104-0.052-0.255-0.076-0.449-0.076v-0.288h4.486
		v0.288h-0.232c-0.243,0-0.466,0.056-0.67,0.17c-0.202,0.11-0.305,0.281-0.305,0.511c0,0.186,0.155,0.52,0.472,1.006l2.188,3.377
		l2.058-3.232c0.31-0.483,0.463-0.845,0.463-1.083c0-0.142-0.036-0.271-0.112-0.387c-0.074-0.111-0.181-0.2-0.32-0.266
		c-0.139-0.064-0.348-0.096-0.627-0.096V43.172L164.724,43.172z"/>
	<path fill="#048028" d="M170.988,46.368c1.072,0,1.935,0.406,2.584,1.222c0.551,0.697,0.827,1.494,0.827,2.397
		c0,0.634-0.153,1.273-0.456,1.925c-0.306,0.649-0.725,1.141-1.258,1.47c-0.533,0.33-1.127,0.493-1.781,0.493
		c-1.066,0-1.916-0.424-2.545-1.273c-0.531-0.718-0.795-1.522-0.795-2.413c0-0.649,0.159-1.297,0.482-1.94
		c0.323-0.64,0.746-1.112,1.271-1.423C169.842,46.518,170.402,46.368,170.988,46.368 M170.75,46.868
		c-0.274,0-0.548,0.08-0.825,0.245c-0.275,0.161-0.497,0.448-0.669,0.854c-0.169,0.409-0.254,0.931-0.254,1.572
		c0,1.03,0.203,1.92,0.613,2.665c0.408,0.749,0.949,1.124,1.621,1.124c0.499,0,0.912-0.207,1.236-0.619
		c0.325-0.414,0.487-1.123,0.487-2.128c0-1.256-0.271-2.245-0.812-2.97C171.782,47.116,171.314,46.868,170.75,46.868"/>
	<path fill="#048028" d="M181.653,46.574v4.294c0,0.819,0.02,1.321,0.058,1.504c0.038,0.182,0.1,0.31,0.185,0.384
		c0.085,0.07,0.185,0.107,0.299,0.107c0.16,0,0.341-0.043,0.542-0.133l0.107,0.271l-2.119,0.873h-0.348v-1.5
		c-0.609,0.661-1.073,1.076-1.392,1.247c-0.32,0.17-0.658,0.254-1.014,0.254c-0.397,0-0.74-0.115-1.033-0.345
		c-0.291-0.229-0.493-0.525-0.606-0.884c-0.115-0.361-0.169-0.872-0.169-1.53v-3.165c0-0.334-0.038-0.567-0.109-0.697
		c-0.072-0.126-0.179-0.229-0.32-0.297c-0.143-0.07-0.398-0.102-0.77-0.096v-0.288h2.482v4.743c0,0.659,0.115,1.092,0.343,1.299
		c0.232,0.204,0.51,0.311,0.833,0.311c0.222,0,0.475-0.071,0.754-0.212c0.282-0.139,0.616-0.404,1.003-0.795v-4.016
		c0-0.401-0.074-0.674-0.222-0.816c-0.147-0.139-0.452-0.217-0.915-0.226v-0.288H181.653z"/>
	<path fill="#048028" d="M185.435,46.368v1.593c0.593-1.063,1.2-1.593,1.824-1.593c0.282,0,0.519,0.087,0.703,0.257
		c0.187,0.173,0.28,0.374,0.28,0.601c0,0.2-0.068,0.37-0.202,0.511c-0.135,0.139-0.293,0.211-0.479,0.211
		c-0.181,0-0.384-0.091-0.606-0.27c-0.225-0.176-0.391-0.266-0.498-0.266c-0.093,0-0.192,0.053-0.301,0.154
		c-0.232,0.214-0.474,0.56-0.721,1.047v3.393c0,0.393,0.047,0.689,0.146,0.891c0.068,0.14,0.187,0.255,0.356,0.348
		c0.171,0.093,0.416,0.139,0.735,0.139v0.278h-3.628v-0.278c0.36,0,0.628-0.057,0.804-0.17c0.128-0.08,0.219-0.214,0.271-0.394
		c0.025-0.089,0.039-0.336,0.039-0.751v-2.743c0-0.826-0.017-1.318-0.05-1.477c-0.034-0.154-0.095-0.269-0.187-0.344
		c-0.091-0.07-0.203-0.107-0.337-0.107c-0.159,0-0.339,0.04-0.541,0.117l-0.077-0.278l2.143-0.866h0.325V46.368z"/>
	<path fill="#048028" d="M197.892,42.932c1.361,0,2.54,0.518,3.539,1.551c0.997,1.033,1.496,2.323,1.496,3.87
		c0,1.593-0.502,2.916-1.508,3.969c-1.005,1.052-2.223,1.578-3.651,1.578c-1.443,0-2.655-0.514-3.639-1.541
		c-0.982-1.024-1.473-2.354-1.473-3.98c0-1.668,0.566-3.026,1.702-4.077C195.342,43.388,196.523,42.932,197.892,42.932
		 M197.747,43.497c-0.939,0-1.692,0.35-2.259,1.045c-0.707,0.866-1.06,2.135-1.06,3.806c0,1.711,0.364,3.028,1.099,3.95
		c0.562,0.702,1.305,1.053,2.228,1.053c0.983,0,1.797-0.384,2.438-1.151c0.643-0.771,0.964-1.98,0.964-3.635
		c0-1.794-0.354-3.134-1.06-4.016C199.53,43.849,198.746,43.497,197.747,43.497"/>
	<path fill="#048028" d="M206.098,47.867c0.83-1.001,1.622-1.499,2.375-1.499c0.387,0,0.719,0.096,0.997,0.287
		c0.279,0.195,0.501,0.515,0.666,0.957c0.113,0.31,0.17,0.785,0.17,1.423v3.026c0,0.448,0.036,0.751,0.108,0.911
		c0.056,0.128,0.148,0.229,0.273,0.301c0.127,0.073,0.36,0.107,0.7,0.107v0.279h-3.504v-0.279h0.147c0.329,0,0.56-0.05,0.692-0.151
		c0.13-0.099,0.222-0.248,0.275-0.443c0.021-0.076,0.03-0.321,0.03-0.727v-2.901c0-0.645-0.084-1.11-0.252-1.404
		c-0.167-0.29-0.449-0.436-0.847-0.436c-0.614,0-1.225,0.337-1.833,1.005v3.738c0,0.479,0.028,0.775,0.085,0.887
		c0.071,0.152,0.173,0.26,0.298,0.328c0.127,0.07,0.384,0.104,0.771,0.104v0.279h-3.504v-0.279h0.155c0.36,0,0.604-0.09,0.73-0.275
		c0.126-0.183,0.19-0.532,0.19-1.046V49.43c0-0.851-0.021-1.37-0.06-1.556c-0.039-0.187-0.098-0.313-0.179-0.378
		c-0.079-0.067-0.186-0.103-0.319-0.103c-0.145,0-0.315,0.041-0.519,0.118l-0.115-0.278l2.134-0.866h0.332V47.867z"/>
	<path fill="#048028" d="M214.388,42.662v9.397c0,0.443,0.033,0.736,0.096,0.881c0.065,0.143,0.164,0.255,0.3,0.328
		c0.133,0.074,0.384,0.111,0.75,0.111v0.279h-3.472V53.38c0.324,0,0.545-0.034,0.665-0.099c0.118-0.068,0.21-0.18,0.279-0.334
		c0.066-0.155,0.1-0.452,0.1-0.888v-6.435c0-0.801-0.019-1.29-0.054-1.476c-0.036-0.183-0.093-0.305-0.174-0.375
		c-0.079-0.065-0.181-0.099-0.305-0.099c-0.136,0-0.306,0.04-0.512,0.124l-0.132-0.271l2.112-0.866H214.388z"/>
	<path fill="#048028" d="M218.796,46.368v5.691c0,0.443,0.033,0.736,0.096,0.885c0.065,0.145,0.161,0.256,0.286,0.328
		c0.127,0.073,0.357,0.107,0.692,0.107v0.279h-3.441V53.38c0.346,0,0.577-0.034,0.697-0.099c0.118-0.068,0.211-0.18,0.28-0.334
		c0.071-0.155,0.106-0.452,0.106-0.888v-2.73c0-0.768-0.024-1.266-0.07-1.491c-0.037-0.167-0.093-0.282-0.169-0.347
		c-0.078-0.062-0.186-0.097-0.317-0.097c-0.146,0-0.321,0.041-0.527,0.118l-0.106-0.278l2.134-0.866H218.796z M218.155,42.662
		c0.218,0,0.4,0.076,0.553,0.229s0.229,0.336,0.229,0.554c0,0.217-0.077,0.401-0.229,0.557c-0.152,0.154-0.335,0.232-0.553,0.232
		c-0.217,0-0.401-0.078-0.556-0.232c-0.154-0.155-0.232-0.342-0.232-0.557c0-0.218,0.076-0.401,0.229-0.554
		C217.747,42.738,217.933,42.662,218.155,42.662"/>
	<path fill="#048028" d="M222.819,47.867c0.83-1.001,1.621-1.499,2.375-1.499c0.387,0,0.719,0.096,0.997,0.287
		c0.279,0.195,0.499,0.515,0.666,0.957c0.111,0.31,0.168,0.785,0.168,1.423v3.026c0,0.448,0.037,0.751,0.108,0.911
		c0.057,0.128,0.148,0.229,0.274,0.301c0.127,0.073,0.359,0.107,0.7,0.107v0.279h-3.504v-0.279h0.147
		c0.329,0,0.561-0.05,0.691-0.151c0.132-0.099,0.224-0.248,0.275-0.443c0.021-0.076,0.031-0.321,0.031-0.727v-2.901
		c0-0.645-0.083-1.11-0.251-1.404c-0.167-0.29-0.449-0.436-0.848-0.436c-0.612,0-1.225,0.337-1.832,1.005v3.738
		c0,0.479,0.027,0.775,0.085,0.887c0.07,0.152,0.172,0.26,0.296,0.328c0.128,0.07,0.384,0.104,0.771,0.104v0.279h-3.503v-0.279
		h0.156c0.359,0,0.604-0.09,0.729-0.275c0.127-0.183,0.19-0.532,0.19-1.046V49.43c0-0.851-0.021-1.37-0.06-1.556
		c-0.039-0.187-0.099-0.313-0.178-0.378c-0.079-0.067-0.188-0.103-0.32-0.103c-0.145,0-0.316,0.041-0.519,0.118l-0.116-0.278
		l2.136-0.866h0.332V47.867z"/>
	<path fill="#048028" d="M229.864,49.245c-0.005,1.052,0.248,1.874,0.765,2.475c0.515,0.597,1.121,0.897,1.817,0.897
		c0.465,0,0.868-0.13,1.21-0.383c0.344-0.257,0.632-0.693,0.863-1.313l0.241,0.154c-0.108,0.708-0.425,1.35-0.944,1.932
		c-0.521,0.578-1.175,0.868-1.956,0.868c-0.852,0-1.58-0.33-2.187-0.993c-0.604-0.661-0.907-1.553-0.907-2.673
		c0-1.208,0.31-2.156,0.932-2.834c0.621-0.677,1.399-1.017,2.34-1.017c0.792,0,1.446,0.263,1.956,0.785
		c0.511,0.522,0.767,1.222,0.767,2.101H229.864z M229.864,48.797h3.277c-0.024-0.456-0.079-0.773-0.161-0.961
		c-0.131-0.29-0.322-0.516-0.577-0.68c-0.254-0.167-0.521-0.247-0.799-0.247c-0.429,0-0.812,0.164-1.148,0.497
		C230.118,47.738,229.919,48.202,229.864,48.797"/>
	<path fill="#048028" d="M244.958,42.932c1.361,0,2.541,0.518,3.539,1.551c0.997,1.033,1.496,2.323,1.496,3.87
		c0,1.593-0.502,2.916-1.507,3.969c-1.006,1.052-2.224,1.578-3.651,1.578c-1.445,0-2.656-0.514-3.639-1.541
		c-0.983-1.024-1.473-2.354-1.473-3.98c0-1.668,0.565-3.026,1.701-4.077C242.409,43.388,243.587,42.932,244.958,42.932
		 M244.813,43.497c-0.938,0-1.692,0.35-2.258,1.045c-0.708,0.866-1.06,2.135-1.06,3.806c0,1.711,0.364,3.028,1.098,3.95
		c0.561,0.702,1.304,1.053,2.228,1.053c0.983,0,1.797-0.384,2.439-1.151c0.641-0.771,0.964-1.98,0.964-3.635
		c0-1.794-0.355-3.134-1.06-4.016C246.595,43.849,245.813,43.497,244.813,43.497"/>
	<path fill="#048028" d="M253.172,46.368v1.593c0.592-1.063,1.201-1.593,1.825-1.593c0.282,0,0.52,0.087,0.702,0.257
		c0.187,0.173,0.28,0.374,0.28,0.601c0,0.2-0.068,0.37-0.2,0.511c-0.137,0.139-0.295,0.211-0.48,0.211
		c-0.181,0-0.384-0.091-0.608-0.27c-0.223-0.176-0.39-0.266-0.497-0.266c-0.093,0-0.192,0.053-0.302,0.154
		c-0.231,0.214-0.471,0.56-0.72,1.047v3.393c0,0.393,0.049,0.689,0.147,0.891c0.066,0.14,0.185,0.255,0.355,0.348
		c0.17,0.093,0.415,0.139,0.734,0.139v0.278h-3.628v-0.278c0.362,0,0.629-0.057,0.806-0.17c0.128-0.08,0.217-0.214,0.271-0.394
		c0.025-0.089,0.038-0.336,0.038-0.751v-2.743c0-0.826-0.016-1.318-0.05-1.477c-0.034-0.154-0.095-0.269-0.187-0.344
		c-0.091-0.07-0.203-0.107-0.335-0.107c-0.161,0-0.341,0.04-0.543,0.117l-0.076-0.278l2.143-0.866h0.324V46.368z"/>
	<path fill="#048028" d="M257.983,51.075c-0.432-0.211-0.766-0.508-0.998-0.884c-0.23-0.381-0.347-0.799-0.347-1.257
		c0-0.702,0.265-1.305,0.792-1.81c0.529-0.508,1.205-0.757,2.031-0.757c0.674,0,1.261,0.163,1.755,0.494h1.5
		c0.221,0,0.351,0.006,0.388,0.02c0.035,0.012,0.062,0.033,0.077,0.064c0.03,0.047,0.046,0.13,0.046,0.248
		c0,0.136-0.015,0.229-0.039,0.279c-0.016,0.027-0.043,0.045-0.082,0.062c-0.039,0.016-0.17,0.025-0.39,0.025h-0.921
		c0.287,0.37,0.433,0.844,0.433,1.423c0,0.658-0.254,1.225-0.758,1.691c-0.505,0.471-1.183,0.706-2.032,0.706
		c-0.353,0-0.711-0.053-1.076-0.156c-0.229,0.195-0.382,0.366-0.461,0.515c-0.079,0.145-0.119,0.271-0.119,0.374
		c0,0.091,0.043,0.173,0.128,0.257c0.085,0.08,0.252,0.143,0.499,0.177c0.144,0.021,0.505,0.039,1.082,0.056
		c1.063,0.025,1.75,0.063,2.064,0.107c0.479,0.065,0.862,0.245,1.147,0.531c0.286,0.291,0.43,0.647,0.43,1.067
		c0,0.585-0.274,1.129-0.819,1.641c-0.805,0.754-1.854,1.13-3.147,1.13c-0.997,0-1.836-0.224-2.521-0.673
		c-0.387-0.26-0.58-0.525-0.58-0.805c0-0.123,0.028-0.247,0.085-0.37c0.088-0.192,0.269-0.457,0.543-0.798
		c0.036-0.046,0.299-0.325,0.788-0.836c-0.27-0.158-0.457-0.303-0.57-0.43c-0.109-0.124-0.165-0.269-0.165-0.426
		c0-0.184,0.072-0.394,0.22-0.636C257.112,51.862,257.451,51.521,257.983,51.075 M257.907,53.658
		c-0.243,0.263-0.427,0.508-0.549,0.737c-0.124,0.226-0.187,0.436-0.187,0.624c0,0.248,0.15,0.464,0.449,0.649
		c0.515,0.321,1.261,0.479,2.235,0.479c0.929,0,1.611-0.163,2.053-0.491c0.44-0.325,0.662-0.675,0.662-1.045
		c0-0.269-0.133-0.461-0.396-0.573c-0.269-0.114-0.799-0.183-1.593-0.2C259.421,53.806,258.53,53.748,257.907,53.658 M259.33,46.738
		c-0.381,0-0.702,0.151-0.96,0.456c-0.259,0.305-0.387,0.77-0.387,1.4c0,0.813,0.176,1.444,0.526,1.894
		c0.268,0.34,0.607,0.511,1.021,0.511c0.392,0,0.713-0.146,0.966-0.44c0.252-0.294,0.38-0.754,0.38-1.386
		c0-0.819-0.178-1.46-0.534-1.925C260.079,46.909,259.74,46.738,259.33,46.738"/>
	<path fill="#048028" d="M268.021,52.638c-0.726,0.563-1.184,0.887-1.37,0.974c-0.277,0.131-0.575,0.195-0.888,0.195
		c-0.491,0-0.896-0.168-1.211-0.505c-0.317-0.334-0.475-0.776-0.475-1.321c0-0.347,0.076-0.646,0.23-0.897
		c0.212-0.353,0.579-0.681,1.102-0.989c0.524-0.311,1.394-0.687,2.611-1.129v-0.28c0-0.708-0.112-1.19-0.337-1.453
		c-0.224-0.263-0.55-0.396-0.978-0.396c-0.325,0-0.584,0.089-0.772,0.263c-0.197,0.176-0.295,0.378-0.295,0.604l0.016,0.448
		c0,0.237-0.061,0.421-0.183,0.551c-0.122,0.127-0.281,0.191-0.474,0.191c-0.193,0-0.348-0.064-0.471-0.2
		c-0.121-0.134-0.181-0.316-0.181-0.548c0-0.445,0.226-0.851,0.682-1.222c0.452-0.372,1.089-0.558,1.91-0.558
		c0.627,0,1.145,0.106,1.547,0.316c0.303,0.161,0.528,0.412,0.673,0.751c0.093,0.221,0.139,0.675,0.139,1.361v2.403
		c0,0.678,0.011,1.09,0.039,1.24c0.024,0.154,0.068,0.257,0.126,0.306c0.061,0.054,0.128,0.078,0.206,0.078
		c0.082,0,0.154-0.02,0.217-0.054c0.108-0.067,0.317-0.258,0.626-0.567v0.433c-0.577,0.773-1.129,1.161-1.653,1.161
		c-0.255,0-0.456-0.087-0.604-0.264C268.103,53.362,268.027,53.062,268.021,52.638 M268.021,52.136v-2.701
		c-0.78,0.31-1.282,0.528-1.508,0.659c-0.408,0.225-0.7,0.463-0.874,0.711c-0.177,0.247-0.263,0.517-0.263,0.811
		c0,0.37,0.109,0.681,0.332,0.925c0.221,0.245,0.477,0.368,0.765,0.368C266.866,52.91,267.381,52.65,268.021,52.136"/>
	<path fill="#048028" d="M273.102,47.867c0.83-1.001,1.621-1.499,2.374-1.499c0.387,0,0.721,0.096,0.997,0.287
		c0.28,0.195,0.501,0.515,0.666,0.957c0.113,0.31,0.17,0.785,0.17,1.423v3.026c0,0.448,0.036,0.751,0.108,0.911
		c0.056,0.128,0.148,0.229,0.274,0.301c0.126,0.073,0.359,0.107,0.7,0.107v0.279h-3.504v-0.279h0.146
		c0.331,0,0.561-0.05,0.692-0.151c0.131-0.099,0.223-0.248,0.275-0.443c0.02-0.076,0.03-0.321,0.03-0.727v-2.901
		c0-0.645-0.083-1.11-0.252-1.404c-0.167-0.29-0.45-0.436-0.847-0.436c-0.613,0-1.225,0.337-1.832,1.005v3.738
		c0,0.479,0.027,0.775,0.084,0.887c0.072,0.152,0.173,0.26,0.298,0.328c0.127,0.07,0.384,0.104,0.771,0.104v0.279h-3.504v-0.279
		h0.155c0.36,0,0.605-0.09,0.73-0.275c0.126-0.183,0.189-0.532,0.189-1.046V49.43c0-0.851-0.02-1.37-0.059-1.556
		c-0.039-0.187-0.098-0.313-0.179-0.378c-0.077-0.067-0.186-0.103-0.318-0.103c-0.146,0-0.316,0.041-0.52,0.118l-0.115-0.278
		l2.134-0.866h0.333V47.867z"/>
	<path fill="#048028" d="M281.4,46.368v5.691c0,0.443,0.033,0.736,0.096,0.885c0.065,0.145,0.161,0.256,0.287,0.328
		c0.126,0.073,0.356,0.107,0.692,0.107v0.279h-3.441V53.38c0.345,0,0.577-0.034,0.696-0.099c0.118-0.068,0.211-0.18,0.281-0.334
		c0.069-0.155,0.105-0.452,0.105-0.888v-2.73c0-0.768-0.023-1.266-0.071-1.491c-0.036-0.167-0.092-0.282-0.168-0.347
		c-0.078-0.062-0.185-0.097-0.317-0.097c-0.146,0-0.321,0.041-0.526,0.118l-0.107-0.278l2.135-0.866H281.4z M280.759,42.662
		c0.217,0,0.4,0.076,0.552,0.229c0.152,0.152,0.229,0.336,0.229,0.554c0,0.217-0.077,0.401-0.229,0.557
		c-0.151,0.154-0.335,0.232-0.552,0.232c-0.218,0-0.402-0.078-0.558-0.232c-0.154-0.155-0.231-0.342-0.231-0.557
		c0-0.218,0.075-0.401,0.229-0.554C280.35,42.738,280.537,42.662,280.759,42.662"/>
	<path fill="#048028" d="M289.373,50.968c-0.19,0.934-0.564,1.651-1.12,2.153c-0.557,0.505-1.174,0.755-1.85,0.755
		c-0.804,0-1.506-0.337-2.103-1.012c-0.6-0.678-0.898-1.59-0.898-2.738c0-1.113,0.331-2.02,0.994-2.716s1.459-1.042,2.387-1.042
		c0.696,0,1.268,0.183,1.717,0.55c0.447,0.371,0.672,0.752,0.672,1.151c0,0.195-0.063,0.354-0.189,0.474
		c-0.125,0.124-0.303,0.184-0.529,0.184c-0.305,0-0.533-0.097-0.688-0.295c-0.088-0.107-0.146-0.312-0.176-0.617
		c-0.027-0.304-0.132-0.536-0.312-0.697c-0.181-0.154-0.432-0.232-0.75-0.232c-0.518,0-0.932,0.193-1.246,0.573
		c-0.417,0.508-0.626,1.172-0.626,2.005c0,0.844,0.206,1.59,0.622,2.236c0.415,0.649,0.976,0.971,1.682,0.971
		c0.505,0,0.96-0.173,1.361-0.517c0.282-0.237,0.56-0.669,0.828-1.293L289.373,50.968z"/>
	<path fill="#048028" d="M301.113,42.933v3.625h-0.285c-0.094-0.696-0.261-1.25-0.5-1.66c-0.24-0.415-0.582-0.74-1.024-0.984
		c-0.443-0.24-0.903-0.361-1.376-0.361c-0.537,0-0.98,0.164-1.331,0.489c-0.351,0.327-0.525,0.702-0.525,1.12
		c0,0.318,0.109,0.608,0.333,0.872c0.317,0.387,1.079,0.903,2.281,1.546c0.979,0.526,1.648,0.933,2.006,1.21
		c0.358,0.282,0.634,0.612,0.827,0.996c0.193,0.381,0.291,0.779,0.291,1.197c0,0.796-0.308,1.479-0.925,2.055
		c-0.616,0.575-1.41,0.863-2.378,0.863c-0.305,0-0.589-0.025-0.857-0.071c-0.161-0.024-0.492-0.12-0.994-0.281
		c-0.504-0.164-0.822-0.245-0.956-0.245c-0.129,0-0.23,0.04-0.304,0.118c-0.075,0.077-0.131,0.234-0.167,0.479h-0.286v-3.598h0.286
		c0.134,0.755,0.314,1.318,0.542,1.688c0.226,0.376,0.573,0.688,1.039,0.936c0.467,0.247,0.979,0.37,1.536,0.37
		c0.644,0,1.154-0.17,1.526-0.511c0.374-0.34,0.563-0.742,0.563-1.206c0-0.26-0.071-0.52-0.215-0.782
		c-0.142-0.263-0.361-0.508-0.66-0.733c-0.201-0.155-0.751-0.485-1.647-0.987c-0.897-0.505-1.535-0.904-1.913-1.203
		c-0.38-0.297-0.668-0.628-0.862-0.99c-0.197-0.359-0.294-0.758-0.294-1.191c0-0.752,0.288-1.4,0.866-1.945
		c0.577-0.542,1.312-0.813,2.204-0.813c0.557,0,1.147,0.136,1.771,0.408c0.288,0.13,0.491,0.195,0.61,0.195
		c0.133,0,0.243-0.04,0.328-0.121c0.085-0.08,0.153-0.241,0.206-0.482L301.113,42.933L301.113,42.933z"/>
	<path fill="#048028" d="M305.211,44.248v2.327h1.654v0.541h-1.654v4.594c0,0.46,0.065,0.771,0.197,0.929
		c0.132,0.161,0.301,0.24,0.508,0.24c0.169,0,0.333-0.053,0.495-0.161c0.158-0.104,0.282-0.26,0.369-0.466h0.302
		c-0.181,0.507-0.435,0.884-0.765,1.142c-0.331,0.253-0.671,0.384-1.021,0.384c-0.238,0-0.471-0.069-0.695-0.198
		c-0.229-0.134-0.395-0.319-0.504-0.566c-0.108-0.246-0.162-0.622-0.162-1.132v-4.765h-1.122v-0.254
		c0.283-0.114,0.574-0.306,0.87-0.578c0.296-0.269,0.562-0.591,0.793-0.962c0.118-0.195,0.283-0.554,0.495-1.074H305.211z"/>
	<path fill="#048028" d="M311.019,46.368c1.072,0,1.935,0.406,2.584,1.222c0.551,0.697,0.827,1.494,0.827,2.397
		c0,0.634-0.153,1.273-0.456,1.925c-0.305,0.649-0.725,1.141-1.259,1.47c-0.532,0.33-1.126,0.493-1.781,0.493
		c-1.067,0-1.916-0.424-2.543-1.273c-0.532-0.718-0.797-1.522-0.797-2.413c0-0.649,0.16-1.297,0.482-1.94
		c0.323-0.64,0.747-1.112,1.272-1.423C309.876,46.518,310.431,46.368,311.019,46.368 M310.78,46.868
		c-0.273,0-0.548,0.08-0.824,0.245c-0.275,0.161-0.498,0.448-0.669,0.854c-0.17,0.409-0.254,0.931-0.254,1.572
		c0,1.03,0.202,1.92,0.614,2.665c0.41,0.749,0.949,1.124,1.621,1.124c0.499,0,0.911-0.207,1.236-0.619
		c0.325-0.414,0.488-1.123,0.488-2.128c0-1.256-0.271-2.245-0.813-2.97C311.813,47.116,311.346,46.868,310.78,46.868"/>
	<path fill="#048028" d="M317.547,46.368v1.593c0.593-1.063,1.2-1.593,1.824-1.593c0.282,0,0.519,0.087,0.704,0.257
		c0.185,0.173,0.277,0.374,0.277,0.601c0,0.2-0.067,0.37-0.2,0.511c-0.135,0.139-0.293,0.211-0.479,0.211
		c-0.181,0-0.384-0.091-0.607-0.27c-0.224-0.176-0.39-0.266-0.498-0.266c-0.093,0-0.191,0.053-0.302,0.154
		c-0.232,0.214-0.472,0.56-0.719,1.047v3.393c0,0.393,0.047,0.689,0.146,0.891c0.066,0.14,0.186,0.255,0.355,0.348
		s0.416,0.139,0.734,0.139v0.278h-3.628v-0.278c0.361,0,0.629-0.057,0.805-0.17c0.128-0.08,0.219-0.214,0.271-0.394
		c0.025-0.089,0.039-0.336,0.039-0.751v-2.743c0-0.826-0.017-1.318-0.052-1.477c-0.031-0.154-0.093-0.269-0.185-0.344
		c-0.091-0.07-0.203-0.107-0.337-0.107c-0.161,0-0.34,0.04-0.542,0.117l-0.076-0.278l2.143-0.866h0.325V46.368z"/>
	<path fill="#048028" d="M321.94,49.245c-0.006,1.052,0.249,1.874,0.765,2.475c0.515,0.597,1.122,0.897,1.817,0.897
		c0.464,0,0.869-0.13,1.21-0.383c0.345-0.257,0.631-0.693,0.863-1.313l0.239,0.154c-0.107,0.708-0.423,1.35-0.943,1.932
		c-0.521,0.578-1.173,0.868-1.956,0.868c-0.85,0-1.579-0.33-2.186-0.993c-0.605-0.661-0.908-1.553-0.908-2.673
		c0-1.208,0.312-2.156,0.932-2.834c0.621-0.677,1.401-1.017,2.34-1.017c0.793,0,1.446,0.263,1.957,0.785
		c0.512,0.522,0.765,1.222,0.765,2.101H321.94z M321.94,48.797h3.278c-0.026-0.456-0.08-0.773-0.162-0.961
		c-0.131-0.29-0.323-0.516-0.577-0.68c-0.255-0.167-0.521-0.247-0.8-0.247c-0.428,0-0.811,0.164-1.148,0.497
		C322.194,47.738,321.996,48.202,321.94,48.797"/>
	<g>
		<path fill="#048028" d="M318.874,35.802h-1.862v5.232h-1.149v-5.232H314v-0.944h4.874V35.802z"/>
		<path fill="#048028" d="M326.383,34.858v6.177h-1.013v-3.989c0-0.16,0.009-0.332,0.025-0.518l-1.866,3.507
			c-0.089,0.169-0.224,0.253-0.406,0.253h-0.162c-0.183,0-0.317-0.084-0.405-0.253l-1.889-3.52c0.009,0.095,0.016,0.187,0.021,0.278
			c0.006,0.091,0.009,0.175,0.009,0.252v3.989h-1.013v-6.177h0.867c0.052,0,0.096,0.002,0.133,0.005s0.07,0.01,0.101,0.021
			c0.029,0.012,0.057,0.03,0.081,0.056c0.023,0.026,0.047,0.061,0.07,0.103l1.85,3.431c0.048,0.091,0.093,0.185,0.135,0.281
			c0.041,0.097,0.081,0.196,0.121,0.299c0.04-0.104,0.081-0.207,0.124-0.305c0.043-0.099,0.088-0.193,0.137-0.284l1.824-3.422
			c0.022-0.042,0.047-0.076,0.072-0.103c0.025-0.025,0.054-0.044,0.083-0.056c0.03-0.011,0.063-0.018,0.101-0.021
			s0.081-0.005,0.133-0.005H326.383z"/>
	</g>
</g>
</svg>
