<?xml version="1.0" encoding="utf-8"?>
<!-- Generator: Adobe Illustrator 16.0.0, SVG Export Plug-In . SVG Version: 6.00 Build 0)  -->
<!DOCTYPE svg PUBLIC "-//W3C//DTD SVG 1.1//EN" "http://www.w3.org/Graphics/SVG/1.1/DTD/svg11.dtd">
<svg version="1.1" id="Layer_1" xmlns="http://www.w3.org/2000/svg" xmlns:xlink="http://www.w3.org/1999/xlink" x="0px" y="0px"
	 width="327.074px" height="96.854px" viewBox="0 0 327.074 96.854" enable-background="new 0 0 327.074 96.854"
	 xml:space="preserve">
<g>
	<path fill="#FCA800" d="M321.808,96.853H5.026C2.25,96.853,0,94.602,0,91.827V64.293c0-2.776,2.25-5.026,5.026-5.026h316.782
		c2.775,0,5.025,2.25,5.025,5.026v27.534C326.833,94.602,324.583,96.853,321.808,96.853"/>
	<path fill="#FFFFFF" d="M18.914,88.766c-7.038,0-11.094-4.927-11.094-12.401c0-7.474,3.888-12.399,10.557-12.399
		c3.15,0,6.401,1.004,8.58,4.825l-4.994,1.978c-0.838-1.575-1.978-2.514-3.552-2.514c-2.849,0-4.994,2.581-4.994,8.11
		c0,5.53,2.547,8.111,6.065,8.111c2.045,0,4.223-0.771,5.999-2.212l2.111,3.721C25.617,87.726,22.366,88.766,18.914,88.766"/>
	<path fill="#FFFFFF" d="M46.492,77.504v10.926h-5.194V78.409c0-1.942-0.839-3.183-2.414-3.183c-2.245,0-3.653,1.206-3.653,4.759
		v8.446h-5.194V62.993c0.904-0.402,1.876-0.704,2.782-0.704c1.541,0,2.414,1.006,2.414,2.413v8.949
		c1.407-1.844,3.317-2.515,5.329-2.515C44.314,71.136,46.492,73.483,46.492,77.504"/>
	<path fill="#FFFFFF" d="M63.145,83.538l2.044,3.25c-2.079,1.308-4.391,1.979-7.206,1.979c-5.329,0-8.479-3.117-8.479-8.412
		c0-5.766,3.317-9.217,8.981-9.217c4.257,0,6.736,2.145,6.736,5.664c0,3.386-3.117,5.396-8.311,5.396
		c-0.738,0-1.475-0.067-2.211-0.135c0.369,1.777,1.475,2.815,3.652,2.815C60.263,84.878,61.804,84.409,63.145,83.538 M54.599,79.147
		c0.771,0.066,1.541,0.101,2.246,0.101c2.144,0,3.352-0.805,3.352-2.212c0-1.14-0.805-1.878-2.212-1.878
		C56.107,75.158,54.867,76.633,54.599,79.147"/>
	<path fill="#FFFFFF" d="M84.893,77.504v10.926h-5.194V78.409c0-1.942-0.839-3.183-2.414-3.183c-2.246,0-3.653,1.206-3.653,4.759
		v8.446h-5.194V71.841c0.904-0.403,1.877-0.705,2.782-0.705c1.34,0,2.179,1.105,2.245,2.749c1.441-2.045,3.419-2.749,5.496-2.749
		C82.714,71.136,84.893,73.483,84.893,77.504"/>
	<path fill="#FFFFFF" d="M105.166,77.504v10.926h-5.194V78.409c0-1.942-0.838-3.183-2.413-3.183c-2.246,0-3.653,1.206-3.653,4.759
		v8.446H88.71V71.841c0.904-0.403,1.876-0.705,2.782-0.705c1.34,0,2.178,1.105,2.246,2.749c1.44-2.045,3.418-2.749,5.496-2.749
		C102.987,71.136,105.166,73.483,105.166,77.504"/>
	<path fill="#FFFFFF" d="M123.293,77.504V88.06c-0.904,0.402-1.844,0.704-2.782,0.704c-1.307,0-2.145-1.071-2.246-2.614
		c-1.374,1.943-3.217,2.614-5.06,2.614c-3.385,0-5.429-1.978-5.429-5.194c0-3.553,2.983-5.631,8.244-5.631
		c0.67,0,1.374,0,2.079,0.034c-0.101-1.844-0.771-2.949-2.95-2.949c-1.474,0-2.982,0.47-4.323,1.34l-2.077-3.218
		c2.144-1.308,4.456-2.011,7.272-2.011C120.612,71.136,123.293,73.483,123.293,77.504 M118.099,80.957
		c-0.705-0.034-1.341-0.034-1.943-0.034c-2.213,0-3.453,0.805-3.453,2.178c0,1.072,0.604,1.844,1.944,1.844
		C116.422,84.944,118.099,83.839,118.099,80.957"/>
	<path fill="#FFFFFF" d="M126.708,66.075c0-1.742,1.105-2.714,2.883-2.714c1.775,0,2.881,0.973,2.881,2.714
		c0,1.776-1.106,2.782-2.881,2.782C127.814,68.857,126.708,67.851,126.708,66.075 M127.044,88.43h5.194V71.471h-5.194V88.43z"/>
	<path fill="#048028" d="M149.832,83.302h-8.815l-1.708,5.128h-5.195l8.713-23.762c0.938-0.47,1.911-0.705,2.849-0.705
		c1.743,0,3.05,0.905,3.787,2.95l7.843,21.517h-5.766L149.832,83.302z M148.458,79.147l-3.017-9.721l-3.05,9.721H148.458z"/>
	<path fill="#048028" d="M175.633,77.504v10.926h-5.194V78.409c0-1.942-0.838-3.183-2.414-3.183c-2.245,0-3.651,1.206-3.651,4.759
		v8.446h-5.195V71.841c0.905-0.403,1.878-0.705,2.782-0.705c1.341,0,2.178,1.105,2.245,2.749c1.44-2.045,3.419-2.749,5.497-2.749
		C173.455,71.136,175.633,73.483,175.633,77.504"/>
	<path fill="#048028" d="M195.738,71.471v17.964c0,4.457-2.916,7.038-7.941,7.038c-3.117,0-5.598-0.671-7.943-1.978l2.078-3.251
		c1.541,0.871,3.352,1.34,4.994,1.34c2.814,0,3.619-1.508,3.619-4.089v-2.145c-1.441,1.81-3.387,2.413-5.363,2.413
		c-3.92,0-6.502-3.05-6.502-8.244c0-5.932,3.484-9.384,9.387-9.384C189.775,71.136,193.326,71.27,195.738,71.471 M190.544,75.025
		c-0.77-0.034-1.441-0.034-2.012-0.034c-2.814,0-4.592,2.045-4.592,5.529c0,2.614,1.139,4.156,3.186,4.156
		c2.012,0,3.418-1.207,3.418-4.726V75.025z"/>
	<path fill="#048028" d="M214,77.504V88.06c-0.904,0.402-1.844,0.704-2.781,0.704c-1.307,0-2.143-1.071-2.244-2.614
		c-1.375,1.943-3.219,2.614-5.061,2.614c-3.385,0-5.432-1.978-5.432-5.194c0-3.553,2.982-5.631,8.244-5.631
		c0.67,0,1.375,0,2.08,0.034c-0.102-1.844-0.771-2.949-2.949-2.949c-1.477,0-2.982,0.47-4.324,1.34l-2.076-3.218
		c2.145-1.308,4.457-2.011,7.27-2.011C211.32,71.136,214,73.483,214,77.504 M208.806,80.957c-0.705-0.034-1.342-0.034-1.945-0.034
		c-2.211,0-3.451,0.805-3.451,2.178c0,1.072,0.604,1.844,1.943,1.844C207.13,84.944,208.806,83.839,208.806,80.957"/>
	<path fill="#048028" d="M234.037,64.702V88.06c-0.904,0.402-1.875,0.704-2.779,0.704c-1.309,0-2.146-1.105-2.246-2.646
		c-1.441,1.978-3.486,2.646-5.529,2.646c-3.922,0-6.504-3.05-6.504-8.244c0-5.932,3.486-9.384,9.387-9.384
		c0.637,0,1.508,0.034,2.479,0.066v-8.21c0.904-0.402,1.877-0.704,2.781-0.704C233.166,62.289,234.037,63.295,234.037,64.702
		 M228.843,75.025c-0.77-0.034-1.441-0.034-2.012-0.034c-2.813,0-4.592,2.045-4.592,5.529c0,2.614,1.141,4.156,3.184,4.156
		c2.014,0,3.42-1.173,3.42-4.726V75.025z"/>
	<path fill="#048028" d="M237.654,66.075c0-1.742,1.105-2.714,2.883-2.714s2.883,0.973,2.883,2.714c0,1.776-1.105,2.782-2.883,2.782
		S237.654,67.851,237.654,66.075 M237.99,88.43h5.195V71.471h-5.195V88.43z"/>
	<path fill="#FFFFFF" d="M246.601,85.749c0-1.876,1.174-3.017,3.148-3.017c1.945,0,3.117,1.14,3.117,3.017
		c0,1.878-1.172,3.018-3.117,3.018C247.775,88.766,246.601,87.626,246.601,85.749"/>
	<path fill="#FFFFFF" d="M264.126,88.766c-5.496,0-8.779-3.285-8.779-8.849c0-5.529,3.619-8.78,8.346-8.78
		c2.078,0,5.43,0.838,6.502,4.76l-3.787,1.508c-0.438-1.307-1.24-2.179-2.445-2.179c-2.113,0-3.354,1.743-3.354,4.691
		c0,2.983,1.51,4.727,3.957,4.727c1.574,0,3.383-0.57,4.557-1.441l1.645,3.619C268.919,88.162,266.439,88.766,264.126,88.766"/>
	<path fill="#FFFFFF" d="M272.269,79.951c0-5.53,3.316-8.814,9.014-8.814c5.699,0,9.049,3.284,9.049,8.814s-3.352,8.815-9.049,8.815
		C275.587,88.766,272.269,85.481,272.269,79.951 M285.072,79.951c0-2.949-1.408-4.725-3.754-4.725s-3.754,1.775-3.754,4.725
		c0,2.95,1.408,4.691,3.754,4.691S285.072,82.9,285.072,79.951"/>
	<path fill="#FFFFFF" d="M318.548,77.504v10.926h-5.193V78.409c0-1.942-0.537-3.183-1.813-3.183c-1.742,0-2.914,1.206-2.914,4.759
		v8.446h-5.195V78.409c0-1.942-0.568-3.183-1.811-3.183c-1.707,0-2.914,1.206-2.914,4.759v8.446h-5.195V71.841
		c0.904-0.403,1.877-0.705,2.781-0.705c1.309,0,2.109,1.039,2.246,2.581c1.273-1.91,3.016-2.581,4.826-2.581
		c2.043,0,3.551,0.905,4.424,2.515c1.508-1.911,3.283-2.515,5.463-2.515C316.605,71.136,318.548,73.483,318.548,77.504"/>
	<path fill="#048028" d="M114.788,52.803c-0.203-0.936-0.56-1.84-0.86-2.752c-0.603-1.827-1.162-3.671-1.84-5.47
		c-0.552-1.469-1.505-2.827-1.828-4.333c-0.554-2.58-0.534-5.123,0.168-7.831c0.608-2.346,0.999-5.014-0.436-7.549
		c-1.685-2.978-3.281-6.05-3.381-9.647c-0.034-1.201-0.414-2.421-0.802-3.576c-0.494-1.467-1.411-2.655-2.987-3.101
		c-1.659-0.469-1.966-0.841-1.95-2.553c0.01-0.938,0.234-2.005-0.126-2.789c-0.5-1.087-1.873-0.354-2.662-0.677
		C96.248,1.78,94.844,2.66,93.3,3.173c-0.879,0.294-1.071,0.913-0.924,1.766c0.243,1.405,0.249,2.903,1.78,3.695
		c0.151,0.079,0.178,0.379,0.287,0.562c0.243,0.416,0.482,0.836,0.757,1.23c0.704,1.01,1.649,1.521,2.625,1.198
		c-0.072,2.027-0.144,3.922-0.203,5.817c-0.019,0.614,0.124,1.265-0.03,1.838c-0.215,0.802-0.548,1.605-1.001,2.298
		c-0.425,0.649-1.012,1.231-1.632,1.705c-1.124,0.858-2.26,1.747-3.514,2.381C90,26.392,89.271,27.9,89.92,29.384
		c0.138,0.314,0.266,0.659,0.292,0.997c0.208,2.655-0.709,5.037-1.831,7.721c-0.855-1.21-1.389-2.377-2.273-3.133
		c-2.079-1.777-3.085-4.074-3.429-6.635c-0.359-2.688-0.434-5.414-0.562-8.128c-0.101-2.118-0.692-4.042-2.386-5.363
		c-2.018-1.576-4.269-2.824-6.847-3.176c-1.185-0.162-2.428,0.009-3.633,0.14c-1.207,0.132-2.391,0.476-3.598,0.592
		c-2.312,0.224-4.631,0.394-6.951,0.513c-3.631,0.187-7.207,0.076-10.351-2.159c-1.407-1-2.837-0.532-4.243,0.09
		c-2.153,0.95-4.296,1.933-6.481,2.806c-0.518,0.207-1.188,0.031-1.828,0.031c0.208-0.934,0.347-1.548,0.544-2.433
		c-0.855,0.252-1.446,0.425-2.089,0.612c0.218-1.208,0.63-2.353,0.583-3.479c-0.07-1.728-0.782-2.582-1.843-2.713
		c-0.056,1.912,0.161,3.946-1.667,5.17c-1.239-1.604-2.383-3.082-3.526-4.563c-0.219,0.103-0.438,0.205-0.658,0.308
		c0.267,1.004,0.373,2.089,0.836,2.992c0.647,1.268,0.753,2.443-0.006,3.61c-0.788,1.21-1.679,2.356-2.556,3.507
		c-0.138,0.179-0.443,0.32-0.674,0.323c-2.205,0.024-4.176,0.753-6.168,1.653c-0.755,0.341-1.915-0.188-2.867-0.413
		c-0.043-0.011,0.138-0.939,0.2-1.443c0.008-0.072-0.062-0.157-0.163-0.391c-0.61,0.152-1.248,0.312-2.042,0.511
		c-0.412-2.268,1.002-4.885-1.641-6.575v3.575c-0.752-0.864-0.344-2.354-1.895-2.598c-0.07,0.169-0.152,0.283-0.162,0.404
		c-0.025,0.306-0.079,0.628-0.012,0.918c0.55,2.37-0.438,4.008-2.32,5.369c-1.783,1.291-2.543,3.18-2.646,5.361
		c-0.022,0.469-0.103,0.979-0.313,1.391c-0.777,1.517-1.609,3.005-2.44,4.491c-0.523,0.938-0.627,1.816,0.212,2.636
		c1.334,1.303,2.645,1.511,4.221,0.537c1.361-0.841,2.745-1.149,4.236-0.473c2.154,0.979,4.354,1.105,6.669,0.671
		c2.804-0.528,3.134-0.22,3.496,2.592c0.29,2.244,1.548,3.589,3.733,4.004c0.418,0.08,0.832,0.19,1.604,0.37
		c-1.009,1.285-1.822,2.305-2.616,3.339c-1.216,1.586-1.247,1.999,0.041,3.558c0.808,0.979,1.726,1.872,2.642,2.756
		c1.246,1.201,2.554,2.338,3.804,3.535c0.686,0.656,0.287,3.711-0.559,4.58c-0.274,0.284-0.641,0.514-0.814,0.847
		c-0.13,0.251-0.019,0.628-0.015,0.95c0.094,0.367,1.607-0.185,1.607-0.185s0.381,0.315,1.173,0.523
		c0.434,0.115,0.577-0.101,0.617-0.318h0.01c1.237-1.904-0.186-4.317,0.973-6.229c1.681-0.27,1.703-0.351,1.268-1.95
		c-0.215-0.794-0.468-1.657-0.363-2.443c0.345-2.593,0.84-5.165,1.29-7.745c0.042-0.242,0.109-0.539,0.274-0.692
		c0.996-0.933,3.505-0.743,4.435,0.244c0.751,0.798,1.634,1.472,2.361,2.288c0.889,1.001,1.626,2.136,2.523,3.127
		c0.485,0.536,1.132,0.963,1.777,1.307c0.345,0.183,0.842,0.081,1.554,0.124c-0.228,0.642-0.414,1.126-0.569,1.619
		c-0.107,0.341-0.355,0.809-0.223,1.022c0.438,0.705,2.918,0.316,3.05-0.504c0.259-1.621,1.06-3.107,0.579-4.925
		c-0.696-2.631-0.024-3.42,2.555-4.245c1.074-0.345,1.703-0.133,1.894,1.009c0.432,2.585,0.914,5.164,1.243,7.764
		c0.13,1.021,0.047,2.12-0.183,3.13c-0.47,2.063-1.537,3.772-3.33,5.021c-0.37,0.257-0.514,0.938-0.602,1.452
		c-0.033,0.193,0.377,0.645,0.607,0.661c0.412,0.028,0.84-0.184,1.37-0.324c0.728,0.991,2.321,0.775,2.859-0.671
		c0.777-2.087,1.92-3.914,3.337-5.618c1.511-1.816,2.98-3.677,4.343-5.605c0.69-0.978,1.105-2.15,1.671-3.288
		c3.852,2.317,7.769,4.381,9.043,9.132c0.443,1.646,1.07,3.203-0.723,4.482c-0.265,0.188-0.327,0.756-0.335,1.152
		c-0.003,0.129,0.481,0.406,0.706,0.372c0.391-0.06,0.797-0.251,1.109-0.498c0.12-0.095,0.124-0.332,0.114-0.403
		c0.252,0.249,0.591,0.848,1.009,0.91c1.075,0.159,1.563-0.705,1.784-2.895c0.448-0.12,0.92-0.222,1.373-0.375
		c2.095-0.707,4.236-1.468,5.484-3.401c0.691-1.069,1.349-1.467,2.599-1.428c0.573,0.019,1.169-0.686,1.756-1.061
		c-0.375-0.423-0.671-1.008-1.139-1.237c-1.054-0.515-1.326-1.189-0.854-2.23c0.199-0.439,0.38-0.887,0.531-1.343
		c1.305-3.955,2.721-7.878,3.833-11.886c0.389-1.402,0.538-2.682,2.004-3.392c0.379-0.185,0.705-0.704,0.834-1.136
		c0.52-1.75,2.001-2.26,3.621-3.061c-0.309,2.883,0.213,5.638-1.533,8.045c-0.715,0.988-1.218,2.133-1.798,3.218
		c-0.922,1.726-0.825,2.342,0.577,3.702c0.346,0.335,0.719,0.647,1.096,0.948c2.164,1.725,4.333,3.441,6.5,5.162
		c2.032,1.614,1.775,2.81,0.424,4.717c-0.382,0.538-0.471,1.283-0.693,1.934c0.666-0.169,1.348-0.292,1.988-0.529
		c0.356-0.132,0.628-0.476,0.961-0.686c1.105-0.691,2.22-1.367,3.374-2.074c0.732,2.864,0.597,3.084-2.002,3.954
		c-0.345,0.114-0.607,0.478-0.909,0.727c0.369,0.172,0.741,0.496,1.106,0.489c1.419-0.024,2.837-0.227,4.255-0.227
		C114.809,54.801,115.154,54.493,114.788,52.803 M30.364,48.275c-0.134,0.066-0.267,0.131-0.401,0.197
		c-0.931-0.819-1.914-1.591-2.749-2.499c-0.178-0.191,0.043-1.01,0.325-1.313c0.586-0.631,1.317-1.136,2.025-1.643
		c0.255-0.182,0.698-0.379,0.903-0.273c0.221,0.114,0.387,0.584,0.364,0.882C30.714,45.178,30.527,46.725,30.364,48.275
		 M44.641,40.454c2.384-0.645,3.668,0.47,3.83,3.223C46.737,43.98,45.613,43.054,44.641,40.454 M62.244,45.945
		c-0.542-1.621-0.444-2.896,0.203-4.09c0.119-0.22,0.735-0.397,0.975-0.283c0.656,0.313,1.231,0.793,2.209,1.46
		C64.418,44.074,63.4,44.951,62.244,45.945 M66.536,40.329c-0.724-0.538-1.448-1.078-2.171-1.617
		c0.087-0.123,0.173-0.248,0.26-0.372c0.752,0.5,1.505,0.999,2.256,1.499C66.766,40.003,66.651,40.166,66.536,40.329 M85.384,46.01
		c-1.4,1.792-2.706,3.658-4.129,5.429c-0.495,0.616-1.227,1.045-2.128,1.789c-0.615-3.267-1.12-6.106-1.704-8.931
		c-0.125-0.605-0.48-1.182-0.821-1.714c-0.255-0.399-0.676-0.687-0.99-1.053c-2.599-3.022-2.451-7.765,0.591-10.689
		c1.142,1.149,2.299,2.298,3.436,3.465c2.452,2.517,4.125,5.578,5.937,8.538C86.226,43.907,86.199,44.969,85.384,46.01
		 M101.12,39.217c-0.55-0.522-0.664-1.063-0.092-1.579c1.066-0.96,2.179-1.871,3.549-3.036c0.722,4.536,2.137,8.53,4.455,12.187
		C106.396,44.262,103.764,41.732,101.12,39.217"/>
	<path fill="#048028" d="M164.724,43.172h3.658v0.288h-0.199c-0.137,0-0.332,0.059-0.589,0.176
		c-0.259,0.121-0.493,0.291-0.704,0.511c-0.211,0.224-0.471,0.585-0.781,1.083l-2.528,3.983v2.629c0,0.644,0.07,1.045,0.216,1.206
		c0.195,0.217,0.505,0.324,0.928,0.324h0.342v0.285h-4.454v-0.285h0.37c0.443,0,0.758-0.135,0.943-0.4
		c0.113-0.167,0.17-0.543,0.17-1.13v-2.483l-2.876-4.394c-0.342-0.514-0.572-0.839-0.693-0.966
		c-0.121-0.129-0.372-0.284-0.753-0.464c-0.104-0.052-0.254-0.076-0.448-0.076v-0.288h4.485v0.288h-0.232
		c-0.243,0-0.466,0.056-0.67,0.17c-0.202,0.11-0.305,0.281-0.305,0.511c0,0.186,0.157,0.52,0.472,1.006l2.188,3.377l2.057-3.232
		c0.311-0.483,0.464-0.845,0.464-1.083c0-0.142-0.036-0.271-0.112-0.387c-0.074-0.111-0.182-0.2-0.32-0.266
		c-0.139-0.064-0.347-0.096-0.627-0.096V43.172L164.724,43.172z"/>
	<path fill="#048028" d="M170.988,46.368c1.072,0,1.935,0.406,2.584,1.222c0.551,0.697,0.827,1.494,0.827,2.397
		c0,0.634-0.153,1.273-0.456,1.925c-0.306,0.649-0.725,1.141-1.258,1.47c-0.533,0.33-1.127,0.493-1.781,0.493
		c-1.066,0-1.916-0.424-2.545-1.273c-0.531-0.718-0.795-1.522-0.795-2.413c0-0.649,0.16-1.297,0.482-1.94
		c0.324-0.64,0.746-1.112,1.271-1.423C169.843,46.518,170.402,46.368,170.988,46.368 M170.75,46.868
		c-0.274,0-0.549,0.08-0.824,0.245c-0.275,0.161-0.498,0.448-0.67,0.854c-0.17,0.409-0.254,0.931-0.254,1.572
		c0,1.03,0.203,1.92,0.613,2.665c0.408,0.749,0.949,1.124,1.621,1.124c0.499,0,0.912-0.207,1.236-0.619
		c0.325-0.414,0.488-1.123,0.488-2.128c0-1.256-0.271-2.245-0.813-2.97C171.783,47.116,171.314,46.868,170.75,46.868"/>
	<path fill="#048028" d="M181.652,46.574v4.294c0,0.819,0.02,1.321,0.059,1.504c0.039,0.182,0.1,0.31,0.184,0.384
		c0.086,0.07,0.186,0.107,0.299,0.107c0.16,0,0.342-0.043,0.543-0.133l0.107,0.271l-2.119,0.873h-0.348v-1.5
		c-0.609,0.661-1.074,1.076-1.393,1.247c-0.318,0.17-0.656,0.254-1.014,0.254c-0.396,0-0.739-0.115-1.033-0.345
		c-0.29-0.229-0.492-0.525-0.605-0.884c-0.115-0.361-0.17-0.872-0.17-1.53v-3.165c0-0.334-0.037-0.567-0.108-0.697
		c-0.072-0.126-0.179-0.229-0.321-0.297c-0.142-0.07-0.397-0.102-0.769-0.096v-0.288h2.481v4.743c0,0.659,0.115,1.092,0.344,1.299
		c0.232,0.204,0.51,0.311,0.832,0.311c0.223,0,0.475-0.071,0.754-0.212c0.283-0.139,0.617-0.404,1.004-0.795v-4.016
		c0-0.401-0.074-0.674-0.223-0.816c-0.146-0.139-0.451-0.217-0.914-0.226v-0.288H181.652z"/>
	<path fill="#048028" d="M185.435,46.368v1.593c0.592-1.063,1.199-1.593,1.824-1.593c0.281,0,0.518,0.087,0.703,0.257
		c0.186,0.173,0.279,0.374,0.279,0.601c0,0.2-0.068,0.37-0.201,0.511c-0.135,0.139-0.293,0.211-0.48,0.211
		c-0.18,0-0.383-0.091-0.605-0.27c-0.225-0.176-0.391-0.266-0.498-0.266c-0.094,0-0.193,0.053-0.301,0.154
		c-0.232,0.214-0.473,0.56-0.721,1.047v3.393c0,0.393,0.047,0.689,0.146,0.891c0.066,0.14,0.186,0.255,0.355,0.348
		s0.416,0.139,0.734,0.139v0.278h-3.627v-0.278c0.359,0,0.627-0.057,0.805-0.17c0.127-0.08,0.217-0.214,0.27-0.394
		c0.025-0.089,0.039-0.336,0.039-0.751v-2.743c0-0.826-0.016-1.318-0.049-1.477c-0.033-0.154-0.096-0.269-0.188-0.344
		c-0.09-0.07-0.203-0.107-0.336-0.107c-0.16,0-0.34,0.04-0.541,0.117l-0.078-0.278l2.143-0.866h0.326V46.368z"/>
	<path fill="#048028" d="M197.892,42.932c1.361,0,2.539,0.518,3.539,1.551c0.996,1.033,1.496,2.323,1.496,3.87
		c0,1.593-0.502,2.916-1.508,3.969c-1.006,1.052-2.223,1.578-3.652,1.578c-1.441,0-2.654-0.514-3.639-1.541
		c-0.982-1.024-1.473-2.354-1.473-3.98c0-1.668,0.566-3.026,1.703-4.077C195.341,43.388,196.523,42.932,197.892,42.932
		 M197.746,43.497c-0.938,0-1.691,0.35-2.258,1.045c-0.707,0.866-1.061,2.135-1.061,3.806c0,1.711,0.365,3.028,1.1,3.95
		c0.561,0.702,1.305,1.053,2.227,1.053c0.984,0,1.797-0.384,2.439-1.151c0.643-0.771,0.963-1.98,0.963-3.635
		c0-1.794-0.354-3.134-1.059-4.016C199.529,43.849,198.746,43.497,197.746,43.497"/>
	<path fill="#048028" d="M206.099,47.867c0.83-1.001,1.621-1.499,2.373-1.499c0.387,0,0.721,0.096,0.998,0.287
		c0.279,0.195,0.5,0.515,0.666,0.957c0.113,0.31,0.17,0.785,0.17,1.423v3.026c0,0.448,0.035,0.751,0.107,0.911
		c0.057,0.128,0.148,0.229,0.275,0.301c0.125,0.073,0.359,0.107,0.699,0.107v0.279h-3.504v-0.279h0.146
		c0.33,0,0.561-0.05,0.693-0.151c0.131-0.099,0.223-0.248,0.275-0.443c0.02-0.076,0.029-0.321,0.029-0.727v-2.901
		c0-0.645-0.082-1.11-0.252-1.404c-0.166-0.29-0.449-0.436-0.846-0.436c-0.615,0-1.225,0.337-1.832,1.005v3.738
		c0,0.479,0.027,0.775,0.084,0.887c0.07,0.152,0.172,0.26,0.297,0.328c0.127,0.07,0.385,0.104,0.771,0.104v0.279h-3.504v-0.279
		h0.154c0.361,0,0.604-0.09,0.73-0.275c0.127-0.183,0.191-0.532,0.191-1.046V49.43c0-0.851-0.021-1.37-0.061-1.556
		c-0.039-0.187-0.098-0.313-0.178-0.378c-0.08-0.067-0.186-0.103-0.32-0.103c-0.145,0-0.314,0.041-0.518,0.118l-0.115-0.278
		l2.133-0.866h0.334V47.867z"/>
	<path fill="#048028" d="M214.388,42.662v9.397c0,0.443,0.033,0.736,0.096,0.881c0.066,0.143,0.164,0.255,0.299,0.328
		c0.133,0.074,0.385,0.111,0.752,0.111v0.279h-3.473V53.38c0.324,0,0.545-0.034,0.664-0.099c0.119-0.068,0.211-0.18,0.279-0.334
		c0.066-0.155,0.102-0.452,0.102-0.888v-6.435c0-0.801-0.02-1.29-0.055-1.476c-0.037-0.183-0.094-0.305-0.174-0.375
		c-0.08-0.065-0.182-0.099-0.305-0.099c-0.137,0-0.307,0.04-0.512,0.124l-0.133-0.271l2.113-0.866H214.388z"/>
	<path fill="#048028" d="M218.796,46.368v5.691c0,0.443,0.033,0.736,0.096,0.885c0.064,0.145,0.16,0.256,0.285,0.328
		c0.127,0.073,0.357,0.107,0.693,0.107v0.279h-3.441V53.38c0.346,0,0.576-0.034,0.697-0.099c0.117-0.068,0.211-0.18,0.281-0.334
		c0.07-0.155,0.105-0.452,0.105-0.888v-2.73c0-0.768-0.023-1.266-0.07-1.491c-0.037-0.167-0.094-0.282-0.17-0.347
		c-0.078-0.062-0.186-0.097-0.316-0.097c-0.146,0-0.322,0.041-0.527,0.118l-0.107-0.278l2.135-0.866H218.796z M218.156,42.662
		c0.217,0,0.4,0.076,0.551,0.229c0.152,0.152,0.23,0.336,0.23,0.554c0,0.217-0.078,0.401-0.23,0.557
		c-0.15,0.154-0.334,0.232-0.551,0.232c-0.219,0-0.402-0.078-0.557-0.232c-0.154-0.155-0.232-0.342-0.232-0.557
		c0-0.218,0.076-0.401,0.229-0.554C217.746,42.738,217.933,42.662,218.156,42.662"/>
	<path fill="#048028" d="M222.818,47.867c0.83-1.001,1.621-1.499,2.375-1.499c0.387,0,0.719,0.096,0.998,0.287
		c0.279,0.195,0.498,0.515,0.666,0.957c0.111,0.31,0.168,0.785,0.168,1.423v3.026c0,0.448,0.037,0.751,0.107,0.911
		c0.059,0.128,0.148,0.229,0.275,0.301c0.127,0.073,0.359,0.107,0.699,0.107v0.279h-3.504v-0.279h0.148
		c0.33,0,0.561-0.05,0.691-0.151c0.131-0.099,0.223-0.248,0.275-0.443c0.02-0.076,0.031-0.321,0.031-0.727v-2.901
		c0-0.645-0.084-1.11-0.252-1.404c-0.166-0.29-0.449-0.436-0.846-0.436c-0.613,0-1.227,0.337-1.834,1.005v3.738
		c0,0.479,0.027,0.775,0.086,0.887c0.07,0.152,0.172,0.26,0.295,0.328c0.129,0.07,0.385,0.104,0.771,0.104v0.279h-3.504v-0.279
		h0.156c0.361,0,0.604-0.09,0.73-0.275c0.127-0.183,0.189-0.532,0.189-1.046V49.43c0-0.851-0.02-1.37-0.059-1.556
		c-0.039-0.187-0.1-0.313-0.178-0.378c-0.08-0.067-0.188-0.103-0.32-0.103c-0.145,0-0.316,0.041-0.52,0.118l-0.115-0.278
		l2.135-0.866h0.332V47.867z"/>
	<path fill="#048028" d="M229.865,49.245c-0.006,1.052,0.246,1.874,0.764,2.475c0.514,0.597,1.121,0.897,1.818,0.897
		c0.463,0,0.867-0.13,1.209-0.383c0.344-0.257,0.631-0.693,0.863-1.313l0.24,0.154c-0.107,0.708-0.424,1.35-0.943,1.932
		c-0.521,0.578-1.176,0.868-1.957,0.868c-0.852,0-1.58-0.33-2.186-0.993c-0.605-0.661-0.908-1.553-0.908-2.673
		c0-1.208,0.311-2.156,0.932-2.834c0.621-0.677,1.4-1.017,2.34-1.017c0.793,0,1.447,0.263,1.957,0.785s0.766,1.222,0.766,2.101
		H229.865z M229.865,48.797h3.275c-0.023-0.456-0.078-0.773-0.16-0.961c-0.131-0.29-0.322-0.516-0.578-0.68
		c-0.254-0.167-0.521-0.247-0.799-0.247c-0.428,0-0.811,0.164-1.148,0.497C230.117,47.738,229.919,48.202,229.865,48.797"/>
	<path fill="#048028" d="M244.958,42.932c1.361,0,2.541,0.518,3.539,1.551c0.996,1.033,1.496,2.323,1.496,3.87
		c0,1.593-0.502,2.916-1.508,3.969c-1.006,1.052-2.223,1.578-3.65,1.578c-1.445,0-2.656-0.514-3.639-1.541
		c-0.984-1.024-1.473-2.354-1.473-3.98c0-1.668,0.564-3.026,1.701-4.077C242.408,43.388,243.587,42.932,244.958,42.932
		 M244.812,43.497c-0.938,0-1.691,0.35-2.258,1.045c-0.707,0.866-1.059,2.135-1.059,3.806c0,1.711,0.363,3.028,1.098,3.95
		c0.561,0.702,1.303,1.053,2.229,1.053c0.982,0,1.795-0.384,2.438-1.151c0.641-0.771,0.965-1.98,0.965-3.635
		c0-1.794-0.355-3.134-1.061-4.016C246.595,43.849,245.812,43.497,244.812,43.497"/>
	<path fill="#048028" d="M253.171,46.368v1.593c0.594-1.063,1.201-1.593,1.826-1.593c0.283,0,0.52,0.087,0.703,0.257
		c0.186,0.173,0.279,0.374,0.279,0.601c0,0.2-0.068,0.37-0.201,0.511c-0.137,0.139-0.295,0.211-0.48,0.211
		c-0.18,0-0.383-0.091-0.607-0.27c-0.223-0.176-0.391-0.266-0.496-0.266c-0.094,0-0.193,0.053-0.303,0.154
		c-0.232,0.214-0.471,0.56-0.721,1.047v3.393c0,0.393,0.049,0.689,0.148,0.891c0.066,0.14,0.184,0.255,0.355,0.348
		c0.17,0.093,0.414,0.139,0.734,0.139v0.278h-3.629v-0.278c0.363,0,0.629-0.057,0.807-0.17c0.127-0.08,0.217-0.214,0.271-0.394
		c0.023-0.089,0.037-0.336,0.037-0.751v-2.743c0-0.826-0.016-1.318-0.051-1.477c-0.033-0.154-0.094-0.269-0.186-0.344
		c-0.092-0.07-0.203-0.107-0.336-0.107c-0.16,0-0.34,0.04-0.543,0.117l-0.076-0.278l2.143-0.866h0.324V46.368z"/>
	<path fill="#048028" d="M257.982,51.075c-0.432-0.211-0.766-0.508-0.998-0.884c-0.23-0.381-0.346-0.799-0.346-1.257
		c0-0.702,0.264-1.305,0.791-1.81c0.529-0.508,1.205-0.757,2.031-0.757c0.676,0,1.262,0.163,1.756,0.494h1.5
		c0.221,0,0.35,0.006,0.387,0.02c0.035,0.012,0.063,0.033,0.078,0.064c0.029,0.047,0.045,0.13,0.045,0.248
		c0,0.136-0.014,0.229-0.039,0.279c-0.016,0.027-0.043,0.045-0.082,0.062c-0.039,0.016-0.17,0.025-0.389,0.025h-0.92
		c0.285,0.37,0.432,0.844,0.432,1.423c0,0.658-0.254,1.225-0.758,1.691c-0.504,0.471-1.184,0.706-2.033,0.706
		c-0.352,0-0.711-0.053-1.076-0.156c-0.229,0.195-0.381,0.366-0.461,0.515c-0.078,0.145-0.119,0.271-0.119,0.374
		c0,0.091,0.043,0.173,0.129,0.257c0.084,0.08,0.252,0.143,0.498,0.177c0.145,0.021,0.506,0.039,1.082,0.056
		c1.063,0.025,1.75,0.063,2.064,0.107c0.48,0.065,0.863,0.245,1.148,0.531c0.285,0.291,0.43,0.647,0.43,1.067
		c0,0.585-0.275,1.129-0.82,1.641c-0.805,0.754-1.854,1.13-3.146,1.13c-0.998,0-1.836-0.224-2.521-0.673
		c-0.387-0.26-0.58-0.525-0.58-0.805c0-0.123,0.027-0.247,0.084-0.37c0.088-0.192,0.27-0.457,0.543-0.798
		c0.037-0.046,0.299-0.325,0.789-0.836c-0.27-0.158-0.457-0.303-0.57-0.43c-0.109-0.124-0.166-0.269-0.166-0.426
		c0-0.184,0.072-0.394,0.221-0.636C257.111,51.862,257.451,51.521,257.982,51.075 M257.906,53.658
		c-0.242,0.263-0.426,0.508-0.549,0.737c-0.123,0.226-0.186,0.436-0.186,0.624c0,0.248,0.15,0.464,0.449,0.649
		c0.514,0.321,1.26,0.479,2.234,0.479c0.93,0,1.613-0.163,2.053-0.491c0.441-0.325,0.662-0.675,0.662-1.045
		c0-0.269-0.133-0.461-0.396-0.573c-0.268-0.114-0.797-0.183-1.592-0.2C259.421,53.806,258.529,53.748,257.906,53.658
		 M259.33,46.738c-0.381,0-0.703,0.151-0.961,0.456s-0.387,0.77-0.387,1.4c0,0.813,0.176,1.444,0.527,1.894
		c0.268,0.34,0.607,0.511,1.02,0.511c0.393,0,0.713-0.146,0.967-0.44c0.252-0.294,0.379-0.754,0.379-1.386
		c0-0.819-0.178-1.46-0.533-1.925C260.078,46.909,259.74,46.738,259.33,46.738"/>
	<path fill="#048028" d="M268.021,52.638c-0.727,0.563-1.184,0.887-1.369,0.974c-0.279,0.131-0.576,0.195-0.889,0.195
		c-0.492,0-0.896-0.168-1.211-0.505c-0.318-0.334-0.475-0.776-0.475-1.321c0-0.347,0.076-0.646,0.23-0.897
		c0.211-0.353,0.578-0.681,1.102-0.989c0.523-0.311,1.393-0.687,2.611-1.129v-0.28c0-0.708-0.113-1.19-0.338-1.453
		c-0.223-0.263-0.549-0.396-0.977-0.396c-0.326,0-0.584,0.089-0.773,0.263c-0.197,0.176-0.295,0.378-0.295,0.604l0.016,0.448
		c0,0.237-0.061,0.421-0.182,0.551c-0.123,0.127-0.281,0.191-0.475,0.191s-0.348-0.064-0.471-0.2
		c-0.121-0.134-0.18-0.316-0.18-0.548c0-0.445,0.225-0.851,0.682-1.222c0.451-0.372,1.088-0.558,1.91-0.558
		c0.627,0,1.145,0.106,1.547,0.316c0.303,0.161,0.527,0.412,0.672,0.751c0.094,0.221,0.139,0.675,0.139,1.361v2.403
		c0,0.678,0.012,1.09,0.039,1.24c0.025,0.154,0.068,0.257,0.127,0.306c0.061,0.054,0.127,0.078,0.205,0.078
		c0.082,0,0.154-0.02,0.217-0.054c0.109-0.067,0.318-0.258,0.627-0.567v0.433c-0.578,0.773-1.129,1.161-1.654,1.161
		c-0.254,0-0.455-0.087-0.604-0.264C268.103,53.362,268.027,53.062,268.021,52.638 M268.021,52.136v-2.701
		c-0.781,0.31-1.283,0.528-1.508,0.659c-0.408,0.225-0.701,0.463-0.875,0.711c-0.176,0.247-0.262,0.517-0.262,0.811
		c0,0.37,0.109,0.681,0.332,0.925c0.221,0.245,0.477,0.368,0.764,0.368C266.865,52.91,267.38,52.65,268.021,52.136"/>
	<path fill="#048028" d="M273.101,47.867c0.83-1.001,1.621-1.499,2.375-1.499c0.387,0,0.721,0.096,0.996,0.287
		c0.281,0.195,0.502,0.515,0.666,0.957c0.113,0.31,0.17,0.785,0.17,1.423v3.026c0,0.448,0.037,0.751,0.109,0.911
		c0.055,0.128,0.148,0.229,0.273,0.301c0.127,0.073,0.359,0.107,0.701,0.107v0.279h-3.504v-0.279h0.146
		c0.33,0,0.561-0.05,0.691-0.151c0.131-0.099,0.223-0.248,0.275-0.443c0.02-0.076,0.031-0.321,0.031-0.727v-2.901
		c0-0.645-0.084-1.11-0.252-1.404c-0.168-0.29-0.451-0.436-0.848-0.436c-0.613,0-1.225,0.337-1.832,1.005v3.738
		c0,0.479,0.027,0.775,0.084,0.887c0.074,0.152,0.174,0.26,0.299,0.328c0.127,0.07,0.383,0.104,0.77,0.104v0.279h-3.504v-0.279
		h0.156c0.359,0,0.605-0.09,0.73-0.275c0.127-0.183,0.189-0.532,0.189-1.046V49.43c0-0.851-0.02-1.37-0.059-1.556
		c-0.039-0.187-0.098-0.313-0.178-0.378c-0.078-0.067-0.188-0.103-0.32-0.103c-0.145,0-0.316,0.041-0.52,0.118l-0.115-0.278
		l2.135-0.866h0.332V47.867z"/>
	<path fill="#048028" d="M281.4,46.368v5.691c0,0.443,0.033,0.736,0.096,0.885c0.064,0.145,0.16,0.256,0.287,0.328
		c0.125,0.073,0.355,0.107,0.691,0.107v0.279h-3.441V53.38c0.346,0,0.578-0.034,0.697-0.099c0.117-0.068,0.211-0.18,0.281-0.334
		c0.068-0.155,0.105-0.452,0.105-0.888v-2.73c0-0.768-0.023-1.266-0.072-1.491c-0.035-0.167-0.092-0.282-0.168-0.347
		c-0.078-0.062-0.184-0.097-0.316-0.097c-0.146,0-0.322,0.041-0.527,0.118l-0.107-0.278l2.135-0.866H281.4z M280.759,42.662
		c0.217,0,0.4,0.076,0.551,0.229c0.154,0.152,0.23,0.336,0.23,0.554c0,0.217-0.076,0.401-0.23,0.557
		c-0.15,0.154-0.334,0.232-0.551,0.232s-0.402-0.078-0.559-0.232c-0.154-0.155-0.23-0.342-0.23-0.557
		c0-0.218,0.074-0.401,0.229-0.554C280.349,42.738,280.537,42.662,280.759,42.662"/>
	<path fill="#048028" d="M289.373,50.968c-0.191,0.934-0.564,1.651-1.121,2.153c-0.557,0.505-1.174,0.755-1.85,0.755
		c-0.803,0-1.506-0.337-2.102-1.012c-0.6-0.678-0.898-1.59-0.898-2.738c0-1.113,0.33-2.02,0.994-2.716s1.459-1.042,2.387-1.042
		c0.695,0,1.268,0.183,1.717,0.55c0.447,0.371,0.672,0.752,0.672,1.151c0,0.195-0.063,0.354-0.189,0.474
		c-0.125,0.124-0.303,0.184-0.529,0.184c-0.305,0-0.533-0.097-0.689-0.295c-0.088-0.107-0.146-0.312-0.176-0.617
		c-0.027-0.304-0.131-0.536-0.311-0.697c-0.182-0.154-0.432-0.232-0.75-0.232c-0.518,0-0.932,0.193-1.246,0.573
		c-0.418,0.508-0.627,1.172-0.627,2.005c0,0.845,0.207,1.59,0.623,2.236c0.414,0.649,0.975,0.971,1.682,0.971
		c0.504,0,0.959-0.173,1.361-0.517c0.281-0.237,0.559-0.669,0.828-1.293L289.373,50.968z"/>
	<path fill="#048028" d="M301.113,42.933v3.625h-0.285c-0.094-0.696-0.262-1.25-0.5-1.66c-0.24-0.415-0.582-0.74-1.025-0.984
		c-0.443-0.24-0.902-0.361-1.375-0.361c-0.537,0-0.98,0.164-1.332,0.489c-0.35,0.327-0.525,0.702-0.525,1.12
		c0,0.318,0.109,0.608,0.334,0.872c0.316,0.387,1.078,0.903,2.281,1.546c0.979,0.526,1.648,0.933,2.006,1.21
		c0.357,0.282,0.633,0.612,0.826,0.996c0.193,0.381,0.291,0.779,0.291,1.197c0,0.796-0.307,1.479-0.924,2.055
		c-0.617,0.575-1.41,0.863-2.379,0.863c-0.305,0-0.588-0.025-0.857-0.071c-0.16-0.024-0.492-0.12-0.994-0.281
		c-0.504-0.164-0.822-0.245-0.955-0.245c-0.129,0-0.23,0.04-0.305,0.118c-0.074,0.077-0.131,0.234-0.166,0.479h-0.287v-3.598h0.287
		c0.133,0.755,0.314,1.318,0.541,1.688c0.227,0.376,0.574,0.688,1.039,0.936c0.467,0.247,0.979,0.37,1.537,0.37
		c0.643,0,1.154-0.17,1.525-0.511c0.375-0.34,0.563-0.742,0.563-1.206c0-0.26-0.07-0.52-0.215-0.782
		c-0.141-0.263-0.361-0.508-0.66-0.733c-0.201-0.155-0.75-0.485-1.646-0.987c-0.896-0.505-1.535-0.904-1.914-1.203
		c-0.379-0.297-0.668-0.628-0.861-0.99c-0.197-0.359-0.293-0.758-0.293-1.191c0-0.752,0.287-1.4,0.865-1.945
		c0.576-0.542,1.311-0.813,2.203-0.813c0.557,0,1.148,0.136,1.771,0.408c0.289,0.13,0.492,0.195,0.611,0.195
		c0.133,0,0.242-0.04,0.328-0.121c0.084-0.08,0.152-0.241,0.205-0.482L301.113,42.933L301.113,42.933z"/>
	<path fill="#048028" d="M305.21,44.248v2.327h1.654v0.541h-1.654v4.594c0,0.46,0.066,0.771,0.197,0.929
		c0.133,0.161,0.301,0.24,0.508,0.24c0.17,0,0.334-0.053,0.496-0.161c0.158-0.104,0.281-0.26,0.369-0.466h0.301
		c-0.18,0.507-0.434,0.884-0.764,1.142c-0.332,0.253-0.672,0.384-1.021,0.384c-0.238,0-0.471-0.069-0.695-0.198
		c-0.229-0.134-0.395-0.319-0.504-0.566c-0.109-0.246-0.162-0.622-0.162-1.132v-4.765h-1.123v-0.254
		c0.283-0.114,0.574-0.306,0.871-0.578c0.295-0.269,0.561-0.591,0.793-0.962c0.117-0.195,0.283-0.554,0.494-1.074H305.21z"/>
	<path fill="#048028" d="M311.019,46.368c1.072,0,1.934,0.406,2.584,1.222c0.551,0.697,0.826,1.494,0.826,2.397
		c0,0.634-0.152,1.273-0.455,1.925c-0.305,0.649-0.725,1.141-1.26,1.47c-0.531,0.33-1.125,0.493-1.781,0.493
		c-1.066,0-1.916-0.424-2.543-1.273c-0.531-0.718-0.797-1.522-0.797-2.413c0-0.649,0.16-1.297,0.482-1.94
		c0.324-0.64,0.748-1.112,1.273-1.423C309.876,46.518,310.431,46.368,311.019,46.368 M310.779,46.868
		c-0.273,0-0.547,0.08-0.824,0.245c-0.275,0.161-0.498,0.448-0.668,0.854c-0.17,0.409-0.254,0.931-0.254,1.572
		c0,1.03,0.201,1.92,0.613,2.665c0.41,0.749,0.949,1.124,1.621,1.124c0.5,0,0.912-0.207,1.236-0.619
		c0.326-0.414,0.488-1.123,0.488-2.128c0-1.256-0.271-2.245-0.813-2.97C311.812,47.116,311.345,46.868,310.779,46.868"/>
	<path fill="#048028" d="M317.546,46.368v1.593c0.594-1.063,1.201-1.593,1.824-1.593c0.283,0,0.52,0.087,0.705,0.257
		c0.184,0.173,0.277,0.374,0.277,0.601c0,0.2-0.068,0.37-0.201,0.511c-0.135,0.139-0.293,0.211-0.479,0.211
		c-0.182,0-0.385-0.091-0.607-0.27c-0.225-0.176-0.391-0.266-0.498-0.266c-0.094,0-0.191,0.053-0.303,0.154
		c-0.232,0.214-0.471,0.56-0.719,1.047v3.393c0,0.393,0.047,0.689,0.146,0.891c0.066,0.14,0.186,0.255,0.355,0.348
		s0.416,0.139,0.734,0.139v0.278h-3.627v-0.278c0.361,0,0.629-0.057,0.805-0.17c0.127-0.08,0.219-0.214,0.271-0.394
		c0.025-0.089,0.039-0.336,0.039-0.751v-2.743c0-0.826-0.018-1.318-0.053-1.477c-0.031-0.154-0.092-0.269-0.184-0.344
		c-0.092-0.07-0.203-0.107-0.338-0.107c-0.16,0-0.34,0.04-0.541,0.117l-0.076-0.278l2.143-0.866h0.324V46.368z"/>
	<path fill="#048028" d="M321.939,49.245c-0.006,1.052,0.25,1.874,0.766,2.475c0.514,0.597,1.121,0.897,1.816,0.897
		c0.465,0,0.869-0.13,1.211-0.383c0.344-0.257,0.631-0.693,0.863-1.313l0.238,0.154c-0.107,0.708-0.422,1.35-0.943,1.932
		c-0.521,0.578-1.172,0.868-1.955,0.868c-0.85,0-1.58-0.33-2.186-0.993c-0.605-0.661-0.908-1.553-0.908-2.673
		c0-1.208,0.311-2.156,0.932-2.834c0.621-0.677,1.4-1.017,2.34-1.017c0.793,0,1.445,0.263,1.957,0.785s0.764,1.222,0.764,2.101
		H321.939z M321.939,48.797h3.279c-0.027-0.456-0.08-0.773-0.162-0.961c-0.131-0.29-0.324-0.516-0.578-0.68
		c-0.254-0.167-0.521-0.247-0.799-0.247c-0.428,0-0.811,0.164-1.148,0.497C322.193,47.738,321.996,48.202,321.939,48.797"/>
	<g>
		<path fill="#048028" d="M318.873,35.802h-1.861v5.232h-1.15v-5.232H314v-0.944h4.873V35.802z"/>
		<path fill="#048028" d="M326.382,34.858v6.177h-1.012v-3.989c0-0.16,0.008-0.332,0.025-0.518l-1.867,3.507
			c-0.088,0.169-0.223,0.253-0.406,0.253h-0.162c-0.182,0-0.316-0.084-0.404-0.253l-1.889-3.52c0.008,0.095,0.016,0.187,0.021,0.278
			c0.006,0.091,0.008,0.175,0.008,0.252v3.989h-1.012v-6.177h0.867c0.051,0,0.096,0.002,0.133,0.005s0.07,0.01,0.1,0.021
			c0.029,0.012,0.057,0.03,0.082,0.056c0.023,0.026,0.047,0.061,0.07,0.103l1.85,3.431c0.047,0.091,0.092,0.185,0.133,0.281
			c0.043,0.097,0.082,0.196,0.123,0.299c0.039-0.104,0.08-0.207,0.123-0.305c0.043-0.099,0.088-0.193,0.137-0.284l1.824-3.422
			c0.023-0.042,0.047-0.076,0.072-0.103c0.025-0.025,0.055-0.044,0.084-0.056c0.029-0.011,0.063-0.018,0.1-0.021
			s0.082-0.005,0.133-0.005H326.382z"/>
	</g>
</g>
</svg>
